<svg xmlns="http://www.w3.org/2000/svg" xmlns:xlink="http://www.w3.org/1999/xlink" viewBox="0 0 182.92 122.4"><defs><style>.cls-1{fill:#006837;}.cls-2{fill:#4d4d4d;}.cls-3{fill:#b52126;}.cls-4{fill:#fff;}.cls-5{fill:#06f;}.cls-6{fill:#ddb260;}.cls-7{fill:#dd959d;}.cls-8{fill:#f7931e;}</style><symbol id="Check" data-name="Check" viewBox="0 0 36.87 28.84"><polygon class="cls-1" points="13.9 14.97 7.21 7.87 0 15.25 0 15.25 13.91 28.84 36.87 5.33 31.5 0 13.9 14.97"/></symbol></defs><g id="Layer_2" data-name="Layer 2"><g id="Layer_1-2" data-name="Layer 1"><path class="cls-2" d="M89,.09h.7l1.43,6.67h-.89L90,5.46H88.65l-.26,1.3h-.86Zm.86,4.68-.2-1.07c-.13-.72-.24-1.49-.32-2.32,0,.4-.09.81-.16,1.22s-.14.85-.22,1.31l-.17.86Z"/><path class="cls-2" d="M93.21,3.25h1.64v.26a6.66,6.66,0,0,1-.34,2.63,1.28,1.28,0,0,1-1.26.71,1.42,1.42,0,0,1-1.37-.78,6.28,6.28,0,0,1-.4-2.62,6,6,0,0,1,.44-2.8A1.42,1.42,0,0,1,93.2,0a1.5,1.5,0,0,1,1,.32,2.09,2.09,0,0,1,.58,1.05L94,1.72a2.86,2.86,0,0,0-.12-.45A1.41,1.41,0,0,0,93.69,1a.63.63,0,0,0-.5-.2c-.3,0-.5.19-.61.55a8.72,8.72,0,0,0-.17,2.08,8.24,8.24,0,0,0,.17,2.06.66.66,0,0,0,.64.54.62.62,0,0,0,.6-.39A3.42,3.42,0,0,0,94,4.33V4h-.79Z"/><path class="cls-2" d="M95.74.09h.9V6.76h-.9Z"/><path class="cls-2" d="M97.67.09h.9V6H100v.76H97.67Z"/><path class="cls-2" d="M100.6.09H103V.85h-1.5V3h1.33v.76H101.5V6H103v.76h-2.4Z"/><polygon class="cls-3" points="179.48 98.82 160.72 88.3 160.99 109.8 179.48 98.82"/><rect class="cls-3" x="123.99" y="94.9" width="42.17" height="9.28"/><path class="cls-4" d="M124.56,24.81a48.16,48.16,0,0,0-21.77-8.74,45.1,45.1,0,0,0-4.53-.4c-.7,0-1.4-.05-2.11-.05-1.34,0-2.67.05-4,.16h0a47.3,47.3,0,0,0-5.21.71h0A48.5,48.5,0,0,0,58.68,94.9l3.47,3.8a48.5,48.5,0,1,0,62.41-73.89ZM61.63,94.9h38.53a1.9,1.9,0,0,1,1.34,3.24,1.81,1.81,0,0,1-.59.4l-1.25.16H65.72Z"/><path class="cls-5" d="M124.56,24.81a47,47,0,0,0-21.8-9.31q-2.24-.33-4.53-.45c-.83,0-1.66-.07-2.5-.07s-1.63,0-2.44.07l-1.36.09V25.73c.59-.07,1.18-.11,1.78-.15s1.34,0,2,0c1,0,2.06,0,3.07.12a35.57,35.57,0,0,1,4.53.67,36.69,36.69,0,0,1-2.42,72.22l-1.25.16a36.88,36.88,0,0,1-7.86,0H65.72a47,47,0,0,0,25.57,10.54q2.19.21,4.44.21t4.44-.21c.53,0,1.06-.1,1.58-.17a47.23,47.23,0,0,0,22.81-84.26Z"/><path class="cls-6" d="M88.4,16h0A47.24,47.24,0,0,0,61.63,95.32H79a36.69,36.69,0,0,1,10.6-68.86c.76-.13,1.52-.24,2.29-.31V15.56C90.75,15.65,89.57,15.79,88.4,16Z"/><polygon class="cls-4" points="79.9 21.08 99.07 30.83 97.92 9.35 79.9 21.08"/><polygon class="cls-5" points="84.39 20.84 103.56 30.59 102.41 9.11 84.39 20.84"/><polygon class="cls-4" points="65.72 98.7 62.15 98.7 58.68 94.9 61.63 94.9 65.72 98.7"/><path class="cls-4" d="M100.91,98.54a1.9,1.9,0,0,1-.75.16h-.5Z"/><path class="cls-5" d="M103.32,101.16v5.61a2.47,2.47,0,0,1-2.47,2.47H51a2.37,2.37,0,0,1-.65-.09,2.48,2.48,0,0,1-1.69-1.61,2.43,2.43,0,0,1-.12-.77v-5.61A2.47,2.47,0,0,1,51,98.7h49.89A2.46,2.46,0,0,1,103.32,101.16Z"/><polygon class="cls-4" points="59.98 103.4 41.23 92.88 41.49 114.39 59.98 103.4"/><polygon class="cls-7" points="55.49 103.46 36.73 92.94 37 114.44 55.49 103.46"/><rect class="cls-7" y="99.54" width="42.17" height="9.28"/><path class="cls-2" d="M13.07,114v.88a1.34,1.34,0,0,0-.74-.29.74.74,0,0,0-.58.25.88.88,0,0,0-.22.63,1,1,0,0,0,.16.6,2,2,0,0,0,.27.35l.49.51a4,4,0,0,1,.74,1,2.07,2.07,0,0,1,.2,1,1.84,1.84,0,0,1-.43,1.27,1.43,1.43,0,0,1-1.12.49,1.53,1.53,0,0,1-1-.31v-.89a1.55,1.55,0,0,0,.87.35.68.68,0,0,0,.57-.25,1,1,0,0,0,.21-.66,1.28,1.28,0,0,0-.16-.65,1.78,1.78,0,0,0-.23-.32c-.1-.12-.22-.25-.37-.4l-.56-.6a2.52,2.52,0,0,1-.33-.45,2,2,0,0,1-.21-1,1.8,1.8,0,0,1,.4-1.24,1.43,1.43,0,0,1,1.11-.47A2,2,0,0,1,13.07,114Z"/><path class="cls-2" d="M14.13,114.84H15v1.26h.45v.65H15v3.82h-.83v-3.82h-.45v-.65h.45Z"/><path class="cls-2" d="M18.63,118.37c0,1.51-.47,2.27-1.41,2.27s-1.4-.77-1.4-2.3.46-2.32,1.4-2.32a1.39,1.39,0,0,1,.63.14,1.11,1.11,0,0,1,.43.43,2,2,0,0,1,.26.73A5.26,5.26,0,0,1,18.63,118.37Zm-.86,0a4.27,4.27,0,0,0-.12-1.23.42.42,0,0,0-.41-.35.44.44,0,0,0-.42.35,4.12,4.12,0,0,0-.12,1.2,4,4,0,0,0,.12,1.2.42.42,0,0,0,.83,0A3.87,3.87,0,0,0,17.77,118.35Z"/><path class="cls-2" d="M19.4,116.1h.82v.55a1.52,1.52,0,0,1,.42-.49,1.08,1.08,0,0,1,.55-.17v.87l-.15,0a.78.78,0,0,0-.63.23,1.24,1.24,0,0,0-.19.79v2.71H19.4Z"/><path class="cls-2" d="M21.56,116.1h.93l.66,3.12.77-3.12h.84l-1.83,6.3h-.87l.69-2.19Z"/><path class="cls-2" d="M88.8,113.89h2.93v.79h-1v5.89h-.88v-5.89h-1Z"/><path class="cls-2" d="M94.57,118.37c0,1.51-.47,2.27-1.41,2.27s-1.41-.77-1.41-2.3.47-2.32,1.41-2.32a1.32,1.32,0,0,1,.62.14,1.07,1.07,0,0,1,.44.43,2.23,2.23,0,0,1,.26.73A5.26,5.26,0,0,1,94.57,118.37Zm-.86,0a4.27,4.27,0,0,0-.12-1.23c-.08-.23-.21-.35-.41-.35a.44.44,0,0,0-.42.35,4.12,4.12,0,0,0-.12,1.2,4,4,0,0,0,.12,1.2.42.42,0,0,0,.83,0A3.87,3.87,0,0,0,93.71,118.35Z"/><path class="cls-2" d="M99.72,113.22v7.35H98.9V120a1.43,1.43,0,0,1-.36.5.73.73,0,0,1-.47.14.85.85,0,0,1-.81-.57,4.62,4.62,0,0,1-.26-1.79,7.31,7.31,0,0,1,.06-1,2.76,2.76,0,0,1,.2-.71,1,1,0,0,1,.34-.41,1,1,0,0,1,.49-.13.75.75,0,0,1,.45.13.94.94,0,0,1,.18.17,2.27,2.27,0,0,1,.18.28v-3.38Zm-1.86,5.09a4.49,4.49,0,0,0,.11,1.24.44.44,0,0,0,.43.35c.18,0,.31-.12.4-.37a4.37,4.37,0,0,0,.12-1.19,4.44,4.44,0,0,0-.12-1.21c-.09-.24-.22-.36-.4-.36a.44.44,0,0,0-.42.35A3.9,3.9,0,0,0,97.86,118.31Z"/><path class="cls-2" d="M103.3,118.37c0,1.51-.46,2.27-1.4,2.27s-1.41-.77-1.41-2.3.47-2.32,1.4-2.32a1.33,1.33,0,0,1,.63.14,1.07,1.07,0,0,1,.44.43,2.23,2.23,0,0,1,.26.73A5.34,5.34,0,0,1,103.3,118.37Zm-.85,0a4.27,4.27,0,0,0-.12-1.23c-.08-.23-.21-.35-.41-.35a.44.44,0,0,0-.42.35,4.12,4.12,0,0,0-.12,1.2,4,4,0,0,0,.12,1.2.42.42,0,0,0,.83,0A3.87,3.87,0,0,0,102.45,118.35Z"/><path class="cls-2" d="M147.11,54.53h1.11a2.66,2.66,0,0,1,.85.11,1.4,1.4,0,0,1,.57.38,2.37,2.37,0,0,1,.53,1.09,7.88,7.88,0,0,1,.16,1.84,7.41,7.41,0,0,1-.17,1.8,2.06,2.06,0,0,1-.57,1,2.69,2.69,0,0,1-1.76.43h-.72Zm.9,5.89a1.15,1.15,0,0,0,1.1-.5,4.4,4.4,0,0,0,.28-1.93,5.71,5.71,0,0,0-.27-2.13,1,1,0,0,0-1-.58H148Z"/><path class="cls-2" d="M152.91,59.7h.77c-.06,1-.49,1.57-1.3,1.57a1.28,1.28,0,0,1-.61-.13,1.08,1.08,0,0,1-.43-.42,2.26,2.26,0,0,1-.25-.71,6.07,6.07,0,0,1-.08-1,3.59,3.59,0,0,1,.33-1.75,1.11,1.11,0,0,1,1-.57c.89,0,1.34.78,1.34,2.36v.11h-1.89c0,1,.19,1.43.57,1.43S152.91,60.27,152.91,59.7Zm0-1.17a3.17,3.17,0,0,0-.16-.92.38.38,0,0,0-.37-.25.36.36,0,0,0-.36.25,3.17,3.17,0,0,0-.16.92Z"/><path class="cls-2" d="M154,56.73h.89l.32,1.42a8.17,8.17,0,0,1,.17.91,10.29,10.29,0,0,1,.11,1,1.16,1.16,0,0,0,0-.15l.1-.67c0-.25.11-.63.22-1.14l.3-1.42h.8l-1.17,4.47h-.56Z"/><path class="cls-2" d="M159.08,59.7h.77c-.06,1-.5,1.57-1.3,1.57a1.35,1.35,0,0,1-.62-.13,1.06,1.06,0,0,1-.42-.42,2,2,0,0,1-.25-.71,6.07,6.07,0,0,1-.08-1,3.59,3.59,0,0,1,.33-1.75,1.1,1.1,0,0,1,1-.57c.9,0,1.35.78,1.35,2.36v.11H158c0,1,.19,1.43.57,1.43S159.08,60.27,159.08,59.7ZM159,58.53a2.59,2.59,0,0,0-.16-.92.38.38,0,0,0-.72,0,2.85,2.85,0,0,0-.16.92Z"/><path class="cls-2" d="M160.61,53.86h.83V61.2h-.83Z"/><path class="cls-2" d="M165,59c0,1.52-.47,2.27-1.41,2.27s-1.4-.76-1.4-2.3.47-2.31,1.4-2.31a1.39,1.39,0,0,1,.63.13,1.21,1.21,0,0,1,.44.43,2.48,2.48,0,0,1,.26.73A6.41,6.41,0,0,1,165,59Zm-.86,0a4.79,4.79,0,0,0-.11-1.23.44.44,0,0,0-.42-.35c-.19,0-.33.12-.42.35a6.66,6.66,0,0,0,0,2.41.45.45,0,0,0,.42.34c.2,0,.33-.11.41-.34A3.82,3.82,0,0,0,164.16,59Z"/><path class="cls-2" d="M165.79,63V56.73h.83v.58a1.28,1.28,0,0,1,.35-.51.72.72,0,0,1,.48-.14.86.86,0,0,1,.81.57,4.69,4.69,0,0,1,.25,1.79,4,4,0,0,1-.26,1.72.87.87,0,0,1-.84.53.79.79,0,0,1-.45-.12.91.91,0,0,1-.17-.17,1.48,1.48,0,0,1-.17-.28V63Zm1.87-4a4.21,4.21,0,0,0-.12-1.24.44.44,0,0,0-.42-.35c-.19,0-.33.12-.41.37a6.06,6.06,0,0,0,0,2.4c.08.24.22.36.41.36s.33-.12.42-.35A3.9,3.9,0,0,0,167.66,59Z"/><path class="cls-2" d="M169.28,56.73h.83v.55a1,1,0,0,1,.91-.62.83.83,0,0,1,.84.62,1,1,0,0,1,.93-.62,1,1,0,0,1,.72.24,1,1,0,0,1,.25.74V61.2h-.83V58.26a1.5,1.5,0,0,0-.1-.68.36.36,0,0,0-.35-.18.44.44,0,0,0-.41.18,1.52,1.52,0,0,0-.1.68V61.2h-.86V58.26c0-.16,0-.29,0-.4a.86.86,0,0,0-.08-.27.4.4,0,0,0-.15-.14.48.48,0,0,0-.22-.05.45.45,0,0,0-.41.2,1.33,1.33,0,0,0-.12.66V61.2h-.83Z"/><path class="cls-2" d="M176.42,59.7h.77c-.06,1-.49,1.57-1.3,1.57a1.31,1.31,0,0,1-.61-.13,1.15,1.15,0,0,1-.43-.42,2.26,2.26,0,0,1-.25-.71,6.07,6.07,0,0,1-.08-1,3.59,3.59,0,0,1,.33-1.75,1.12,1.12,0,0,1,1-.57c.89,0,1.34.78,1.34,2.36v.11h-1.89c0,1,.19,1.43.57,1.43S176.42,60.27,176.42,59.7Zm0-1.17a3.17,3.17,0,0,0-.16-.92.38.38,0,0,0-.36-.25.37.37,0,0,0-.37.25,3.17,3.17,0,0,0-.16.92Z"/><path class="cls-2" d="M178,56.73h.82v.51a1.06,1.06,0,0,1,.92-.58.83.83,0,0,1,.78.42,2.21,2.21,0,0,1,.13.94V61.2h-.83v-3a1.38,1.38,0,0,0-.11-.64.39.39,0,0,0-.37-.19.43.43,0,0,0-.24,0,.31.31,0,0,0-.16.16.92.92,0,0,0-.09.28,2.76,2.76,0,0,0,0,.44V61.2H178Z"/><path class="cls-2" d="M181.64,55.47h.83v1.26h.45v.66h-.45V61.2h-.83V57.39h-.45v-.66h.45Z"/><path class="cls-2" d="M9.94,57.06h2.93v.78h-1v5.89H11V57.84h-1Z"/><path class="cls-2" d="M14.79,62.23h.77c-.06,1.05-.49,1.57-1.3,1.57a1.28,1.28,0,0,1-.61-.13,1.08,1.08,0,0,1-.43-.42,2.26,2.26,0,0,1-.25-.71,6.07,6.07,0,0,1-.08-1,3.59,3.59,0,0,1,.33-1.75,1.11,1.11,0,0,1,1-.57c.89,0,1.34.79,1.34,2.37v.1H13.7c0,1,.19,1.43.57,1.43S14.79,62.8,14.79,62.23Zm0-1.17a3.17,3.17,0,0,0-.16-.92.38.38,0,0,0-.37-.25.36.36,0,0,0-.36.25,3.17,3.17,0,0,0-.16.92Z"/><path class="cls-2" d="M18.06,59.35v.77a1.08,1.08,0,0,0-.64-.22.52.52,0,0,0-.21,0,.44.44,0,0,0-.16.1.61.61,0,0,0-.12.16.71.71,0,0,0,0,.2c0,.21.2.47.58.76a3.64,3.64,0,0,1,.39.34,1.47,1.47,0,0,1,.24.29,1.31,1.31,0,0,1,.17.69,1.33,1.33,0,0,1-.35,1,1.23,1.23,0,0,1-.93.36,1.48,1.48,0,0,1-.73-.21v-.8a1.16,1.16,0,0,0,.68.27.5.5,0,0,0,.57-.56.61.61,0,0,0-.11-.36,1,1,0,0,0-.15-.17L17,61.75a3.11,3.11,0,0,1-.71-.68,1.27,1.27,0,0,1-.18-.69,1.22,1.22,0,0,1,.33-.88,1.17,1.17,0,0,1,.88-.35A1.55,1.55,0,0,1,18.06,59.35Z"/><path class="cls-2" d="M19.07,58h.83v1.25h.45v.66H19.9v3.81h-.83V59.92h-.45v-.66h.45Z"/><path class="cls-2" d="M21.33,57.36a.55.55,0,0,1,.55.55.54.54,0,0,1-.16.4.54.54,0,0,1-.4.17.56.56,0,0,1-.56-.57.54.54,0,0,1,.17-.39A.57.57,0,0,1,21.33,57.36Zm-.39,1.9h.83v4.47h-.83Z"/><path class="cls-2" d="M22.7,59.26h.83v.51a1,1,0,0,1,.91-.58.81.81,0,0,1,.78.42,2.25,2.25,0,0,1,.13.94v3.18h-.82v-3a1.38,1.38,0,0,0-.11-.64.38.38,0,0,0-.37-.19.47.47,0,0,0-.24.05.35.35,0,0,0-.16.16.92.92,0,0,0-.09.28c0,.12,0,.27,0,.44v2.89H22.7Z"/><path class="cls-2" d="M28,59.26h.83v4.62A3,3,0,0,1,28.69,65a1.25,1.25,0,0,1-1.22.59,1.2,1.2,0,0,1-1.29-1.28v-.13H27c0,.47.17.71.53.71a.41.41,0,0,0,.39-.18,1.51,1.51,0,0,0,.11-.69v-.86a.86.86,0,0,1-.81.61.88.88,0,0,1-.83-.54,4.21,4.21,0,0,1-.26-1.7,4.87,4.87,0,0,1,.25-1.82.86.86,0,0,1,.84-.55.73.73,0,0,1,.45.13,1.82,1.82,0,0,1,.36.47Zm0,2.28c0-1.07-.18-1.61-.55-1.61q-.27,0-.39.36A4.08,4.08,0,0,0,27,61.45a4.18,4.18,0,0,0,.13,1.24.45.45,0,0,0,.43.37.4.4,0,0,0,.39-.33A3.91,3.91,0,0,0,28,61.54Z"/><path class="cls-2" d="M145,113.89h1.11a2.64,2.64,0,0,1,.85.12,1.4,1.4,0,0,1,.57.38,2.5,2.5,0,0,1,.54,1.08,8.58,8.58,0,0,1,.16,1.85,7.46,7.46,0,0,1-.18,1.8,2,2,0,0,1-.57,1,2.62,2.62,0,0,1-1.75.44H145Zm.9,5.89a1.15,1.15,0,0,0,1.1-.49,4.42,4.42,0,0,0,.28-1.94,5.65,5.65,0,0,0-.27-2.12,1,1,0,0,0-1-.58h-.11Z"/><path class="cls-2" d="M151.72,118.37c0,1.51-.47,2.27-1.41,2.27s-1.41-.77-1.41-2.3.47-2.32,1.41-2.32a1.32,1.32,0,0,1,.62.14,1.07,1.07,0,0,1,.44.43,2.23,2.23,0,0,1,.26.73A5.26,5.26,0,0,1,151.72,118.37Zm-.86,0a4.27,4.27,0,0,0-.12-1.23c-.08-.23-.21-.35-.41-.35a.44.44,0,0,0-.42.35,4.12,4.12,0,0,0-.12,1.2,4,4,0,0,0,.12,1.2.42.42,0,0,0,.83,0A3.87,3.87,0,0,0,150.86,118.35Z"/><path class="cls-2" d="M152.48,116.1h.83v.51a1.06,1.06,0,0,1,.92-.59.82.82,0,0,1,.78.43,2.36,2.36,0,0,1,.13.94v3.18h-.83v-3a1.46,1.46,0,0,0-.11-.65.41.41,0,0,0-.37-.19.54.54,0,0,0-.24.05.41.41,0,0,0-.16.16,1,1,0,0,0-.09.29,2.76,2.76,0,0,0,0,.44v2.89h-.83Z"/><path class="cls-2" d="M157.8,119.06h.77c-.06,1-.49,1.58-1.3,1.58a1.28,1.28,0,0,1-.61-.13,1,1,0,0,1-.43-.42,2.11,2.11,0,0,1-.25-.71,6.07,6.07,0,0,1-.08-1,3.64,3.64,0,0,1,.33-1.76,1.1,1.1,0,0,1,1-.57q1.35,0,1.35,2.37v.11h-1.89c0,1,.19,1.43.57,1.43S157.8,119.64,157.8,119.06Zm0-1.16a3.34,3.34,0,0,0-.16-.93.39.39,0,0,0-.37-.24.37.37,0,0,0-.36.24,3,3,0,0,0-.16.93Z"/><path class="cls-8" d="M116.44,62.41c0-.48,0-1,0-1.44l4.22-.89-1.26-6L115.1,55a21.76,21.76,0,0,0-1.51-3.2L117.07,49l-3.78-4.85-3.5,2.73a22,22,0,0,0-2.72-2.2l2-4L103.51,38l-2,4.06a20.9,20.9,0,0,0-3.37-.78V36.7H92v4.57c-.58.08-1.14.19-1.7.31l-1.67-4.27L82.9,39.55l1.66,4.26a21.18,21.18,0,0,0-2.84,1.93l-3.39-3.11-4.16,4.53,3.35,3.08a20.64,20.64,0,0,0-1.74,3l-4.36-1.3-1.75,5.9L74,59.11a21,21,0,0,0-.25,3.3v.17l-4.43.75,1,6.07,4.34-.73A21.66,21.66,0,0,0,76,71.94L72.39,74.5l3.58,5L79.48,77a20.79,20.79,0,0,0,2.64,2.4l-2.05,3.79,5.41,2.92,2-3.72a21,21,0,0,0,3.47,1l-.18,4.23,6.15.25.17-4.18a20.07,20.07,0,0,0,3.57-.65l1.68,3.84L108,84.39l-1.68-3.81a21.2,21.2,0,0,0,2.9-2.16l3.21,2.71,4-4.7-3.2-2.71a21.54,21.54,0,0,0,1.64-3.21l4.12,1,1.5-6-4.13-1C116.4,63.84,116.44,63.13,116.44,62.41ZM94.81,77.25a14.85,14.85,0,1,1,14.84-14.84A14.85,14.85,0,0,1,94.81,77.25Z"/><use width="36.87" height="28.84" transform="translate(87.61 57.63) scale(0.42 0.42)" xlink:href="#Check"/></g></g></svg>