<svg xmlns="http://www.w3.org/2000/svg" xmlns:xlink="http://www.w3.org/1999/xlink" viewBox="0 0 145.85 145.85"><defs><style>.cls-1{fill:none;}.cls-2{clip-path:url(#clip-path);}.cls-3{fill:#0071bc;}.cls-4{fill:#fff;}</style><clipPath id="clip-path" transform="translate(0 0)"><rect class="cls-1" width="145.85" height="145.85"/></clipPath></defs><g id="Layer_2" data-name="Layer 2"><g id="Layer_1-2" data-name="Layer 1"><g class="cls-2"><g id="Group_449" data-name="Group 449"><path id="Path_1317" data-name="Path 1317" class="cls-3" d="M130.39,145.85H15.46A15.42,15.42,0,0,1,0,130.46H0V15.39A15.42,15.42,0,0,1,15.46,0H130.39a15.42,15.42,0,0,1,15.46,15.39V130.46a15.42,15.42,0,0,1-15.46,15.39" transform="translate(0 0)"/><path id="Path_1318" data-name="Path 1318" class="cls-4" d="M43.86,78.44H33.23L31.11,85H25.72L35.81,54.72h5.52L51.38,85H46.05Zm-9.15-4.57h7.64L38.5,62.2Z" transform="translate(0 0)"/><path id="Path_1319" data-name="Path 1319" class="cls-4" d="M57.45,77.54A3.6,3.6,0,0,0,58.19,80a2.67,2.67,0,0,0,2.15.84,2.75,2.75,0,0,0,1.46-.36,3.25,3.25,0,0,0,1-.94,5.12,5.12,0,0,0,.53-1.41,7.8,7.8,0,0,0,.17-1.66V54.72H69V76.46a11.08,11.08,0,0,1-.72,4.26,7.71,7.71,0,0,1-1.91,2.83,7.19,7.19,0,0,1-2.81,1.52,12,12,0,0,1-3.32.47,10.21,10.21,0,0,1-3.87-.66,7.22,7.22,0,0,1-2.59-1.74,6.92,6.92,0,0,1-1.44-2.58,10.23,10.23,0,0,1-.45-3V74.76h5.52Z" transform="translate(0 0)"/><path id="Path_1320" data-name="Path 1320" class="cls-4" d="M89,78.44H78.32L76.2,85H70.81L80.89,54.72h5.52L96.46,85H91.13ZM79.8,73.87h7.64L83.59,62.2Z" transform="translate(0 0)"/><path id="Path_1321" data-name="Path 1321" class="cls-4" d="M108.12,64.76l6-10H120l-9,14.83L120.35,85h-5.81l-6.42-10.61-6.36,10.55H96l9.24-15.35L96.27,54.75h5.81Z" transform="translate(0 0)"/></g></g></g></g></svg>