<svg xmlns="http://www.w3.org/2000/svg" xmlns:xlink="http://www.w3.org/1999/xlink" viewBox="0 0 152.45 152.08"><defs><style>.cls-1{fill:none;}.cls-2{clip-path:url(#clip-path);}.cls-3{fill:#e23237;}.cls-4{fill:#fff;}</style><clipPath id="clip-path" transform="translate(0.43 0.24)"><rect class="cls-1" width="151.59" height="151.59"/></clipPath></defs><g id="Layer_2" data-name="Layer 2"><g id="Layer_1-2" data-name="Layer 1"><g id="Group_458" data-name="Group 458"><g class="cls-2"><g id="Group_457" data-name="Group 457"><path id="Path_1323" data-name="Path 1323" class="cls-3" d="M135.86,151.84H15.73A16.11,16.11,0,0,1-.43,135.79h0V15.8a16.1,16.1,0,0,1,16.16-16H135.86A16.1,16.1,0,0,1,152,15.8v120a16.09,16.09,0,0,1-16.16,16" transform="translate(0.43 0.24)"/><path id="Path_1324" data-name="Path 1324" class="cls-4" d="M73.38,25.8,31.05,119.32l15.81-.26L55.36,98h38l9.31,21.36,15.11.27Zm.11,30,14.3,29.7H60.9Z" transform="translate(0.43 0.24)"/></g></g></g></g></g></svg>