<svg xmlns="http://www.w3.org/2000/svg" xmlns:xlink="http://www.w3.org/1999/xlink" viewBox="0 0 148.15 147.77"><defs><style>.cls-1{fill:none;}.cls-2{clip-path:url(#clip-path);}.cls-3{fill:#ccc;}.cls-4{fill:#252f3e;}.cls-5{fill:#f90;}</style><clipPath id="clip-path" transform="translate(0.15 -0.04)"><rect class="cls-1" width="147.85" height="147.85"/></clipPath></defs><g id="Layer_2" data-name="Layer 2"><g id="Layer_1-2" data-name="Layer 1"><g id="Group_470" data-name="Group 470"><g class="cls-2"><g id="Group_469" data-name="Group 469"><path id="Path_1369" data-name="Path 1369" class="cls-3" d="M132.3,147.81H15.55A15.64,15.64,0,0,1-.15,132.23h0V15.63A15.64,15.64,0,0,1,15.54,0H132.3A15.65,15.65,0,0,1,148,15.62h0V132.22a15.65,15.65,0,0,1-15.7,15.59h0" transform="translate(0.15 -0.04)"/><path id="Path_1370" data-name="Path 1370" class="cls-4" d="M57.21,70.7a10,10,0,0,0,.36,2.88,17.86,17.86,0,0,0,1,2.32,1.33,1.33,0,0,1,.23.75,1.28,1.28,0,0,1-.62,1l-2,1.35a1.55,1.55,0,0,1-.85.29,1.57,1.57,0,0,1-1-.45,10.08,10.08,0,0,1-1.17-1.52,17.42,17.42,0,0,1-1-1.91,12,12,0,0,1-9.56,4.46,8.54,8.54,0,0,1-6-15.19,11.92,11.92,0,0,1,8-2.53,26.44,26.44,0,0,1,3.45.26c1.21.16,2.44.42,3.75.71V60.73c0-2.45-.52-4.17-1.53-5.17S47.5,54.08,45,54.08a14.87,14.87,0,0,0-3.52.42A25.93,25.93,0,0,0,38,55.6a9.1,9.1,0,0,1-1.14.41,1.91,1.91,0,0,1-.52.1c-.46,0-.68-.32-.68-1V53.53a2,2,0,0,1,.23-1.14,2.51,2.51,0,0,1,.91-.67,19.09,19.09,0,0,1,4.08-1.46,19.71,19.71,0,0,1,5.07-.61c3.88,0,6.71.87,8.53,2.61s2.72,4.4,2.72,8v10.5ZM44,75.61A10.35,10.35,0,0,0,47.35,75,7.23,7.23,0,0,0,50.44,73a5.08,5.08,0,0,0,1.11-2.07,11.6,11.6,0,0,0,.32-2.81V66.73a27.76,27.76,0,0,0-3-.55,26.06,26.06,0,0,0-3.06-.2A7.52,7.52,0,0,0,41,67.28a4.59,4.59,0,0,0-1.05,6.41l0,0a4.67,4.67,0,0,0,4,1.9ZM70.14,79.1a1.82,1.82,0,0,1-1.24-.32,2.68,2.68,0,0,1-.68-1.26l-7.65-25a6.43,6.43,0,0,1-.29-1.3.7.7,0,0,1,.6-.8h0a.54.54,0,0,1,.18,0h3.19a1.8,1.8,0,0,1,1.27.32A2.68,2.68,0,0,1,66.2,52l5.44,21.4L76.71,52a1.63,1.63,0,0,1,1.65-1.61l.28,0h2.6a2,2,0,0,1,1.31.33A2.16,2.16,0,0,1,83.17,52l5.14,21.65L93.94,52a2.77,2.77,0,0,1,.68-1.26,2.2,2.2,0,0,1,1.27-.33h3a.73.73,0,0,1,.81.61.67.67,0,0,1,0,.2,3,3,0,0,1-.07.52,3.75,3.75,0,0,1-.23.81l-7.84,25a2.48,2.48,0,0,1-.68,1.26,2.08,2.08,0,0,1-1.24.32h-2.8a1.93,1.93,0,0,1-1.3-.32,2.27,2.27,0,0,1-.62-1.3l-5-20.84-5,20.81a2.43,2.43,0,0,1-.62,1.3,2,2,0,0,1-1.3.32ZM112,80a21.64,21.64,0,0,1-5-.58,14.86,14.86,0,0,1-3.75-1.29,2.34,2.34,0,0,1-1-.91,2.31,2.31,0,0,1-.2-.9V74.64c0-.67.26-1,.75-1a1.7,1.7,0,0,1,.59.1c.2.06.49.19.81.32a17.83,17.83,0,0,0,3.59,1.13,19.32,19.32,0,0,0,3.87.39,9,9,0,0,0,4.76-1.07,3.5,3.5,0,0,0,1.69-3.07,3.14,3.14,0,0,0-.88-2.27,8.31,8.31,0,0,0-3.29-1.68l-4.75-1.44a10,10,0,0,1-5.21-3.3,7.73,7.73,0,0,1-1.62-4.69,7,7,0,0,1,.88-3.58,8.3,8.3,0,0,1,2.34-2.66,10.27,10.27,0,0,1,3.4-1.67A14,14,0,0,1,113,49.6a15.94,15.94,0,0,1,2.18.13c.75.09,1.43.23,2.11.36a13.48,13.48,0,0,1,1.86.51,7.08,7.08,0,0,1,1.36.59,2.7,2.7,0,0,1,1,.81,1.69,1.69,0,0,1,.3,1.07v1.51c0,.68-.26,1-.75,1a3.33,3.33,0,0,1-1.24-.39A15.09,15.09,0,0,0,113.54,54a8.34,8.34,0,0,0-4.33.91,3.11,3.11,0,0,0-1.53,2.87,3,3,0,0,0,1,2.29,9.71,9.71,0,0,0,3.58,1.78l4.62,1.45a9.87,9.87,0,0,1,5,3.11,7.2,7.2,0,0,1,1.5,4.53,8.14,8.14,0,0,1-.85,3.75,8.79,8.79,0,0,1-2.37,2.84,10.71,10.71,0,0,1-3.62,1.81,15.64,15.64,0,0,1-4.66.67Z" transform="translate(0.15 -0.04)"/><path id="Path_1371" data-name="Path 1371" class="cls-5" d="M118.11,95.67c-10.72,7.85-26.27,12-39.64,12a72,72,0,0,1-48.4-18.32c-1-.91-.1-2.14,1.1-1.43a96.73,96.73,0,0,0,85.37,5.27C118.33,92.4,119.87,94.37,118.11,95.67Z" transform="translate(0.15 -0.04)"/></g></g></g></g></g></svg>