<svg xmlns="http://www.w3.org/2000/svg" xmlns:xlink="http://www.w3.org/1999/xlink" viewBox="0 0 147.6 147.6"><defs><style>.cls-1{fill:none;}.cls-2{clip-path:url(#clip-path);}.cls-3{fill:#0071bc;}.cls-4{fill:#fff;}</style><clipPath id="clip-path" transform="translate(0 0)"><rect class="cls-1" width="147.6" height="147.6"/></clipPath></defs><g id="Layer_2" data-name="Layer 2"><g id="Layer_1-2" data-name="Layer 1"><g class="cls-2"><g id="Group_439" data-name="Group 439"><path id="Path_1296" data-name="Path 1296" class="cls-3" d="M132,147.6H15.64A15.62,15.62,0,0,1,0,132H0V15.57A15.6,15.6,0,0,1,15.64,0H132A15.61,15.61,0,0,1,147.6,15.57V132A15.63,15.63,0,0,1,132,147.6" transform="translate(0 0)"/><path id="Path_1297" data-name="Path 1297" class="cls-4" d="M106.73,57.26,88.51,60.54a13.15,13.15,0,0,0-4.18-8.19,12.61,12.61,0,0,0-8.45-2.75,13.8,13.8,0,0,0-11,4.75q-4.11,4.74-4.11,15.88,0,12.38,4.17,17.48a13.76,13.76,0,0,0,11.22,5.11,12.51,12.51,0,0,0,8.62-3q3.36-3,4.73-10.25l18.16,3.08q-2.82,12.43-10.85,18.79T75.3,107.82q-15.33,0-24.44-9.63T41.74,71.54q0-17.22,9.14-26.82t24.74-9.59q12.75,0,20.29,5.47t10.82,16.66" transform="translate(0 0)"/></g></g></g></g></svg>