<svg xmlns="http://www.w3.org/2000/svg" xmlns:xlink="http://www.w3.org/1999/xlink" viewBox="0 0 557.17 557.12"><defs><style>.cls-1{fill:none;}.cls-2{clip-path:url(#clip-path);}.cls-3{clip-path:url(#clip-path-2);}.cls-4{fill:url(#linear-gradient);}.cls-5{clip-path:url(#clip-path-3);}.cls-6{fill:url(#linear-gradient-2);}.cls-7{opacity:0.21;}.cls-8{clip-path:url(#clip-path-5);}.cls-9{fill:#91b3fa;}.cls-10{clip-path:url(#clip-path-6);}.cls-11{fill:url(#linear-gradient-3);}.cls-12{fill:#7d97f4;}.cls-13{fill:#fff;}.cls-14{clip-path:url(#clip-path-8);}.cls-15{fill:url(#linear-gradient-4);}.cls-16{opacity:0.51;}.cls-17{clip-path:url(#clip-path-10);}.cls-18{clip-path:url(#clip-path-11);}.cls-19{clip-path:url(#clip-path-12);}.cls-20{clip-path:url(#clip-path-13);}.cls-21{clip-path:url(#clip-path-14);}.cls-22{clip-path:url(#clip-path-15);}.cls-23{clip-path:url(#clip-path-16);}.cls-24{clip-path:url(#clip-path-17);}.cls-25{opacity:0.7;}.cls-26{clip-path:url(#clip-path-18);}.cls-27{clip-path:url(#clip-path-19);}.cls-28{clip-path:url(#clip-path-20);}.cls-29{clip-path:url(#clip-path-21);}.cls-30{clip-path:url(#clip-path-22);}.cls-31{fill:url(#linear-gradient-5);}.cls-32{opacity:0.61;}.cls-33{clip-path:url(#clip-path-24);}.cls-34{clip-path:url(#clip-path-25);}.cls-35{clip-path:url(#clip-path-26);}.cls-36{clip-path:url(#clip-path-27);}.cls-37{fill:url(#linear-gradient-6);}.cls-38{clip-path:url(#clip-path-29);}.cls-39{fill:url(#linear-gradient-7);}.cls-40{clip-path:url(#clip-path-31);}.cls-41{fill:url(#linear-gradient-8);}.cls-42{clip-path:url(#clip-path-32);}.cls-43{fill:url(#linear-gradient-9);}.cls-44{clip-path:url(#clip-path-33);}.cls-45{fill:url(#linear-gradient-10);}.cls-46{clip-path:url(#clip-path-34);}.cls-47{fill:url(#linear-gradient-11);}.cls-48{clip-path:url(#clip-path-35);}.cls-49{fill:url(#linear-gradient-12);}.cls-50{clip-path:url(#clip-path-36);}.cls-51{fill:url(#linear-gradient-13);}.cls-52{clip-path:url(#clip-path-37);}.cls-53{fill:url(#linear-gradient-14);}.cls-54{clip-path:url(#clip-path-38);}.cls-55{fill:url(#linear-gradient-15);}.cls-56{clip-path:url(#clip-path-40);}.cls-57{fill:url(#linear-gradient-16);}.cls-58{clip-path:url(#clip-path-41);}.cls-59{fill:url(#linear-gradient-17);}.cls-60{clip-path:url(#clip-path-42);}.cls-61{fill:url(#linear-gradient-18);}.cls-62{clip-path:url(#clip-path-43);}.cls-63{fill:url(#linear-gradient-19);}</style><clipPath id="clip-path" transform="translate(143.12 132.89)"><rect class="cls-1" width="274.63" height="276.37"/></clipPath><clipPath id="clip-path-2" transform="translate(143.12 132.89)"><path class="cls-1" d="M30.2,70.58C-5.92,127.13,3.66,207.36,48.44,247.89c23.26,21,49.53,25.5,59.11,27.08,58.9,9.21,126.81-24.92,152.34-85.83,16.62-39.7,14.71-88.94-7.57-124.28a123.2,123.2,0,0,0-24.78-28.52c-32.5-27.18-69.4-28.77-79.1-29h-3.21c-43.84-.13-89.37,23.11-115,63.22"/></clipPath><linearGradient id="linear-gradient" x1="17.3" y1="58.85" x2="18.1" y2="58.85" gradientTransform="translate(-8615.97 -28997.38) scale(494.57 495.22)" gradientUnits="userSpaceOnUse"><stop offset="0" stop-color="#dae3fe"/><stop offset="1" stop-color="#e9effd"/></linearGradient><clipPath id="clip-path-3" transform="translate(143.12 132.89)"><path class="cls-1" d="M81,139.71a5.83,5.83,0,0,1-7,4.35h0a6.1,6.1,0,0,1-1.24-.44A50.37,50.37,0,0,0,1.52,177.73c-8,34.32,17.1,65,49.26,65H238.66a36.32,36.32,0,0,0,36-36.43h0v-1.52a36.06,36.06,0,0,0-31.79-34.66c-2.17-.38-3.61-1.82-3.78-5.22v-4.43c0-45.48-36-82.35-80.31-82.35-37.41,0-68.84,26.22-77.78,61.71"/></clipPath><linearGradient id="linear-gradient-2" x1="17.43" y1="58.89" x2="18.23" y2="58.89" gradientTransform="translate(-7144.33 -21312.42) scale(408.28 364.63)" gradientUnits="userSpaceOnUse"><stop offset="0" stop-color="#4f52ff"/><stop offset="1" stop-color="#4042e2"/></linearGradient><clipPath id="clip-path-5" transform="translate(143.12 132.89)"><rect class="cls-1" x="14.71" y="95.63" width="245.21" height="147.06"/></clipPath><clipPath id="clip-path-6" transform="translate(143.12 132.89)"><path class="cls-1" d="M37.86,172.82a7,7,0,0,0-2,5.08l2,87a2.8,2.8,0,0,0,2.76,2.8H190.46a2.76,2.76,0,0,0,2.77-2.74v0l1.25-86.11a4.82,4.82,0,0,0-5.07-4.28L43,170.79h-.17a7,7,0,0,0-5,2"/></clipPath><linearGradient id="linear-gradient-3" x1="17.81" y1="59.01" x2="18.6" y2="59.01" gradientTransform="translate(-4020.16 -10295.04) scale(227.16 178.18)" gradientUnits="userSpaceOnUse"><stop offset="0" stop-color="#09005d"/><stop offset="1" stop-color="#1a0f91"/></linearGradient><clipPath id="clip-path-8" transform="translate(143.12 132.89)"><rect class="cls-1" x="25.71" y="267.3" width="176.64" height="7.57" rx="3.77"/></clipPath><linearGradient id="linear-gradient-4" x1="17.47" y1="59.3" x2="18.27" y2="59.3" gradientTransform="translate(-985.93 -12618.64) scale(61.55 217.38)" xlink:href="#linear-gradient-3"/><clipPath id="clip-path-10" transform="translate(143.12 132.89)"><rect class="cls-1" x="54.76" y="209.85" width="37.68" height="4.87"/></clipPath><clipPath id="clip-path-11" transform="translate(143.12 132.89)"><rect class="cls-1" x="54.84" y="217.62" width="37.68" height="4.87"/></clipPath><clipPath id="clip-path-12" transform="translate(143.12 132.89)"><rect class="cls-1" x="55.06" y="225.56" width="37.68" height="4.87"/></clipPath><clipPath id="clip-path-13" transform="translate(143.12 132.89)"><rect class="cls-1" x="55.13" y="233.33" width="37.68" height="4.87"/></clipPath><clipPath id="clip-path-14" transform="translate(143.12 132.89)"><rect class="cls-1" x="118.6" y="209.84" width="54.18" height="4.87"/></clipPath><clipPath id="clip-path-15" transform="translate(143.12 132.89)"><rect class="cls-1" x="118.77" y="217.62" width="54.18" height="4.87"/></clipPath><clipPath id="clip-path-16" transform="translate(143.12 132.89)"><rect class="cls-1" x="118.77" y="225.56" width="32.11" height="4.87"/></clipPath><clipPath id="clip-path-17" transform="translate(143.12 132.89)"><rect class="cls-1" x="132.89" y="183.99" width="17.04" height="22.17"/></clipPath><clipPath id="clip-path-18" transform="translate(143.12 132.89)"><rect class="cls-1" x="141.42" y="37.61" width="14.83" height="14.83"/></clipPath><clipPath id="clip-path-19" transform="translate(143.12 132.89)"><rect class="cls-1" x="129.37" y="25.73" width="37.59" height="38.59"/></clipPath><clipPath id="clip-path-20" transform="translate(143.12 132.89)"><rect class="cls-1" x="201.63" y="61.7" width="8.11" height="8.11"/></clipPath><clipPath id="clip-path-21" transform="translate(143.12 132.89)"><rect class="cls-1" x="195.43" y="55.6" width="19.77" height="20.31"/></clipPath><clipPath id="clip-path-22" transform="translate(143.12 132.89)"><path class="cls-1" d="M192.79,90.91c-14.57,14.91-36.9,20.69-48.92,19.6a4,4,0,0,0-4.28,3.57,3.53,3.53,0,0,0,0,.46c.76,33.11-1.59,77.86,53.59,112.17a3.93,3.93,0,0,0,3.76.2C208,221.68,261.39,192,252.9,110a3.92,3.92,0,0,0-3.69-3.52c-9.33-.51-36.23-3-52.48-15.15a4.65,4.65,0,0,0-2.58-1,2,2,0,0,0-1.44.54"/></clipPath><linearGradient id="linear-gradient-5" x1="17.45" y1="59.13" x2="18.25" y2="59.13" gradientTransform="translate(-3921.41 -13501.94) scale(230.77 231.04)" gradientUnits="userSpaceOnUse"><stop offset="0" stop-color="#ff928e"/><stop offset="1" stop-color="#fe7062"/></linearGradient><clipPath id="clip-path-24" transform="translate(143.12 132.89)"><rect class="cls-1" x="145.58" y="97.46" width="102.42" height="123.51"/></clipPath><clipPath id="clip-path-25" transform="translate(143.12 132.89)"><rect class="cls-1" x="176.56" y="119.23" width="40.47" height="23.27"/></clipPath><clipPath id="clip-path-26" transform="translate(143.12 132.89)"><rect class="cls-1" x="171.02" y="144.52" width="51.54" height="41.72"/></clipPath><clipPath id="clip-path-27" transform="translate(143.12 132.89)"><path class="cls-1" d="M21.75,143.69c-.29.76-2.22,6.38-1.4,6.24A40.55,40.55,0,0,0,39,141.15c-.42-7-3.84-7.21-3.84-7.21-7.65,3.81-12,6.14-13.37,9.75"/></clipPath><linearGradient id="linear-gradient-6" x1="20.05" y1="63.97" x2="20.85" y2="63.97" gradientTransform="translate(-613.63 -1876.74) scale(31.44 31.56)" xlink:href="#linear-gradient-3"/><clipPath id="clip-path-29" transform="translate(143.12 132.89)"><path class="cls-1" d="M3.91,177c-.32,1.9.14,3.79,3.27,3.39a30.22,30.22,0,0,0,9.63-3.88A25.7,25.7,0,0,0,21,171.94l-2.42-1.44A27.1,27.1,0,0,0,3.84,177"/></clipPath><linearGradient id="linear-gradient-7" x1="22.12" y1="64.96" x2="22.14" y2="64.96" gradientTransform="translate(-558.69 -1339.21) scale(25.25 23.32)" xlink:href="#linear-gradient-3"/><clipPath id="clip-path-31" transform="translate(143.12 132.89)"><path class="cls-1" d="M51.1,129.11l-6.33-.74-1.51,2.39,14.87.47a40.68,40.68,0,0,0,19.43-18.74c.22-.45,3.92-8.11-5.08-8.78,0,0-3.62,18.19-21.43,25.39"/></clipPath><linearGradient id="linear-gradient-8" x1="18.83" y1="61.34" x2="19.63" y2="61.34" gradientTransform="translate(-1069.51 -3392.85) scale(58.86 57.23)" gradientUnits="userSpaceOnUse"><stop offset="0" stop-color="#febbba"/><stop offset="1" stop-color="#ff928e"/></linearGradient><clipPath id="clip-path-32" transform="translate(143.12 132.89)"><path class="cls-1" d="M80.59,88.63A103.85,103.85,0,0,0,70.16,103a1.38,1.38,0,0,0,.54,1.7,49.08,49.08,0,0,1,4.91,3.72,97.32,97.32,0,0,1-5.08,22.14c5.27,5.4,11.06,7.18,17.25,6.18,19.3-18.44,24.37-36.29,20.13-42.08a18.59,18.59,0,0,0-15.73-8.46,38.69,38.69,0,0,0-11.59,2.4"/></clipPath><linearGradient id="linear-gradient-9" x1="18.06" y1="60.54" x2="18.86" y2="60.54" gradientTransform="translate(-1446.82 -4912.37) scale(83.32 82.99)" xlink:href="#linear-gradient-5"/><clipPath id="clip-path-33" transform="translate(143.12 132.89)"><path class="cls-1" d="M60.36,126.49s-3.81-3.38-6.62-2.22-6.68,6.67-6.68,6.67H65.89s17.83-.61,26.73-11.42c-.71-3.78-2.91-6.11-6.11-8.62,0,0-11.48,13.54-26.15,15.59"/></clipPath><linearGradient id="linear-gradient-10" x1="18.93" y1="61.34" x2="19.73" y2="61.34" gradientTransform="translate(-1107.95 -3189.44) scale(60.92 53.97)" xlink:href="#linear-gradient-8"/><clipPath id="clip-path-34" transform="translate(143.12 132.89)"><path class="cls-1" d="M85.19,80.89l.59,7.3a1.37,1.37,0,0,0,.88,1.18,9.41,9.41,0,0,0,8.7-.88.94.94,0,0,0,.36-1L93.21,79Z"/></clipPath><linearGradient id="linear-gradient-11" x1="22.41" y1="63.88" x2="22.43" y2="63.88" gradientTransform="translate(-334.48 -954.98) scale(14.92 16.28)" xlink:href="#linear-gradient-8"/><clipPath id="clip-path-35" transform="translate(143.12 132.89)"><path class="cls-1" d="M78.5,72.29s1.24,8.7,4.57,11.36,9.84.66,12-5.87L90.73,66.57Z"/></clipPath><linearGradient id="linear-gradient-12" x1="16.59" y1="65.37" x2="17.38" y2="65.37" gradientTransform="translate(-418.19 -1695.19) scale(29.73 27.1)" xlink:href="#linear-gradient-8"/><clipPath id="clip-path-36" transform="translate(143.12 132.89)"><path class="cls-1" d="M86.32,61.56a.41.41,0,0,1-.57,0l0,0h0A4.08,4.08,0,0,0,81,60.49a4.45,4.45,0,0,0-2.86,4.9.43.43,0,0,1-.4.45h-.1c-7.3-1.37-4.51,6-1.7,7.48s7.64-1,10.84-2.74S89.69,70,89.69,70a11.43,11.43,0,0,1,1,3.38.42.42,0,0,0,.48.36h0l.81-.26a.42.42,0,0,1,.52.24l1.88,4.45a.42.42,0,0,0,.55.24h0l.15-.1c2.42-2.74,2.61-7.58,2.61-8.69a.42.42,0,0,1,.2-.35c.73-.49,3.17-2.34,1.46-4.47a2.58,2.58,0,0,0-3.39-1,.42.42,0,0,1-.57-.19h0a.34.34,0,0,1,0-.2c0-1-.37-2.61-3-3.76a5,5,0,0,0-2-.41,5.43,5.43,0,0,0-4.17,2.32"/></clipPath><linearGradient id="linear-gradient-13" x1="15.82" y1="62.86" x2="16.62" y2="62.86" gradientTransform="translate(-409.77 -2580.67) scale(30.55 42.15)" xlink:href="#linear-gradient-3"/><clipPath id="clip-path-37" transform="translate(143.12 132.89)"><path class="cls-1" d="M91.18,74.73l.44,2.32c2-.63,4.17-4,2.44-5.47a1.06,1.06,0,0,0-.69-.3c-1.34,0-2.19,3.38-2.19,3.38"/></clipPath><linearGradient id="linear-gradient-14" x1="4.57" y1="82.57" x2="4.58" y2="82.57" gradientTransform="translate(-39.28 -555.02) scale(8.59 7.62)" xlink:href="#linear-gradient-8"/><clipPath id="clip-path-38" transform="translate(143.12 132.89)"><path class="cls-1" d="M23.9,103.1l9.46,27a2.4,2.4,0,0,0,2,1.58l11.26,1.25L48,132l-8.46-28.23a2.89,2.89,0,0,0-2.57-2L25.54,101h-.15a1.69,1.69,0,0,0-1.61,1.69,2.35,2.35,0,0,0,0,.53"/></clipPath><linearGradient id="linear-gradient-15" x1="23.21" y1="60.05" x2="24" y2="60.05" gradientTransform="translate(-545.09 -2154.11) scale(30.67 40.03)" xlink:href="#linear-gradient-3"/><clipPath id="clip-path-40" transform="translate(143.12 132.89)"><path class="cls-1" d="M70.53,129.52l-24,1.22a1.07,1.07,0,0,0-1,1.11h0a1.08,1.08,0,0,0,1.07,1h0l24-1.22a1.09,1.09,0,0,0,1-1.12,1.1,1.1,0,0,0-1.08-1h0"/></clipPath><linearGradient id="linear-gradient-16" x1="16.64" y1="64.27" x2="17.43" y2="64.27" gradientTransform="translate(-158.44 -1974.27) scale(12.74 32.76)" xlink:href="#linear-gradient-3"/><clipPath id="clip-path-41" transform="translate(143.12 132.89)"><path class="cls-1" d="M77.39,96.62a51.66,51.66,0,0,0-2,11.84.18.18,0,0,0,.17.17h0a.18.18,0,0,0,.17-.17,51.34,51.34,0,0,1,1.93-11.73.15.15,0,0,0-.09-.19h0a.17.17,0,0,0-.17.12"/></clipPath><linearGradient id="linear-gradient-17" x1="9.17" y1="104.82" x2="9.19" y2="104.82" gradientTransform="translate(-140.93 -304.18) scale(15.34 3.88)" gradientUnits="userSpaceOnUse"><stop offset="0" stop-color="#e1473d"/><stop offset="1" stop-color="#e9605a"/></linearGradient><clipPath id="clip-path-42" transform="translate(143.12 132.89)"><path class="cls-1" d="M93.43,99.59a59.83,59.83,0,0,1-7.11,11.21.21.21,0,0,0,0,.24.18.18,0,0,0,.24,0,60.67,60.67,0,0,0,7.09-11.29.15.15,0,0,0-.08-.2h0a.12.12,0,0,0-.18,0,.05.05,0,0,0,0,0h0"/></clipPath><linearGradient id="linear-gradient-18" x1="13.76" y1="75.7" x2="14.56" y2="75.7" gradientTransform="translate(-123.74 -671.45) scale(15.1 10.26)" xlink:href="#linear-gradient-17"/><clipPath id="clip-path-43" transform="translate(143.12 132.89)"><path class="cls-1" d="M106,108.67c0,.1-4.62,8.93-12,12.18l-.78-1.13A.17.17,0,0,0,93,120l1,1.33h.14c7.58-3.25,12.25-12.28,12.3-12.39a.18.18,0,0,0,0-.22h-.08a.19.19,0,0,0-.15,0"/></clipPath><linearGradient id="linear-gradient-19" x1="14.26" y1="68.19" x2="15.05" y2="68.19" gradientTransform="translate(-148.78 -1104.41) scale(16.95 17.88)" xlink:href="#linear-gradient-17"/></defs><g id="Layer_2" data-name="Layer 2"><g id="Layer_1-2" data-name="Layer 1"><g id="Layer_2-2" data-name="Layer 2"><g id="Layer_1-2-2" data-name="Layer 1-2"><g class="cls-2"><g id="Group_172" data-name="Group 172"><g id="Group_73" data-name="Group 73"><g class="cls-3"><g id="Group_72" data-name="Group 72"><rect id="Rectangle_360" data-name="Rectangle 360" class="cls-4" x="-61.82" y="-51.88" width="394.57" height="395.09" transform="translate(79.75 284.57) rotate(-48.81)"/></g></g></g><g id="Group_75" data-name="Group 75"><g class="cls-5"><g id="Group_74" data-name="Group 74"><rect id="Rectangle_361" data-name="Rectangle 361" class="cls-6" x="-28.73" y="14.9" width="325.73" height="290.9" transform="translate(77.65 231.12) rotate(-32.8)"/></g></g></g><g id="Group_80" data-name="Group 80"><g class="cls-2"><g id="Group_79" data-name="Group 79"><g id="Group_78" data-name="Group 78" class="cls-7"><g id="Group_77" data-name="Group 77"><g class="cls-8"><g id="Group_76" data-name="Group 76"><path id="Path_856" data-name="Path 856" class="cls-9" d="M16.06,184.65A45,45,0,0,1,69.94,150.8a45.89,45.89,0,0,1,9.72,3.38,5.23,5.23,0,0,0,7-2.4A7,7,0,0,0,87,150.7c8-31.71,36-55.12,69.39-55.12,39.61,0,71.72,32.92,71.72,73.53v4c.15,3.05,1.44,4.34,3.39,4.66a32.6,32.6,0,0,1-3.71,64.91H60.07c-28.77,0-51.2-27.35-44-58" transform="translate(143.12 132.89)"/></g></g></g></g></g></g></g><g id="Group_82" data-name="Group 82"><g class="cls-10"><g id="Group_81" data-name="Group 81"><rect id="Rectangle_364" data-name="Rectangle 364" class="cls-11" x="24.5" y="148.18" width="181.23" height="142.15" transform="translate(79.71 180.53) rotate(-18.43)"/></g></g></g><g id="Group_84" data-name="Group 84"><g class="cls-2"><g id="Group_83" data-name="Group 83"><path id="Path_858" data-name="Path 858" class="cls-12" d="M40.62,262.36A2.64,2.64,0,0,0,43.25,265H186.87a2.65,2.65,0,0,0,2.7-2.6v0l1.16-78.17a6.45,6.45,0,0,0-6.59-6.3H184L43.62,174.14a4.89,4.89,0,0,0-5.08,4.7v.31Z" transform="translate(143.12 132.89)"/><path id="Path_859" data-name="Path 859" class="cls-13" d="M187.88,225.12h0a.39.39,0,0,1-.39-.39h0l.1-6.35A.38.38,0,0,1,188,218h0a.38.38,0,0,1,.38.37v0h0v6.35a.42.42,0,0,1-.39.37" transform="translate(143.12 132.89)"/><path id="Path_860" data-name="Path 860" class="cls-13" d="M188.15,209.62h0a.38.38,0,0,1-.37-.38h0l.36-24.28a4.62,4.62,0,0,0-1.31-3.38,6.36,6.36,0,0,0-4.25-1.44l-44.85-1.22a.36.36,0,0,1-.37-.37v0h0a.36.36,0,0,1,.34-.37h0l44.84,1.2a7.08,7.08,0,0,1,4.77,1.69,5.3,5.3,0,0,1,1.54,4l-.35,24.29a.37.37,0,0,1-.37.37h0" transform="translate(143.12 132.89)"/></g></g></g><g id="Group_86" data-name="Group 86"><g class="cls-14"><g id="Group_85" data-name="Group 85"><rect id="Rectangle_366" data-name="Rectangle 366" class="cls-15" x="89.47" y="184.35" width="49.1" height="173.43" transform="translate(-33.18 450.69) rotate(-76.33)"/></g></g></g><g id="Group_124" data-name="Group 124"><g class="cls-2"><g id="Group_123" data-name="Group 123"><path id="Path_861" data-name="Path 861" class="cls-9" d="M102.93,261.11H47.61A3.71,3.71,0,0,1,44,257.4h0V185.23a3.69,3.69,0,0,1,3.69-3.69h.13l55.32,2.11a3.68,3.68,0,0,1,3.55,3.69v70.08a3.7,3.7,0,0,1-3.7,3.69h0" transform="translate(143.12 132.89)"/><g id="Group_89" data-name="Group 89" class="cls-16"><g id="Group_88" data-name="Group 88"><g class="cls-17"><g id="Group_87" data-name="Group 87"><path id="Path_862" data-name="Path 862" class="cls-13" d="M91.93,214.71H55.3a.52.52,0,0,1-.53-.52v-3.81a.53.53,0,0,1,.53-.53H91.93a.52.52,0,0,1,.52.53v3.81a.52.52,0,0,1-.52.52" transform="translate(143.12 132.89)"/></g></g></g></g><g id="Group_92" data-name="Group 92" class="cls-16"><g id="Group_91" data-name="Group 91"><g class="cls-18"><g id="Group_90" data-name="Group 90"><path id="Path_863" data-name="Path 863" class="cls-13" d="M92,222.5H55.37a.53.53,0,0,1-.53-.53h0v-3.81a.53.53,0,0,1,.53-.53H92a.53.53,0,0,1,.53.53V222a.53.53,0,0,1-.51.54h0" transform="translate(143.12 132.89)"/></g></g></g></g><g id="Group_95" data-name="Group 95" class="cls-16"><g id="Group_94" data-name="Group 94"><g class="cls-19"><g id="Group_93" data-name="Group 93"><path id="Path_864" data-name="Path 864" class="cls-13" d="M92.21,230.42H55.59a.53.53,0,0,1-.53-.53v-3.8a.53.53,0,0,1,.53-.53H92.21a.53.53,0,0,1,.53.53v3.8a.53.53,0,0,1-.53.53" transform="translate(143.12 132.89)"/></g></g></g></g><g id="Group_98" data-name="Group 98" class="cls-16"><g id="Group_97" data-name="Group 97"><g class="cls-20"><g id="Group_96" data-name="Group 96"><path id="Path_865" data-name="Path 865" class="cls-13" d="M92.3,238.2H55.65a.52.52,0,0,1-.52-.52v-3.83a.52.52,0,0,1,.52-.52H92.3a.52.52,0,0,1,.52.52v3.83a.52.52,0,0,1-.52.52" transform="translate(143.12 132.89)"/></g></g></g></g><g id="Group_101" data-name="Group 101" class="cls-16"><g id="Group_100" data-name="Group 100"><g class="cls-21"><g id="Group_99" data-name="Group 99"><path id="Path_866" data-name="Path 866" class="cls-13" d="M172.26,214.71H119.13a.52.52,0,0,1-.53-.52v-3.83a.52.52,0,0,1,.53-.52h53.13a.52.52,0,0,1,.52.52v3.83a.52.52,0,0,1-.52.52" transform="translate(143.12 132.89)"/></g></g></g></g><g id="Group_104" data-name="Group 104" class="cls-16"><g id="Group_103" data-name="Group 103"><g class="cls-22"><g id="Group_102" data-name="Group 102"><path id="Path_867" data-name="Path 867" class="cls-13" d="M172.43,222.5H119.3a.53.53,0,0,1-.53-.53h0v-3.81a.53.53,0,0,1,.53-.53h53.13a.52.52,0,0,1,.52.53V222a.52.52,0,0,1-.5.54h0" transform="translate(143.12 132.89)"/></g></g></g></g><g id="Group_107" data-name="Group 107" class="cls-16"><g id="Group_106" data-name="Group 106"><g class="cls-23"><g id="Group_105" data-name="Group 105"><path id="Path_868" data-name="Path 868" class="cls-13" d="M150.36,230.42H119.3a.53.53,0,0,1-.53-.53v-3.8a.53.53,0,0,1,.53-.53h31.06a.52.52,0,0,1,.52.53v3.8a.52.52,0,0,1-.52.53" transform="translate(143.12 132.89)"/></g></g></g></g><g id="Group_110" data-name="Group 110" class="cls-16"><g id="Group_109" data-name="Group 109"><g class="cls-24"><g id="Group_108" data-name="Group 108"><path id="Path_869" data-name="Path 869" class="cls-13" d="M147.36,191.69h-.81a.73.73,0,0,1-.75-.71v0h0v-2.82a1.82,1.82,0,0,0-1.82-1.83H138.8a1.83,1.83,0,0,0-1.7,1.83h0V191a.74.74,0,0,1-.74.74h-1a.74.74,0,0,1-.74-.74h0v-2.81A4.14,4.14,0,0,1,138.8,184h5.07a4.14,4.14,0,0,1,4.13,4.15h0V191a.72.72,0,0,1-.71.74h0" transform="translate(143.12 132.89)"/><path id="Path_870" data-name="Path 870" class="cls-13" d="M148.39,192.37H134.45a1.55,1.55,0,0,0-1.56,1.54v10.71a1.55,1.55,0,0,0,1.56,1.54h13.94a1.54,1.54,0,0,0,1.54-1.54h0V193.91a1.54,1.54,0,0,0-1.54-1.54h0m-5,10.34a.57.57,0,0,1-.43.69h-3a.56.56,0,0,1-.57-.57.33.33,0,0,1,0-.14l.66-2.79a2.59,2.59,0,1,1,2.65,0Z" transform="translate(143.12 132.89)"/></g></g></g></g><path id="Path_871" data-name="Path 871" class="cls-9" d="M188,66.71a.34.34,0,0,1-.33-.34.38.38,0,0,1,0-.15c.22-.39.42-.78.62-1.17a.33.33,0,0,1,.47-.09.32.32,0,0,1,.14.36h0c-.2.41-.41.79-.63,1.18a.33.33,0,0,1-.28.17" transform="translate(143.12 132.89)"/><path id="Path_872" data-name="Path 872" class="cls-9" d="M149.1,89.59h-.59a.32.32,0,0,1-.3-.34h0a.34.34,0,0,1,.32-.33h2.59a.35.35,0,0,1,.34.33.32.32,0,0,1-.31.33H149.1m-4.8-.25h0c-.88-.1-1.7-.22-2.61-.36a.33.33,0,0,1-.22-.42.35.35,0,0,1,.34-.24c.83.14,1.69.26,2.55.36a.32.32,0,0,1,.31.34v0a.34.34,0,0,1-.34.3m11-.19a.32.32,0,0,1-.32-.33.33.33,0,0,1,.28-.33c.85-.11,1.7-.25,2.56-.42a.33.33,0,0,1,.38.26.32.32,0,0,1-.26.38c-.85.17-1.7.33-2.59.44h0M137.58,88h0c-.85-.22-1.7-.48-2.51-.75a.34.34,0,0,1-.22-.42.36.36,0,0,1,.43-.22c.81.27,1.69.52,2.47.74a.33.33,0,0,1,.24.39v0a.31.31,0,0,1-.32.25m24.44-.4a.32.32,0,0,1-.33-.31h0A.35.35,0,0,1,162,87c.83-.25,1.69-.52,2.46-.82a.34.34,0,0,1,.44.18.33.33,0,0,1-.18.42h0c-.81.31-1.69.58-2.49.83h-.1m-31-1.77H131c-.79-.36-1.59-.73-2.37-1.14a.33.33,0,0,1-.12-.44h0a.35.35,0,0,1,.43-.15c.76.41,1.56.78,2.33,1.12a.33.33,0,0,1,.19.44.37.37,0,0,1-.32.2m37.24-.61a.32.32,0,0,1-.33-.32v0a.36.36,0,0,1,.21-.27c.76-.37,1.54-.76,2.28-1.18a.34.34,0,0,1,.34.57c-.76.43-1.56.83-2.33,1.22h-.16m-43.26-2.66a.31.31,0,0,1-.19,0c-.72-.47-1.45-1-2.16-1.49a.31.31,0,0,1-.07-.45.32.32,0,0,1,.46-.07c.69.49,1.42,1,2.13,1.46a.32.32,0,0,1,.11.44h0a.29.29,0,0,1-.27.15m49.22-.86a.34.34,0,0,1-.32-.34.35.35,0,0,1,.14-.27c.71-.49,1.4-1,2.08-1.54a.34.34,0,0,1,.47.08h0a.31.31,0,0,1,0,.44c-.69.54-1.4,1.06-2.11,1.55a.26.26,0,0,1-.21,0m-54.62-3.38a.41.41,0,0,1-.22,0c-.64-.58-1.3-1.19-1.91-1.8a.32.32,0,0,1,0-.45l0,0a.3.3,0,0,1,.43,0l0,0A20.86,20.86,0,0,0,120,77.74a.34.34,0,0,1,0,.48.39.39,0,0,1-.25.12m59.93-1a.34.34,0,0,1-.31-.36.36.36,0,0,1,.09-.22q.93-.89,1.83-1.83a.35.35,0,0,1,.48,0,.33.33,0,0,1,0,.41h0c-.61.63-1.24,1.26-1.86,1.86a.36.36,0,0,1-.24.09m-64.78-3.76a.32.32,0,0,1-.25-.12c-.56-.67-1.1-1.37-1.69-2.06a.34.34,0,0,1,0-.48.38.38,0,0,1,.47,0c.51.7,1,1.39,1.59,2a.35.35,0,0,1-.07.48.28.28,0,0,1-.18.06m69.29-1.15a.34.34,0,0,1-.32-.35.44.44,0,0,1,.07-.19c.52-.68,1-1.37,1.52-2.08a.32.32,0,0,1,.46,0h0a.3.3,0,0,1,.11.42s0,0,0,0c-.5.72-1,1.44-1.55,2.13a.42.42,0,0,1-.27.12M111,68a.36.36,0,0,1-.29-.17c-.45-.74-.88-1.52-1.28-2.28a.32.32,0,0,1,.14-.43h0a.32.32,0,0,1,.44.13h0c.41.77.83,1.51,1.27,2.26a.35.35,0,0,1-.12.45.25.25,0,0,1-.17,0m-3.06-6.11a.33.33,0,0,1-.31-.22c-.32-.81-.62-1.69-.91-2.45a.32.32,0,0,1,.22-.4h0a.32.32,0,0,1,.39.19c.28.81.57,1.69.91,2.43a.31.31,0,0,1-.18.42h-.14" transform="translate(143.12 132.89)"/><path id="Path_873" data-name="Path 873" class="cls-9" d="M105.81,55.33a.31.31,0,0,1-.32-.25c-.11-.44-.21-.88-.29-1.3a.33.33,0,0,1,.27-.39.31.31,0,0,1,.38.24h0c.08.42.17.86.27,1.29a.34.34,0,0,1-.24.4h-.08" transform="translate(143.12 132.89)"/><path id="Path_874" data-name="Path 874" class="cls-9" d="M111.44,21.45a.35.35,0,0,1-.34-.33v-.18c.24-.37.48-.75.73-1.12a.33.33,0,0,1,.46-.08.31.31,0,0,1,.08.45h0l-.71,1.1a.33.33,0,0,1-.28.16" transform="translate(143.12 132.89)"/><path id="Path_875" data-name="Path 875" class="cls-9" d="M191.76,32.58a.32.32,0,0,1-.32-.23c-.26-.87-.54-1.7-.85-2.59a.35.35,0,0,1,.19-.44.34.34,0,0,1,.42.18h0c.32.87.61,1.7.86,2.63a.32.32,0,0,1-.22.4h-.1m-2.57-6.77a.35.35,0,0,1-.31-.2,27,27,0,0,0-1.25-2.4.33.33,0,0,1,.14-.44h0a.3.3,0,0,1,.42.1h0c.45.8.88,1.7,1.28,2.44a.36.36,0,0,1-.15.46h-.15m-3.62-6.21a.32.32,0,0,1-.27-.14,26.2,26.2,0,0,0-1.7-2.18.34.34,0,0,1,0-.46h0a.3.3,0,0,1,.43,0l0,0h0c.58.71,1.13,1.46,1.69,2.2a.34.34,0,0,1-.08.47h0a.31.31,0,0,1-.19,0m-70.61-2.64a.34.34,0,0,1-.34-.33.26.26,0,0,1,0-.21c.57-.71,1.18-1.4,1.82-2.06a.3.3,0,0,1,.43,0l0,0a.31.31,0,0,1,0,.45h0c-.61.66-1.22,1.36-1.79,2.05a.34.34,0,0,1-.26.12m66.13-2.64a.34.34,0,0,1-.23-.1c-.63-.64-1.29-1.27-1.95-1.88a.33.33,0,0,1,0-.47.34.34,0,0,1,.48,0h0c.67.61,1.35,1.25,2,1.91a.35.35,0,0,1,0,.47.33.33,0,0,1-.24,0m-61-2.45a.33.33,0,0,1-.34-.32.34.34,0,0,1,.12-.26,20.75,20.75,0,0,1,2.13-1.69.33.33,0,0,1,.47,0,.3.3,0,0,1,0,.43l0,0h0c-.71.56-1.42,1.13-2.1,1.69a.41.41,0,0,1-.22,0m55.72-2.23a.34.34,0,0,1-.2,0c-.73-.53-1.47-1-2.23-1.54a.34.34,0,0,1-.1-.46.33.33,0,0,1,.46-.11h0c.76.49,1.52,1,2.25,1.57a.3.3,0,0,1,0,.43l0,0a.31.31,0,0,1-.25.13m-50-2a.32.32,0,0,1-.32-.33h0a.28.28,0,0,1,.15-.24c.78-.49,1.57-.95,2.38-1.39a.34.34,0,0,1,.46.14.34.34,0,0,1-.13.44h0c-.8.44-1.59.9-2.36,1.37a.28.28,0,0,1-.18,0m43.85-1.69h-.15c-.79-.43-1.69-.82-2.45-1.19a.32.32,0,0,1-.17-.42h0a.31.31,0,0,1,.42-.18h0c.84.35,1.69.76,2.49,1.18a.34.34,0,0,1,.14.44h0a.3.3,0,0,1-.29.19M132,4.06a.34.34,0,0,1-.34-.34.33.33,0,0,1,.2-.33c.85-.36,1.69-.68,2.59-1a.35.35,0,0,1,.41.22.33.33,0,0,1-.19.41c-.86.3-1.69.63-2.56,1l-.11.07m30.82-1.22h-.1c-.85-.28-1.7-.54-2.61-.76a.34.34,0,0,1-.22-.39.35.35,0,0,1,.39-.22c.88.22,1.78.49,2.64.76a.35.35,0,0,1,.22.43.34.34,0,0,1-.32.23m-24-1a.32.32,0,0,1-.33-.32.33.33,0,0,1,.33-.32c.89-.22,1.79-.4,2.7-.56a.33.33,0,0,1,.38.27h0a.33.33,0,0,1-.27.39c-.88.16-1.78.34-2.66.54h0m16.92-.66h0c-1-.13-1.84-.25-2.75-.33a.33.33,0,0,1-.33-.32v0a.34.34,0,0,1,.36-.32h0c.91.08,1.84.2,2.74.33a.32.32,0,0,1,.29.35v0a.33.33,0,0,1-.34.28M146,.78a.32.32,0,0,1-.39-.25V.46a.34.34,0,0,1,.32-.36h0A26.67,26.67,0,0,1,148.7,0h0a.33.33,0,0,1,.25.36.3.3,0,0,1-.3.3h0a20.63,20.63,0,0,0-2.73.12h0" transform="translate(143.12 132.89)"/><path id="Path_876" data-name="Path 876" class="cls-9" d="M193,38.24a.34.34,0,0,1-.34-.27,6.52,6.52,0,0,0-.22-1.31.32.32,0,0,1,.27-.37h0a.32.32,0,0,1,.37.25c.09.44.15.87.22,1.32a.33.33,0,0,1-.26.38h0" transform="translate(143.12 132.89)"/><path id="Path_877" data-name="Path 877" class="cls-9" d="M183.23,43.81a.55.55,0,0,0-.32-.55l-6-2.64a28.43,28.43,0,0,0-2.83-8.71l3.29-5.59a.56.56,0,0,0,0-.63l-5.08-5.9a.53.53,0,0,0-.61-.16L165.64,22a28.49,28.49,0,0,0-8.22-4.09l-1.7-6.28a.53.53,0,0,0-.47-.41l-7.65-.59a.51.51,0,0,0-.53.3l-2.59,6a27.92,27.92,0,0,0-8.71,2.84l-5.61-3.33a.53.53,0,0,0-.61,0l-5.92,5.07a.54.54,0,0,0-.15.6l2.38,6a28.48,28.48,0,0,0-4.14,8.17L115.44,38a.53.53,0,0,0-.41.49l-.61,7.77a.55.55,0,0,0,.32.52l6,2.59a28.7,28.7,0,0,0,2.86,8.7l-3.38,5.59a.54.54,0,0,0,0,.62l5.07,5.93a.54.54,0,0,0,.6.13L132,68a28.25,28.25,0,0,0,8.17,4.15l1.69,6.28a.58.58,0,0,0,.49.41l7.77.61a.55.55,0,0,0,.53-.33l2.59-6A28.89,28.89,0,0,0,162,70.31l5.58,3.29a.56.56,0,0,0,.63,0l5.92-5.08a.56.56,0,0,0,.14-.61l-2.37-6A28.57,28.57,0,0,0,176,53.67L182.31,52a.52.52,0,0,0,.41-.47Z" transform="translate(143.12 132.89)"/><g id="Group_113" data-name="Group 113" class="cls-25"><g id="Group_112" data-name="Group 112"><g class="cls-26"><g id="Group_111" data-name="Group 111"><path id="Path_878" data-name="Path 878" class="cls-13" d="M148.82,52.47a7.36,7.36,0,1,1,1.27-.1,7.77,7.77,0,0,1-1.27.1m0-13.83a8,8,0,0,0-1.1.09,6.41,6.41,0,1,0,1.1-.09" transform="translate(143.12 132.89)"/></g></g></g></g><g id="Group_116" data-name="Group 116" class="cls-25"><g id="Group_115" data-name="Group 115"><g class="cls-27"><g id="Group_114" data-name="Group 114"><path id="Path_879" data-name="Path 879" class="cls-13" d="M148.7,64.32h-1.54a19.3,19.3,0,0,1-17.79-19.26V43.53a19.29,19.29,0,0,1,33.85-11.05,20.24,20.24,0,0,1,2.34,3.39l-.88.47a19.44,19.44,0,0,0-2.19-3.22A18.3,18.3,0,0,0,130.33,43.6v1.46A18.3,18.3,0,0,0,166,50.78l1,.32A19.29,19.29,0,0,1,148.7,64.32" transform="translate(143.12 132.89)"/></g></g></g></g><path id="Path_880" data-name="Path 880" class="cls-9" d="M225.46,77.61a.32.32,0,0,1-.34-.31h0a.25.25,0,0,1,0-.17c.22-.39.44-.77.64-1.15a.34.34,0,0,1,.46-.12.35.35,0,0,1,.14.42c-.21.39-.43.8-.66,1.18a.36.36,0,0,1-.29.16" transform="translate(143.12 132.89)"/><path id="Path_881" data-name="Path 881" class="cls-9" d="M204,88.73h0a24.46,24.46,0,0,1-2.69-.36.33.33,0,0,1-.23-.4.31.31,0,0,1,.37-.26,22.89,22.89,0,0,0,2.6.36.34.34,0,0,1,.31.37h0a.33.33,0,0,1-.32.29m4.35,0a.32.32,0,0,1-.32-.32v0a.32.32,0,0,1,.28-.32,22.59,22.59,0,0,0,2.59-.44.34.34,0,0,1,.41.25h0a.33.33,0,0,1-.24.39h0a24.6,24.6,0,0,1-2.68.46h0m-11.17-1.54h-.12A22,22,0,0,1,194.69,86a.34.34,0,1,1,.28-.61h0a19.75,19.75,0,0,0,2.37,1.13.36.36,0,0,1,.19.44.32.32,0,0,1-.3.21m17.92-.29a.34.34,0,0,1-.34-.34.32.32,0,0,1,.21-.3A23.79,23.79,0,0,0,217.37,85a.3.3,0,0,1,.42.09l0,0a.33.33,0,0,1-.1.45c-.79.46-1.59.88-2.42,1.26h-.14m-23.88-3.36a.32.32,0,0,1-.21-.08,21.78,21.78,0,0,1-2-1.86.31.31,0,0,1,0-.43l0,0a.32.32,0,0,1,.46,0h0a21.41,21.41,0,0,0,1.86,1.83.33.33,0,0,1,0,.47.3.3,0,0,1-.25.12M221,83a.32.32,0,0,1-.33-.32h0a.34.34,0,0,1,.11-.25l.2-.17c.58-.54,1.13-1.1,1.69-1.69a.33.33,0,0,1,.46,0l0,0a.33.33,0,0,1,0,.47,19.37,19.37,0,0,1-1.7,1.69l-.2.19a.41.41,0,0,1-.22,0m-34.44-4.76a.29.29,0,0,1-.28-.15,26.14,26.14,0,0,1-1.33-2.37.36.36,0,0,1,.15-.44.33.33,0,0,1,.45.15h0a21.59,21.59,0,0,0,1.28,2.31.33.33,0,0,1-.1.45.28.28,0,0,1-.18,0" transform="translate(143.12 132.89)"/><path id="Path_882" data-name="Path 882" class="cls-9" d="M183.74,71.84a.37.37,0,0,1-.33-.24q-.16-.66-.3-1.32a.33.33,0,0,1,.24-.39h0a.34.34,0,0,1,.39.25h0a5,5,0,0,0,.31,1.29.37.37,0,0,1-.24.41h0" transform="translate(143.12 132.89)"/><path id="Path_883" data-name="Path 883" class="cls-9" d="M186.46,53.81a.34.34,0,0,1-.32-.34.25.25,0,0,1,0-.17c.24-.39.49-.76.74-1.12a.34.34,0,0,1,.48,0,.36.36,0,0,1,0,.48h0c-.26.34-.49.71-.73,1.08a.31.31,0,0,1-.29.15" transform="translate(143.12 132.89)"/><path id="Path_884" data-name="Path 884" class="cls-9" d="M226.81,57a.33.33,0,0,1-.3-.2,25.35,25.35,0,0,0-1.15-2.34.32.32,0,0,1,.14-.43h0a.32.32,0,0,1,.42.11h0a23.12,23.12,0,0,1,1.19,2.39A.35.35,0,0,1,227,57h-.14m-3.62-5.88a.3.3,0,0,1-.25-.11l-.53-.6c-.4-.44-.83-.86-1.27-1.28a.34.34,0,0,1,0-.46h0a.33.33,0,0,1,.46,0l0,0h0c.45.42.89.86,1.3,1.32l.54.61a.32.32,0,0,1,0,.45.28.28,0,0,1-.24.09M190,49.46a.34.34,0,0,1-.34-.34.28.28,0,0,1,.1-.24l.4-.39a15.51,15.51,0,0,1,1.7-1.35.33.33,0,0,1,.45.1.31.31,0,0,1,0,.42c-.54.43-1.08.87-1.57,1.32l-.41.38a.45.45,0,0,1-.23,0m28-2.81a.48.48,0,0,1-.17,0,25,25,0,0,0-2.26-1.26.32.32,0,0,1-.14-.45.31.31,0,0,1,.42-.15A26.75,26.75,0,0,1,218.3,46a.35.35,0,0,1,.1.46.4.4,0,0,1-.29.15m-22.34-1.15a.33.33,0,0,1-.15-.63,21.24,21.24,0,0,1,2.45-1,.37.37,0,0,1,.43.22.33.33,0,0,1-.21.41,22.65,22.65,0,0,0-2.38,1h-.14m16-1.6h0a18.42,18.42,0,0,0-2.54-.51.37.37,0,0,1-.29-.39h0a.32.32,0,0,1,.37-.27h0a19,19,0,0,1,2.6.54.32.32,0,0,1,.24.38v0a.34.34,0,0,1-.32.23m-9.48-.49a.3.3,0,0,1-.32-.29v0a.32.32,0,0,1,.27-.34,22.61,22.61,0,0,1,2.47-.18.32.32,0,0,1,.35.28.33.33,0,0,1-.3.37h0a20.14,20.14,0,0,0-2.57.25h0" transform="translate(143.12 132.89)"/><path id="Path_885" data-name="Path 885" class="cls-9" d="M228.37,62.42a.31.31,0,0,1-.32-.27,6.15,6.15,0,0,0-.24-1.28.34.34,0,0,1,.26-.41h0a.33.33,0,0,1,.38.25c.09.44.17.9.24,1.34a.32.32,0,0,1-.26.37h0" transform="translate(143.12 132.89)"/><path id="Path_886" data-name="Path 886" class="cls-9" d="M223.43,65.13a.3.3,0,0,0-.17-.29l-3-1.32A15.11,15.11,0,0,0,218.74,59l1.69-2.86a.27.27,0,0,0,0-.32l-2.6-3a.3.3,0,0,0-.31-.08L214.41,54a14.85,14.85,0,0,0-4.2-2.13l-.83-3.23a.28.28,0,0,0-.25-.21l-4-.3a.24.24,0,0,0-.27.15l-1.34,3.06a14.4,14.4,0,0,0-4.47,1.46l-2.88-1.69a.27.27,0,0,0-.32,0l-3.05,2.6a.29.29,0,0,0,0,.31l1.22,3.1a14.67,14.67,0,0,0-2.13,4.19l-3.23.85a.29.29,0,0,0-.21.24l-.3,4a.25.25,0,0,0,.15.27L191.39,68a14.38,14.38,0,0,0,1.45,4.47l-1.69,2.88a.27.27,0,0,0,0,.32l2.61,3a.27.27,0,0,0,.3,0l3.1-1.22a15.25,15.25,0,0,0,4.2,2.13l.84,3.22a.3.3,0,0,0,.24.22l4,.3a.26.26,0,0,0,.27-.17L208,80.08a14.4,14.4,0,0,0,4.47-1.46l2.88,1.7a.27.27,0,0,0,.32,0l2.89-2.46a.24.24,0,0,0,0-.3l-1.13-3.08a14.35,14.35,0,0,0,2.13-4.2l3.24-.83a.34.34,0,0,0,.2-.26Z" transform="translate(143.12 132.89)"/><g id="Group_119" data-name="Group 119" class="cls-25"><g id="Group_118" data-name="Group 118"><g class="cls-28"><g id="Group_117" data-name="Group 117"><path id="Path_887" data-name="Path 887" class="cls-13" d="M205.66,69.8a4,4,0,1,1,.69,0,4,4,0,0,1-.69,0m0-7.1a3,3,0,1,0,1.69.55,3.12,3.12,0,0,0-1.69-.55" transform="translate(143.12 132.89)"/></g></g></g></g><g id="Group_122" data-name="Group 122" class="cls-25"><g id="Group_121" data-name="Group 121"><g class="cls-29"><g id="Group_120" data-name="Group 120"><path id="Path_888" data-name="Path 888" class="cls-13" d="M205.6,75.91h-.81a10.16,10.16,0,1,1,8.48-16.67v.1a12,12,0,0,1,1,1.51h0l-.88.47a9.14,9.14,0,1,0,.63,7.28l.93.31a10.17,10.17,0,0,1-9.6,6.92" transform="translate(143.12 132.89)"/></g></g></g></g></g></g></g><g id="Group_126" data-name="Group 126"><g class="cls-30"><g id="Group_125" data-name="Group 125"><rect id="Rectangle_381" data-name="Rectangle 381" class="cls-31" x="107.69" y="66.76" width="184.11" height="184.33" transform="translate(88.94 317.89) rotate(-44.37)"/></g></g></g><g id="Group_137" data-name="Group 137"><g class="cls-2"><g id="Group_136" data-name="Group 136"><g id="Group_129" data-name="Group 129" class="cls-32"><g id="Group_128" data-name="Group 128"><g class="cls-33"><g id="Group_127" data-name="Group 127"><path id="Path_890" data-name="Path 890" class="cls-13" d="M195.5,221a1.36,1.36,0,0,1-.71-.2c-21.14-13.54-34.94-29.69-42.15-49.42-6.43-17.62-6.77-35.55-7-51.41v-2.12a1.23,1.23,0,0,1,.37-.93,1.29,1.29,0,0,1,.93-.39h0c13.1,0,32.77-5.78,47.19-18.61a1.3,1.3,0,0,1,1.59-.12c15.85,10.51,38.44,13.54,50.51,14.47a1.26,1.26,0,0,1,1.2,1.18c2.81,32-3.84,59-19.77,80.4a95,95,0,0,1-31.51,27.09,1.27,1.27,0,0,1-.6.15m.36-.63.12.24-.12-.24A94.26,94.26,0,0,0,227.2,193.5c15.85-21.26,22.46-48.19,19.67-80a.75.75,0,0,0-.71-.71c-12.1-.89-34.82-4-50.78-14.55a.8.8,0,0,0-.93,0c-14.54,13-34.34,18.85-47.53,18.85h0a.75.75,0,0,0-.79.78V120c.28,15.77.59,33.68,7,51.22,7.16,19.61,20.89,35.69,41.93,49.08a.78.78,0,0,0,.78,0" transform="translate(143.12 132.89)"/></g></g></g></g><g id="Group_132" data-name="Group 132" class="cls-32"><g id="Group_131" data-name="Group 131"><g class="cls-34"><g id="Group_130" data-name="Group 130"><path id="Path_891" data-name="Path 891" class="cls-13" d="M214.8,142.5h-2.51a2.23,2.23,0,0,1-2.23-2.23h0v-8.46a5.54,5.54,0,0,0-5.54-5.54H189.07a5.55,5.55,0,0,0-5.54,5.54v8.46a2.23,2.23,0,0,1-2.23,2.23h-2.51a2.23,2.23,0,0,1-2.23-2.23h0v-8.46a12.51,12.51,0,0,1,12.51-12.51h15.45A12.51,12.51,0,0,1,217,131.81h0v8.46a2.23,2.23,0,0,1-2.23,2.23h0" transform="translate(143.12 132.89)"/></g></g></g></g><g id="Group_135" data-name="Group 135" class="cls-32"><g id="Group_134" data-name="Group 134"><g class="cls-35"><g id="Group_133" data-name="Group 133"><path id="Path_892" data-name="Path 892" class="cls-13" d="M217.88,144.52H175.71a4.68,4.68,0,0,0-4.75,4.62v32.43a4.67,4.67,0,0,0,4.67,4.67h42.18a4.67,4.67,0,0,0,4.69-4.65V149.21a4.69,4.69,0,0,0-4.69-4.69h0M202.76,175.8a1.69,1.69,0,0,1-1.19,2.07l-.1,0h-9a1.7,1.7,0,0,1-1.69-1.7,1.34,1.34,0,0,1,0-.4l2-8.47a7.82,7.82,0,1,1,10.72-2.71h0a7.78,7.78,0,0,1-2.71,2.7Z" transform="translate(143.12 132.89)"/></g></g></g></g></g></g></g><g id="Group_139" data-name="Group 139"><g class="cls-36"><g id="Group_138" data-name="Group 138"><rect id="Rectangle_386" data-name="Rectangle 386" class="cls-37" x="16.7" y="129.42" width="25.08" height="25.19" transform="translate(49.57 197.8) rotate(-46.24)"/></g></g></g><g id="Group_141" data-name="Group 141"><g class="cls-2"><g id="Group_140" data-name="Group 140"><path id="Path_894" data-name="Path 894" class="cls-12" d="M73.6,125.68H66.39s-22.13-24.44-36.63-26.9c0,0-10.16,12.88.54,37a3.53,3.53,0,0,0,4.6,1.88l.43-.22a2.93,2.93,0,0,0,1.15-1.38l-.93-20.56S54.49,132,57.77,135.17s20,1.24,15.83-9.49" transform="translate(143.12 132.89)"/></g></g></g><g id="Group_143" data-name="Group 143"><g class="cls-38"><g id="Group_142" data-name="Group 142"><rect id="Rectangle_388" data-name="Rectangle 388" class="cls-39" x="2.25" y="166.32" width="20.14" height="18.6" transform="translate(41.54 174.27) rotate(-36.3)"/></g></g></g><g id="Group_145" data-name="Group 145"><g class="cls-2"><g id="Group_144" data-name="Group 144"><path id="Path_896" data-name="Path 896" class="cls-9" d="M21.75,143.69c1.86.61,2.69,3.25,7.41,1.5a42.29,42.29,0,0,0,9.7-5.07,7.6,7.6,0,0,1,.1,1.06s-8.36,7.94-19,9.63a1.08,1.08,0,0,1-1.21-.89,1,1,0,0,1,0-.54,27.39,27.39,0,0,1,3-5.66" transform="translate(143.12 132.89)"/><path id="Path_897" data-name="Path 897" class="cls-9" d="M1.69,179.23A24.32,24.32,0,0,1,4,177c-.32,1.9.13,3.79,3.26,3.39a29.94,29.94,0,0,0,9.62-3.88,20.83,20.83,0,0,1-14,5.38,1.64,1.64,0,0,1-1.17-2.7" transform="translate(143.12 132.89)"/><path id="Path_898" data-name="Path 898" class="cls-12" d="M73.34,130.89l-33.77.37s-19.26,16-22.76,40.27c0,0-.58,1.8,2.89,2.1a67,67,0,0,0,19.23-21.07c9.31-16.51,27.78-9.08,27.78-9.08,8.87,2,15.92,1.22,21.09-6.77Z" transform="translate(143.12 132.89)"/></g></g></g><g id="Group_147" data-name="Group 147"><g class="cls-40"><g id="Group_146" data-name="Group 146"><rect id="Rectangle_390" data-name="Rectangle 390" class="cls-41" x="38.9" y="94.64" width="46.95" height="45.67" transform="translate(82.15 200.59) rotate(-40.06)"/></g></g></g><g id="Group_149" data-name="Group 149"><g class="cls-42"><g id="Group_148" data-name="Group 148"><rect id="Rectangle_391" data-name="Rectangle 391" class="cls-43" x="57.78" y="78.89" width="66.47" height="66.22" transform="translate(90.31 232.98) rotate(-46.17)"/></g></g></g><g id="Group_151" data-name="Group 151"><g class="cls-44"><g id="Group_150" data-name="Group 150"><rect id="Rectangle_392" data-name="Rectangle 392" class="cls-45" x="45.5" y="99.39" width="48.6" height="43.06" transform="translate(85.21 197.39) rotate(-36.17)"/></g></g></g><g id="Group_153" data-name="Group 153"><g class="cls-46"><g id="Group_152" data-name="Group 152"><rect id="Rectangle_393" data-name="Rectangle 393" class="cls-47" x="84.56" y="78.54" width="11.9" height="12.98" transform="translate(134.32 143.35) rotate(-6.31)"/></g></g></g><g id="Group_155" data-name="Group 155"><g class="cls-48"><g id="Group_154" data-name="Group 154"><rect id="Rectangle_394" data-name="Rectangle 394" class="cls-49" x="74.94" y="65.65" width="23.71" height="21.61" transform="translate(131.57 270.22) rotate(-73.13)"/></g></g></g><g id="Group_157" data-name="Group 157"><g class="cls-50"><g id="Group_156" data-name="Group 156"><rect id="Rectangle_395" data-name="Rectangle 395" class="cls-51" x="73.57" y="52.12" width="24.37" height="33.63" transform="translate(146.14 274.37) rotate(-80.04)"/></g></g></g><g id="Group_159" data-name="Group 159"><g class="cls-52"><g id="Group_158" data-name="Group 158"><rect id="Rectangle_396" data-name="Rectangle 396" class="cls-53" x="90.05" y="71.13" width="6.86" height="6.08" transform="translate(138.5 274.99) rotate(-73.13)"/></g></g></g><g id="Group_161" data-name="Group 161"><g class="cls-54"><g id="Group_160" data-name="Group 160"><rect id="Rectangle_397" data-name="Rectangle 397" class="cls-55" x="166.65" y="233.84" width="24.48" height="31.94"/></g></g></g><g id="Group_163" data-name="Group 163"><g class="cls-2"><g id="Group_162" data-name="Group 162"><path id="Path_907" data-name="Path 907" class="cls-9" d="M32.4,113.41c.62,1.27,1.69,2,2.43,1.69s.78-1.69.14-2.95-1.69-2-2.42-1.69-.8,1.69-.15,3" transform="translate(143.12 132.89)"/></g></g></g><g id="Group_165" data-name="Group 165"><g class="cls-56"><g id="Group_164" data-name="Group 164"><rect id="Rectangle_399" data-name="Rectangle 399" class="cls-57" x="53.51" y="118.14" width="10.16" height="26.13" transform="translate(59.69 285.91) rotate(-74.67)"/></g></g></g><g id="Group_167" data-name="Group 167"><g class="cls-58"><g id="Group_166" data-name="Group 166"><rect id="Rectangle_400" data-name="Rectangle 400" class="cls-59" x="70.47" y="100.99" width="12.24" height="3.1" transform="translate(112.42 305.22) rotate(-86.29)"/></g></g></g><g id="Group_169" data-name="Group 169"><g class="cls-60"><g id="Group_168" data-name="Group 168"><rect id="Rectangle_401" data-name="Rectangle 401" class="cls-61" x="84.01" y="101.18" width="12.03" height="8.18" transform="matrix(0.06, -1, 1, 0.06, 122.27, 321.18)"/></g></g></g><g id="Group_171" data-name="Group 171"><g class="cls-62"><g id="Group_170" data-name="Group 170"><rect id="Rectangle_402" data-name="Rectangle 402" class="cls-63" x="92.85" y="107.76" width="13.52" height="14.27" transform="translate(121.63 339.76) rotate(-86.29)"/></g></g></g></g></g></g></g></g></g></svg>