<svg xmlns="http://www.w3.org/2000/svg" xmlns:xlink="http://www.w3.org/1999/xlink" viewBox="0 0 727.6 447.99"><defs><style>.cls-1,.cls-11,.cls-19,.cls-20,.cls-21,.cls-23,.cls-3,.cls-30,.cls-33,.cls-34,.cls-37,.cls-4,.cls-5,.cls-7{fill:none;}.cls-2{clip-path:url(#clip-path);}.cls-3,.cls-4,.cls-5{stroke:#9fafc9;}.cls-11,.cls-19,.cls-23,.cls-3,.cls-30,.cls-33,.cls-34,.cls-37,.cls-5,.cls-7{stroke-miterlimit:10;}.cls-3{stroke-dasharray:3.5 3.5;}.cls-4{stroke-miterlimit:10;}.cls-6{fill:#e9eff4;}.cls-7{stroke:#fff;}.cls-8{fill:#ffdacf;}.cls-9{fill:#5481db;}.cls-10{fill:#75a1e9;}.cls-11{stroke:#4a578e;}.cls-12{fill:#f7a794;}.cls-13{fill:#bfd7fa;}.cls-14{fill:#fff;}.cls-15{fill:#ff8080;}.cls-16{fill:#ffb0b0;}.cls-17{fill:#fc8975;}.cls-18{fill:#081466;}.cls-19,.cls-23{stroke:#5481db;}.cls-20,.cls-33{stroke:#f7a794;}.cls-20,.cls-21{stroke-linejoin:round;}.cls-21{stroke:#bfd7fa;}.cls-22{fill:#e0edfc;}.cls-23{stroke-width:0.5px;}.cls-24{fill:#a33646;}.cls-25{fill:#e54a52;}.cls-26{opacity:0.25;}.cls-27{clip-path:url(#clip-path-3);}.cls-28{opacity:0.75;}.cls-29{clip-path:url(#clip-path-4);}.cls-30{stroke:#e54a52;stroke-width:11px;}.cls-31{clip-path:url(#clip-path-5);}.cls-32{clip-path:url(#clip-path-6);}.cls-34{stroke:#273b93;}.cls-35{fill:#273b93;}.cls-36{fill:#fccabe;}.cls-37{stroke:#000;}</style><clipPath id="clip-path" transform="translate(-0.06 -0.06)"><rect class="cls-1" width="727.73" height="448.05"/></clipPath><clipPath id="clip-path-3" transform="translate(-0.06 -0.06)"><rect class="cls-1" x="194.33" y="345.11" width="339.07" height="85.77"/></clipPath><clipPath id="clip-path-4" transform="translate(-0.06 -0.06)"><rect class="cls-1" x="276.87" y="172.62" width="28.44" height="12.36"/></clipPath><clipPath id="clip-path-5" transform="translate(-0.06 -0.06)"><rect class="cls-1" x="422.43" y="172.62" width="28.44" height="12.36"/></clipPath><clipPath id="clip-path-6" transform="translate(-0.06 -0.06)"><rect class="cls-1" x="194.33" y="409.97" width="339.07" height="20.91"/></clipPath></defs><g id="Layer_2" data-name="Layer 2"><g id="Layer_1-2" data-name="Layer 1"><g class="cls-2"><g id="Group_792" data-name="Group 792"><g id="Group_791" data-name="Group 791"><g class="cls-2"><g id="Group_790" data-name="Group 790"><path id="Path_2358" data-name="Path 2358" class="cls-3" d="M208.77,354.92c-47.58-63.05-107.12-29.69-149.42-30.27C9.43,324-5.9,254.86,28.9,225.43c12-10.14,27.07-15.85,42.15-20.25,22.34-6.51,52-12.85,64.43-34.9,20-35.42-10-92.36,37.07-112.63,55.58-23.93,89.7,38.29,140.86,42.37,49.6,4,97-25.94,137.78-50.31,31.19-18.63,71.33-31.25,103.05-13.55,31.9,17.79,47.52,52.35,50.84,87.51,2.66,28.22-6.07,52.53-8.7,79.89-.72,7.49.28,15.46,4.63,21.59,13.31,18.73,54.52,17.48,74.72,25.91,33,13.78,65.84,44.28,44.78,82.46-19.88,36-66.16,42.79-103.31,45.07-51.1,3.13-127.82-1.77-183.81-.81" transform="translate(-0.06 -0.06)"/><circle id="Ellipse_61" data-name="Ellipse 61" class="cls-4" cx="344.35" cy="4.65" r="4.15"/><path id="Path_2359" data-name="Path 2359" class="cls-5" d="M530.81,48.63a4.15,4.15,0,1,1-4.15-4.15,4.15,4.15,0,0,1,4.15,4.15Z" transform="translate(-0.06 -0.06)"/><circle id="Ellipse_62" data-name="Ellipse 62" class="cls-5" cx="685.18" cy="298.14" r="4.15"/><circle id="Ellipse_63" data-name="Ellipse 63" class="cls-5" cx="54.65" cy="263.52" r="4.15"/><path id="Path_2360" data-name="Path 2360" class="cls-6" d="M369.29,26.17H365.5a1.23,1.23,0,0,1-1.22-1.23V21.16a1.23,1.23,0,0,1,1.23-1.23h3.78a1.23,1.23,0,0,1,1.23,1.23h0v3.78a1.23,1.23,0,0,1-1.23,1.23" transform="translate(-0.06 -0.06)"/><path id="Path_2361" data-name="Path 2361" class="cls-6" d="M565.78,116.63H562a1.23,1.23,0,0,1-1.23-1.23h0v-3.78a1.23,1.23,0,0,1,1.23-1.23h3.78a1.23,1.23,0,0,1,1.23,1.23h0v3.78a1.23,1.23,0,0,1-1.23,1.23" transform="translate(-0.06 -0.06)"/><path id="Path_2362" data-name="Path 2362" class="cls-6" d="M110.72,100.41h-3.78a1.23,1.23,0,0,1-1.23-1.22h0V95.4a1.23,1.23,0,0,1,1.23-1.23h3.78A1.23,1.23,0,0,1,112,95.4h0v3.78a1.23,1.23,0,0,1-1.23,1.23" transform="translate(-0.06 -0.06)"/><line id="Line_8" data-name="Line 8" class="cls-5" x1="81.55" y1="66.52" x2="93.42" y2="66.52"/><line id="Line_9" data-name="Line 9" class="cls-5" x1="30.88" y1="244.84" x2="42.74" y2="244.84"/><line id="Line_10" data-name="Line 10" class="cls-5" x1="562.93" y1="90.28" x2="578.64" y2="90.28"/><line id="Line_11" data-name="Line 11" class="cls-5" x1="692.22" y1="236.21" x2="707.93" y2="236.21"/><line id="Line_12" data-name="Line 12" class="cls-5" x1="439.44" y1="15.08" x2="453" y2="15.08"/><path id="Path_2363" data-name="Path 2363" class="cls-6" d="M707.66,149.65h-3.78a1.23,1.23,0,0,1-1.23-1.23h0v-3.78a1.23,1.23,0,0,1,1.23-1.23h3.78a1.23,1.23,0,0,1,1.23,1.23h0v3.78a1.23,1.23,0,0,1-1.23,1.23" transform="translate(-0.06 -0.06)"/><path id="Path_2364" data-name="Path 2364" class="cls-6" d="M276.1,352.33c-49.5-59.05-79.49-127.52-86.56-197.61-2.69-26.6-1.75-54.54,12.77-78.81,1.66-2.76,6.67-3.08,8.84-.57,34.19,39.54,61.34,83.14,72.22,129.81,11.07,47.51,5,96.41-1.14,144.61" transform="translate(-0.06 -0.06)"/><path id="Path_2365" data-name="Path 2365" class="cls-6" d="M233.36,381.36c-22.57-79.12-77.92-139.75-147.7-174.21a3.31,3.31,0,0,0-4.42,4.24c18.87,47.52,39.35,95.72,75.32,132.62,19,19.53,41.83,35.21,65.76,48.45" transform="translate(-0.06 -0.06)"/><path id="Path_2366" data-name="Path 2366" class="cls-6" d="M223.45,400.36c-52.4-43.65-111.76-53.84-171.75-58.2a2.84,2.84,0,0,0-3,2.61,2.79,2.79,0,0,0,.72,2.1c20.89,22.68,48.15,39.05,77,50.06,31,11.84,64,17.77,96.91,21.84" transform="translate(-0.06 -0.06)"/><path id="Path_2367" data-name="Path 2367" class="cls-6" d="M436.87,300.83c-2.53-66.43-8.34-110.49-26.05-174.56-2.38-8.62-14-33.14-21.8-44.27a2.47,2.47,0,0,0-3.43-.6,2.41,2.41,0,0,0-1,1.48,493.2,493.2,0,0,0-10.13,137.31c1.2,18,3.43,36.05,9.55,53,7,19.35,18.83,36.53,30.85,53.23" transform="translate(-0.06 -0.06)"/><path id="Path_2368" data-name="Path 2368" class="cls-6" d="M426.36,367.7c8.53-53.26,3.2-107.57,8.9-161.13S460.13,97.11,506.39,62.86c1.52-1.12,3.38-2.28,5.27-1.83,2.45.57,3.19,3.32,3.45,5.58,3.21,28.73-.69,57.69-5.4,86.25a1520.23,1520.23,0,0,1-42.33,184.08" transform="translate(-0.06 -0.06)"/><path id="Path_2369" data-name="Path 2369" class="cls-6" d="M459.67,383.62c10.22-89.41,55.47-176.29,113-245.63a1.43,1.43,0,0,1,2-.17,1.47,1.47,0,0,1,.48.81c16.44,89.55-22.85,187.1-97,240" transform="translate(-0.06 -0.06)"/><path id="Path_2370" data-name="Path 2370" class="cls-6" d="M477.71,394.51c37-53.72,97.14-86.53,157.56-111.3a1,1,0,0,1,1.35.59,1.09,1.09,0,0,1,0,.67c-20.11,83.08-87.72,120.32-153.19,128.93" transform="translate(-0.06 -0.06)"/><path id="Path_2371" data-name="Path 2371" class="cls-7" d="M52.4,345c44.14,18.83,162.38,53.4,162.38,53.4" transform="translate(-0.06 -0.06)"/><path id="Path_2372" data-name="Path 2372" class="cls-7" d="M86.54,211.19s90.43,98.7,127,162.61" transform="translate(-0.06 -0.06)"/><path id="Path_2373" data-name="Path 2373" class="cls-7" d="M204.46,81.41s26.73,157,80.86,259" transform="translate(-0.06 -0.06)"/><path id="Path_2374" data-name="Path 2374" class="cls-7" d="M390.31,96.19s12.91,128.58,20.88,202.74" transform="translate(-0.06 -0.06)"/><path id="Path_2375" data-name="Path 2375" class="cls-7" d="M504,78.59S444.29,233.52,438.9,329.91" transform="translate(-0.06 -0.06)"/><path id="Path_2376" data-name="Path 2376" class="cls-7" d="M465.41,358c2.36-2.36,71.9-89.19,102.64-196.07" transform="translate(-0.06 -0.06)"/><path id="Path_2377" data-name="Path 2377" class="cls-7" d="M487.73,399c51.38-16,109.3-51,136.94-99.14" transform="translate(-0.06 -0.06)"/><path id="Path_2378" data-name="Path 2378" class="cls-5" d="M255.51,390.66a609.29,609.29,0,0,0-85.1-92.39c-6.44-5.69-13.12-11.37-17.52-18.75s-6.17-16.93-2.24-24.57c3.34-6.5,10.33-10.58,17.53-11.86s14.62-.09,21.69,1.79c11.7,3.1,23,8.15,32.37,15.82,16.51,13.53,25.7,34.05,31.56,54.57s9,41.84,16.35,61.88" transform="translate(-0.06 -0.06)"/><path id="Path_2379" data-name="Path 2379" class="cls-5" d="M157.44,247.43c19.61,11.81,45.78,36.54,60.13,54.38s37.16,58.26,44.42,82.28" transform="translate(-0.06 -0.06)"/><path id="Path_2380" data-name="Path 2380" class="cls-5" d="M188.53,314.93s23.2-7.14,35.48-4.43" transform="translate(-0.06 -0.06)"/><path id="Path_2381" data-name="Path 2381" class="cls-5" d="M159.44,288s27.42-6.62,44.38-1.67" transform="translate(-0.06 -0.06)"/><path id="Path_2382" data-name="Path 2382" class="cls-5" d="M195.47,277.53s3-20.64,0-31" transform="translate(-0.06 -0.06)"/><path id="Path_2383" data-name="Path 2383" class="cls-5" d="M220.33,305.38s4.91-29.62,1.91-44.68" transform="translate(-0.06 -0.06)"/><path id="Path_2384" data-name="Path 2384" class="cls-5" d="M231.14,321.34s7.48-31.15,5.73-44.43" transform="translate(-0.06 -0.06)"/><path id="Path_2385" data-name="Path 2385" class="cls-5" d="M203,329.26s22.55-2.13,33.17.37" transform="translate(-0.06 -0.06)"/><path id="Path_2386" data-name="Path 2386" class="cls-5" d="M184.93,268.27a119.24,119.24,0,0,0-36.64-1.87" transform="translate(-0.06 -0.06)"/><path id="Path_2387" data-name="Path 2387" class="cls-5" d="M468.05,405.14a635.19,635.19,0,0,1,71.79-109.37c5.66-6.93,11.56-13.91,14.83-22.24s3.48-18.45-1.86-25.63c-4.54-6.11-12.41-9.12-20-9.21s-15,2.38-22,5.51c-11.5,5.17-22.27,12.27-30.59,21.75-14.67,16.7-20.64,39.34-23.19,61.43s-2.15,44.52-6.3,66.36" transform="translate(-0.06 -0.06)"/><path id="Path_2388" data-name="Path 2388" class="cls-5" d="M544.55,241.32C526.4,256.78,503.7,286.64,492,307.4s-28.32,66.17-31.71,92.09" transform="translate(-0.06 -0.06)"/><path id="Path_2389" data-name="Path 2389" class="cls-5" d="M536.88,299.54s-22.43-1.15-44.33,6.86" transform="translate(-0.06 -0.06)"/><path id="Path_2390" data-name="Path 2390" class="cls-5" d="M510.57,278.7S504,258,505.3,246.86" transform="translate(-0.06 -0.06)"/><path id="Path_2391" data-name="Path 2391" class="cls-5" d="M489.75,311.53s-10.07-29.6-9.54-45.58" transform="translate(-0.06 -0.06)"/><path id="Path_2392" data-name="Path 2392" class="cls-5" d="M485.49,320.29s-12.3-30.25-12.76-44.18" transform="translate(-0.06 -0.06)"/><path id="Path_2393" data-name="Path 2393" class="cls-5" d="M511.6,333.15s-23.54,1.62-34,6" transform="translate(-0.06 -0.06)"/><path id="Path_2394" data-name="Path 2394" class="cls-5" d="M516.31,271.8s24.42-8.77,40.89-9.14" transform="translate(-0.06 -0.06)"/><path id="Path_2395" data-name="Path 2395" class="cls-5" d="M522.68,239.94s-2.08,16.19.33,23.64" transform="translate(-0.06 -0.06)"/><path id="Path_2396" data-name="Path 2396" class="cls-5" d="M507.8,283.06s29.4-7.35,45.64-6.71" transform="translate(-0.06 -0.06)"/><path id="Path_2397" data-name="Path 2397" class="cls-5" d="M430.07,281.64A763.5,763.5,0,0,1,495,138.42c5.42-9.28,11.13-18.66,13.46-29.16s.69-22.55-7-30.08C494.9,72.76,485,70.66,475.94,72S458.53,77.6,450.86,82.6c-12.69,8.28-25.45,26.84-33.81,50.94-8.77,25.24-17.13,92.46-9.68,137.8" transform="translate(-0.06 -0.06)"/><path id="Path_2398" data-name="Path 2398" class="cls-5" d="M490.4,72.9c-18.67,21.74-40.06,61.41-50.12,88.25S419,245,419.79,276.38" transform="translate(-0.06 -0.06)"/><path id="Path_2399" data-name="Path 2399" class="cls-5" d="M428.54,204.09s-17.07-17.69-20.16-29.45" transform="translate(-0.06 -0.06)"/><path id="Path_2400" data-name="Path 2400" class="cls-5" d="M432.28,102.22s3.78,27.63,13.06,46.53" transform="translate(-0.06 -0.06)"/><path id="Path_2401" data-name="Path 2401" class="cls-5" d="M447.71,84.86s2.15,32.26,7.08,44" transform="translate(-0.06 -0.06)"/><path id="Path_2402" data-name="Path 2402" class="cls-5" d="M471.32,72.9s-3.09,18.43-1.67,29.32" transform="translate(-0.06 -0.06)"/><path id="Path_2403" data-name="Path 2403" class="cls-5" d="M461.21,116.74s24-1.76,47.66-9.9" transform="translate(-0.06 -0.06)"/><path id="Path_2404" data-name="Path 2404" class="cls-5" d="M474.91,93.91s12.25-2.47,30.26-10" transform="translate(-0.06 -0.06)"/><path id="Path_2405" data-name="Path 2405" class="cls-5" d="M425,222.77a186.91,186.91,0,0,1,34.71-16.91" transform="translate(-0.06 -0.06)"/><path id="Path_2406" data-name="Path 2406" d="M337.7,363.61s10,3.64,10.05,6.6c0,1.69-14.48,1.64-15.39.52-1.44-1.79,1.07-6.75,1.07-6.75Z" transform="translate(-0.06 -0.06)"/><path id="Path_2407" data-name="Path 2407" class="cls-8" d="M337.48,355.36l.23,8.5a2.15,2.15,0,0,1-1.79,1.58c-1.47.19-2.49-1.46-2.49-1.46L333,353.35" transform="translate(-0.06 -0.06)"/><path id="Path_2408" data-name="Path 2408" class="cls-9" d="M354.45,166.18s7.29,23,4.55,86.28c-1.86,43.23-19.69,105.52-21.83,105.59a27.41,27.41,0,0,1-4.05-.21s-8.5-62.65-9.43-97.94c-1.43-54.33-20.88-66.79-14.67-95" transform="translate(-0.06 -0.06)"/><path id="Path_2409" data-name="Path 2409" class="cls-10" d="M338.57,354.6l-.4,3.74-6,.16-.28-3.72Z" transform="translate(-0.06 -0.06)"/><path id="Path_2410" data-name="Path 2410" d="M301.69,364.45s10,3.65,10.05,6.6c0,1.69-14.48,1.65-15.39.53-1.45-1.8,1.07-6.75,1.07-6.75Z" transform="translate(-0.06 -0.06)"/><path id="Path_2411" data-name="Path 2411" class="cls-8" d="M301.47,356.21l.22,8.5a2.14,2.14,0,0,1-1.78,1.58c-1.48.19-2.49-1.46-2.49-1.46L297,354.19" transform="translate(-0.06 -0.06)"/><path id="Path_2412" data-name="Path 2412" class="cls-9" d="M326.7,166.67s-.37,54.22-5.78,96.87c-2.42,19-17.48,92.68-19,95.33l-5.44.15s-7.45-69.25-8.38-104.53c-1.42-54.34-8.18-60.9-2-89.14" transform="translate(-0.06 -0.06)"/><path id="Path_2413" data-name="Path 2413" class="cls-10" d="M302.7,355.44l-.4,3.74-6,.17-.28-3.73Z" transform="translate(-0.06 -0.06)"/><path id="Path_2414" data-name="Path 2414" class="cls-11" d="M325.38,187.9s-.85,20.62-2.12,53.62" transform="translate(-0.06 -0.06)"/><path id="Path_2415" data-name="Path 2415" class="cls-8" d="M395.67,49.85l2.61-4.94a14.55,14.55,0,0,1-.65-4.3c0-1.07.47-3.91,1-4.14s.83,2.39,1.07,2.29,2.06-5.26,3.09-5.19c.51,0-1.26,5-1.26,5s1.75-5.43,2.56-5.24S403,38.74,403,38.74s1.69-4.93,2.38-4.77-1.1,5-1.1,5,1.68-4.27,2.06-4c.73.48-.18,2.94-.34,3.5-.41,1.46-1.42,6.35-3.8,7.62a38.83,38.83,0,0,0-.91,4.12" transform="translate(-0.06 -0.06)"/><path id="Path_2416" data-name="Path 2416" class="cls-12" d="M399.9,39.38c.3.4.59.8.87,1.21a4.74,4.74,0,0,1,.67,1.28A4.09,4.09,0,0,1,401,44.7c-.07.19.2.27.31.13a3.36,3.36,0,0,0,.6-3,7.34,7.34,0,0,0-1.84-2.6c-.13-.14-.32.06-.2.2" transform="translate(-0.06 -0.06)"/><path id="Path_2417" data-name="Path 2417" class="cls-8" d="M367.07,101c6.23-3.25,13.2-7.92,16.69-12.27C399,69.7,402,46.79,402,46.79l-3.94-2.61s-16.41,20.88-23,27.27c-2.95,2.84-8.52,5.38-14.41,9" transform="translate(-0.06 -0.06)"/><path id="Path_2418" data-name="Path 2418" class="cls-13" d="M361.52,79.21c-12.09,3-26.76,8.05-33,11.36L319,91c-4.61.94-19.09,7.12-22.15,10.8-8.26,10-10.77,39.87-13.46,69.28,23.37,7.34,55.47,9.49,72.82.55C356.06,161,351.66,152,351,140.89c-.7-11.53,1.84-18.85-2.31-29.81,3.19-2,12-5.64,20.47-10.06Z" transform="translate(-0.06 -0.06)"/><path id="Path_2419" data-name="Path 2419" class="cls-14" d="M357.23,80.09l7.68,23.5,5.64-2.58L362.9,78.55Z" transform="translate(-0.06 -0.06)"/><path id="Path_2420" data-name="Path 2420" d="M315.9,51.62c-6.1,3.15-9.18,9.71-8.83,16.58.38,7.47,4.9,14.53,14.51,14a25.17,25.17,0,0,0,3.78-.34,18.31,18.31,0,0,0,5.91-2.14,14.21,14.21,0,0,0,6-8.19,21.25,21.25,0,0,0,.18-10.27,10.92,10.92,0,0,0-2.26-5.16,14.62,14.62,0,0,1-1.92-2.17,5.21,5.21,0,0,0-1.66-1.83,10.86,10.86,0,0,0-4.83-1.73c-3.45-.45-7.78-.34-10.87,1.26" transform="translate(-0.06 -0.06)"/><path id="Path_2421" data-name="Path 2421" class="cls-15" d="M341,71.5a5.47,5.47,0,0,1-4.55,6.21,5.41,5.41,0,0,1-5.7-5.12,5.47,5.47,0,0,1,4.55-6.21A5.41,5.41,0,0,1,341,71.5" transform="translate(-0.06 -0.06)"/><path id="Path_2422" data-name="Path 2422" class="cls-16" d="M338.58,72a3.69,3.69,0,0,1-3,4.24,3.64,3.64,0,0,1-3.74-3.53,3.41,3.41,0,1,1,6.7-.71" transform="translate(-0.06 -0.06)"/><path id="Path_2423" data-name="Path 2423" class="cls-8" d="M328.54,90.57l-.35-12.28-7,.75-2.37,12.45s1.91,2.11,5.92,1.56c3.47-.48,3.76-2.48,3.76-2.48" transform="translate(-0.06 -0.06)"/><path id="Path_2424" data-name="Path 2424" class="cls-14" d="M319.46,88.31c1.08,1.94,5.31,4.75,5.31,4.75l-4,4.45-3.85-7.05Z" transform="translate(-0.06 -0.06)"/><path id="Path_2425" data-name="Path 2425" class="cls-14" d="M328.48,88.6c-.78,2.47-3.71,4.45-3.71,4.45l2.72,3.39,2.78-6.61Z" transform="translate(-0.06 -0.06)"/><path id="Path_2426" data-name="Path 2426" class="cls-8" d="M316.93,73.28c-.28-4.82,1.14-10,3.68-12.81s7.29-3.24,10.78-2.76a6.51,6.51,0,0,1,3.33,1.34c3.45,2.87,3.22,9.49,3,13.54a16.8,16.8,0,0,1-3.37,9.57,6.62,6.62,0,0,1-2.47,2A11.62,11.62,0,0,1,321,82.57c-2.75-2.18-3.89-5.86-4.09-9.3" transform="translate(-0.06 -0.06)"/><path id="Path_2427" data-name="Path 2427" d="M315.38,77.15c-1.28.6-3.27,1-4.26-.37-.79-1.12-.1-2.81.18-4a104.87,104.87,0,0,1,3.35-11.44,21.67,21.67,0,0,1,2.65-5.53c2.35-3.24,9-4.75,13-4.38,4.32-.28,11.21,6.76,7.44,14.95a10.67,10.67,0,0,0-2.83-4.69c-1.43,1.42-4.91,4.56-14,4.56-2,1.87-.45,5.67-1.87,8a8,8,0,0,1-3.59,2.9" transform="translate(-0.06 -0.06)"/><path id="Path_2428" data-name="Path 2428" class="cls-17" d="M319.85,74.1a1.57,1.57,0,0,0-1.13-1.89l-.15,0c-2-.2-2.58,2.92-1.81,4.33.57,1.06,2,1.92,2.76.66" transform="translate(-0.06 -0.06)"/><path id="Path_2429" data-name="Path 2429" class="cls-18" d="M323.18,81.41a10.31,10.31,0,0,1-1.46-.23A6.41,6.41,0,0,1,318,78.74a2.86,2.86,0,0,1-.6-1.56.22.22,0,0,1,.22-.23.22.22,0,0,1,.23.21,2.5,2.5,0,0,0,.51,1.31,6,6,0,0,0,3.47,2.26A14.09,14.09,0,0,0,326,81a.23.23,0,0,1,.23.23.24.24,0,0,1-.2.23,19.1,19.1,0,0,1-2.83,0" transform="translate(-0.06 -0.06)"/><path id="Path_2430" data-name="Path 2430" class="cls-18" d="M327,80.61a1.62,1.62,0,0,0-1.26-.07c-1.43.47.12,2.33,1.41,1.37a.8.8,0,0,0,.26-.29.79.79,0,0,0-.41-1" transform="translate(-0.06 -0.06)"/><path id="Path_2431" data-name="Path 2431" class="cls-15" d="M315.59,68.18c.33-3.19,1.44-8.46,3.4-11,2.51-3.22,6.17-6.16,9.4-6.16a3.08,3.08,0,0,1,1.88.37,17.41,17.41,0,0,0-8.81,5.22c-2.63,2.78-4.11,8.21-4.18,12.09" transform="translate(-0.06 -0.06)"/><path id="Path_2432" data-name="Path 2432" class="cls-15" d="M321.56,72.51a5,5,0,0,1-4.14,5.65,4.93,4.93,0,0,1-5.19-4.66,5,5,0,0,1,4.14-5.65,4.93,4.93,0,0,1,5.18,4.66" transform="translate(-0.06 -0.06)"/><path id="Path_2433" data-name="Path 2433" class="cls-16" d="M319.34,73a3.35,3.35,0,0,1-2.68,3.86,3.32,3.32,0,0,1-3.41-3.21,3.36,3.36,0,0,1,2.69-3.86,3.32,3.32,0,0,1,3.4,3.21" transform="translate(-0.06 -0.06)"/><path id="Path_2434" data-name="Path 2434" d="M314.91,54.14a3,3,0,0,0,0-2.46,8.41,8.41,0,0,0-8.1-5.46,8.76,8.76,0,0,0-7.75,6.05,4.87,4.87,0,0,0-.19,2.51,4.45,4.45,0,0,0,2.56,2.88,10.75,10.75,0,0,0,3.88.79,11.29,11.29,0,0,0,5.34-.66,4.73,4.73,0,0,0,3-4.17" transform="translate(-0.06 -0.06)"/><path id="Path_2435" data-name="Path 2435" d="M300.92,54.27a3.44,3.44,0,0,1,.13,3.87,4.57,4.57,0,0,1-3.43,2,6.94,6.94,0,0,1-4-.91,4.1,4.1,0,0,1-2.39-3c-.32-4,4.3-8.81,9.31-4.7" transform="translate(-0.06 -0.06)"/><path id="Path_2436" data-name="Path 2436" d="M293.9,57.1c.18.78-.4,2.24-.49,3a3.27,3.27,0,0,1-1,2.13,4.6,4.6,0,0,1-3.16.82,6.54,6.54,0,0,1-2.51-.43,3.78,3.78,0,0,1-2-5,3.56,3.56,0,0,1,.31-.58c1.91-2.88,7.1-3.31,8.81,0" transform="translate(-0.06 -0.06)"/><path id="Path_2437" data-name="Path 2437" d="M286.3,61.89c.53,1.83-.86,3.59-1.35,5.42-.62,2.29.18,4.7.24,7.06a.45.45,0,0,1-.1.37.49.49,0,0,1-.24.08,11.36,11.36,0,0,1-6.93-1,6.19,6.19,0,0,1-3.33-5.84,7.7,7.7,0,0,1,1.73-3.71,10.81,10.81,0,0,1,4.82-3.76,6.15,6.15,0,0,1,5.87.85" transform="translate(-0.06 -0.06)"/><line id="Line_13" data-name="Line 13" class="cls-19" x1="348.61" y1="111.01" x2="345.05" y2="101.97"/><path id="Path_2438" data-name="Path 2438" class="cls-20" d="M332.11,70.31s1.48,3.87,1.39,4.75-2.77.6-2.77.6" transform="translate(-0.06 -0.06)"/><path id="Path_2439" data-name="Path 2439" d="M326.56,70.86c.08.69-.22,1.29-.68,1.35s-.87-.47-.95-1.16.22-1.3.67-1.34.88.46,1,1.15" transform="translate(-0.06 -0.06)"/><path id="Path_2440" data-name="Path 2440" d="M335.92,70.77c.07.7-.23,1.3-.68,1.35s-.88-.47-1-1.16.23-1.29.68-1.35.88.47,1,1.16" transform="translate(-0.06 -0.06)"/><path id="Path_2441" data-name="Path 2441" class="cls-14" d="M327.7,78.83l5.28-.48s0,3.39-2.37,3.47a2.66,2.66,0,0,1-2.92-2.37,2.56,2.56,0,0,1,0-.62" transform="translate(-0.06 -0.06)"/><path id="Path_2442" data-name="Path 2442" d="M333.92,67.16a.45.45,0,0,1,.33-.2,2,2,0,0,1,2.36,1.42" transform="translate(-0.06 -0.06)"/><path id="Path_2443" data-name="Path 2443" d="M327,67.22a.48.48,0,0,0-.34-.23,2.64,2.64,0,0,0-2.93,1.23" transform="translate(-0.06 -0.06)"/><path id="Path_2444" data-name="Path 2444" class="cls-14" d="M205.94,7.86A32.18,32.18,0,0,1,252.42,48l7.36,6.53L249,54A32.2,32.2,0,1,1,205.94,7.86" transform="translate(-0.06 -0.06)"/><path id="Path_2445" data-name="Path 2445" class="cls-21" d="M205.94,7.86A32.18,32.18,0,0,1,252.42,48l7.36,6.53L249,54A32.2,32.2,0,1,1,205.94,7.86Z" transform="translate(-0.06 -0.06)"/><path id="Path_2446" data-name="Path 2446" class="cls-13" d="M236.76,47.42,208.85,47,205.77,27l33.72,0Z" transform="translate(-0.06 -0.06)"/><path id="Path_2447" data-name="Path 2447" class="cls-13" d="M239.49,27l-33.72,0,16.87-13.85Z" transform="translate(-0.06 -0.06)"/><rect id="Rectangle_901" data-name="Rectangle 901" class="cls-14" x="210.81" y="24.94" width="23.02" height="19.44"/><path id="Path_2448" data-name="Path 2448" class="cls-22" d="M205.77,27V48.9l16.87-10.18Z" transform="translate(-0.06 -0.06)"/><path id="Path_2449" data-name="Path 2449" class="cls-22" d="M239.49,27V48.91L222.63,38.72Z" transform="translate(-0.06 -0.06)"/><path id="Path_2450" data-name="Path 2450" class="cls-22" d="M239.49,48.91H205.76L222.63,35Z" transform="translate(-0.06 -0.06)"/><path id="Path_2451" data-name="Path 2451" class="cls-23" d="M205.76,48.9,222.63,35l16.86,13.87" transform="translate(-0.06 -0.06)"/><line id="Line_14" data-name="Line 14" class="cls-23" x1="224.98" y1="36.97" x2="239.43" y2="26.92"/><line id="Line_15" data-name="Line 15" class="cls-23" x1="220.14" y1="36.97" x2="205.7" y2="26.91"/><path id="Path_2452" data-name="Path 2452" class="cls-24" d="M529.62,355.09a6.4,6.4,0,0,1,3.79,3.22,9.79,9.79,0,0,1,1.45,5.24,3.13,3.13,0,0,0,1.58-1.44,8.33,8.33,0,0,0,1.68-4.89c-.14-1.94-1.88-4.17-3.26-5.48-.73-.7-1.42-.41-2.52-.14" transform="translate(-0.06 -0.06)"/><path id="Path_2453" data-name="Path 2453" class="cls-25" d="M534.84,351.69c-.65-1.38-3-2.08-4.86-1.87-5.37,1.54-8.43,11.39-7,15.13a4.06,4.06,0,0,0,3.75,1.31,8.16,8.16,0,0,0,2.86-.77.57.57,0,0,0,.37-.67c-.63-2.25-.76-8.14,4.85-13.13" transform="translate(-0.06 -0.06)"/><path id="Path_2454" data-name="Path 2454" class="cls-24" d="M539.05,358.71a6.43,6.43,0,0,1,3.79,3.22,9.79,9.79,0,0,1,1.45,5.24,3.13,3.13,0,0,0,1.58-1.44,8.36,8.36,0,0,0,1.68-4.89c-.14-1.94-1.88-4.17-3.26-5.48-.74-.7-1.42-.41-2.52-.14" transform="translate(-0.06 -0.06)"/><path id="Path_2455" data-name="Path 2455" class="cls-25" d="M544.26,355.31c-.65-1.38-3-2.08-4.86-1.87-5.36,1.54-8.43,11.39-7,15.13a4.08,4.08,0,0,0,3.76,1.31,8.16,8.16,0,0,0,2.86-.77.58.58,0,0,0,.37-.67c-.63-2.25-.77-8.14,4.84-13.13" transform="translate(-0.06 -0.06)"/><path id="Path_2456" data-name="Path 2456" class="cls-24" d="M550,360.76a6.37,6.37,0,0,1,3.79,3.22,9.67,9.67,0,0,1,1.45,5.23,3.12,3.12,0,0,0,1.59-1.43,8.37,8.37,0,0,0,1.67-4.89c-.14-1.94-1.87-4.17-3.25-5.48-.74-.7-1.43-.41-2.52-.15" transform="translate(-0.06 -0.06)"/><path id="Path_2457" data-name="Path 2457" class="cls-25" d="M555.22,357.36c-.65-1.39-3-2.08-4.86-1.87-5.37,1.54-8.43,11.39-7,15.13a4.06,4.06,0,0,0,3.75,1.31,8.16,8.16,0,0,0,2.86-.77.57.57,0,0,0,.37-.66c-.63-2.26-.76-8.15,4.85-13.14" transform="translate(-0.06 -0.06)"/><path id="Path_2458" data-name="Path 2458" class="cls-24" d="M559.91,361.8a6.41,6.41,0,0,1,3.77,3.25,9.69,9.69,0,0,1,1.41,5.24,3.09,3.09,0,0,0,1.6-1.42A8.34,8.34,0,0,0,568.4,364c-.13-1.94-1.85-4.18-3.22-5.5-.73-.71-1.42-.42-2.52-.16" transform="translate(-0.06 -0.06)"/><path id="Path_2459" data-name="Path 2459" class="cls-25" d="M565.15,358.44c-.64-1.4-3-2.11-4.85-1.91-5.38,1.51-8.5,11.34-7.07,15.09A4.09,4.09,0,0,0,557,373a8.12,8.12,0,0,0,2.86-.74.6.6,0,0,0,.38-.67c-.62-2.26-.72-8.15,4.93-13.1" transform="translate(-0.06 -0.06)"/><path id="Path_2460" data-name="Path 2460" class="cls-24" d="M569.39,364.63a6.4,6.4,0,0,1,3.61,3.43,9.73,9.73,0,0,1,1.15,5.31,3.16,3.16,0,0,0,1.66-1.35,8.34,8.34,0,0,0,2-4.78c0-1.95-1.64-4.27-2.94-5.66-.7-.74-1.4-.49-2.51-.28" transform="translate(-0.06 -0.06)"/><path id="Path_2461" data-name="Path 2461" class="cls-25" d="M574.8,361.53c-.58-1.42-2.89-2.25-4.75-2.14-5.45,1.23-9.06,10.89-7.81,14.71a4,4,0,0,0,3.67,1.52,8.49,8.49,0,0,0,2.9-.6.58.58,0,0,0,.4-.65c-.49-2.29-.3-8.18,5.59-12.84" transform="translate(-0.06 -0.06)"/><path id="Path_2462" data-name="Path 2462" class="cls-24" d="M579.48,370.17a6.38,6.38,0,0,1,2.2,4.47,9.66,9.66,0,0,1-.75,5.38,3.18,3.18,0,0,0,2-.69,8.42,8.42,0,0,0,3.48-3.82c.64-1.84-.06-4.58-.81-6.33-.4-.93-1.14-.94-2.26-1.13" transform="translate(-0.06 -0.06)"/><path id="Path_2463" data-name="Path 2463" class="cls-25" d="M585.62,369.13c0-1.53-1.93-3.11-3.71-3.65-5.54-.72-12.27,7.1-12.42,11.12a4.1,4.1,0,0,0,2.93,2.69,8.11,8.11,0,0,0,2.93.43.57.57,0,0,0,.6-.46c.32-2.32,2.54-7.78,9.67-10.13" transform="translate(-0.06 -0.06)"/><path id="Path_2464" data-name="Path 2464" class="cls-24" d="M589.47,375.3a6.38,6.38,0,0,1,2.2,4.46,9.66,9.66,0,0,1-.75,5.38,3.18,3.18,0,0,0,2-.69,8.37,8.37,0,0,0,3.48-3.82c.64-1.84-.06-4.57-.81-6.32-.4-.94-1.14-.95-2.26-1.14" transform="translate(-0.06 -0.06)"/><path id="Path_2465" data-name="Path 2465" class="cls-25" d="M595.61,374.25c0-1.53-1.93-3.11-3.71-3.65-5.54-.72-12.27,7.1-12.42,11.12a4.1,4.1,0,0,0,2.93,2.69,8.31,8.31,0,0,0,2.93.44.59.59,0,0,0,.6-.47c.32-2.32,2.54-7.78,9.67-10.13" transform="translate(-0.06 -0.06)"/><path id="Path_2466" data-name="Path 2466" class="cls-24" d="M600.33,381.28a6.08,6.08,0,0,1,1.16,4.75,10.11,10.11,0,0,1-2,5.14,3.18,3.18,0,0,0,2.14-.32,8.94,8.94,0,0,0,4.27-3.14c1-1.69,1-4.49.63-6.34-.18-1-.91-1.12-2-1.5" transform="translate(-0.06 -0.06)"/><path id="Path_2467" data-name="Path 2467" class="cls-25" d="M606.59,381.32c.3-1.51-1.2-3.39-2.82-4.23-5.27-1.67-13.62,4.83-14.67,8.75a3.8,3.8,0,0,0,2.27,3.14,8,8,0,0,0,2.77.94.63.63,0,0,0,.7-.36c.83-2.21,4.23-7.18,11.75-8.24" transform="translate(-0.06 -0.06)"/><path id="Path_2468" data-name="Path 2468" class="cls-24" d="M606.37,391.1a6.07,6.07,0,0,1-1,4.79,11.45,11.45,0,0,1-4,4.12,3.15,3.15,0,0,0,2.12.41,10,10,0,0,0,5.3-1.49,8.7,8.7,0,0,0,3.3-5.67c.18-1-.36-1.34-1.18-2" transform="translate(-0.06 -0.06)"/><path id="Path_2469" data-name="Path 2469" class="cls-25" d="M612.15,393.21c.92-1.3.33-3.53-.81-4.84-4.17-3.3-14.69,0-17.33,3.24a3.46,3.46,0,0,0,.75,3.67,7,7,0,0,0,2.17,1.78.65.65,0,0,0,.79-.1,16.15,16.15,0,0,1,14.42-3.75" transform="translate(-0.06 -0.06)"/><path id="Path_2470" data-name="Path 2470" class="cls-24" d="M608.54,399.37a6.63,6.63,0,0,1-2.86,4.16,13,13,0,0,1-5.42,2.58,2.93,2.93,0,0,0,1.82,1.05,10.27,10.27,0,0,0,5.55.28,9.89,9.89,0,0,0,5.75-4.77c.63-.83-.14-.84-.61-1.75" transform="translate(-0.06 -0.06)"/><path id="Path_2471" data-name="Path 2471" class="cls-25" d="M613.38,402.67c1.09-1.19.81-3.47-.16-4.89-3.69-3.7-14.57-1.55-17.64,1.43a3.44,3.44,0,0,0,.26,3.72,6.91,6.91,0,0,0,1.92,2,.66.66,0,0,0,.8,0,16.43,16.43,0,0,1,14.82-2.24" transform="translate(-0.06 -0.06)"/><path id="Path_2472" data-name="Path 2472" class="cls-24" d="M606,407.83a7.52,7.52,0,0,1-4.19,3.17,13.93,13.93,0,0,1-6.06,1,2.62,2.62,0,0,0,1.35,1.5,9.86,9.86,0,0,0,5.18,1.78,10.94,10.94,0,0,0,7.15-3c.9-.61.16-.83,0-1.82" transform="translate(-0.06 -0.06)"/><path id="Path_2473" data-name="Path 2473" class="cls-25" d="M609.43,412.28c1.46-.83,2-3.08,1.58-4.69-2.21-4.53-13.31-5.45-17.28-3.45a3.51,3.51,0,0,0-1.06,3.6,6.15,6.15,0,0,0,1.11,2.42.66.66,0,0,0,.77.21,16.59,16.59,0,0,1,14.88,1.91" transform="translate(-0.06 -0.06)"/><path id="Path_2474" data-name="Path 2474" class="cls-24" d="M600.66,416.28a8.59,8.59,0,0,1-5.41,1,13.61,13.61,0,0,1-5.85-1.7,2.29,2.29,0,0,0,.37,1.88,8.48,8.48,0,0,0,3.58,3.75,11.64,11.64,0,0,0,7.89.4c1.12-.16.59-.66,1-1.59" transform="translate(-0.06 -0.06)"/><path id="Path_2475" data-name="Path 2475" class="cls-25" d="M601.24,421.64a5.15,5.15,0,0,0,3.94-3.45c.53-4.91-8.72-10.39-13.29-10.31a4.07,4.07,0,0,0-2.89,2.71,5.76,5.76,0,0,0-.34,2.6.56.56,0,0,0,.56.51,15,15,0,0,1,12,7.94" transform="translate(-0.06 -0.06)"/><path id="Path_2476" data-name="Path 2476" class="cls-24" d="M590.94,421a8.62,8.62,0,0,1-5.51-.43,12.73,12.73,0,0,1-5-3.15,2.29,2.29,0,0,0-.28,1.89,7.6,7.6,0,0,0,2.16,4.52,11.13,11.13,0,0,0,7.39,2.45c1.13.14.8-.49,1.52-1.26" transform="translate(-0.06 -0.06)"/><path id="Path_2477" data-name="Path 2477" class="cls-25" d="M589.69,426.31c1.7.34,3.91-.88,4.94-2.27,2.15-4.54-4.83-12.2-9.22-13.31a4.5,4.5,0,0,0-3.68,1.84,6.13,6.13,0,0,0-1.2,2.39.53.53,0,0,0,.37.63c2.48.84,8,4.07,8.79,10.72" transform="translate(-0.06 -0.06)"/><path id="Path_2478" data-name="Path 2478" class="cls-24" d="M578.26,423.85a8.16,8.16,0,0,1-5-2,11.11,11.11,0,0,1-3.54-4.43,2.47,2.47,0,0,0-1,1.7A7.16,7.16,0,0,0,569,424a10,10,0,0,0,6.05,4.47c1,.46.93-.22,1.9-.74" transform="translate(-0.06 -0.06)"/><path id="Path_2479" data-name="Path 2479" class="cls-25" d="M575.09,428.46c1.48.81,4,.3,5.51-.7,3.75-3.66.06-12.91-3.66-15.25a4.83,4.83,0,0,0-4.17.66,7,7,0,0,0-2,1.9.49.49,0,0,0,.09.69h0a12.2,12.2,0,0,1,4.24,12.69" transform="translate(-0.06 -0.06)"/><path id="Path_2480" data-name="Path 2480" class="cls-24" d="M566.21,425.29a7.27,7.27,0,0,1-3.93-3.43,9.93,9.93,0,0,1-1.58-5.24,2.86,2.86,0,0,0-1.59,1.31,7.35,7.35,0,0,0-1.61,4.68,8.91,8.91,0,0,0,3.92,6c.77.73,1,.07,2.08-.12" transform="translate(-0.06 -0.06)"/><path id="Path_2481" data-name="Path 2481" class="cls-25" d="M561.42,428.64c1.07,1.22,3.65,1.51,5.45,1,5-2.29,5.13-12.1,2.56-15.41a4.83,4.83,0,0,0-4.17-.66,7.92,7.92,0,0,0-2.66,1.17.49.49,0,0,0-.18.67v0a11.73,11.73,0,0,1-1,13.19" transform="translate(-0.06 -0.06)"/><path id="Path_2482" data-name="Path 2482" class="cls-24" d="M557,425.29a7.34,7.34,0,0,1-3.93-3.43,9.92,9.92,0,0,1-1.57-5.24,2.79,2.79,0,0,0-1.59,1.31,7.42,7.42,0,0,0-1.62,4.68,8.93,8.93,0,0,0,3.93,6c.76.73,1,.07,2.07-.12" transform="translate(-0.06 -0.06)"/><path id="Path_2483" data-name="Path 2483" class="cls-25" d="M552.2,428.64c1.06,1.22,3.65,1.51,5.45,1,5-2.29,5.13-12.1,2.55-15.41a4.81,4.81,0,0,0-4.16-.66,7.83,7.83,0,0,0-2.66,1.17.5.5,0,0,0-.19.67l0,0a11.73,11.73,0,0,1-1,13.19" transform="translate(-0.06 -0.06)"/><path id="Path_2484" data-name="Path 2484" class="cls-24" d="M547.34,425.29a7.31,7.31,0,0,1-3.93-3.43,9.92,9.92,0,0,1-1.57-5.24,2.79,2.79,0,0,0-1.59,1.31,7.36,7.36,0,0,0-1.62,4.68,8.91,8.91,0,0,0,3.92,6c.77.73,1,.07,2.08-.12" transform="translate(-0.06 -0.06)"/><path id="Path_2485" data-name="Path 2485" class="cls-25" d="M542.55,428.64c1.07,1.22,3.65,1.51,5.45,1,5-2.29,5.13-12.1,2.56-15.41a4.83,4.83,0,0,0-4.17-.66,7.92,7.92,0,0,0-2.66,1.17.49.49,0,0,0-.18.67v0a11.73,11.73,0,0,1-1,13.19" transform="translate(-0.06 -0.06)"/><path id="Path_2486" data-name="Path 2486" class="cls-24" d="M537.7,425.29a7.27,7.27,0,0,1-3.93-3.43,9.93,9.93,0,0,1-1.58-5.24,2.86,2.86,0,0,0-1.59,1.31,7.35,7.35,0,0,0-1.61,4.68,8.88,8.88,0,0,0,3.92,6c.76.73,1,.07,2.08-.12" transform="translate(-0.06 -0.06)"/><path id="Path_2487" data-name="Path 2487" class="cls-25" d="M532.91,428.64c1.06,1.22,3.65,1.51,5.45,1,4.95-2.29,5.13-12.1,2.55-15.41a4.81,4.81,0,0,0-4.16-.66,7.83,7.83,0,0,0-2.66,1.17.5.5,0,0,0-.19.67l0,0a11.73,11.73,0,0,1-1,13.19" transform="translate(-0.06 -0.06)"/><path id="Path_2488" data-name="Path 2488" class="cls-24" d="M306.88,279.66a6.07,6.07,0,0,1-4.82.81,11.56,11.56,0,0,1-5.28-2.27,3.24,3.24,0,0,0,.38,2.13,9.93,9.93,0,0,0,3.29,4.41,8.61,8.61,0,0,0,6.46,1.06c1-.18,1.13-.81,1.49-1.82" transform="translate(-0.06 -0.06)"/><path id="Path_2489" data-name="Path 2489" class="cls-25" d="M307,285.81c1.54.39,3.42-.95,4.24-2.49,1.58-5.06-5.21-13.72-9.21-15a3.47,3.47,0,0,0-3.16,2A7.21,7.21,0,0,0,298,273a.66.66,0,0,0,.37.71A16.08,16.08,0,0,1,307,285.81" transform="translate(-0.06 -0.06)"/><path id="Path_2490" data-name="Path 2490" class="cls-24" d="M299.93,284.64a6.67,6.67,0,0,1-4.91-1.19,13,13,0,0,1-4.34-4.14,2.93,2.93,0,0,0-.33,2.07,10.2,10.2,0,0,0,1.72,5.29,9.92,9.92,0,0,0,6.5,3.67c1,.3.73-.44,1.42-1.2" transform="translate(-0.06 -0.06)"/><path id="Path_2491" data-name="Path 2491" class="cls-25" d="M298.57,290.34c1.51.59,3.54-.49,4.52-1.89,2.14-4.78-3.76-14.17-7.64-16a3.42,3.42,0,0,0-3.38,1.57,6.77,6.77,0,0,0-1.18,2.5.68.68,0,0,0,.3.75,16.41,16.41,0,0,1,7.38,13" transform="translate(-0.06 -0.06)"/><path id="Path_2492" data-name="Path 2492" class="cls-24" d="M291.12,285.28a7.53,7.53,0,0,1-4.46-2.78,14.13,14.13,0,0,1-3.07-5.32,2.63,2.63,0,0,0-.91,1.8,9.92,9.92,0,0,0,.18,5.48,11,11,0,0,0,5.32,5.62c.9.62.84-.15,1.72-.62" transform="translate(-0.06 -0.06)"/><path id="Path_2493" data-name="Path 2493" class="cls-25" d="M288.18,290.08c1.31,1.06,3.59.76,4.95-.2,3.44-3.68.34-14.38-2.94-17.37a3.5,3.5,0,0,0-3.74.28,6.06,6.06,0,0,0-1.86,1.91.63.63,0,0,0,.08.79,16.62,16.62,0,0,1,3.51,14.59" transform="translate(-0.06 -0.06)"/><path id="Path_2494" data-name="Path 2494" class="cls-24" d="M281.32,283.3a8.58,8.58,0,0,1-2.89-4.68,13.6,13.6,0,0,1-.49-6.08,2.31,2.31,0,0,0-1.63,1,8.48,8.48,0,0,0-2.23,4.68,11.59,11.59,0,0,0,2.44,7.52c.55,1,.83.32,1.85.39" transform="translate(-0.06 -0.06)"/><path id="Path_2495" data-name="Path 2495" class="cls-25" d="M276.52,285.76a5.16,5.16,0,0,0,4.63,2.46c4.77-1.26,6.6-11.86,4.89-16.09a4.08,4.08,0,0,0-3.57-1.75,5.77,5.77,0,0,0-2.54.62.56.56,0,0,0-.27.7c.79,2.53,1.5,9-3.14,14.06" transform="translate(-0.06 -0.06)"/><path id="Path_2496" data-name="Path 2496" class="cls-24" d="M273.41,275.93a8.58,8.58,0,0,1-1.56-5.3,12.52,12.52,0,0,1,1.15-5.81,2.28,2.28,0,0,0-1.87.42,7.58,7.58,0,0,0-3.45,3.62,11.15,11.15,0,0,0,.36,7.78c.27,1.1.73.57,1.71,1" transform="translate(-0.06 -0.06)"/><path id="Path_2497" data-name="Path 2497" class="cls-25" d="M268,276.64c.29,1.71,2.22,3.33,3.88,3.8,5,.4,9.67-8.86,9.14-13.35a4.48,4.48,0,0,0-3-2.79,6.14,6.14,0,0,0-2.66-.27.52.52,0,0,0-.45.57c.09,2.61-1,8.88-6.89,12" transform="translate(-0.06 -0.06)"/><path id="Path_2498" data-name="Path 2498" class="cls-24" d="M265,265.83a8.19,8.19,0,0,1,.43-5.41,11.14,11.14,0,0,1,3.19-4.69,2.47,2.47,0,0,0-1.92-.43,7.14,7.14,0,0,0-4.57,1.76,10,10,0,0,0-2.47,7.1c-.14,1.1.49.82,1.27,1.6" transform="translate(-0.06 -0.06)"/><path id="Path_2499" data-name="Path 2499" class="cls-25" d="M259.65,264.16c-.34,1.65.9,3.93,2.3,5.06,4.61,2.5,12.35-3.77,13.48-8a4.87,4.87,0,0,0-1.86-3.79,6.91,6.91,0,0,0-2.43-1.38.49.49,0,0,0-.62.29v0a12.17,12.17,0,0,1-10.86,7.81" transform="translate(-0.06 -0.06)"/><path id="Path_2500" data-name="Path 2500" class="cls-24" d="M258.53,255.61a7.29,7.29,0,0,1,2.1-4.76,10,10,0,0,1,4.54-3.06,2.78,2.78,0,0,0-1.71-1.13,7.43,7.43,0,0,0-5-.16,8.9,8.9,0,0,0-4.6,5.53c-.47.95.22.94.73,1.95" transform="translate(-0.06 -0.06)"/><path id="Path_2501" data-name="Path 2501" class="cls-25" d="M253.9,252c-.84,1.37-.35,3.93.64,5.5,3.66,4.06,13.08,1.32,15.49-2.12a4.88,4.88,0,0,0-.61-4.18,7.84,7.84,0,0,0-1.91-2.19.48.48,0,0,0-.69,0l0,0A11.76,11.76,0,0,1,253.9,252" transform="translate(-0.06 -0.06)"/><path id="Path_2502" data-name="Path 2502" class="cls-24" d="M254.79,245.79a7.26,7.26,0,0,1,2.86-4.35,10,10,0,0,1,5-2.27,2.76,2.76,0,0,0-1.51-1.4,7.39,7.39,0,0,0-4.85-1,8.91,8.91,0,0,0-5.46,4.7c-.62.85.06,1,.4,2" transform="translate(-0.06 -0.06)"/><path id="Path_2503" data-name="Path 2503" class="cls-25" d="M250.82,241.5c-1.06,1.22-1,3.82-.28,5.53,2.94,4.61,12.68,3.46,15.62.47a4.81,4.81,0,0,0,.09-4.22,7.94,7.94,0,0,0-1.52-2.48.49.49,0,0,0-.69-.09h0a11.72,11.72,0,0,1-13.2.78" transform="translate(-0.06 -0.06)"/><path id="Path_2504" data-name="Path 2504" class="cls-24" d="M253.49,236.24a7.31,7.31,0,0,1,2.87-4.36,9.94,9.94,0,0,1,5-2.27,2.83,2.83,0,0,0-1.51-1.4,7.41,7.41,0,0,0-4.86-1,8.87,8.87,0,0,0-5.45,4.7c-.63.86.06,1,.4,2" transform="translate(-0.06 -0.06)"/><path id="Path_2505" data-name="Path 2505" class="cls-25" d="M249.52,231.94c-1.06,1.22-1,3.82-.27,5.54,2.93,4.6,12.67,3.46,15.62.46a4.84,4.84,0,0,0,.08-4.22,7.75,7.75,0,0,0-1.51-2.47.5.5,0,0,0-.69-.1l0,0a11.73,11.73,0,0,1-13.21.77" transform="translate(-0.06 -0.06)"/><path id="Path_2506" data-name="Path 2506" class="cls-24" d="M252.2,226.68a7.25,7.25,0,0,1,2.86-4.36,10,10,0,0,1,5-2.26,2.78,2.78,0,0,0-1.5-1.4,7.31,7.31,0,0,0-4.86-1,8.89,8.89,0,0,0-5.46,4.69c-.62.86.06,1,.4,2" transform="translate(-0.06 -0.06)"/><path id="Path_2507" data-name="Path 2507" class="cls-25" d="M248.23,222.38c-1.06,1.22-1,3.82-.28,5.54,2.94,4.6,12.67,3.46,15.62.46a4.81,4.81,0,0,0,.09-4.22,7.78,7.78,0,0,0-1.52-2.47.49.49,0,0,0-.69-.1l0,0a11.72,11.72,0,0,1-13.2.77" transform="translate(-0.06 -0.06)"/><path id="Path_2508" data-name="Path 2508" class="cls-15" d="M450.86,215.25V177.32H422.43v29.92H305.3V177.32H276.87v37.93c0,30.95-7.33,95.49-71.58,117.42a16.31,16.31,0,0,0-11,15.46v68.23a14.52,14.52,0,0,0,14.52,14.52h310a14.52,14.52,0,0,0,14.52-14.52V348.13a16.31,16.31,0,0,0-11-15.46c-64.25-21.93-71.58-86.47-71.58-117.42" transform="translate(-0.06 -0.06)"/><g id="Group_780" data-name="Group 780" class="cls-26"><g id="Group_779" data-name="Group 779"><g class="cls-27"><g id="Group_778" data-name="Group 778"><path id="Path_2509" data-name="Path 2509" class="cls-25" d="M361.62,355.71c-64.88,0-120.7-3.6-167.11-10a15.92,15.92,0,0,0-.18,2.39v68.24a14.52,14.52,0,0,0,14.52,14.52h310a14.52,14.52,0,0,0,14.52-14.52V348.12a16,16,0,0,0-.29-3c-47.27,6.76-104.55,10.6-171.49,10.6" transform="translate(-0.06 -0.06)"/></g></g></g></g><g id="Group_783" data-name="Group 783" class="cls-28"><g id="Group_782" data-name="Group 782"><g class="cls-29"><g id="Group_781" data-name="Group 781"><line id="Line_16" data-name="Line 16" class="cls-30" x1="276.8" y1="178.74" x2="305.24" y2="178.74"/></g></g></g></g><g id="Group_786" data-name="Group 786" class="cls-28"><g id="Group_785" data-name="Group 785"><g class="cls-31"><g id="Group_784" data-name="Group 784"><line id="Line_17" data-name="Line 17" class="cls-30" x1="422.36" y1="178.74" x2="450.8" y2="178.74"/></g></g></g></g><path id="Path_2510" data-name="Path 2510" class="cls-15" d="M168.32,182.71v42.93h93.77V186.46a8.76,8.76,0,0,1,8.76-8.76h186a8.76,8.76,0,0,1,8.76,8.76v39.18h93.77V182.71a63.92,63.92,0,0,0-63.93-63.92H232.24a63.92,63.92,0,0,0-63.93,63.92" transform="translate(-0.06 -0.06)"/><path id="Path_2511" data-name="Path 2511" class="cls-25" d="M259.73,230.81H170.68a5.09,5.09,0,0,1-5.09-5.09V196.05a5.09,5.09,0,0,1,5.09-5.09h89.05a5.08,5.08,0,0,1,5.08,5.09h0v29.67a5.08,5.08,0,0,1-5.08,5.09h0" transform="translate(-0.06 -0.06)"/><path id="Path_2512" data-name="Path 2512" class="cls-25" d="M557.06,230.81H468a5.09,5.09,0,0,1-5.09-5.09h0V196.05A5.09,5.09,0,0,1,468,191h89a5.08,5.08,0,0,1,5.08,5.09h0v29.67a5.08,5.08,0,0,1-5.08,5.09" transform="translate(-0.06 -0.06)"/><g id="Group_789" data-name="Group 789" class="cls-28"><g id="Group_788" data-name="Group 788"><g class="cls-32"><g id="Group_787" data-name="Group 787"><path id="Path_2513" data-name="Path 2513" class="cls-25" d="M194.33,410v6.39a14.52,14.52,0,0,0,14.52,14.52h310a14.52,14.52,0,0,0,14.52-14.52V410Z" transform="translate(-0.06 -0.06)"/></g></g></g></g><path id="Path_2514" data-name="Path 2514" class="cls-25" d="M363.87,232.61a75.51,75.51,0,1,0,75.5,75.51h0a75.5,75.5,0,0,0-75.5-75.51m0,95.61a20.1,20.1,0,1,1,20.1-20.1,20.1,20.1,0,0,1-20.1,20.1" transform="translate(-0.06 -0.06)"/><path id="Path_2515" data-name="Path 2515" class="cls-14" d="M363.87,223.67a75.51,75.51,0,1,0,75.5,75.51h0a75.5,75.5,0,0,0-75.5-75.51m0,95.61A20.1,20.1,0,1,1,384,299.18a20.1,20.1,0,0,1-20.09,20.1" transform="translate(-0.06 -0.06)"/><path id="Path_2516" data-name="Path 2516" class="cls-15" d="M390.18,258.56a8.74,8.74,0,1,1-4.73-11.42h0a8.76,8.76,0,0,1,4.73,11.42M367.82,251a8.73,8.73,0,1,1-9.55-7.84,8.73,8.73,0,0,1,9.55,7.84h0m-23.29,3.83a8.74,8.74,0,1,1-12.12-2.41,8.73,8.73,0,0,1,12.12,2.41h0m-18.74,14.36A8.73,8.73,0,1,1,314,272.73a8.73,8.73,0,0,1,11.83-3.58h0M316,290.64a8.74,8.74,0,1,1-8.74,8.74,8.74,8.74,0,0,1,8.74-8.74m1.52,23.56A8.74,8.74,0,1,1,314,326a8.74,8.74,0,0,1,3.59-11.83h0M330,334.27a8.73,8.73,0,1,1,2.41,12.12A8.74,8.74,0,0,1,330,334.27h0m20.44,11.83a8.74,8.74,0,1,1,7.83,9.55,8.74,8.74,0,0,1-7.83-9.55m23.6.8a8.73,8.73,0,1,1,11.41,4.73A8.72,8.72,0,0,1,374,346.9h0m21.19-10.42a8.73,8.73,0,1,1,12.29-1.2,8.73,8.73,0,0,1-12.29,1.2h0" transform="translate(-0.06 -0.06)"/><path id="Path_2517" data-name="Path 2517" class="cls-25" d="M307.43,300.88a8.73,8.73,0,1,1,17.19-3.1,8.5,8.5,0,0,1,0,3.1,8.72,8.72,0,0,0-17.19,0M394,327.19a8.73,8.73,0,0,1,15.35,4.05,8.73,8.73,0,0,0-17.2-3,8.51,8.51,0,0,0,0,3,8.55,8.55,0,0,1,1.85-4m-64.64-9.4a8.74,8.74,0,0,0-16.31,5.63,8.73,8.73,0,0,1,17.2,0,8.73,8.73,0,0,0-.89-5.61m12.74,14.07a8.73,8.73,0,0,0-13.46,8.75,8.73,8.73,0,0,1,17.21,0,8.74,8.74,0,0,0-3.75-8.77M314,275.73a8.73,8.73,0,0,1,16.31,2.63,8.73,8.73,0,1,0-17.2,0,9,9,0,0,1,.89-2.61m71.49-28.59a8.72,8.72,0,0,0-11.94,9.56,8.73,8.73,0,0,1,17.2,0,8.74,8.74,0,0,0-5.26-9.59m-6.69,88.35a8.73,8.73,0,0,0-5.27,9.58,8.73,8.73,0,0,1,17.21,0,8.72,8.72,0,0,0-11.94-9.56M360,338.26a8.71,8.71,0,0,0-9.54,7.79,8.13,8.13,0,0,0,.09,2.41,8.72,8.72,0,0,1,17.19,0c0-.21.08-.42.1-.64a8.74,8.74,0,0,0-7.84-9.55h0m-1.71-95.14a8.73,8.73,0,0,0-7.83,9.55c0,.22.06.43.09.64a8.73,8.73,0,0,1,17.2,0,8.71,8.71,0,0,0-7.05-10.11,8.84,8.84,0,0,0-2.41-.09m-25.86,9.26a8.72,8.72,0,0,0-3.75,8.77,8.73,8.73,0,0,1,17.21,0,8.73,8.73,0,0,0-13.46-8.75" transform="translate(-0.06 -0.06)"/><path id="Path_2518" data-name="Path 2518" class="cls-24" d="M439.37,290.92l-34.75-1.49s0,1.58,0,2.31a1.7,1.7,0,0,0,.33,1.32,25.37,25.37,0,0,0,12.2,5.86c10.27,2.1,22.2,1.5,22.2,1.5Z" transform="translate(-0.06 -0.06)"/><path id="Path_2519" data-name="Path 2519" class="cls-25" d="M439.37,289.05a1,1,0,0,0-1-1H405.39c-.79,0-1.1,1.52-.43,2.13A25.37,25.37,0,0,0,417.17,296c10.27,2.1,22.2,1.5,22.2,1.5Z" transform="translate(-0.06 -0.06)"/><path id="Path_2520" data-name="Path 2520" class="cls-8" d="M302.86,147.73s3.07,2.17,4.13,2.23,3.5-.73,6.52-.43c1.34.13,4.82.91,5,1.45s-3.15.47-3.07.71,6.26,2.53,6,3.46c-.14.47-6.12-1.77-6.12-1.77s6.52,2.27,6.14,3-6.55-1.68-6.55-1.68,5.89,2.15,5.57,2.76-6.07-.93-6.07-.93,5,1.09,4.74,1.69c-.14.31-5.64-.38-10.34-2.15a36,36,0,0,1-7.93-4.35" transform="translate(-0.06 -0.06)"/><path id="Path_2521" data-name="Path 2521" class="cls-8" d="M306.05,112.15c-4.49,6.84-14.88,14.74-20.62,19.58,3.3,4.47,21.94,18.38,21.94,18.38l-1.73,4.15s-35.53-6.37-36.66-23.91c-.67-10.5,12.61-26,22.93-33.23" transform="translate(-0.06 -0.06)"/><path id="Path_2522" data-name="Path 2522" class="cls-13" d="M298.3,92.25c-10.52,4.69-21.72,19.47-21.72,19.47l16,15.93L307,117.47l11.11-24.32-1.25-2.7a28,28,0,0,0-18.6,1.8" transform="translate(-0.06 -0.06)"/><path id="Path_2523" data-name="Path 2523" class="cls-14" d="M275.29,112.5l15.82,17.27,5.75-4.33-17.1-17.59Z" transform="translate(-0.06 -0.06)"/><line id="Line_18" data-name="Line 18" class="cls-19" x1="302.96" y1="120.24" x2="309.03" y2="116.37"/><path id="Path_2524" data-name="Path 2524" class="cls-8" d="M509.91,242.3s-8.68,4.2-10.66,4.11-3.18-1-6.35-1.84c-.86-.23-3.62-1.2-4-.32-.24.57,2.4,1.19,2.14,1.83s-6.21.14-6.64,1,5.61.74,5.61.74-6.31.35-6.49,1.13,6.26.32,6.26.32-6,.63-5.82,1.34,5.69.27,5.69.27-4.77.73-4.43,1.46c.24.51,4.3-.08,6-.14s3.62,1.62,7.79,0c.39-.07,11.5-.91,11.5-.91" transform="translate(-0.06 -0.06)"/><path id="Path_2525" data-name="Path 2525" class="cls-33" d="M492,246.77s1.74,3,4.23,2.81" transform="translate(-0.06 -0.06)"/><path id="Path_2526" data-name="Path 2526" class="cls-8" d="M555.83,209.32c-6.44,8.61-11,14.92-14.8,17.58-6.43,4.53-41.78,19.51-41.78,19.51l-.18,5.75s41.09,1.56,62.71-9.45c4.66-2.38,16-11.49,16-11.49" transform="translate(-0.06 -0.06)"/><path id="Path_2527" data-name="Path 2527" class="cls-13" d="M613.5,175.15A43.89,43.89,0,0,0,574,186.77c-7.38,7.1-13.42,15.59-18.74,22.7L577.63,233c13-10.65,22-19.24,22-19.24" transform="translate(-0.06 -0.06)"/><path id="Path_2528" data-name="Path 2528" class="cls-14" d="M554.17,210.2l22.25,23.72,5.61-4.26-23.57-25.19Z" transform="translate(-0.06 -0.06)"/><path id="Path_2529" data-name="Path 2529" d="M662.45,438.16c2.41,3.34,2.3,8.87.77,9.43-.9.33-19.2.92-19.47-.15-1.32-5.28,13.8-8.35,13.8-8.35" transform="translate(-0.06 -0.06)"/><path id="Path_2530" data-name="Path 2530" class="cls-8" d="M649.9,417.59l5.23,22.09a9.47,9.47,0,0,0,4.23.83,5.2,5.2,0,0,0,3.78-1.32l-.4-24.66" transform="translate(-0.06 -0.06)"/><path id="Path_2531" data-name="Path 2531" d="M594.64,438.16c2.41,3.34,2.29,8.87.77,9.43-.9.33-19.2.92-19.47-.15-1.32-5.28,13.79-8.35,13.79-8.35" transform="translate(-0.06 -0.06)"/><path id="Path_2532" data-name="Path 2532" class="cls-8" d="M586.2,417.59l1.12,22.09a9.43,9.43,0,0,0,4.22.83,5.24,5.24,0,0,0,3.79-1.32L599,414.53" transform="translate(-0.06 -0.06)"/><path id="Path_2533" data-name="Path 2533" class="cls-9" d="M584.8,269.28c-8.94,76.34,2.14,162.13,2.14,162.13l10.26.78S619,318.45,624.47,313.67s10.47-20.73,2-41.2" transform="translate(-0.06 -0.06)"/><path id="Path_2534" data-name="Path 2534" class="cls-34" d="M594.77,432s21-113.8,26.47-118.59,13.7-20.48,5.24-40.95" transform="translate(-0.06 -0.06)"/><path id="Path_2535" data-name="Path 2535" class="cls-34" d="M597.36,278.1s-.5,5.6-4.05,6.9c-4.53,1.67-9.7,0-9.7,0" transform="translate(-0.06 -0.06)"/><path id="Path_2536" data-name="Path 2536" class="cls-35" d="M597.3,432.2l-10.83-.83L586.2,428l11.93.91Z" transform="translate(-0.06 -0.06)"/><path id="Path_2537" data-name="Path 2537" class="cls-9" d="M613.14,272.52c12.5,93.32,40.3,159.73,40.3,159.73l10.23-1.13S673.89,276,654.49,261.78" transform="translate(-0.06 -0.06)"/><path id="Path_2538" data-name="Path 2538" class="cls-34" d="M621.84,324.49s-6.57-35.76-8.73-55.34" transform="translate(-0.06 -0.06)"/><path id="Path_2539" data-name="Path 2539" class="cls-34" d="M609.13,277.33s2.67,14.7,3.75,15.57a5.36,5.36,0,0,0,3.88,1.21" transform="translate(-0.06 -0.06)"/><path id="Path_2540" data-name="Path 2540" class="cls-34" d="M662.41,430.1s5.12-155.37-12.58-167.8" transform="translate(-0.06 -0.06)"/><path id="Path_2541" data-name="Path 2541" class="cls-34" d="M637.27,279.48s.73,5.57,6.14,6.56c6.9,1.25,14.72-.31,14.72-.31" transform="translate(-0.06 -0.06)"/><path id="Path_2542" data-name="Path 2542" class="cls-35" d="M663.67,431.12l-10.8,1.19L652,429l11.9-1.31Z" transform="translate(-0.06 -0.06)"/><path id="Path_2543" data-name="Path 2543" class="cls-13" d="M652.82,191.13c9.15,19.15,18,79.15,12,85.11-9.77,9.76-72.81,10-82.79,0-2.13-2.13-1.21-16.68,0-30.32,2.09-23,3.81-45.91,3.81-45.91s16.42-27.72,30.33-27.72,36.58,18.84,36.58,18.84" transform="translate(-0.06 -0.06)"/><path id="Path_2544" data-name="Path 2544" class="cls-19" d="M583.67,228s2.07-21.13.52-27.55" transform="translate(-0.06 -0.06)"/><path id="Path_2545" data-name="Path 2545" class="cls-8" d="M707.75,163.8s2.3-8.16,2.4-10.15-.69-3.25-1.25-6.49c-.15-.87-.85-3.72.06-4,.6-.18,1,2.5,1.62,2.3s.73-6.17,1.58-6.52.21,5.66.21,5.66.94-6.26,1.73-6.36-.26,6.27-.26,6.27,1.19-5.93,1.88-5.68-.27,5.7-.27,5.7,1.17-4.69,1.87-4.28c.49.28-.47,4.28-.7,6s1.27,3.76-.73,7.76l-3.48,12.18" transform="translate(-0.06 -0.06)"/><path id="Path_2546" data-name="Path 2546" class="cls-8" d="M668.27,182.66c7.23,3.2,16.64,5.33,19.11,4.05,7.45-3.86,22.72-32.6,22.72-32.6l5.78-.09s-4.46,51.83-22.59,63.13c-7.73,4.82-24.49,4.23-32.41,1.07" transform="translate(-0.06 -0.06)"/><path id="Path_2547" data-name="Path 2547" class="cls-33" d="M711.19,146.47s2.83,2,2.4,4.48" transform="translate(-0.06 -0.06)"/><path id="Path_2548" data-name="Path 2548" class="cls-13" d="M619.69,175.57a63,63,0,0,1,41,3.7c2.66,1.18,13.55,5.67,15.91,6.71l-4.9,34.7a107.28,107.28,0,0,1-25.86-5.41" transform="translate(-0.06 -0.06)"/><line id="Line_19" data-name="Line 19" class="cls-19" x1="660.82" y1="219.13" x2="645.8" y2="215.21"/><path id="Path_2549" data-name="Path 2549" class="cls-14" d="M670.09,222.09l1.27-38.76,9,1.4-3,38Z" transform="translate(-0.06 -0.06)"/><path id="Path_2550" data-name="Path 2550" class="cls-15" d="M600.21,153.42A4.07,4.07,0,1,0,604,148.8a4.22,4.22,0,0,0-3.78,4.62" transform="translate(-0.06 -0.06)"/><path id="Path_2551" data-name="Path 2551" class="cls-16" d="M602.16,153.49a2.67,2.67,0,1,0,2.46-3.16,2.83,2.83,0,0,0-2.46,3.16" transform="translate(-0.06 -0.06)"/><path id="Path_2552" data-name="Path 2552" d="M606.52,139.83c-2.83,1-3.68,8.46-2.73,11a3.42,3.42,0,0,0,3.4,2.43,3.71,3.71,0,0,0,3.23-3" transform="translate(-0.06 -0.06)"/><path id="Path_2553" data-name="Path 2553" class="cls-36" d="M604.37,152.29a2.4,2.4,0,0,1,1.66-.45c2.32.35,1.54,6.89-.16,6.72-2.89-.29-3.84-4.7-1.5-6.27" transform="translate(-0.06 -0.06)"/><path id="Path_2554" data-name="Path 2554" class="cls-8" d="M609.7,162.13l-1.36,11.77s1,8.78,5.86,9c8.18.33,15.37-9.88,15.37-9.88l-6.4-17.52" transform="translate(-0.06 -0.06)"/><line id="Line_20" data-name="Line 20" class="cls-19" x1="614.14" y1="182.82" x2="611.87" y2="207.78"/><path id="Path_2555" data-name="Path 2555" class="cls-14" d="M628.35,169.66s-8.29,11.1-14.15,13.22L619,189.8c7.13-2.19,13.18-16.35,13.18-16.35Z" transform="translate(-0.06 -0.06)"/><path id="Path_2556" data-name="Path 2556" class="cls-14" d="M608.63,171.4s1.66,8.67,5.57,11.48l-3.91,6.55c-3.9-2.19-4.92-15-4.92-15Z" transform="translate(-0.06 -0.06)"/><path id="Path_2557" data-name="Path 2557" class="cls-9" d="M616.53,189.8a.72.72,0,1,1-.72-.72.72.72,0,0,1,.72.72h0" transform="translate(-0.06 -0.06)"/><path id="Path_2558" data-name="Path 2558" class="cls-9" d="M616,197.86a.72.72,0,1,1-.72-.72h0a.72.72,0,0,1,.72.71h0" transform="translate(-0.06 -0.06)"/><path id="Path_2559" data-name="Path 2559" class="cls-9" d="M615.31,206.57a.72.72,0,1,1-.72-.72h0a.72.72,0,0,1,.72.72" transform="translate(-0.06 -0.06)"/><path id="Path_2560" data-name="Path 2560" class="cls-8" d="M606.62,142.28s-3,13.19-.1,18.77c3.22,6.22,10.58,4.74,13.85,2,3.73-3.18,3.62-11.17,3.62-13.65,0-6.73-13.82-10.63-17.37-7.09" transform="translate(-0.06 -0.06)"/><path id="Path_2561" data-name="Path 2561" class="cls-20" d="M613.12,150.13s-1.44,3.78-1.35,4.64,2.71,1,2.71,1" transform="translate(-0.06 -0.06)"/><path id="Path_2562" data-name="Path 2562" d="M617.81,150.85a.85.85,0,0,0,.61,1c.39.05.76-.34.82-.86a.86.86,0,0,0-.61-1c-.4-.05-.76.34-.82.86" transform="translate(-0.06 -0.06)"/><path id="Path_2563" data-name="Path 2563" d="M606.93,150.5a.85.85,0,0,0,.61,1c.39.05.76-.34.82-.86a.86.86,0,0,0-.61-1c-.4,0-.76.34-.82.86" transform="translate(-0.06 -0.06)"/><path id="Path_2564" data-name="Path 2564" class="cls-37" d="M616.5,148.24c1.13-.73,3.58,0,4.79.81" transform="translate(-0.06 -0.06)"/><path id="Path_2565" data-name="Path 2565" class="cls-37" d="M606.52,147.56a4.42,4.42,0,0,1,3.08.68" transform="translate(-0.06 -0.06)"/><path id="Path_2566" data-name="Path 2566" class="cls-14" d="M617.64,158.89l-7.23-.33s-.15,3.55,3.14,3.55c4.38,0,4.09-3.22,4.09-3.22" transform="translate(-0.06 -0.06)"/><path id="Path_2567" data-name="Path 2567" class="cls-33" d="M609.39,164.84c3.68.94,8.53.87,11-1.21,1.41-1.19,2.27-3.67,2.79-5.67" transform="translate(-0.06 -0.06)"/><path id="Path_2568" data-name="Path 2568" class="cls-8" d="M625.91,153.37a2.42,2.42,0,0,0-1.49-.86c-2.33-.25-3.23,6.28-1.54,6.54,2.87.45,4.91-3.57,3-5.68" transform="translate(-0.06 -0.06)"/><path id="Path_2569" data-name="Path 2569" d="M628.44,151.27a14.86,14.86,0,0,0,.28-2.57c.11-3.32,0-7-1.89-9.85-2.26-3.52-6.5-4.82-10.44-5.29a11.46,11.46,0,0,0-10.16,4.26,8.4,8.4,0,0,0-2,5.18,2.06,2.06,0,0,0,.3,1.21c.54.79,1.85.71,2.69.8a5.44,5.44,0,0,0,3.33-1,5.79,5.79,0,0,0,6.88.47,1.36,1.36,0,0,0,1,1.32,6.36,6.36,0,0,0,1.74.19,2.13,2.13,0,0,1,1.58.66,2.75,2.75,0,0,1,.41,1.61c0,1,.09,1.95.14,2.92.06,1.31.2,2.79,1.18,3.61,1.21,1,3,.32,3.82-.82a7,7,0,0,0,1.1-2.7" transform="translate(-0.06 -0.06)"/><path id="Path_2570" data-name="Path 2570" class="cls-18" d="M620.88,160.62a7,7,0,0,0,1-.2,4.38,4.38,0,0,0,2.46-1.73,1.85,1.85,0,0,0,.36-1.06.16.16,0,0,0-.31,0h0a1.6,1.6,0,0,1-.31.89,4.1,4.1,0,0,1-2.3,1.6,9.9,9.9,0,0,1-2.82.27.15.15,0,0,0-.15.15h0a.14.14,0,0,0,.14.15h0a13.71,13.71,0,0,0,1.92-.08" transform="translate(-0.06 -0.06)"/><path id="Path_2571" data-name="Path 2571" class="cls-18" d="M618.25,160.2a1.16,1.16,0,0,1,.86-.09c1,.27,0,1.56-.92,1a.58.58,0,0,1-.19-.19.53.53,0,0,1,.25-.68" transform="translate(-0.06 -0.06)"/><path id="Path_2572" data-name="Path 2572" class="cls-15" d="M621.53,153.87a4.07,4.07,0,1,0,4.32-4.13,4.23,4.23,0,0,0-4.32,4.13" transform="translate(-0.06 -0.06)"/><path id="Path_2573" data-name="Path 2573" class="cls-16" d="M623.46,154.18a2.68,2.68,0,1,0,2.84-2.85,2.86,2.86,0,0,0-2.84,2.85" transform="translate(-0.06 -0.06)"/><path id="Path_2574" data-name="Path 2574" class="cls-15" d="M627.28,151.47h0a.63.63,0,0,1-.6-.66h0c.32-5.65-1.73-10.12-5.79-12.56a12.83,12.83,0,0,0-12.94,0c-2.1,1.26-4.86,3.87-4.48,11.89a.63.63,0,0,1-1.26.06h0c-.32-6.54,1.35-10.8,5.09-13a14,14,0,0,1,14.26,0c4.47,2.7,6.74,7.58,6.39,13.72a.63.63,0,0,1-.63.6" transform="translate(-0.06 -0.06)"/><path id="Path_2575" data-name="Path 2575" class="cls-14" d="M671.4,78.1a27.65,27.65,0,0,0-23.93,47.05l-3.73,7.58,8.38-3.91A27.66,27.66,0,1,0,671.39,78.1" transform="translate(-0.06 -0.06)"/><path id="Path_2576" data-name="Path 2576" class="cls-21" d="M671.4,78.1a27.65,27.65,0,0,0-23.93,47.05l-3.73,7.58,8.38-3.91A27.66,27.66,0,1,0,671.39,78.1Z" transform="translate(-0.06 -0.06)"/><path id="Path_2577" data-name="Path 2577" class="cls-13" d="M653.07,119.81,649.89,116a3.47,3.47,0,0,1,.44-4.88h0l3.67-3.06a3.47,3.47,0,0,1,4.88.44h0s1.69,2.55,3.68,2.1c2.26-.52,7.17-4.11,9.81-6.89,1.87-2-1.26-5.41-1.26-5.41a3.46,3.46,0,0,1,.44-4.88h0l3.66-3.06a3.48,3.48,0,0,1,4.88.44l3.19,3.82c7.17,8.59-23.95,32.68-30.2,25.2" transform="translate(-0.06 -0.06)"/><path id="Path_2578" data-name="Path 2578" d="M161.13,438.66c2.29,3.17,2.18,8.42.73,8.95-.85.32-18.23.88-18.49-.14-1.25-5,13.1-7.93,13.1-7.93" transform="translate(-0.06 -0.06)"/><path id="Path_2579" data-name="Path 2579" class="cls-8" d="M147,419.12l7.18,21a8.91,8.91,0,0,0,4,.79,4.94,4.94,0,0,0,3.59-1.25l-2.59-23.42" transform="translate(-0.06 -0.06)"/><path id="Path_2580" data-name="Path 2580" d="M92.79,438.66c2.29,3.17,2.18,8.42.73,8.95-.85.32-18.23.88-18.49-.14-1.25-5,13.1-7.93,13.1-7.93" transform="translate(-0.06 -0.06)"/><path id="Path_2581" data-name="Path 2581" class="cls-8" d="M82.36,419.12l3.48,21a8.94,8.94,0,0,0,4,.79,4.92,4.92,0,0,0,3.59-1.25l1.11-23.42" transform="translate(-0.06 -0.06)"/><path id="Path_2582" data-name="Path 2582" class="cls-9" d="M120.05,257.5c6.22,54.7-18.18,129.68-24.22,173H82.14s-5.65-34.68-6-85.79c-.4-55.45,3.85-74.66,3.85-74.66l.13-6" transform="translate(-0.06 -0.06)"/><path id="Path_2583" data-name="Path 2583" class="cls-9" d="M100.35,258.88c6.42,81.08,49.7,171.73,49.7,171.73h11.31s-3.23-61.16-13.76-118.33c1.63-16,.43-28.45-8.79-42.53l-.69-5.63" transform="translate(-0.06 -0.06)"/><path id="Path_2584" data-name="Path 2584" class="cls-34" d="M80,270.08s28.8,2.91,58.44-.41" transform="translate(-0.06 -0.06)"/><path id="Path_2585" data-name="Path 2585" class="cls-34" d="M105.64,264h-4.56a1.16,1.16,0,0,0-1.09,1.25h0l.13,4.77a1.17,1.17,0,0,0,1.09,1.19h4.43" transform="translate(-0.06 -0.06)"/><path id="Path_2586" data-name="Path 2586" class="cls-34" d="M122.93,270.91a34.32,34.32,0,0,0-.38-6.87" transform="translate(-0.06 -0.06)"/><path id="Path_2587" data-name="Path 2587" class="cls-34" d="M89.35,270.91a38.45,38.45,0,0,1,.34-6.87" transform="translate(-0.06 -0.06)"/><path id="Path_2588" data-name="Path 2588" class="cls-14" d="M104.34,267.58a1.12,1.12,0,1,1-2.23-.18,1.11,1.11,0,0,1,1.11-1,1.18,1.18,0,0,1,1.12,1.21" transform="translate(-0.06 -0.06)"/><path id="Path_2589" data-name="Path 2589" class="cls-34" d="M125.86,270.91s1.54,5.08,4.6,5.08h8" transform="translate(-0.06 -0.06)"/><path id="Path_2590" data-name="Path 2590" class="cls-34" d="M136,269.92s8.36,16,6.93,39.39a17.18,17.18,0,0,0,.28,4.41c9,45.08,15.64,116.81,15.64,116.81" transform="translate(-0.06 -0.06)"/><path id="Path_2591" data-name="Path 2591" class="cls-34" d="M114,333.53s-8.51-31.24-11.23-44.53" transform="translate(-0.06 -0.06)"/><path id="Path_2592" data-name="Path 2592" class="cls-34" d="M79.52,276s8.3,1.5,9.8,0,2.52-5.08,2.52-5.08" transform="translate(-0.06 -0.06)"/><path id="Path_2593" data-name="Path 2593" class="cls-34" d="M94.26,430.53a1034.49,1034.49,0,0,1,18.09-103.26" transform="translate(-0.06 -0.06)"/><path id="Path_2594" data-name="Path 2594" class="cls-35" d="M96.3,433l-14.13-.43-.53-4.37,14.83.48Z" transform="translate(-0.06 -0.06)"/><path id="Path_2595" data-name="Path 2595" class="cls-35" d="M162.27,432.37l-12.9.79-.88-4.3,13.55-.81Z" transform="translate(-0.06 -0.06)"/><path id="Path_2596" data-name="Path 2596" class="cls-8" d="M53.26,188.46l-2.15-27.39-5.54-1.15-8.21,33.6" transform="translate(-0.06 -0.06)"/><path id="Path_2597" data-name="Path 2597" class="cls-13" d="M100.15,174.09s-7.75-1.52-18.89,2.3c-12.68,4.35-25.88,15.47-25.88,15.47L53.59,174.3,43,169.92S27,210.08,41,218.25c16.81,9.77,57.49-4.56,57.49-4.56" transform="translate(-0.06 -0.06)"/><line id="Line_21" data-name="Line 21" class="cls-19" x1="55.31" y1="191.8" x2="56.52" y2="203.64"/><path id="Path_2598" data-name="Path 2598" class="cls-14" d="M55.22,180l-15.93-3.31,2.07-8.14,14.58,4.6Z" transform="translate(-0.06 -0.06)"/><path id="Path_2599" data-name="Path 2599" class="cls-8" d="M50.93,166l.18-5a21.46,21.46,0,0,0,3.34-4.53c.65-1.2,1.88-4.56,1.41-5.06s-2.37,2.32-2.58,2.1,1-6.74-.18-7.1c-.59-.18-1.71,6.16-1.71,6.16s1.41-6.8.41-6.94-2.07,6.47-2.07,6.47,1.17-6.21.33-6.32-1.85,6-1.85,6,.79-5.47.23-5.36c-.84.17-1.95,3.72-2.71,9-.13.92-.09,4.16-.13,4.41s-1,5.7-1,5.7" transform="translate(-0.06 -0.06)"/><path id="Path_2600" data-name="Path 2600" class="cls-12" d="M52.61,153.93a11.07,11.07,0,0,0-3.46,2,4.41,4.41,0,0,0-1.29,3.69.18.18,0,0,0,.18.16.19.19,0,0,0,.16-.16,7.9,7.9,0,0,1,.39-2,4,4,0,0,1,1-1.47,8.13,8.13,0,0,1,1.47-1.07c.56-.33,1.11-.65,1.67-.95.17-.09,0-.33-.15-.25" transform="translate(-0.06 -0.06)"/><path id="Path_2601" data-name="Path 2601" d="M102.74,155.41c-2.4-1.95-2-6-1.55-8.94.69-4.1,2.2-8.13,5.42-10.08a11.19,11.19,0,0,1,14.8,3.25c5.69,2.7,4.32,11.83,2.91,16-2,5.88-5.54,7.72-9,7" transform="translate(-0.06 -0.06)"/><path id="Path_2602" data-name="Path 2602" class="cls-13" d="M147.88,193.74c5.56,14.2-7.63,68.59-10.16,70.3-2.91,2-54.65,3-57.62,0-1.22-1.22-.38-2.7-.12-8.23.39-8.47.53-25.32-1.55-56.69C79,183.3,94.79,171.84,108,171.84s39.88,21.9,39.88,21.9" transform="translate(-0.06 -0.06)"/><line id="Line_22" data-name="Line 22" class="cls-19" x1="79.46" y1="218.87" x2="78.36" y2="199.06"/><path id="Path_2603" data-name="Path 2603" class="cls-8" d="M207.3,242.62s6.55,4.89,8.3,5.6c1.64.18,3.18.14,6.25.66.83.14,3.6.41,3.56,1.31,0,.59-2.55.08-2.57.73s5.3,2.59,5.34,3.46-5.13-1.58-5.13-1.58,5.3,2.8,5.14,3.55-5.53-2.21-5.53-2.21,4.94,2.93,4.5,3.47-5-2-5-2,3.83,2.52,3.24,3c-.4.34-3.68-1.77-5.16-2.52s-3.76,0-6.71-3.1c-.31-.21-10.33-2.91-10.33-2.91" transform="translate(-0.06 -0.06)"/><path id="Path_2604" data-name="Path 2604" class="cls-33" d="M221.75,251.14s-2.7,1.9-4.76.75" transform="translate(-0.06 -0.06)"/><path id="Path_2605" data-name="Path 2605" class="cls-8" d="M158.65,199.08s18.42,19.15,21.53,22.22c5.31,5.26,35.42,26.92,35.42,26.92L213.51,253s-32.44-3.86-54.37-16.9c-6-3.56-19.72-17.13-19.72-17.13" transform="translate(-0.06 -0.06)"/><path id="Path_2606" data-name="Path 2606" class="cls-13" d="M114.64,171.5c9.21,1.61,24.89,2.78,36.65,14,11.19,10.64,17.18,20,27.55,32.26a85.12,85.12,0,0,0,18.37,16L187,248.16s-23-7-30-12.24-25-22.13-25-22.13" transform="translate(-0.06 -0.06)"/><line id="Line_23" data-name="Line 23" class="cls-19" x1="146.33" y1="226.85" x2="131.91" y2="213.73"/><path id="Path_2607" data-name="Path 2607" class="cls-14" d="M184.14,248.39,194,230.91l6.86,5-10.5,15.5Z" transform="translate(-0.06 -0.06)"/><path id="Path_2608" data-name="Path 2608" class="cls-8" d="M105.34,152l-4.84,21.4s.93,8.33,5.56,8.52c7.76.32,14.39-9.1,14.39-9.1l-3.23-16.91" transform="translate(-0.06 -0.06)"/><line id="Line_24" data-name="Line 24" class="cls-19" x1="105.99" y1="181.82" x2="103.84" y2="205.53"/><path id="Path_2609" data-name="Path 2609" class="cls-14" d="M119.69,168.81s-8.07,11.07-13.63,13.07l4.51,6.58c6.78-2.08,12.53-15.53,12.53-15.53Z" transform="translate(-0.06 -0.06)"/><path id="Path_2610" data-name="Path 2610" class="cls-14" d="M100.77,171s1.57,8.23,5.29,10.89l-3.72,6.23c-3.7-2.08-4.67-14.27-4.67-14.27Z" transform="translate(-0.06 -0.06)"/><path id="Path_2611" data-name="Path 2611" class="cls-9" d="M108.27,188.46a.69.69,0,1,1-.68-.69h0a.7.7,0,0,1,.68.69" transform="translate(-0.06 -0.06)"/><path id="Path_2612" data-name="Path 2612" class="cls-9" d="M107.79,196.11a.68.68,0,1,1-.68-.69h0a.68.68,0,0,1,.68.69" transform="translate(-0.06 -0.06)"/><path id="Path_2613" data-name="Path 2613" class="cls-9" d="M107.11,204.38a.69.69,0,1,1-.68-.69h0a.7.7,0,0,1,.68.69" transform="translate(-0.06 -0.06)"/><path id="Path_2614" data-name="Path 2614" class="cls-8" d="M102.45,141.3s-5.3,14.36-3.56,20.07c1.33,4.34,8.77,4.61,12.32,2.64,4.07-2.26,5.63-10.56,6.09-12.87,1.25-6.27-10.89-12.47-14.85-9.84" transform="translate(-0.06 -0.06)"/><path id="Path_2615" data-name="Path 2615" d="M104.14,150.46a.74.74,0,0,0,1.48,0,.74.74,0,0,0-.52-.73.85.85,0,0,0-1,.68" transform="translate(-0.06 -0.06)"/><path id="Path_2616" data-name="Path 2616" d="M115.05,152.76a11.54,11.54,0,0,0,.31,2.93,2.43,2.43,0,0,0,.52,1,2,2,0,0,0,2.08.4c.71-.25,3.87-6.36,1.91-11.61-1.3-3.51-3.2-5.74-6.77-6.87a20.24,20.24,0,0,0-6.28-.82c-1.87,0-3.61.92-5.52.87a19.16,19.16,0,0,0-2.51-.1,2.46,2.46,0,0,0-2.05,1.24c-.55,1.21.47,2.56,1.56,3.31a10.3,10.3,0,0,0,6.81,1.79c1.39-.13,2.74-.54,4.13-.58.12.66-1.14.9-1.1,1.57,0,.32.32.54.61.68A9.58,9.58,0,0,0,112,147a3.09,3.09,0,0,1,1.94.79,3,3,0,0,1,.64,1.1c1.26,3.57,0,8.2,0,11.91a2.26,2.26,0,0,0,.61,1.84,1.82,1.82,0,0,0,1.56.17c1.54-.42,7.06-.37,8-10.54" transform="translate(-0.06 -0.06)"/><path id="Path_2617" data-name="Path 2617" class="cls-37" d="M103.69,147.56a7.73,7.73,0,0,1,4.12.38" transform="translate(-0.06 -0.06)"/><path id="Path_2618" data-name="Path 2618" class="cls-8" d="M100.55,148.7s-4.92,3.64-3.88,4.72a9.6,9.6,0,0,0,3.09,1.8" transform="translate(-0.06 -0.06)"/><path id="Path_2619" data-name="Path 2619" class="cls-18" d="M110.48,161a7.79,7.79,0,0,0,1-.09,4.12,4.12,0,0,0,2.51-1.36,1.82,1.82,0,0,0,.45-1,.15.15,0,1,0-.29,0,1.51,1.51,0,0,1-.39.8,3.81,3.81,0,0,1-2.33,1.27,9.39,9.39,0,0,1-2.7,0,.15.15,0,0,0-.16.13.15.15,0,0,0,.13.16h0a12.28,12.28,0,0,0,1.82.13" transform="translate(-0.06 -0.06)"/><path id="Path_2620" data-name="Path 2620" class="cls-18" d="M108.05,160.35a1.06,1.06,0,0,1,.82,0c.9.36-.18,1.46-1,.8a.58.58,0,0,1-.16-.19.5.5,0,0,1,.3-.62" transform="translate(-0.06 -0.06)"/><path id="Path_2621" data-name="Path 2621" class="cls-15" d="M111.32,154.64a4.38,4.38,0,1,0,5.12-3.89,4.56,4.56,0,0,0-5.12,3.89" transform="translate(-0.06 -0.06)"/><path id="Path_2622" data-name="Path 2622" class="cls-16" d="M113.61,155.22a2.54,2.54,0,1,0,3-2.37,2.7,2.7,0,0,0-3,2.37" transform="translate(-0.06 -0.06)"/><path id="Path_2623" data-name="Path 2623" class="cls-14" d="M105.85,158.09l-5.95-1.58s-.75,3.28,2,3.86c3.64.78,4-2.28,4-2.28" transform="translate(-0.06 -0.06)"/><path id="Path_2624" data-name="Path 2624" class="cls-15" d="M117.13,152.48h0a.58.58,0,0,1-.33-.7c1.06-5.27.22-9.69-2.35-12.44a7.44,7.44,0,0,0-9.37-1.48,5.68,5.68,0,0,0-.59.41l-1.38.25a6.13,6.13,0,0,1,1.91-1.71,7.93,7.93,0,0,1,10.06,1.59c2.84,3,3.78,7.87,2.63,13.6a.55.55,0,0,1-.55.49" transform="translate(-0.06 -0.06)"/><path id="Path_2625" data-name="Path 2625" class="cls-33" d="M102.47,164.64s8.19,3.24,11.55-3.61" transform="translate(-0.06 -0.06)"/><path id="Path_2626" data-name="Path 2626" class="cls-14" d="M12.89,89.41a26,26,0,0,1,37.59,32.51l6,5.28-8.7-.43A26,26,0,1,1,12.89,89.41" transform="translate(-0.06 -0.06)"/><path id="Path_2627" data-name="Path 2627" class="cls-21" d="M12.89,89.41a26,26,0,0,1,37.59,32.51l6,5.28-8.7-.43A26,26,0,1,1,12.89,89.41Z" transform="translate(-0.06 -0.06)"/><path id="Path_2628" data-name="Path 2628" class="cls-13" d="M33,125a2.37,2.37,0,0,1-1.86,2.42c-1.74.39-3.49,1.09-5.22,1-4-.12-5.74-2.48-4.88-6.39.67-3.06,2-7.49,2.68-10.55.79-3.38-.43-4.45-3.79-3.51l-.89.23a2.09,2.09,0,0,1,1.61-2.38A29,29,0,0,1,26,104.74c4-.4,5.86,2.22,4.88,6.67-.52,2.38-1.63,6.15-2.23,8.52a18.69,18.69,0,0,0-.63,3.48c-.1,1.4.54,2,1.95,2.09a7,7,0,0,0,1.58-.15c.47-.07.93-.21,1.42-.32" transform="translate(-0.06 -0.06)"/><path id="Path_2629" data-name="Path 2629" class="cls-13" d="M29.28,94.61a4,4,0,1,1-4.22,4.07,4.22,4.22,0,0,1,4.22-4.07" transform="translate(-0.06 -0.06)"/></g></g></g></g></g></g></g></svg>