<svg xmlns="http://www.w3.org/2000/svg" xmlns:xlink="http://www.w3.org/1999/xlink" viewBox="0 0 147.85 147.85"><defs><style>.cls-1{fill:none;}.cls-2{clip-path:url(#clip-path);}.cls-3{fill:#8cc63f;}.cls-4{fill:#fff;}</style><clipPath id="clip-path" transform="translate(0 0)"><rect class="cls-1" width="147.85" height="147.85"/></clipPath></defs><g id="Layer_2" data-name="Layer 2"><g id="Layer_1-2" data-name="Layer 1"><g class="cls-2"><g id="Group_445" data-name="Group 445"><path id="Path_1310" data-name="Path 1310" class="cls-3" d="M132.18,147.85H15.67A15.64,15.64,0,0,1,0,132.25H0V15.6A15.63,15.63,0,0,1,15.67,0H132.18a15.63,15.63,0,0,1,15.67,15.6V132.25a15.64,15.64,0,0,1-15.67,15.6" transform="translate(0 0)"/><path id="Path_1311" data-name="Path 1311" class="cls-4" d="M26.36,77.53a127,127,0,0,1,.8-15.72,31.59,31.59,0,0,1,2.67-9.94,11.09,11.09,0,0,1,4.88-5.2,16.5,16.5,0,0,1,7.42-1.52,13.17,13.17,0,0,1,7.08,1.72,12.37,12.37,0,0,1,4.3,4.53A22.36,22.36,0,0,1,55.76,58a71.59,71.59,0,0,1,1,7.59H48.53q-.49-5.85-2.08-8.2A5,5,0,0,0,42,55a6.8,6.8,0,0,0-3.25.74,5.62,5.62,0,0,0-2.32,3.09,28.16,28.16,0,0,0-1.4,6.86q-.47,4.43-.46,11.82t.46,11.82a29.19,29.19,0,0,0,1.4,7,6.45,6.45,0,0,0,2.32,3.36,6,6,0,0,0,3.24.87,5.54,5.54,0,0,0,2.62-.6,5.1,5.1,0,0,0,2-2A13.07,13.07,0,0,0,48,94.2a38.42,38.42,0,0,0,.78-5.85H57A86.29,86.29,0,0,1,56,97,22.53,22.53,0,0,1,53.75,104a12.36,12.36,0,0,1-4.39,4.77,13.43,13.43,0,0,1-7.23,1.74A16.67,16.67,0,0,1,34.61,109a10.86,10.86,0,0,1-4.83-5.27,33,33,0,0,1-2.64-10.18,134,134,0,0,1-.78-16" transform="translate(0 0)"/><path id="Path_1312" data-name="Path 1312" class="cls-4" d="M68.55,92a9.76,9.76,0,0,0,1.85,6.31,6.44,6.44,0,0,0,5.28,2.29,6.53,6.53,0,0,0,5-2,8.36,8.36,0,0,0,1.83-6,9,9,0,0,0-.68-3.73,9.28,9.28,0,0,0-1.71-2.58,14.74,14.74,0,0,0-2.32-1.78c-.83-.52-1.64-1-2.42-1.45l-4.59-2.62A19.73,19.73,0,0,1,60.49,62.08a25.83,25.83,0,0,1,.9-7,14.93,14.93,0,0,1,2.71-5.38,11.81,11.81,0,0,1,4.52-3.39,15.68,15.68,0,0,1,6.27-1.18c5,0,8.7,1.4,11.07,4.2s3.53,6.78,3.53,11.93v2.95H81.24V61.28a6.44,6.44,0,0,0-1.68-4.64A6.07,6.07,0,0,0,75,54.9a5.87,5.87,0,0,0-4.36,1.81,7.38,7.38,0,0,0-1.79,5.37,8.58,8.58,0,0,0,.56,3.13,10,10,0,0,0,1.54,2.65,13.43,13.43,0,0,0,2.3,2.22A24.14,24.14,0,0,0,76.12,72l4.54,2.55a28.79,28.79,0,0,1,3.81,2.69,17.66,17.66,0,0,1,3.27,3.63A18.87,18.87,0,0,1,90,85.63a20.32,20.32,0,0,1,.86,6.15q0,8.79-3.79,13.74t-11.45,4.94A16,16,0,0,1,68.33,109a12.45,12.45,0,0,1-4.67-4,16.93,16.93,0,0,1-2.51-6,32.47,32.47,0,0,1-.76-7.15v-3h8.16Z" transform="translate(0 0)"/><path id="Path_1313" data-name="Path 1313" class="cls-4" d="M102.19,92a9.76,9.76,0,0,0,1.86,6.31,6.42,6.42,0,0,0,5.27,2.29,6.57,6.57,0,0,0,5.06-2,8.36,8.36,0,0,0,1.83-6,8.62,8.62,0,0,0-2.4-6.31,14.29,14.29,0,0,0-2.32-1.78c-.83-.52-1.63-1-2.41-1.45l-4.59-2.62A19.73,19.73,0,0,1,94.13,62.08,25.46,25.46,0,0,1,95,55a14.78,14.78,0,0,1,2.71-5.38,11.71,11.71,0,0,1,4.51-3.39,15.72,15.72,0,0,1,6.28-1.18q7.51,0,11.06,4.2t3.53,11.93v2.95h-8.24V61.28a6.41,6.41,0,0,0-1.69-4.64,6.07,6.07,0,0,0-4.57-1.74,5.9,5.9,0,0,0-4.37,1.81,7.44,7.44,0,0,0-1.78,5.38,8.56,8.56,0,0,0,.56,3.12,9.62,9.62,0,0,0,1.54,2.65,13.06,13.06,0,0,0,2.3,2.22A23,23,0,0,0,109.76,72l4.54,2.56a28.71,28.71,0,0,1,3.81,2.68,17.66,17.66,0,0,1,3.27,3.63,19,19,0,0,1,2.22,4.8,20.36,20.36,0,0,1,.86,6.15q0,8.81-3.79,13.74t-11.45,4.94A16,16,0,0,1,102,109a12.42,12.42,0,0,1-4.66-4,16.77,16.77,0,0,1-2.52-6A33.08,33.08,0,0,1,94,91.85v-3h8.15Z" transform="translate(0 0)"/></g></g></g></g></svg>