<svg xmlns="http://www.w3.org/2000/svg" xmlns:xlink="http://www.w3.org/1999/xlink" viewBox="0 0 586.86 390.45"><defs><style>.cls-1{fill:none;}.cls-2{clip-path:url(#clip-path);}.cls-3{fill:url(#linear-gradient);}.cls-4{clip-path:url(#clip-path-2);}.cls-5{fill:url(#linear-gradient-2);}.cls-6{clip-path:url(#clip-path-3);}.cls-7{fill:#64a4ff;}.cls-8{fill:#bbd070;}.cls-9{fill:#97a43c;}.cls-10{fill:#48753a;}.cls-11{fill:#dbd8e3;}.cls-12{fill:#323657;}.cls-13{fill:#eea987;}.cls-14{fill:#e8734d;}.cls-15{fill:#c4c1cc;}.cls-16{fill:#efaa88;}.cls-17{fill:#eea886;}.cls-18{fill:#16202e;}.cls-19{fill:#a77860;}.cls-20{fill:#4da8f2;}.cls-21{fill:#ffc955;}.cls-22{clip-path:url(#clip-path-4);}.cls-23{fill:#96cbff;}.cls-24{fill:#95caff;}.cls-25{fill:#94c9ff;}.cls-26{fill:#93c9ff;}.cls-27{fill:#92c8ff;}.cls-28{fill:#91c7ff;}.cls-29{fill:#90c6ff;}.cls-30{fill:#8fc6ff;}.cls-31{fill:#8ec5ff;}.cls-32{fill:#8dc4ff;}.cls-33{fill:#8cc3ff;}.cls-34{fill:#8bc2ff;}.cls-35{fill:#8ac2ff;}.cls-36{fill:#89c1ff;}.cls-37{fill:#88c0ff;}.cls-38{fill:#87bfff;}.cls-39{fill:#86bfff;}.cls-40{fill:#85beff;}.cls-41{fill:#84bdff;}.cls-42{fill:#83bcff;}.cls-43{fill:#82bbff;}.cls-44{fill:#81bbff;}.cls-45{fill:#80baff;}.cls-46{fill:#7fb9ff;}.cls-47{fill:#7eb8ff;}.cls-48{fill:#7db7ff;}.cls-49{fill:#7cb7ff;}.cls-50{fill:#7bb6ff;}.cls-51{fill:#7ab5ff;}.cls-52{fill:#79b4ff;}.cls-53{fill:#78b4ff;}.cls-54{fill:#77b3ff;}.cls-55{fill:#76b2ff;}.cls-56{fill:#74b1ff;}.cls-57{fill:#73b0ff;}.cls-58{fill:#72b0ff;}.cls-59{fill:#71afff;}.cls-60{fill:#70aeff;}.cls-61{fill:#6fadff;}.cls-62{fill:#6eadff;}.cls-63{fill:#6dacff;}.cls-64{fill:#6cabff;}.cls-65{fill:#6baaff;}.cls-66{fill:#6aa9ff;}.cls-67{fill:#69a9ff;}.cls-68{fill:#68a8ff;}.cls-69{fill:#67a7ff;}.cls-70{fill:#66a6ff;}.cls-71{fill:#65a6ff;}.cls-72{fill:#64a5ff;}.cls-73{fill:#63a4ff;}.cls-74{fill:#62a3ff;}.cls-75{fill:#61a2ff;}.cls-76{fill:#60a2ff;}.cls-77{fill:#5fa1ff;}.cls-78{fill:#5ea0ff;}.cls-79{fill:#5d9fff;}.cls-80{fill:#5c9eff;}.cls-81{fill:#5b9eff;}.cls-82{fill:#5a9dff;}.cls-83{fill:#599cff;}.cls-84{fill:#589bff;}.cls-85{fill:#579bff;}.cls-86{fill:#569aff;}.cls-87{fill:#59f;}.cls-88{fill:#cfa345;}.cls-89{fill:#6069a8;}.cls-90{fill:#202338;}.cls-91{fill:#464240;}.cls-92{fill:#eb4747;}.cls-93{fill:#5f8cc9;}.cls-94{fill:#5e5853;}.cls-95{fill:#91887f;}.cls-96{fill:#eddad3;}.cls-97{fill:#6e6760;}.cls-98{fill:#807066;}.cls-99{fill:#ffcb55;}.cls-100{fill:#cf8c6c;}.cls-101{fill:#3b3f66;}.cls-102{fill:#555c94;}.cls-103{fill:#354c70;}.cls-104{fill:#deb135;}.cls-105{fill:#f2c344;}.cls-106{fill:#d9d0c4;}.cls-107{fill:#ffd255;}.cls-108{fill:#3c5780;}.cls-109{fill:#c48a6f;}.cls-110{clip-path:url(#clip-path-6);}.cls-111{fill:#db9c7c;}.cls-112{clip-path:url(#clip-path-8);}.cls-113{fill:#293b57;}.cls-114{fill:#e3f2ff;}.cls-115{fill:#ebebeb;}.cls-116{fill:#162d40;}.cls-117{fill:#1d3b54;}.cls-118{fill:#d1c0ba;}.cls-119{fill:#fae6de;}.cls-120{fill:#54281a;}.cls-121{fill:#366e9c;}.cls-122{fill:#5c544d;}.cls-123{fill:#3c4145;}.cls-124{fill:#fccca2;}.cls-125{fill:#e2d2ca;}.cls-126{fill:#f25f54;}.cls-127{fill:#c98462;}.cls-128{fill:#de9d7d;}.cls-129{fill:#252e3b;}.cls-130{fill:#5fa0ff;}.cls-131{fill:#5189db;}.cls-132{fill:#c2bebc;}.cls-133{fill:#d6d6d6;}.cls-134{fill:#e8e8e8;}.cls-135{fill:#c2c2c2;}</style><clipPath id="clip-path"><path class="cls-1" d="M476.42,270.44a37.5,37.5,0,1,1,26.76,11.23,37.51,37.51,0,0,1-26.76-11.23m9.34-96.18a71.36,71.36,0,0,0-18.54,7.47l-11.64-7.9-10.92,10.71-10.92,10.72,7.69,11.79a71.1,71.1,0,0,0-7.82,18.39l-13.83,2.65-.14,15.3-.14,15.29,13.77,2.91a71.85,71.85,0,0,0,7.47,18.54l-7.9,11.64,10.72,10.92,10.71,10.91,11.79-7.68a72,72,0,0,0,18.4,7.82l2.65,13.82,15.29.15,15.3.14,2.9-13.78a71.36,71.36,0,0,0,18.54-7.47l11.65,7.9,10.91-10.71,10.92-10.71-7.69-11.79a71.31,71.31,0,0,0,7.82-18.4l13.82-2.65.15-15.3.14-15.29-13.78-2.91a71.68,71.68,0,0,0-7.46-18.54l7.9-11.64L562.8,185.65l-10.71-10.92-11.79,7.68a71.63,71.63,0,0,0-18.4-7.81l-2.65-13.83L504,160.63l-15.29-.15Z"/></clipPath><linearGradient id="linear-gradient" x1="201.24" y1="287.72" x2="201.24" y2="287.72" gradientTransform="matrix(285.36, 0, 0, -285.36, -57426.32, 82350.47)" gradientUnits="userSpaceOnUse"><stop offset="0" stop-color="#96cbff"/><stop offset="1" stop-color="#59f"/></linearGradient><clipPath id="clip-path-2"><path class="cls-1" d="M135.13,156.49A28,28,0,1,1,153,162.94a28,28,0,0,1-17.86-6.45m12.08-83.67-11.37,1.06-1.11,10.46a53.28,53.28,0,0,0-13.2,7l-9.25-5L105,95.11l-7.29,8.8,6.6,8.17a53.85,53.85,0,0,0-4.4,14.26l-10.07,3,1.06,11.37L92,152.1l10.45,1.11a53.44,53.44,0,0,0,7,13.2l-5,9.25,8.79,7.3,8.79,7.29,8.17-6.61a53.24,53.24,0,0,0,14.26,4.4l3,10.07,11.38-1.06L170.18,196l1.11-10.46a53.79,53.79,0,0,0,13.2-7l9.25,5,7.29-8.79,7.29-8.8-6.6-8.17a53.47,53.47,0,0,0,4.39-14.26l10.07-3-1.06-11.37-1.06-11.38-10.45-1.11a53.83,53.83,0,0,0-7-13.2l5-9.25-8.79-7.29L184,79.62l-8.17,6.61a53.35,53.35,0,0,0-14.26-4.4l-3-10.07Z"/></clipPath><linearGradient id="linear-gradient-2" x1="203.21" y1="287.45" x2="203.21" y2="287.45" gradientTransform="matrix(236.32, 0, 0, -236.32, -48020.94, 68065.41)" xlink:href="#linear-gradient"/><clipPath id="clip-path-3"><rect class="cls-1" width="586.86" height="390.45"/></clipPath><clipPath id="clip-path-4"><rect class="cls-1" x="33.32" y="272.29" width="334.01" height="5.29"/></clipPath><clipPath id="clip-path-6"><path class="cls-1" d="M318.42,302.6l2.23,4.72a.9.9,0,0,0,1.19.47l.1,0,.57-.28-2.62-5.57Z"/></clipPath><clipPath id="clip-path-8"><polygon class="cls-1" points="315.59 298.6 316.49 303.12 322.27 302.04 321.33 297.29 315.59 298.6"/></clipPath></defs><g id="Layer_2" data-name="Layer 2"><g id="Layer_1-2" data-name="Layer 1"><g id="Group_17" data-name="Group 17"><g class="cls-2"><g id="Group_16" data-name="Group 16"><rect id="Rectangle_132" data-name="Rectangle 132" class="cls-3" x="419.5" y="160.48" width="167.36" height="167.37"/></g></g></g><g id="Group_19" data-name="Group 19"><g class="cls-4"><g id="Group_18" data-name="Group 18"><rect id="Rectangle_133" data-name="Rectangle 133" class="cls-5" x="83.71" y="65.63" width="138.6" height="138.6" transform="translate(-12.99 16.34) rotate(-5.87)"/></g></g></g><g id="Group_21" data-name="Group 21"><g class="cls-6"><g id="Group_20" data-name="Group 20"><path id="Path_430" data-name="Path 430" class="cls-7" d="M539.18,387.8h-1V319.65a27.53,27.53,0,0,0-27.5-27.5H440.61a28.48,28.48,0,0,1-28.46-28.45V136.31a27.52,27.52,0,0,0-27.5-27.49H205.87v-1H384.65a28.5,28.5,0,0,1,28.46,28.46V263.7a27.54,27.54,0,0,0,27.5,27.5h70.11a28.48,28.48,0,0,1,28.46,28.45Z"/><path id="Path_431" data-name="Path 431" class="cls-8" d="M251.69,64.69s10.82,43.09-15.16,54.87-21-9.79-21-9.79-10.65-3,18.35-19.4c13.66-7.75,17.81-25.68,17.81-25.68"/><path id="Path_432" data-name="Path 432" class="cls-9" d="M319.73,68.45s5.33,37.56-43.84,53.8-56.17,36.83-56.17,36.83-1.47-83.25,100-90.63"/><path id="Path_433" data-name="Path 433" class="cls-10" d="M219.5,143.78c-14.58-5.57,20.07-35.4,46.71-34.6s44.68,10.66,62.52,6.5c0,0-37.44,55.5-109.23,28.1"/><path id="Path_434" data-name="Path 434" class="cls-11" d="M268.48,168.71q1.26-17,1.76-31.8c-2.74-1.45-6-3.14-8.65-4.39-8.14-3.87-19.47-9.09-26.75-12.43-4.26-2-8.43-3.38-8.43-3.38s-29.07-2.79-31.44-2.64a73.74,73.74,0,0,0-9.14,3.12c-10.31,3.92-30.19,11.88-33.35,14.16-4.64,3.32-21.25,84.73-21.69,90.26-.43,5.37,22.58,12.72,43.9,18.35,0,8.25-.18,19.81-.37,30.37,0,1.8-.06,3.57-.1,5.29H267.5c-.13-1.82-.24-3.6-.33-5.29l0-.67c-.36-7.15-1.75-20-1.39-32.42,0,0-.23-13.15,1.08-18.81.14-25,1.65-49.72,1.65-49.72M150.21,216.57c.15-10.6,14.27-30.31,14.27-30.31a4.73,4.73,0,0,1,.66-.25s.73-.1.73-.09l2.2-2.08c.52,1.89,5.2,28.51,6.34,44-13.25-2.6-24.28-6.22-24.2-11.28"/><path id="Path_435" data-name="Path 435" class="cls-12" d="M270.21,270.32c-.61-4.41-1.2-8.82-1.72-13.14,0,0,0,0,0-.07-.17-1.44-.34-2.85-.5-4.27,0-.07,0-.14,0-.22-.69-6-1.25-11.66-1.66-16.89a53.63,53.63,0,0,1,.52-11.74c1.62-26.73,2.43-54.91,2.43-54.91.85-11.53,1.34-22.31,1.67-32.36,0,0-36.51-17.25-39.82-18.24,0,0,6.93,16.26,12.12,52.61,2,14,5.69,37.46,8.38,61.44h0c1.45,12.94,4.17,26.12,6.25,37.79.31,1.8.61,3.57.89,5.29H271q-.39-2.64-.75-5.29"/><path id="Path_436" data-name="Path 436" class="cls-12" d="M209.42,227.4c1.44-13.52,2.74-27,2.12-34.39-5-59.41-19.29-75.13-21.35-77.44-1.6.61-7.68,2.9-9.46,3.6C171,123,151.12,130.05,148.45,132c-4.64,3.33-22.94,88.68-23.5,94.2-.37,3.73,23.52,11.52,47.88,18.48-.22,6.68.41,16.11-1.81,25.94a23.28,23.28,0,0,0-1.06,5.16l34-.13c.21-1.76.42-3.52.64-5.29.64-5.31,1.32-10.75,2-16.53,10.19,2.64,17.11,4.34,17.11,4.34S233.24,242,236,235.41c.47-1.12-11.84-4.08-26.6-8M165.5,207c-.32-12.17-.26-20.65-.26-20.65,1.2,4.17,2.87,16.08,4.33,27.91-4.93-2.48-4-4.8-4.07-7.26"/><path id="Path_437" data-name="Path 437" class="cls-13" d="M193.45,115s3.7-7,2.68-26.83c-.29-5.49,28.87,13,28.87,13s-.1,1.89-.17,4.45c0,1.06-.05,2.22-.05,3.42v1c0,.54,0,1.08,0,1.61s0,1.32.08,2,.08,1.39.14,2a18.71,18.71,0,0,0,1.08,3.89c1.34,3.09-21.74,3.27-32.65-4.54"/><path id="Path_438" data-name="Path 438" class="cls-14" d="M217.89,127.62l5.37,7.22s-3.14,4.21-8.74,1.1Z"/><path id="Path_439" data-name="Path 439" class="cls-14" d="M221.83,135.12s19.68,48.08,15.48,109.15l-6.21,11.26-7-9.59s-1.13-81.1-6.71-111Z"/><path id="Path_440" data-name="Path 440" class="cls-13" d="M223.64,120.89l-5.75,6.73S208.66,125.83,206,121s17.69-.12,17.69-.12"/><path id="Path_441" data-name="Path 441" class="cls-15" d="M225,115s-.67,5.13-7.07,12.62l7,9.39,3.78-19.48Z"/><path id="Path_442" data-name="Path 442" class="cls-15" d="M195.21,108.83s13.35,15.1,22.68,18.79l-4.34,10.73-21.3-23.5Z"/><path id="Path_443" data-name="Path 443" class="cls-12" d="M332.44,245.43s-17.72-17.18-29.34-20c-5.37-1.32-12.45-8.74-19.17-17.46-2.22-2.87-4.39-5.88-6.46-8.87h0c-8.25-11.91-14.71-23.33-14.71-23.33s-24.39-28.57-4.82-41.31c0,0,8.39-.18,13,2.31s14.81,23.63,16.53,27.36,20.24,38.35,21.48,39.13,3.31,3.63,10.72,7.62C328.73,215.72,343,230,343,230Z"/><path id="Path_444" data-name="Path 444" class="cls-16" d="M247.39,265.32a11.32,11.32,0,0,1-3.54-.67s-1.85-1.19-3.22-2a10.88,10.88,0,0,0-1.08-.54,20.52,20.52,0,0,1-6-2.84c-2.33-1.78-9.93-8.88-9.93-8.88l4.91-7.55,2.27-7.47s17.71,1.76,20.07,3.17a5.62,5.62,0,0,1,.65.43c1.89,1.38,2.71,3.21,3.61,4,.34.31,3.42,3.61,3.25,4.95a4.44,4.44,0,0,1-2.31,3.62s-.63,3.62-2.5,5.24a6.53,6.53,0,0,1-3.37,4.7s-.85,3.36-2.87,3.76"/><path id="Path_445" data-name="Path 445" class="cls-17" d="M219.19,37s32-7.72,25.27,32.81S230,113.61,210.54,105.53s-18.15-34-19.31-46.68S209,37.58,219.19,37"/><path id="Path_446" data-name="Path 446" class="cls-17" d="M202.37,65.05c-.48-3.56-7.55-4.76-8,.6s3.42,14.68,6.08,13.72,2.62-9.41,2-14.32"/><path id="Path_447" data-name="Path 447" class="cls-18" d="M193.1,79.57s.64-12.75,5.29-13.22S203.82,71,203.82,71l4.71.81s-1.65-11.14,3-13.16,30.18,5.71,33.86,2.38,1.6-25.95-5.19-28.95-25.51-9.67-39-.23c0,0-10.65-1.06-12.1,7.55s1.06,33.82,4,40.15"/><path id="Path_448" data-name="Path 448" class="cls-12" d="M236.89,235.41l-13.22,22.72s-35-9-43.18-11.32l18.67-22.23s27.54,6.29,37.73,10.83"/><path id="Path_449" data-name="Path 449" class="cls-19" d="M224.88,113.64h0a30.6,30.6,0,0,1-23.82-15,35.45,35.45,0,0,0,23.73,10.41v1c0,.54,0,1.08,0,1.61s0,1.32.08,2"/><path id="Path_450" data-name="Path 450" class="cls-20" d="M462,315.05a5.22,5.22,0,1,0-4.65,8.35l.41,0h.35a5.21,5.21,0,0,0,3.89-8.35m-2.83,6.82h0a3.92,3.92,0,0,1-1.12.23h-.27a3.91,3.91,0,0,1-1.07-.16,3.85,3.85,0,0,1-1.27-.66A4.32,4.32,0,0,1,455,321a3.89,3.89,0,0,1-1.13-2.8,4.51,4.51,0,0,1,.2-1.21,3.92,3.92,0,1,1,5.05,4.94"/><path id="Path_451" data-name="Path 451" class="cls-17" d="M261.73,216.75c19.9,20.48,46.19,46.28,46.19,46.28l10.28-19.51S294.85,216.14,279,197.88c-4.85,2.38-13.76,8.05-17.29,18.87"/><path id="Path_452" data-name="Path 452" class="cls-17" d="M249.44,244.29A58.81,58.81,0,0,1,256.2,248c1.4,1.15,7.07,5.4,8.44,6.39s-2.07,3.84-12.21-.55-3-9.58-3-9.58"/><path id="Path_453" data-name="Path 453" class="cls-21" d="M249.91,185.66l-9.34,86.81H363.48l9.33-86.81Z"/><path id="Path_454" data-name="Path 454" class="cls-21" d="M370.49,268.47H246.63l9.44-87.77H379.93Zm-122.8-1H369.62l9.24-85.86H256.93Z"/><rect id="Rectangle_134" data-name="Rectangle 134" class="cls-21" x="230.79" y="264.66" width="20.53" height="7.81"/></g></g></g><g id="Group_23" data-name="Group 23"><g class="cls-22"><g id="Group_22" data-name="Group 22"><rect id="Rectangle_136" data-name="Rectangle 136" class="cls-23" x="33.32" y="272.29" width="5.14" height="5.29"/><rect id="Rectangle_137" data-name="Rectangle 137" class="cls-24" x="38.46" y="272.29" width="5.14" height="5.29"/><rect id="Rectangle_138" data-name="Rectangle 138" class="cls-25" x="43.6" y="272.29" width="5.14" height="5.29"/><rect id="Rectangle_139" data-name="Rectangle 139" class="cls-26" x="48.74" y="272.29" width="5.14" height="5.29"/><rect id="Rectangle_140" data-name="Rectangle 140" class="cls-27" x="53.88" y="272.29" width="5.14" height="5.29"/><rect id="Rectangle_141" data-name="Rectangle 141" class="cls-28" x="59.01" y="272.29" width="5.14" height="5.29"/><rect id="Rectangle_142" data-name="Rectangle 142" class="cls-29" x="64.15" y="272.29" width="5.14" height="5.29"/><rect id="Rectangle_143" data-name="Rectangle 143" class="cls-30" x="69.29" y="272.29" width="5.14" height="5.29"/><rect id="Rectangle_144" data-name="Rectangle 144" class="cls-31" x="74.43" y="272.29" width="5.14" height="5.29"/><rect id="Rectangle_145" data-name="Rectangle 145" class="cls-32" x="79.57" y="272.29" width="5.14" height="5.29"/><rect id="Rectangle_146" data-name="Rectangle 146" class="cls-33" x="84.71" y="272.29" width="5.14" height="5.29"/><rect id="Rectangle_147" data-name="Rectangle 147" class="cls-34" x="89.85" y="272.29" width="5.14" height="5.29"/><rect id="Rectangle_148" data-name="Rectangle 148" class="cls-35" x="94.98" y="272.29" width="5.14" height="5.29"/><rect id="Rectangle_149" data-name="Rectangle 149" class="cls-36" x="100.12" y="272.29" width="5.14" height="5.29"/><rect id="Rectangle_150" data-name="Rectangle 150" class="cls-37" x="105.26" y="272.29" width="5.14" height="5.29"/><rect id="Rectangle_151" data-name="Rectangle 151" class="cls-38" x="110.4" y="272.29" width="5.14" height="5.29"/><rect id="Rectangle_152" data-name="Rectangle 152" class="cls-39" x="115.54" y="272.29" width="5.14" height="5.29"/><rect id="Rectangle_153" data-name="Rectangle 153" class="cls-40" x="120.68" y="272.29" width="5.14" height="5.29"/><rect id="Rectangle_154" data-name="Rectangle 154" class="cls-41" x="125.82" y="272.29" width="5.14" height="5.29"/><rect id="Rectangle_155" data-name="Rectangle 155" class="cls-42" x="130.95" y="272.29" width="5.14" height="5.29"/><rect id="Rectangle_156" data-name="Rectangle 156" class="cls-43" x="136.09" y="272.29" width="5.14" height="5.29"/><rect id="Rectangle_157" data-name="Rectangle 157" class="cls-44" x="141.23" y="272.29" width="5.14" height="5.29"/><rect id="Rectangle_158" data-name="Rectangle 158" class="cls-45" x="146.37" y="272.29" width="5.14" height="5.29"/><rect id="Rectangle_159" data-name="Rectangle 159" class="cls-46" x="151.51" y="272.29" width="5.14" height="5.29"/><rect id="Rectangle_160" data-name="Rectangle 160" class="cls-47" x="156.65" y="272.29" width="5.14" height="5.29"/><rect id="Rectangle_161" data-name="Rectangle 161" class="cls-48" x="161.79" y="272.29" width="5.14" height="5.29"/><rect id="Rectangle_162" data-name="Rectangle 162" class="cls-49" x="166.92" y="272.29" width="5.14" height="5.29"/><rect id="Rectangle_163" data-name="Rectangle 163" class="cls-50" x="172.06" y="272.29" width="5.14" height="5.29"/><rect id="Rectangle_164" data-name="Rectangle 164" class="cls-51" x="177.2" y="272.29" width="5.14" height="5.29"/><rect id="Rectangle_165" data-name="Rectangle 165" class="cls-52" x="182.34" y="272.29" width="5.14" height="5.29"/><rect id="Rectangle_166" data-name="Rectangle 166" class="cls-53" x="187.48" y="272.29" width="5.14" height="5.29"/><rect id="Rectangle_167" data-name="Rectangle 167" class="cls-54" x="192.62" y="272.29" width="5.14" height="5.29"/><rect id="Rectangle_168" data-name="Rectangle 168" class="cls-55" x="197.76" y="272.29" width="5.14" height="5.29"/><rect id="Rectangle_169" data-name="Rectangle 169" class="cls-56" x="202.9" y="272.29" width="5.14" height="5.29"/><rect id="Rectangle_170" data-name="Rectangle 170" class="cls-57" x="208.03" y="272.29" width="5.14" height="5.29"/><rect id="Rectangle_171" data-name="Rectangle 171" class="cls-58" x="213.17" y="272.29" width="5.14" height="5.29"/><rect id="Rectangle_172" data-name="Rectangle 172" class="cls-59" x="218.31" y="272.29" width="5.14" height="5.29"/><rect id="Rectangle_173" data-name="Rectangle 173" class="cls-60" x="223.45" y="272.29" width="5.14" height="5.29"/><rect id="Rectangle_174" data-name="Rectangle 174" class="cls-61" x="228.59" y="272.29" width="5.14" height="5.29"/><rect id="Rectangle_175" data-name="Rectangle 175" class="cls-62" x="233.73" y="272.29" width="5.14" height="5.29"/><rect id="Rectangle_176" data-name="Rectangle 176" class="cls-63" x="238.86" y="272.29" width="5.14" height="5.29"/><rect id="Rectangle_177" data-name="Rectangle 177" class="cls-64" x="244" y="272.29" width="5.14" height="5.29"/><rect id="Rectangle_178" data-name="Rectangle 178" class="cls-65" x="249.14" y="272.29" width="5.14" height="5.29"/><rect id="Rectangle_179" data-name="Rectangle 179" class="cls-66" x="254.28" y="272.29" width="5.14" height="5.29"/><rect id="Rectangle_180" data-name="Rectangle 180" class="cls-67" x="259.42" y="272.29" width="5.14" height="5.29"/><rect id="Rectangle_181" data-name="Rectangle 181" class="cls-68" x="264.56" y="272.29" width="5.14" height="5.29"/><rect id="Rectangle_182" data-name="Rectangle 182" class="cls-69" x="269.7" y="272.29" width="5.14" height="5.29"/><rect id="Rectangle_183" data-name="Rectangle 183" class="cls-70" x="274.83" y="272.29" width="5.14" height="5.29"/><rect id="Rectangle_184" data-name="Rectangle 184" class="cls-71" x="279.97" y="272.29" width="5.14" height="5.29"/><rect id="Rectangle_185" data-name="Rectangle 185" class="cls-72" x="285.11" y="272.29" width="5.14" height="5.29"/><rect id="Rectangle_186" data-name="Rectangle 186" class="cls-73" x="290.25" y="272.29" width="5.14" height="5.29"/><rect id="Rectangle_187" data-name="Rectangle 187" class="cls-74" x="295.39" y="272.29" width="5.14" height="5.29"/><rect id="Rectangle_188" data-name="Rectangle 188" class="cls-75" x="300.53" y="272.29" width="5.14" height="5.29"/><rect id="Rectangle_189" data-name="Rectangle 189" class="cls-76" x="305.67" y="272.29" width="5.14" height="5.29"/><rect id="Rectangle_190" data-name="Rectangle 190" class="cls-77" x="310.81" y="272.29" width="5.14" height="5.29"/><rect id="Rectangle_191" data-name="Rectangle 191" class="cls-78" x="315.94" y="272.29" width="5.14" height="5.29"/><rect id="Rectangle_192" data-name="Rectangle 192" class="cls-79" x="321.08" y="272.29" width="5.14" height="5.29"/><rect id="Rectangle_193" data-name="Rectangle 193" class="cls-80" x="326.22" y="272.29" width="5.14" height="5.29"/><rect id="Rectangle_194" data-name="Rectangle 194" class="cls-81" x="331.36" y="272.29" width="5.14" height="5.29"/><rect id="Rectangle_195" data-name="Rectangle 195" class="cls-82" x="336.5" y="272.29" width="5.14" height="5.29"/><rect id="Rectangle_196" data-name="Rectangle 196" class="cls-83" x="341.64" y="272.29" width="5.14" height="5.29"/><rect id="Rectangle_197" data-name="Rectangle 197" class="cls-84" x="346.78" y="272.29" width="5.14" height="5.29"/><rect id="Rectangle_198" data-name="Rectangle 198" class="cls-85" x="351.91" y="272.29" width="5.14" height="5.29"/><rect id="Rectangle_199" data-name="Rectangle 199" class="cls-86" x="357.05" y="272.29" width="5.14" height="5.29"/><rect id="Rectangle_200" data-name="Rectangle 200" class="cls-87" x="362.19" y="272.29" width="5.14" height="5.29"/></g></g></g><g id="Group_25" data-name="Group 25"><g class="cls-6"><g id="Group_24" data-name="Group 24"><rect id="Rectangle_202" data-name="Rectangle 202" class="cls-21" x="282.05" y="385.16" width="289.39" height="5.29"/><path id="Path_457" data-name="Path 457" class="cls-88" d="M299.87,227.67c-1,4.84,1.27,9.38,5,10.15s7.63-2.52,8.62-7.36-1.27-9.37-5-10.14-7.62,2.52-8.61,7.35"/><path id="Path_458" data-name="Path 458" class="cls-89" d="M534.26,193.26s2.84,4.81,4,5.59c1.62,1.07.6,2.15-.17,2.15s-4.71.28-5.58-.71-1.3-3.94-2.11-4.71-1.64-3.84.4-4.59c1.79-.66,3.42,2.27,3.42,2.27"/><path id="Path_459" data-name="Path 459" class="cls-90" d="M533,191.15s3.24,5.63,3.8,6.46-1.05.83-2.05.43-3.51-4.43-3.88-5.16a2.76,2.76,0,0,1-.07-1.88Z"/><path id="Path_460" data-name="Path 460" class="cls-89" d="M529.75,194.18l.75,5.77.39,0-.12-4.16Z"/><path id="Path_461" data-name="Path 461" class="cls-89" d="M506.15,193.26s2.83,4.81,4,5.59c1.63,1.07.61,2.15-.17,2.15s-4.71.28-5.58-.71-1.29-3.94-2.1-4.71-1.67-3.92.39-4.59c1.81-.58,3.43,2.27,3.43,2.27"/><path id="Path_462" data-name="Path 462" class="cls-90" d="M505.09,191.16s3.08,5.62,3.64,6.45-1.05.83-2.05.44-3.52-4.43-3.88-5.17a2.71,2.71,0,0,1-.08-1.88Z"/><path id="Path_463" data-name="Path 463" class="cls-89" d="M501.63,194.18l.75,5.77.4,0-.12-4.16Z"/><path id="Path_464" data-name="Path 464" class="cls-90" d="M493.57,149.53l25.66,11.69a4.92,4.92,0,0,1,3.18,4.11c1,9.92,8.43,25.67,8.43,25.67,2.38,1.16,2.19.15,2.19.15-1.5-4.82-3.32-24.68-4-32.66-.13-1.69-.22-2.85-.24-3.22s-.29-.58-.76-1c-3.52-2.85-18-8.76-18-8.76-10.88-.28-16.48,4-16.48,4"/><path id="Path_465" data-name="Path 465" class="cls-90" d="M488.74,154.55c.79,6.93,10.69,6.14,10.69,6.14h12a75.09,75.09,0,0,0-4.37,12.92c-1.29,6.28-4.34,17.39-4.34,17.39s.2.37,2.37.16c0,0,9.42-18.77,13-23.49a31.55,31.55,0,0,0,3.38-9.81c.13-1.11,0-2-.36-2.31a30.19,30.19,0,0,0-2.65-1.81c-3.76-2.37-10.28-6-13.92-6.83-4.87-1.1-12.57-3.15-12.57-3.15a13.25,13.25,0,0,0-3.25,10.79"/><path id="Path_466" data-name="Path 466" class="cls-91" d="M496.9,101.13a11.2,11.2,0,0,1-.92-7c.88-3.63,4.24-7.25,9.18-5.59s8.92,5.49,6,9.92,2.68,6.43,1.24,8.54-.89,4.31-.28,4.8,2.56,2.24,2.35,4.31-9.57-6-9.57-6-5.09-10.24-8-8.92"/><path id="Path_467" data-name="Path 467" class="cls-92" d="M511.93,144.71s-.74,3.61-19.9-1c0,0,6.43-2.13,19.9,1"/><path id="Path_468" data-name="Path 468" class="cls-93" d="M491.81,144.77c-.29.57-.59,1.13-.89,1.7l21,.61c-1.1-3.71-.74-8.73-.55-12.54.24-4.66,2.81-7.9,2.54-12.61l3,.48c-2.12-6-2.85-9-9.44-11.37a12.29,12.29,0,0,0-5.88-.72c-7.64.63-9.94.72-13.69,7.64,5.87.93,4.9,3,6.68,8.88.87,2.85,1.78,6,1.31,9s-4.09,6.2-4.09,8.9"/><path id="Path_469" data-name="Path 469" class="cls-17" d="M504,112.51c-3.13-.59-2.47-2.33-2.47-2.33s.15-1,.21-2.22c0-.32,0-.66,0-1a13.13,13.13,0,0,0-.09-1.54c-.25-2.1,5.67-.85,5.67-.85s-.34,4.25.48,5.52-.7,3-3.82,2.41"/><path id="Path_470" data-name="Path 470" class="cls-17" d="M498,110.16s6.3,7.28,8.63,9c0,0,2.68-2.42,1-8.81,0,0-3.05-1.52-9.66-.16"/><path id="Path_471" data-name="Path 471" class="cls-17" d="M498.21,92.65s-3.27,6.31,0,12.28,9.63-2.6,10-3.61,2.6-6.69-1.75-8.42-7.33-2-8.26-.25"/><path id="Path_472" data-name="Path 472" class="cls-91" d="M499.3,94.89s-2.26,3-2.52,5.14a11.7,11.7,0,0,1,1.63-8.1c2.54-4,9-.19,9.85,1.4s3.4,3-.85,9.8c0,0-7.65-5.31-8.11-8.24"/><path id="Path_473" data-name="Path 473" class="cls-19" d="M504.53,105.56a6.16,6.16,0,0,1-2.79,2.4c0-.32,0-.66,0-1a5.32,5.32,0,0,0,2.77-1.4"/><path id="Path_474" data-name="Path 474" class="cls-17" d="M471.45,139.1s-1.56.69-2.3.37a7.06,7.06,0,0,0-2.24-.37c-.48,0-2-.54-2,.05s2.45,1,2.94,1.18-1.48,1.27-1.66,1.76,2,3.65,3.3,2.75,1.94-2.71,2.2-2.82a8.56,8.56,0,0,0,.94-.63Z"/><path id="Path_475" data-name="Path 475" class="cls-17" d="M466.47,141.81s-3.65,3-3.71,3.43.13.6.49.33l3.62-2.82s-3.66,4.32-3.78,4.64.28.58.48.45,4.09-4.19,4.09-4.19-3.4,4-3.42,4.34a.39.39,0,0,0,.41.38.47.47,0,0,0,.26-.11l3.66-3.85s-2.28,3.11-2.14,3.38.38.52.94-.3,2.1-2.61,2.1-2.61Z"/><path id="Path_476" data-name="Path 476" class="cls-21" d="M510.17,160.69H499.43s-9.9.79-10.69-6.14A13.29,13.29,0,0,1,492,143.76s5.23,1.39,9.8,2.5a34.66,34.66,0,0,1,8.26-.72s19.35,6.39,18.76,9.76c0,0-8.09-4.33-18.64,5.39"/><path id="Path_477" data-name="Path 477" class="cls-94" d="M503.18,148.68l20.49-.3-10.35,5.25Z"/><path id="Path_478" data-name="Path 478" class="cls-93" d="M509.54,146.06a17.47,17.47,0,0,1-10.25.17l-.27-2.11,11.63.65Z"/><path id="Path_479" data-name="Path 479" class="cls-95" d="M513.32,153.63l-10.14-3.93v-1l10.95,3.95Z"/><path id="Path_480" data-name="Path 480" class="cls-96" d="M509.47,147a1,1,0,0,0,.94,1.08,1,1,0,0,0,.47-.08l1.19-.51a.82.82,0,0,0,.5-.91c-.49-3.1-1.55-15.16,0-17.23a7.43,7.43,0,0,0,1.13-2c1,2.64,2.3,6,2.81,7.88l9.68,12.87,3.24.83a108.49,108.49,0,0,0-7.3-14.93c-.63-1.7-2.45-6.85-4.06-11.44-1-2.89-2-5.56-2.45-7a3.25,3.25,0,0,0-1.41-1.73c-1.5-.9-4-2.31-6.27-3.41h0l-.22-.11h0c4.3,6.52,2.62,24.92,1.77,36.69v0"/><path id="Path_481" data-name="Path 481" class="cls-96" d="M493.48,110.88c-1.38.21-4.8,3.53-6.61,6.89-2.08,3.82-4.19,8.18-5.77,9.61-2.91,2.64-11.05,12-11.44,11.73A26,26,0,0,0,472.2,142c.15.07,13.38-11.4,14.65-13.14s4.43-8.61,5.39-8.46h0a50.77,50.77,0,0,1,2.36,6.41l.06.19a20.76,20.76,0,0,1,.28,8.56,29.49,29.49,0,0,1-3.17,8.19,1.31,1.31,0,0,0,0,1h0a.75.75,0,0,0,.35.41l3.89,1.44.91.34a2,2,0,0,0,2.56-1.18,2.09,2.09,0,0,0,.11-.43c.86-6.65,1.95-13.43,2.82-16A24.23,24.23,0,0,0,501,109.71a70.36,70.36,0,0,0-7.48,1.17"/><path id="Path_482" data-name="Path 482" class="cls-97" d="M513.32,153.63l6.1-16.64,19.64.32-5.81,15.33Z"/><path id="Path_483" data-name="Path 483" class="cls-98" d="M525.7,144.35c-.6,1.2-.42,2.51.41,2.92s2-.23,2.57-1.43.42-2.5-.4-2.91-2,.23-2.58,1.42"/><path id="Path_484" data-name="Path 484" class="cls-91" d="M505,98.93a3.54,3.54,0,0,1,.1,3.65c-1.16,1.69.29,3.35.55,5.13s-4.86,6.54.82,8.93,7.48-1.56,6-3.73a12.26,12.26,0,0,1-2.6-7c-.13-3.11-1.15-7.94-4.91-6.94"/><path id="Path_485" data-name="Path 485" class="cls-99" d="M477.25,90.8h11.84v10.4l-1.81-1.81h-10Z"/><path id="Path_486" data-name="Path 486" class="cls-8" d="M410.76,222.54S385,247.1,397.51,266.23s18.43,2.38,18.43,2.38,8.49,2.56-4.11-21c-5.95-11.12-1.07-25.05-1.07-25.05"/><path id="Path_487" data-name="Path 487" class="cls-9" d="M363,195.91s-19.72,23.17,6.64,55.26S392,300.23,392,300.23s36.7-55.79-28.92-104.32"/><path id="Path_488" data-name="Path 488" class="cls-10" d="M397.9,290.54c12.27,2.48,2.34-33.19-16.06-44.07S347,234.54,336.68,224.06c0,0,.8,54.27,61.22,66.48"/><path id="Path_489" data-name="Path 489" class="cls-17" d="M317.72,306.19s.56-1.4.65-1.61a3.73,3.73,0,0,1,1.29-.89,4.2,4.2,0,0,1,1.81-.44.62.62,0,0,1,.39.37,1.2,1.2,0,0,1,.1.62.74.74,0,0,1,.27.68.64.64,0,0,1,.15.71.53.53,0,0,1,.15.59,4.44,4.44,0,0,0-.7.53,10.51,10.51,0,0,1-2.56,1.26s-1.3,0-1.55-1.82"/><path id="Path_490" data-name="Path 490" class="cls-100" d="M319.71,305.43a4,4,0,0,1-.09,1c-.1.21,1.53.68,1.53.68s-.52-1.64-1.44-1.65"/><path id="Path_491" data-name="Path 491" class="cls-101" d="M289.23,379.19l.71-2.22,3,.49-.45,2Z"/><path id="Path_492" data-name="Path 492" class="cls-102" d="M314,378.93l.17,1.22,3.3-.55-.18-1.82Z"/><path id="Path_493" data-name="Path 493" class="cls-103" d="M306.81,344.71s-.48,2.65-1.05,5.59l-.3,1.56c-.55,2.83-1.11,5.56-1.31,6.12-.47,1.29-10.59,19.82-10.59,19.82s-4.14-.31-4.29-.84c0,0,8.48-20.13,8.43-20.87s1-21.36,1-21.36,7.85,8.79,8.07,10"/><path id="Path_494" data-name="Path 494" class="cls-103" d="M311.43,333.55s4,20.27,4.3,21.82,1.84,22.31,1.84,22.31-.89,1.84-4.18,1.15c0,0-4.48-22.31-4.85-23.06-1.47-2.9-8.66-16.95-9.36-19a12.08,12.08,0,0,1-.49-4.35s5.34-3,12.74,1.09"/><path id="Path_495" data-name="Path 495" class="cls-104" d="M309.77,307.3s1.74,4.33,2.17,4.2,5.43-6,5.43-6,2.28,2.85,2,3.18-6.31,10.25-7.13,10.07-4.43-6.16-4.43-6.16-.2-4.52,2-5.3"/><path id="Path_496" data-name="Path 496" class="cls-105" d="M302.35,299s4.5,3.45,5.75,4.81,4.67,7,4.42,8.73a123.89,123.89,0,0,0-1.43,16.54c0,3.88,1.21,4.87.45,4.93s-12.22,4.17-13.89,4.67c0,0,1.09-13.66,1.65-15.23s-1.78-18.1,3.05-24.44"/><path id="Path_497" data-name="Path 497" class="cls-106" d="M331.34,292.51l1,5.09,1,5.09a27.66,27.66,0,0,0-12.34-.51l-.44-2.25-.45-2.25a27.91,27.91,0,0,0,11.21-5.17"/><path id="Path_498" data-name="Path 498" class="cls-41" d="M314.14,380.15s2.49-.48,2.58-.56.62-1.06,1-.89.39,1.37.76,1.57,3.36,2.22,3.72,2.59,2.62.15,2.88.78.28,2.14-3.08,1.79-7.21.19-7.93-.21-.18-4.1.06-5.07"/><path id="Path_499" data-name="Path 499" class="cls-41" d="M289.19,379.14s2.54-.08,2.64-.14.78-.95,1.14-.72.16,1.42.5,1.68,3,2.72,3.26,3.14,2.56.57,2.72,1.24-.07,2.15-3.33,1.27-7.14-1-7.79-1.47.48-4.09.86-5"/><path id="Path_500" data-name="Path 500" class="cls-13" d="M308.91,334.49s.3,1.24.79,1.5-2.27,2.91-2.27,2.91a22.27,22.27,0,0,1-1.09-2.69,16.69,16.69,0,0,1,2.57-1.72"/><path id="Path_501" data-name="Path 501" class="cls-107" d="M300.35,304.37s-3.23,15.37-3.5,16.94S306.32,337,306.32,337l3.24-1.92s-7.85-14.26-7.84-14.91,3.77-13,3.77-13,1.57-2.7-1.22-4a2.76,2.76,0,0,0-3.79,1,2,2,0,0,0-.14.25"/><path id="Path_502" data-name="Path 502" class="cls-108" d="M310.8,335.55a51.64,51.64,0,0,1,1,6.83c-.06,1.6-6-2.52-5.73-4.11Z"/><path id="Path_503" data-name="Path 503" class="cls-17" d="M302.35,299s8.2,9,7.69,8c-1.8-3.54-3.06-4.14-3-4.8,0-.51.22-2,.25-2.47.06-.94.13-1.7.13-1.7s-4.07-5.72-3.89-3.77a11.88,11.88,0,0,1-1.15,4.78"/><path id="Path_504" data-name="Path 504" class="cls-17" d="M310.16,288.49a21.26,21.26,0,0,1,1.14,3.27,13.53,13.53,0,0,0-.05,1.8,27.73,27.73,0,0,1,.65,2.72c-.09.52-1.19.25-1.34,1.11s-.94,2.45-1.34,2.49c-1,.08-4.9-1.51-5.15-2.32s-1.65-5.35-2.09-6.21,6.85-5.59,7.51-4.22Z"/><path id="Path_505" data-name="Path 505" class="cls-18" d="M300.25,290.45c-.52-2.24,2.06-2.52,2.06-2.52s1.68-2,5.71-1.72,3.4,5.48,3.4,5.48a14.76,14.76,0,0,0-4-.11,20.12,20.12,0,0,0,0,2.8l-1.51-.14s.17-2-.56-2.08-1,4.21-2.33,5.16a1.55,1.55,0,0,0-.18-.6,16.48,16.48,0,0,1-1.06-2.2,23.94,23.94,0,0,1-1.52-4.06"/><path id="Path_506" data-name="Path 506" class="cls-17" d="M306.35,292.64a1.16,1.16,0,0,0-1.42-.81,1.27,1.27,0,0,0-.48.27c-1,.72,0,3.28,1,3.27s1.33-1.41.93-2.73"/><path id="Path_507" data-name="Path 507" class="cls-109" d="M303.85,296.85a3,3,0,0,0,.42,1,8.76,8.76,0,0,0,3,1.57l-.16,1.59s-3.44-1.33-3.26-4.16"/></g></g></g><g id="Group_27" data-name="Group 27"><g class="cls-110"><g id="Group_26" data-name="Group 26"><rect id="Rectangle_204" data-name="Rectangle 204" class="cls-23" x="318.42" y="301.9" width="0.06" height="6.09"/><rect id="Rectangle_205" data-name="Rectangle 205" class="cls-24" x="318.48" y="301.9" width="0.06" height="6.09"/><rect id="Rectangle_206" data-name="Rectangle 206" class="cls-25" x="318.55" y="301.9" width="0.06" height="6.09"/><rect id="Rectangle_207" data-name="Rectangle 207" class="cls-26" x="318.61" y="301.9" width="0.06" height="6.09"/><rect id="Rectangle_208" data-name="Rectangle 208" class="cls-27" x="318.67" y="301.9" width="0.06" height="6.09"/><rect id="Rectangle_209" data-name="Rectangle 209" class="cls-28" x="318.74" y="301.9" width="0.06" height="6.09"/><rect id="Rectangle_210" data-name="Rectangle 210" class="cls-29" x="318.8" y="301.9" width="0.06" height="6.09"/><rect id="Rectangle_211" data-name="Rectangle 211" class="cls-30" x="318.86" y="301.9" width="0.06" height="6.09"/><rect id="Rectangle_212" data-name="Rectangle 212" class="cls-31" x="318.93" y="301.9" width="0.06" height="6.09"/><rect id="Rectangle_213" data-name="Rectangle 213" class="cls-32" x="318.99" y="301.9" width="0.06" height="6.09"/><rect id="Rectangle_214" data-name="Rectangle 214" class="cls-33" x="319.05" y="301.9" width="0.06" height="6.09"/><rect id="Rectangle_215" data-name="Rectangle 215" class="cls-34" x="319.11" y="301.9" width="0.06" height="6.09"/><rect id="Rectangle_216" data-name="Rectangle 216" class="cls-35" x="319.18" y="301.9" width="0.06" height="6.09"/><rect id="Rectangle_217" data-name="Rectangle 217" class="cls-36" x="319.24" y="301.9" width="0.06" height="6.09"/><rect id="Rectangle_218" data-name="Rectangle 218" class="cls-37" x="319.3" y="301.9" width="0.06" height="6.09"/><rect id="Rectangle_219" data-name="Rectangle 219" class="cls-38" x="319.37" y="301.9" width="0.06" height="6.09"/><rect id="Rectangle_220" data-name="Rectangle 220" class="cls-39" x="319.43" y="301.9" width="0.06" height="6.09"/><rect id="Rectangle_221" data-name="Rectangle 221" class="cls-40" x="319.49" y="301.9" width="0.06" height="6.09"/><rect id="Rectangle_222" data-name="Rectangle 222" class="cls-41" x="319.55" y="301.9" width="0.06" height="6.09"/><rect id="Rectangle_223" data-name="Rectangle 223" class="cls-42" x="319.62" y="301.9" width="0.06" height="6.09"/><rect id="Rectangle_224" data-name="Rectangle 224" class="cls-43" x="319.68" y="301.9" width="0.06" height="6.09"/><rect id="Rectangle_225" data-name="Rectangle 225" class="cls-44" x="319.74" y="301.9" width="0.06" height="6.09"/><rect id="Rectangle_226" data-name="Rectangle 226" class="cls-45" x="319.81" y="301.9" width="0.06" height="6.09"/><rect id="Rectangle_227" data-name="Rectangle 227" class="cls-46" x="319.87" y="301.9" width="0.06" height="6.09"/><rect id="Rectangle_228" data-name="Rectangle 228" class="cls-47" x="319.93" y="301.9" width="0.06" height="6.09"/><rect id="Rectangle_229" data-name="Rectangle 229" class="cls-48" x="320" y="301.9" width="0.06" height="6.09"/><rect id="Rectangle_230" data-name="Rectangle 230" class="cls-49" x="320.06" y="301.9" width="0.06" height="6.09"/><rect id="Rectangle_231" data-name="Rectangle 231" class="cls-50" x="320.12" y="301.9" width="0.06" height="6.09"/><rect id="Rectangle_232" data-name="Rectangle 232" class="cls-51" x="320.19" y="301.9" width="0.06" height="6.09"/><rect id="Rectangle_233" data-name="Rectangle 233" class="cls-52" x="320.25" y="301.9" width="0.06" height="6.09"/><rect id="Rectangle_234" data-name="Rectangle 234" class="cls-53" x="320.31" y="301.9" width="0.06" height="6.09"/><rect id="Rectangle_235" data-name="Rectangle 235" class="cls-54" x="320.37" y="301.9" width="0.06" height="6.09"/><rect id="Rectangle_236" data-name="Rectangle 236" class="cls-55" x="320.44" y="301.9" width="0.06" height="6.09"/><rect id="Rectangle_237" data-name="Rectangle 237" class="cls-56" x="320.5" y="301.9" width="0.06" height="6.09"/><rect id="Rectangle_238" data-name="Rectangle 238" class="cls-57" x="320.56" y="301.9" width="0.06" height="6.09"/><rect id="Rectangle_239" data-name="Rectangle 239" class="cls-58" x="320.63" y="301.9" width="0.06" height="6.09"/><rect id="Rectangle_240" data-name="Rectangle 240" class="cls-59" x="320.69" y="301.9" width="0.06" height="6.09"/><rect id="Rectangle_241" data-name="Rectangle 241" class="cls-60" x="320.75" y="301.9" width="0.06" height="6.09"/><rect id="Rectangle_242" data-name="Rectangle 242" class="cls-61" x="320.81" y="301.9" width="0.06" height="6.09"/><rect id="Rectangle_243" data-name="Rectangle 243" class="cls-62" x="320.88" y="301.9" width="0.06" height="6.09"/><rect id="Rectangle_244" data-name="Rectangle 244" class="cls-63" x="320.94" y="301.9" width="0.06" height="6.09"/><rect id="Rectangle_245" data-name="Rectangle 245" class="cls-64" x="321" y="301.9" width="0.06" height="6.09"/><rect id="Rectangle_246" data-name="Rectangle 246" class="cls-65" x="321.07" y="301.9" width="0.06" height="6.09"/><rect id="Rectangle_247" data-name="Rectangle 247" class="cls-66" x="321.13" y="301.9" width="0.06" height="6.09"/><rect id="Rectangle_248" data-name="Rectangle 248" class="cls-67" x="321.19" y="301.9" width="0.06" height="6.09"/><rect id="Rectangle_249" data-name="Rectangle 249" class="cls-68" x="321.26" y="301.9" width="0.06" height="6.09"/><rect id="Rectangle_250" data-name="Rectangle 250" class="cls-69" x="321.32" y="301.9" width="0.06" height="6.09"/><rect id="Rectangle_251" data-name="Rectangle 251" class="cls-70" x="321.38" y="301.9" width="0.06" height="6.09"/><rect id="Rectangle_252" data-name="Rectangle 252" class="cls-71" x="321.44" y="301.9" width="0.06" height="6.09"/><rect id="Rectangle_253" data-name="Rectangle 253" class="cls-72" x="321.51" y="301.9" width="0.06" height="6.09"/><rect id="Rectangle_254" data-name="Rectangle 254" class="cls-73" x="321.57" y="301.9" width="0.06" height="6.09"/><rect id="Rectangle_255" data-name="Rectangle 255" class="cls-74" x="321.63" y="301.9" width="0.06" height="6.09"/><rect id="Rectangle_256" data-name="Rectangle 256" class="cls-75" x="321.7" y="301.9" width="0.06" height="6.09"/><rect id="Rectangle_257" data-name="Rectangle 257" class="cls-76" x="321.76" y="301.9" width="0.06" height="6.09"/><rect id="Rectangle_258" data-name="Rectangle 258" class="cls-77" x="321.82" y="301.9" width="0.06" height="6.09"/><rect id="Rectangle_259" data-name="Rectangle 259" class="cls-78" x="321.89" y="301.9" width="0.06" height="6.09"/><rect id="Rectangle_260" data-name="Rectangle 260" class="cls-79" x="321.95" y="301.9" width="0.06" height="6.09"/><rect id="Rectangle_261" data-name="Rectangle 261" class="cls-80" x="322.01" y="301.9" width="0.06" height="6.09"/><rect id="Rectangle_262" data-name="Rectangle 262" class="cls-81" x="322.07" y="301.9" width="0.06" height="6.09"/><rect id="Rectangle_263" data-name="Rectangle 263" class="cls-82" x="322.14" y="301.9" width="0.06" height="6.09"/><rect id="Rectangle_264" data-name="Rectangle 264" class="cls-83" x="322.2" y="301.9" width="0.06" height="6.09"/><rect id="Rectangle_265" data-name="Rectangle 265" class="cls-84" x="322.26" y="301.9" width="0.06" height="6.09"/><rect id="Rectangle_266" data-name="Rectangle 266" class="cls-85" x="322.33" y="301.9" width="0.06" height="6.09"/><rect id="Rectangle_267" data-name="Rectangle 267" class="cls-86" x="322.39" y="301.9" width="0.06" height="6.09"/><rect id="Rectangle_268" data-name="Rectangle 268" class="cls-87" x="322.45" y="301.9" width="0.06" height="6.09"/></g></g></g><g id="Group_29" data-name="Group 29"><g class="cls-6"><g id="Group_28" data-name="Group 28"><path id="Path_511" data-name="Path 511" class="cls-111" d="M321.29,303.33s-1.64.91-1.53,1.19a.5.5,0,0,0,.33.32l-.51.67s-.08.64.64.54c0,0-.14.59.54.41,0,0,.08.43.41.41a6.08,6.08,0,0,0,1.36-.65s.16-.23-.15-.59a.65.65,0,0,0-.15-.71.71.71,0,0,0-.27-.68s.15-.8-.5-1l-.17.08"/></g></g></g><g id="Group_31" data-name="Group 31"><g class="cls-112"><g id="Group_30" data-name="Group 30"><rect id="Rectangle_270" data-name="Rectangle 270" class="cls-23" x="315.59" y="297.29" width="0.1" height="5.82"/><rect id="Rectangle_271" data-name="Rectangle 271" class="cls-24" x="315.69" y="297.29" width="0.1" height="5.82"/><rect id="Rectangle_272" data-name="Rectangle 272" class="cls-25" x="315.79" y="297.29" width="0.1" height="5.82"/><rect id="Rectangle_273" data-name="Rectangle 273" class="cls-26" x="315.9" y="297.29" width="0.1" height="5.82"/><rect id="Rectangle_274" data-name="Rectangle 274" class="cls-27" x="316" y="297.29" width="0.1" height="5.82"/><rect id="Rectangle_275" data-name="Rectangle 275" class="cls-28" x="316.1" y="297.29" width="0.1" height="5.82"/><rect id="Rectangle_276" data-name="Rectangle 276" class="cls-29" x="316.21" y="297.29" width="0.1" height="5.82"/><rect id="Rectangle_277" data-name="Rectangle 277" class="cls-30" x="316.31" y="297.29" width="0.1" height="5.82"/><rect id="Rectangle_278" data-name="Rectangle 278" class="cls-31" x="316.41" y="297.29" width="0.1" height="5.82"/><rect id="Rectangle_279" data-name="Rectangle 279" class="cls-32" x="316.51" y="297.29" width="0.1" height="5.82"/><rect id="Rectangle_280" data-name="Rectangle 280" class="cls-33" x="316.62" y="297.29" width="0.1" height="5.82"/><rect id="Rectangle_281" data-name="Rectangle 281" class="cls-34" x="316.72" y="297.29" width="0.1" height="5.82"/><rect id="Rectangle_282" data-name="Rectangle 282" class="cls-35" x="316.82" y="297.29" width="0.1" height="5.82"/><rect id="Rectangle_283" data-name="Rectangle 283" class="cls-36" x="316.93" y="297.29" width="0.1" height="5.82"/><rect id="Rectangle_284" data-name="Rectangle 284" class="cls-37" x="317.03" y="297.29" width="0.1" height="5.82"/><rect id="Rectangle_285" data-name="Rectangle 285" class="cls-38" x="317.13" y="297.29" width="0.1" height="5.82"/><rect id="Rectangle_286" data-name="Rectangle 286" class="cls-39" x="317.23" y="297.29" width="0.1" height="5.82"/><rect id="Rectangle_287" data-name="Rectangle 287" class="cls-40" x="317.34" y="297.29" width="0.1" height="5.82"/><rect id="Rectangle_288" data-name="Rectangle 288" class="cls-41" x="317.44" y="297.29" width="0.1" height="5.82"/><rect id="Rectangle_289" data-name="Rectangle 289" class="cls-42" x="317.54" y="297.29" width="0.1" height="5.82"/><rect id="Rectangle_290" data-name="Rectangle 290" class="cls-43" x="317.65" y="297.29" width="0.1" height="5.82"/><rect id="Rectangle_291" data-name="Rectangle 291" class="cls-44" x="317.75" y="297.29" width="0.1" height="5.82"/><rect id="Rectangle_292" data-name="Rectangle 292" class="cls-45" x="317.85" y="297.29" width="0.1" height="5.82"/><rect id="Rectangle_293" data-name="Rectangle 293" class="cls-46" x="317.95" y="297.29" width="0.1" height="5.82"/><rect id="Rectangle_294" data-name="Rectangle 294" class="cls-47" x="318.06" y="297.29" width="0.1" height="5.82"/><rect id="Rectangle_295" data-name="Rectangle 295" class="cls-48" x="318.16" y="297.29" width="0.1" height="5.82"/><rect id="Rectangle_296" data-name="Rectangle 296" class="cls-49" x="318.26" y="297.29" width="0.1" height="5.82"/><rect id="Rectangle_297" data-name="Rectangle 297" class="cls-50" x="318.36" y="297.29" width="0.1" height="5.82"/><rect id="Rectangle_298" data-name="Rectangle 298" class="cls-51" x="318.47" y="297.29" width="0.1" height="5.82"/><rect id="Rectangle_299" data-name="Rectangle 299" class="cls-52" x="318.57" y="297.29" width="0.1" height="5.82"/><rect id="Rectangle_300" data-name="Rectangle 300" class="cls-53" x="318.67" y="297.29" width="0.1" height="5.82"/><rect id="Rectangle_301" data-name="Rectangle 301" class="cls-54" x="318.78" y="297.29" width="0.1" height="5.82"/><rect id="Rectangle_302" data-name="Rectangle 302" class="cls-55" x="318.88" y="297.29" width="0.1" height="5.82"/><rect id="Rectangle_303" data-name="Rectangle 303" class="cls-56" x="318.98" y="297.29" width="0.1" height="5.82"/><rect id="Rectangle_304" data-name="Rectangle 304" class="cls-57" x="319.08" y="297.29" width="0.1" height="5.82"/><rect id="Rectangle_305" data-name="Rectangle 305" class="cls-58" x="319.19" y="297.29" width="0.1" height="5.82"/><rect id="Rectangle_306" data-name="Rectangle 306" class="cls-59" x="319.29" y="297.29" width="0.1" height="5.82"/><rect id="Rectangle_307" data-name="Rectangle 307" class="cls-60" x="319.39" y="297.29" width="0.1" height="5.82"/><rect id="Rectangle_308" data-name="Rectangle 308" class="cls-61" x="319.5" y="297.29" width="0.1" height="5.82"/><rect id="Rectangle_309" data-name="Rectangle 309" class="cls-62" x="319.6" y="297.29" width="0.1" height="5.82"/><rect id="Rectangle_310" data-name="Rectangle 310" class="cls-63" x="319.7" y="297.29" width="0.1" height="5.82"/><rect id="Rectangle_311" data-name="Rectangle 311" class="cls-64" x="319.8" y="297.29" width="0.1" height="5.82"/><rect id="Rectangle_312" data-name="Rectangle 312" class="cls-65" x="319.91" y="297.29" width="0.1" height="5.82"/><rect id="Rectangle_313" data-name="Rectangle 313" class="cls-66" x="320.01" y="297.29" width="0.1" height="5.82"/><rect id="Rectangle_314" data-name="Rectangle 314" class="cls-67" x="320.11" y="297.29" width="0.1" height="5.82"/><rect id="Rectangle_315" data-name="Rectangle 315" class="cls-68" x="320.22" y="297.29" width="0.1" height="5.82"/><rect id="Rectangle_316" data-name="Rectangle 316" class="cls-69" x="320.32" y="297.29" width="0.1" height="5.82"/><rect id="Rectangle_317" data-name="Rectangle 317" class="cls-70" x="320.42" y="297.29" width="0.1" height="5.82"/><rect id="Rectangle_318" data-name="Rectangle 318" class="cls-71" x="320.52" y="297.29" width="0.1" height="5.82"/><rect id="Rectangle_319" data-name="Rectangle 319" class="cls-72" x="320.63" y="297.29" width="0.1" height="5.82"/><rect id="Rectangle_320" data-name="Rectangle 320" class="cls-73" x="320.73" y="297.29" width="0.1" height="5.82"/><rect id="Rectangle_321" data-name="Rectangle 321" class="cls-74" x="320.83" y="297.29" width="0.1" height="5.82"/><rect id="Rectangle_322" data-name="Rectangle 322" class="cls-75" x="320.93" y="297.29" width="0.1" height="5.82"/><rect id="Rectangle_323" data-name="Rectangle 323" class="cls-76" x="321.04" y="297.29" width="0.1" height="5.82"/><rect id="Rectangle_324" data-name="Rectangle 324" class="cls-77" x="321.14" y="297.29" width="0.1" height="5.82"/><rect id="Rectangle_325" data-name="Rectangle 325" class="cls-78" x="321.24" y="297.29" width="0.1" height="5.82"/><rect id="Rectangle_326" data-name="Rectangle 326" class="cls-79" x="321.35" y="297.29" width="0.1" height="5.82"/><rect id="Rectangle_327" data-name="Rectangle 327" class="cls-80" x="321.45" y="297.29" width="0.1" height="5.82"/><rect id="Rectangle_328" data-name="Rectangle 328" class="cls-81" x="321.55" y="297.29" width="0.1" height="5.82"/><rect id="Rectangle_329" data-name="Rectangle 329" class="cls-82" x="321.65" y="297.29" width="0.1" height="5.82"/><rect id="Rectangle_330" data-name="Rectangle 330" class="cls-83" x="321.76" y="297.29" width="0.1" height="5.82"/><rect id="Rectangle_331" data-name="Rectangle 331" class="cls-84" x="321.86" y="297.29" width="0.1" height="5.82"/><rect id="Rectangle_332" data-name="Rectangle 332" class="cls-85" x="321.96" y="297.29" width="0.1" height="5.82"/><rect id="Rectangle_333" data-name="Rectangle 333" class="cls-86" x="322.07" y="297.29" width="0.1" height="5.82"/><rect id="Rectangle_334" data-name="Rectangle 334" class="cls-87" x="322.17" y="297.29" width="0.1" height="5.82"/></g></g></g><g id="Group_33" data-name="Group 33"><g class="cls-6"><g id="Group_32" data-name="Group 32"><path id="Path_515" data-name="Path 515" class="cls-17" d="M318.42,304.55a6.36,6.36,0,0,1,2,.25c.16.07.31.16.31.34s-.25.39-.81.43a4.59,4.59,0,0,0-1.25.36s-.59-.12-.24-1.38"/><path id="Path_516" data-name="Path 516" class="cls-113" d="M305.76,350.3l-.3,1.56-3.29-8.7,3.59,7.14"/><path id="Path_517" data-name="Path 517" class="cls-21" d="M125,246.69H73.11a6.93,6.93,0,0,1-6.93-6.93v-81.9a6.94,6.94,0,0,1,6.93-6.94H125a6.94,6.94,0,0,1,6.93,6.94v81.9a6.93,6.93,0,0,1-6.93,6.93h0"/><rect id="Rectangle_335" data-name="Rectangle 335" class="cls-114" x="121.51" y="212.77" width="3.41" height="25.91"/><rect id="Rectangle_336" data-name="Rectangle 336" class="cls-114" x="114.78" y="215.67" width="3.4" height="23.01"/><rect id="Rectangle_337" data-name="Rectangle 337" class="cls-114" x="107.47" y="219.45" width="3.4" height="19.23"/><rect id="Rectangle_338" data-name="Rectangle 338" class="cls-114" x="99.96" y="224.21" width="3.4" height="14.47"/><path id="Path_518" data-name="Path 518" class="cls-114" d="M79.65,221.15l-.74-.27,6.42-18,13.92-3.68,5-19.77L115,174.68l2.41-15.37.77.12-2.47,15.79L104.92,180l-5,19.85-14,3.69Z"/><path id="Path_519" data-name="Path 519" class="cls-21" d="M101.2,198.18a2.09,2.09,0,1,1-2.94-.29,2.08,2.08,0,0,1,2.94.29"/><path id="Path_520" data-name="Path 520" class="cls-114" d="M101.15,201.43a2.48,2.48,0,1,1,.35-3.5h0a2.48,2.48,0,0,1-.35,3.49m-2.65-3.24a1.7,1.7,0,1,0,2.15,2.63,1.69,1.69,0,0,0,.24-2.39h0a1.71,1.71,0,0,0-2.39-.24"/><path id="Path_521" data-name="Path 521" class="cls-21" d="M106.27,178.5a2.09,2.09,0,1,1-2.94-.3,2.09,2.09,0,0,1,2.94.3h0"/><path id="Path_522" data-name="Path 522" class="cls-114" d="M106.22,181.74a2.48,2.48,0,1,1,.35-3.49h0a2.48,2.48,0,0,1-.35,3.49m-2.65-3.24a1.71,1.71,0,0,0-.24,2.39,1.7,1.7,0,0,0,2.63-2.15h0a1.71,1.71,0,0,0-2.39-.24"/><path id="Path_523" data-name="Path 523" class="cls-21" d="M116.84,173.62a2.09,2.09,0,1,1-3.23,2.65,2.1,2.1,0,0,1,.29-3h0a2.08,2.08,0,0,1,2.94.3"/><path id="Path_524" data-name="Path 524" class="cls-114" d="M116.8,176.86a2.48,2.48,0,1,1,.35-3.49,2.48,2.48,0,0,1-.35,3.49m-2.65-3.23a1.69,1.69,0,1,0,2.15,2.62,1.69,1.69,0,1,0-2.15-2.62"/><path id="Path_525" data-name="Path 525" class="cls-21" d="M87.33,202.05a2.09,2.09,0,1,1-2.94-.29,2.08,2.08,0,0,1,2.94.29h0"/><path id="Path_526" data-name="Path 526" class="cls-114" d="M87.28,205.29a2.48,2.48,0,1,1,.35-3.49h0a2.48,2.48,0,0,1-.35,3.49m-2.64-3.23a1.7,1.7,0,1,0,2.38.24h0a1.69,1.69,0,0,0-2.38-.24"/><path id="Path_527" data-name="Path 527" class="cls-115" d="M92.58,182.44H74.66a1.5,1.5,0,0,1-1.5-1.5v-1.33a1.5,1.5,0,0,1,1.5-1.5H92.58a1.5,1.5,0,0,1,1.5,1.5v1.33a1.5,1.5,0,0,1-1.5,1.5"/><path id="Path_528" data-name="Path 528" class="cls-115" d="M92.58,174.86H74.66a1.5,1.5,0,0,1-1.5-1.5V172a1.5,1.5,0,0,1,1.5-1.5H92.58a1.5,1.5,0,0,1,1.5,1.5v1.33a1.5,1.5,0,0,1-1.5,1.5"/><path id="Path_529" data-name="Path 529" class="cls-18" d="M58.15,185.93s-.61,6,.5,7.48c0,0-2.93-.64-3.61-1.64s3.11-5.84,3.11-5.84"/><path id="Path_530" data-name="Path 530" class="cls-17" d="M76.42,205l1.22-.82a3,3,0,0,1,1.34,0,3.59,3.59,0,0,1,1.48.55.56.56,0,0,1,.11.45,1.07,1.07,0,0,1-.23.48.67.67,0,0,1-.13.61.58.58,0,0,1-.24.58.45.45,0,0,1-.17.48,3.78,3.78,0,0,0-.75,0,8.51,8.51,0,0,1-2.41-.34s-1.2-.25-.22-2"/><path id="Path_531" data-name="Path 531" class="cls-100" d="M78.22,205.52a2.69,2.69,0,0,1-.49.67c-.16.11.82,1.17.82,1.17s.34-1.43-.33-1.84"/><path id="Path_532" data-name="Path 532" class="cls-17" d="M75.79,205.13a4.48,4.48,0,0,0,1.08-.26c.41-.19-.08,2.08-.08,2.08a4.19,4.19,0,0,0-1.65-.71c-.65,0,.65-1.11.65-1.11"/><path id="Path_533" data-name="Path 533" class="cls-116" d="M48.12,265.58a37.51,37.51,0,0,0,2.81,3.7s1.46.76,1.5,1.36c.09,1.14.15,1.82-1.76,1.87s-3.12,0-3.47-1.16a8.92,8.92,0,0,0-1-2.08l-.14,3h-.43s-.2-3-.22-3.46-.31-2.09.6-2.82a2.51,2.51,0,0,1,2.07-.43"/><path id="Path_534" data-name="Path 534" class="cls-116" d="M51.21,269.44a4.84,4.84,0,0,1-2.27,0c-1.23-.31-2.41-3.26-2.77-3.5l-.32-1.19h2.4a4.4,4.4,0,0,0,.41,1.63,28,28,0,0,0,2.55,3.08"/><path id="Path_535" data-name="Path 535" class="cls-116" d="M61.67,264.44a7.63,7.63,0,0,0,.9,1.51c.44.57,1.79,2.89,2.38,3.05s2.43.49,2.59,1.51.24,1.76-1.57,1.84-3,.19-3.86-1.08a9.14,9.14,0,0,0-2.24-2.19v3.31h-.7a29.58,29.58,0,0,0-.51-3.68,4.18,4.18,0,0,1,1-4.27c1.67-1.37,2,0,2,0"/><path id="Path_536" data-name="Path 536" class="cls-116" d="M65,269s-1.62.41-2.24,0-2.73-4-3.43-4.18c0,0,.68-1.37,2.39-.38,0,0,2.82,4,3.28,4.56"/><path id="Path_537" data-name="Path 537" class="cls-117" d="M47.2,214.89a16.7,16.7,0,0,0-2.9,6.49c-.62,3.51.36,15.34.34,17.08s-1.54,7.15-1.22,10.43,2,17,2,17l4-.08s-.79-14.76-.59-16.14.85-7.23.93-7.8,4.5-15.55,4.5-18.09-1.54-13-7-8.86"/><path id="Path_538" data-name="Path 538" class="cls-117" d="M58.67,216.05s3.75,14.31,4.19,16.3,1.34,4.57,1.3,4.93-.47,6.48-.47,6.48l-1.07,20.8H58.67s-1.27-13.23-1.47-15.9,1.45-6.81,1-7.94-6.52-14.2-6.52-14.2-4.62-14.63,6.94-10.47"/><path id="Path_539" data-name="Path 539" class="cls-96" d="M57.51,194.62A4.48,4.48,0,0,1,60.14,196a17.36,17.36,0,0,1,2.49,3.79c.3.65,4.46,6.65,4.68,6.79s2-.34,3.49-.47a31.58,31.58,0,0,0,5.93-1.4l.53,2.68s-8.75,2.83-10.77,2.33c-2.46-.61-8.15-7.9-8.15-7.9s-4.23-5-.83-7.18"/><path id="Path_540" data-name="Path 540" class="cls-96" d="M54.89,193.57a20.45,20.45,0,0,0,2.62,1.05c.67.13,3.29,3.53,3.75,4.78s0,3.1-.94,5.28-.06,2.92-.49,5.11a61.35,61.35,0,0,0-.35,9.35c.08,1.22-12.49,3.51-15,1.3,0,0,1.7-5.6,3.71-7.71.43-.45.39-3.49.09-4.24s-3.64-6.39-3.64-6.39-.25-5.72,1.21-6.86c1.27-1,4.73-1.33,5.35-1.55a10.4,10.4,0,0,1,3.69-.12"/><path id="Path_541" data-name="Path 541" class="cls-118" d="M55.51,197.9l1.18-1.38-1-3.64a24.06,24.06,0,0,0-.16,5"/><path id="Path_542" data-name="Path 542" class="cls-17" d="M48.11,194.62a3.38,3.38,0,0,0-3.85,2c-1.41,2.7-1,4.16-1.38,5.37s-1.62,9.34-1.7,9.69-1.32,4.48-1.16,5.75,1.32,10.87,1.27,11.2,2.24-.31,2.24-.31-.1-9.81,0-10.62.16-5.06.76-6.15,2.11-7.77,2.43-8.46,3.46-7.59,1.4-8.46"/><path id="Path_543" data-name="Path 543" class="cls-17" d="M55.82,191.33a43.66,43.66,0,0,0-.31,4.72s-2,2-4.32-2.36a6,6,0,0,0,.24-4.27c-.72-2.46,4.39,1.91,4.39,1.91"/><path id="Path_544" data-name="Path 544" class="cls-17" d="M55.51,196.05v1.85L53.34,196Z"/><path id="Path_545" data-name="Path 545" class="cls-118" d="M55.51,197.9l-1-1.2-3.25-3.23-1.22.54Z"/><path id="Path_546" data-name="Path 546" class="cls-119" d="M56.69,196.52l1.49.41-2.51-4.05Z"/><path id="Path_547" data-name="Path 547" class="cls-119" d="M54.55,196.71l-1.36,2.17L50,193.93l1.35-.69Z"/><path id="Path_548" data-name="Path 548" class="cls-118" d="M61.47,205.49a16.4,16.4,0,0,0,0-5.2s-.29,1.59-1,4.06Z"/><path id="Path_549" data-name="Path 549" class="cls-118" d="M46.38,205.06s1.34-4.44,1.42-4.69a37.23,37.23,0,0,1-.61,6.11l-.81-1.42"/><path id="Path_550" data-name="Path 550" class="cls-120" d="M96.42,182.79,75.27,209.43,76,210Z"/><path id="Path_551" data-name="Path 551" class="cls-111" d="M80.3,204.72s-1.58-.15-1.64.11a.43.43,0,0,0,.07.38l-.68.23s-.36.41.19.69c0,0-.38.34.19.55,0,0-.15.34.1.48a5.42,5.42,0,0,0,1.27.19s.22-.08.17-.48a.55.55,0,0,0,.23-.58.6.6,0,0,0,.14-.61s.49-.49.12-.93l-.17,0"/><path id="Path_552" data-name="Path 552" class="cls-17" d="M77.69,204.21A5.58,5.58,0,0,1,79,205.34a.34.34,0,0,1,.06.38c-.09.12-.37.16-.78-.08a4.4,4.4,0,0,0-1.06-.35s-.35-.36.49-1.08"/><path id="Path_553" data-name="Path 553" class="cls-17" d="M54.18,179.19s3.58-.09,4.23,4.15-.86,7.95-1.46,8.55-4.17.14-5-2.06-2.08-3.8-1.89-5.69-.27-5,4.13-4.94"/><path id="Path_554" data-name="Path 554" class="cls-18" d="M58.57,184.94s1-5.28-3.79-6.23-6.42,2.3-6.87,4.23.08,7.38.08,7.38,3.17,2.78,5.06,3.5c0,0-1.59-5.8-1-9.95a20.06,20.06,0,0,0,6.42,0s.08.87.09,1.1"/><path id="Path_555" data-name="Path 555" class="cls-19" d="M55.74,192.12A6,6,0,0,1,52.8,191a7,7,0,0,0,2.85,2,8.06,8.06,0,0,0,.08-.94"/><rect id="Rectangle_339" data-name="Rectangle 339" class="cls-121" x="35.6" y="220.45" width="14" height="10.35" transform="translate(-35.8 9.81) rotate(-9.27)"/><path id="Path_556" data-name="Path 556" class="cls-17" d="M40.81,231.69a2.21,2.21,0,0,1-.23-.55s0-.37,0-.63a1.38,1.38,0,0,0,0-.2,3.64,3.64,0,0,1-.16-1.09,24.8,24.8,0,0,1,.7-2.56l1.22,0,1.15-.12a23.61,23.61,0,0,1,1.42,3.11v.13a4.56,4.56,0,0,1-.23.88c0,.07-.18.81-.38.91a.74.74,0,0,1-.72,0,1.74,1.74,0,0,1-1,.15,1.1,1.1,0,0,1-1,0s-.54.19-.79-.05"/><path id="Path_557" data-name="Path 557" class="cls-96" d="M48.11,194.62a3.38,3.38,0,0,0-3.85,2,12.29,12.29,0,0,0-1.59,5.17c-.17,1.25-1.88,8.64-2,9s-.65,5-.69,6.65c0,1.28.27,9.66.22,10s3.87-.56,3.87-.56-.43-7.73-.35-8.54a44,44,0,0,1,.65-6c.47-1.4,2.3-8.42,2.62-9.11s3.14-7.66,1.08-8.54"/><path id="Path_558" data-name="Path 558" class="cls-122" d="M174.68,267.28l.25-2.38a18.54,18.54,0,0,0-3.74.26s.29,2,.32,2.29,3.17-.17,3.17-.17"/><path id="Path_559" data-name="Path 559" class="cls-123" d="M169,272.24c4,0,5.9.23,6.33-.42s-.62-4.76-.62-4.76a8.46,8.46,0,0,1-3.22.14,8.43,8.43,0,0,1-1.95,1.72c-1,.52-2.46.73-3,1.27-.41.39-1.49,2.08,2.49,2"/><path id="Path_560" data-name="Path 560" class="cls-122" d="M152.27,267.28l.25-2.38a18.54,18.54,0,0,0-3.74.26s.29,2,.32,2.29,3.17-.17,3.17-.17"/><path id="Path_561" data-name="Path 561" class="cls-123" d="M146.58,272.24c4-.11,5.9.23,6.33-.42s-.62-4.76-.62-4.76a7.53,7.53,0,0,1-3.22.14,8.43,8.43,0,0,1-1.95,1.72c-1,.52-4.48.95-5.05,1.49-.41.4-1.09,2,4.51,1.82"/><path id="Path_562" data-name="Path 562" class="cls-11" d="M170.08,213.72a29.68,29.68,0,0,1,1.45,9.21c-.22,4.26.86,8.92,1.3,13.37.49,5,2.51,16.71,2.58,19.36s-.31,11.13-.31,11.13l-4,.1s-3.38-20.54-4.26-22.63-5.23-17-5.37-18.72,8.65-11.82,8.65-11.82"/><path id="Path_563" data-name="Path 563" class="cls-11" d="M153.13,214.6s-2.21,11.68-2.51,14.28-.48,12.62-.63,14.26-1,21.33-1.75,23.75h5.15s4-14.32,4-21.1,3.06-14.73,5-19.2,6.49-4.57,7.7-12.87c0,0-15.31-1.75-17,.88"/><path id="Path_564" data-name="Path 564" class="cls-17" d="M163.61,174.69s-4.07-1.52-5.94,1.57-1.69,9.29.35,10.05,5.13.36,6.18-1.57a15.6,15.6,0,0,0,2-6.61,4.08,4.08,0,0,0-2.54-3.44"/><path id="Path_565" data-name="Path 565" class="cls-17" d="M158.71,186.12a3.43,3.43,0,0,1-.11,1.59c-.27.52,5.11.54,5.11.54A35.18,35.18,0,0,1,165,183c.83-2.41-6.27,3.14-6.27,3.14"/><path id="Path_566" data-name="Path 566" class="cls-124" d="M165,183s-.38.61-1.89.38-3.37-2.26-4-2.48-.64-.59-.64-.59l-.4.58-.67,0s.61-1.81-.31-2.54,1-5.84,5.82-4.14c0,0,3.49.68,3.7,2.8A9.64,9.64,0,0,1,165,183"/><path id="Path_567" data-name="Path 567" class="cls-125" d="M158.28,187.65s0-1,.47-1.1a32,32,0,0,1,5.57-.32v1.17s-1.07.66-6,.25"/><path id="Path_568" data-name="Path 568" class="cls-17" d="M158.55,179.52c.09-.36,1-1.38,1.34-.29s-.52,2.56-1,2.43-.54-1.24-.33-2.14"/><path id="Path_569" data-name="Path 569" class="cls-73" d="M158.28,187.65s-2.5.89-5.39,2.13a6.06,6.06,0,0,0-3.69,4.92c-.2,2-2.27,12.31-2.67,13.19s-5,15-5.16,15.26,3.77,1.92,4,1.79,4.46-12.85,4.88-13.79c0,0,2.42-7.62,2.49-8.76,0,0,.07,3.24.2,4.15s-2.16,18.57-2.09,19.05,10.37,1.11,14.5.66a49.67,49.67,0,0,0,7.45-1.41s-3.24-13.93-3.14-15.48c.21-3.37,1.34-9.71,1.34-9.71l3.36,6.34-4.31,11.08,1,3.37s8-12.09,8.26-13.2a6,6,0,0,0-.81-3.42c-.43-.91-3.2-7.83-3.85-8.81s-1.75-4.87-4.4-6a40.86,40.86,0,0,0-5.94-1.65Z"/><rect id="Rectangle_340" data-name="Rectangle 340" class="cls-126" x="138.26" y="210.81" width="13.57" height="19.46" transform="translate(-104.61 306.26) rotate(-75.62)"/><path id="Path_570" data-name="Path 570" class="cls-127" d="M139.73,226s-.54.87-.74,1.12.49.4.78.15,0-1.27,0-1.27"/><path id="Path_571" data-name="Path 571" class="cls-128" d="M143.65,229a2.12,2.12,0,0,0,.39-.55s.09-.4.18-.67a1,1,0,0,1,.07-.21,4,4,0,0,0,.43-1.15c.08-.54.32-2.95.32-2.95l-1.46-.37-1.17-.25a23.72,23.72,0,0,0-2.67,3,.39.39,0,0,0,0,.14,4.86,4.86,0,0,0,0,1c0,.08,0,.92.21,1.08a.8.8,0,0,0,.77.18,1.92,1.92,0,0,0,1,.38,1.2,1.2,0,0,0,1.05.2s.55.34.87.13"/><path id="Path_572" data-name="Path 572" class="cls-73" d="M149.35,213.75s-3.34,10.13-4,11.19a11,11,0,0,1-4-1.79L145,212.22Z"/><path id="Path_573" data-name="Path 573" class="cls-129" d="M451.12,229.54s12.42-36.41-11.28-47.7-43.81,5-47.61,13.86-2.8,24.88.45,36.08,2.76,28.24-4.28,33.94-15.77,15.17-15.34,34.44c.27,12,47.05-30.58,47.05-30.58Z"/><path id="Path_574" data-name="Path 574" class="cls-107" d="M417.83,272.86s-19.48,4.32-27.21,8.83-24.9,25.3-24.9,34.24,75.08,17.28,75.08,17.28l14.23,52s38-9.26,42.46-16.94-14.41-62.72-17.65-73.86c-3.31-11.36-16.91-19.29-32.72-21.5a108.89,108.89,0,0,0-29.3,0"/><path id="Path_575" data-name="Path 575" class="cls-17" d="M445.77,272.68s-.43,23.67-19.21,24.37-14.86-22.7-14.86-22.7,13.73-5.56,34.07-1.67"/><path id="Path_576" data-name="Path 576" class="cls-129" d="M453.72,201.25s6.64,38.07-12.27,65.57c-19.59,28.49,12.27-65.57,12.27-65.57"/><path id="Path_577" data-name="Path 577" class="cls-17" d="M441.75,255.94s-1.31,11.33.87,18.37-28.71,7.23-28.69,1.44c0-6.57,3.16-12.07.2-23.34s27.62,3.53,27.62,3.53"/><path id="Path_578" data-name="Path 578" class="cls-19" d="M417.79,257.39s9.75,10.16,22.22,1.06c0,0-1,6.49-10,7.33s-12.22-8.39-12.22-8.39"/><path id="Path_579" data-name="Path 579" class="cls-17" d="M430,188.05s24.64,7.29,21.12,41.49S431.51,262,430,262.23s-20.62,1.51-26.66-40S430,188.05,430,188.05"/><path id="Path_580" data-name="Path 580" class="cls-129" d="M423.64,203.3s13.39,21.3,27.48,26.24c0,0,7.7-35.74-24.09-43.23s-26.8,36.1-24.43,47.72a94.4,94.4,0,0,1,21-30.73"/><path id="Path_581" data-name="Path 581" class="cls-37" d="M405.68,200.09s7-13.65,18.95-14.26,19,9.72,19,9.72-4.65-11.63-19-11.63-19,16.17-19,16.17"/><path id="Path_582" data-name="Path 582" class="cls-130" d="M454.13,307.46l8.36,77.7h-110l-8.36-77.7Z"/><path id="Path_583" data-name="Path 583" class="cls-130" d="M459.85,382.49h-111l-8.46-78.66h111Zm-110.11-1h109l-8.26-76.74h-109Z"/><path id="Path_584" data-name="Path 584" class="cls-131" d="M410.14,345.05c1,4.83-1.27,9.38-5,10.15s-7.62-2.53-8.61-7.36,1.27-9.38,5-10.15,7.63,2.52,8.62,7.36"/><rect id="Rectangle_341" data-name="Rectangle 341" class="cls-130" x="452.09" y="377.35" width="20.53" height="7.81"/><path id="Path_585" data-name="Path 585" class="cls-7" d="M388.27,151.86a16.93,16.93,0,1,1,16.92-16.93h0a16.94,16.94,0,0,1-16.92,16.93m0-32.89a16,16,0,1,0,16,16,16,16,0,0,0-16-16"/><path id="Path_586" data-name="Path 586" class="cls-132" d="M89.83,323.91v-1.44c2.86,0,5.76-.1,8.59-.23l.07,1.44c-2.85.13-5.76.21-8.65.23m-8.66-.09c-2.84-.08-5.75-.21-8.65-.39l.09-1.44c2.88.18,5.78.31,8.6.39Zm26-.73-.13-1.43c2.84-.25,5.72-.55,8.55-.92l.18,1.43c-2.85.36-5.75.68-8.6.92m-43.23-.36c-3-.29-5.84-.66-8.59-1.11l.23-1.42c2.72.44,5.58.82,8.51,1.11Zm60.4-1.82-.24-1.42c2.77-.47,5.61-1,8.45-1.59l.29,1.41c-2.85.59-5.72,1.12-8.5,1.59m-77.5-1c-2.9-.71-5.7-1.52-8.34-2.43l.47-1.36c2.59.89,5.35,1.69,8.21,2.39Zm94.45-2.48-.34-1.4c2.64-.64,5.37-1.33,8.35-2.12l.37,1.39c-3,.79-5.73,1.49-8.38,2.13M30.39,314.2a63,63,0,0,1-7.6-4.28l.8-1.2A60.05,60.05,0,0,0,31,312.9ZM157.94,313l-.39-1.38,3.58-1,4.73-1.34.39,1.39L161.52,312,158,313m75-1.2a83.84,83.84,0,0,0-7.9-3.28l.49-1.36c2.63.94,5.34,2.07,8,3.34Zm-58.37-3.38-.36-1.4c3.1-.79,5.86-1.43,8.43-2l.3,1.41c-2.56.53-5.3,1.17-8.37,2m42.29-2.32a66.91,66.91,0,0,0-8.42-1.4l.14-1.43a69.46,69.46,0,0,1,8.6,1.42ZM191.39,305l-.19-1.42a83.68,83.68,0,0,1,8.67-.67l0,1.44a81,81,0,0,0-8.52.66m-175.46-.51a48.66,48.66,0,0,1-5.85-6.49l1.16-.86a47,47,0,0,0,5.67,6.3Zm-10.4-14a51.61,51.61,0,0,1-3.15-8.15L3.76,282A49.74,49.74,0,0,0,6.81,290ZM.59,273.88a68.48,68.48,0,0,1-.59-8.7H1.44A67.2,67.2,0,0,0,2,273.68Zm1.27-17.25-1.43-.15c.29-2.82.73-5.71,1.3-8.6l1.41.28c-.56,2.84-1,5.69-1.28,8.47m3.3-16.81-1.38-.4a78,78,0,0,1,2.82-8.26l1.33.57a77.14,77.14,0,0,0-2.77,8.09"/><path id="Path_587" data-name="Path 587" class="cls-132" d="M462.27,65.23s-2.43-2.15-6.73-5.35l.86-1.16c4.36,3.24,6.8,5.42,6.83,5.44ZM448.5,54.92c-2.36-1.58-4.81-3.13-7.27-4.61l.74-1.23c2.48,1.49,4.95,3.05,7.33,4.64Zm-14.74-8.87c-2.53-1.36-5.11-2.68-7.67-3.9l.62-1.3c2.58,1.23,5.18,2.56,7.73,3.93Zm-15.52-7.42c-2.65-1.12-5.35-2.16-8-3.11l.48-1.36c2.69,1,5.41,2,8.09,3.14ZM308.92,36.87l0-1.44a60.38,60.38,0,0,0,8.49-.8l.23,1.42a61.59,61.59,0,0,1-8.68.82m-8.71-.45a63.79,63.79,0,0,1-8.56-1.68l.37-1.39A62.52,62.52,0,0,0,300.4,35ZM326.1,34.1l-.4-1.38c.92-.27,1.86-.57,2.8-.88,1.8-.6,3.63-1.17,5.45-1.68l.39,1.38c-1.79.51-3.61,1.07-5.38,1.66-.95.32-1.91.62-2.85.9m75.95-1.24c-2.76-.81-5.56-1.55-8.31-2.19l.32-1.4c2.78.65,5.61,1.39,8.4,2.21ZM283.4,32c-2.53-1-5.13-2.13-7.94-3.49l.63-1.3c2.78,1.35,5.34,2.48,7.84,3.45Zm59.27-2.48-.28-1.41c2.82-.57,5.71-1,8.57-1.38l.18,1.43c-2.83.34-5.68.8-8.47,1.36M385.33,29c-2.84-.46-5.7-.84-8.51-1.11l.14-1.43c2.84.27,5.74.65,8.6,1.13ZM132.49,27.63l-.78-1.21c2.46-1.59,4.93-3.14,7.33-4.59l.75,1.23c-2.39,1.44-4.85,3-7.3,4.57m227.19-.19L359.61,26c2.86-.13,5.78-.16,8.68-.08l0,1.44c-2.87-.08-5.74-.05-8.57.08m-91.91-2.9c-2.44-1.33-4.86-2.69-7.55-4.21l.71-1.25c2.68,1.51,5.09,2.87,7.52,4.19ZM147.24,18.76l-.7-1.26c2.58-1.42,5.16-2.78,7.67-4l.64,1.29c-2.49,1.24-5,2.59-7.61,4M252.7,16.13c-2.82-1.55-5.31-2.86-7.61-4l.64-1.29c2.32,1.16,4.83,2.48,7.66,4Zm-90.06-5-.58-1.32c2.71-1.17,5.42-2.26,8.05-3.22l.5,1.35c-2.61,1-5.29,2-8,3.19M237.3,8.51c-2.76-1.16-5.38-2.15-8-3l.45-1.37c2.68.88,5.34,1.88,8.13,3.06ZM178.76,5.27l-.4-1.38c2.84-.82,5.68-1.52,8.44-2.07l.28,1.4c-2.72.55-5.52,1.24-8.32,2m42.27-2a77.1,77.1,0,0,0-8.43-1.37l.16-1.43a77.81,77.81,0,0,1,8.58,1.39ZM195.54,1.91,195.39.48A83.85,83.85,0,0,1,204.07,0V1.44a84,84,0,0,0-8.54.47"/><path id="Path_588" data-name="Path 588" class="cls-133" d="M283,327.6l-36.16-10.52,10.84-3.27Z"/><path id="Path_589" data-name="Path 589" class="cls-134" d="M283,327.6,269.49,314l-8.32,1.69Z"/><path id="Path_590" data-name="Path 590" class="cls-135" d="M255.16,319.5l.3,4.18L283,327.6Z"/><path id="Path_591" data-name="Path 591" class="cls-133" d="M101,51.55l31.88-17.83-11-.72Z"/><path id="Path_592" data-name="Path 592" class="cls-134" d="M101,51.55l9.81-15.78,8.23-.22Z"/><path id="Path_593" data-name="Path 593" class="cls-135" d="M125.55,37.82l.63,4L101,51.55Z"/></g></g></g></g></g></svg>