<svg xmlns="http://www.w3.org/2000/svg" xmlns:xlink="http://www.w3.org/1999/xlink" viewBox="0 0 149.85 149.85"><defs><style>.cls-1{fill:none;}.cls-2{clip-path:url(#clip-path);}.cls-3{fill:#f15a24;}.cls-4{fill:#fff;}</style><clipPath id="clip-path" transform="translate(0 0)"><rect class="cls-1" width="149.85" height="149.85"/></clipPath></defs><g id="Layer_2" data-name="Layer 2"><g id="Layer_1-2" data-name="Layer 1"><g class="cls-2"><g id="Group_443" data-name="Group 443"><path id="Path_1302" data-name="Path 1302" class="cls-3" d="M134,149.85H15.88A15.85,15.85,0,0,1,0,134H0V15.81A15.85,15.85,0,0,1,15.88,0H134a15.85,15.85,0,0,1,15.89,15.81V134A15.85,15.85,0,0,1,134,149.85" transform="translate(0 0)"/><path id="Path_1303" data-name="Path 1303" class="cls-4" d="M18,25.57h8V18.31h2.81V36.88H26.06V28.21H18v8.67H15.2V18.31H18Z" transform="translate(0 0)"/><path id="Path_1304" data-name="Path 1304" class="cls-4" d="M38.49,20.94V36.88H35.68V20.94H31.39V18.31H42.77v2.63Z" transform="translate(0 0)"/><path id="Path_1305" data-name="Path 1305" class="cls-4" d="M44.63,36.87l3.93-20L55,31.34,61.6,16.91l3.52,20H62.24l-1.8-11.2L54.91,37.73,49.55,25.66l-2,11.21Z" transform="translate(0 0)"/><path id="Path_1306" data-name="Path 1306" class="cls-4" d="M71.89,18.31V34.24h5.49v2.64h-8.3V18.31Z" transform="translate(0 0)"/><path id="Path_1307" data-name="Path 1307" class="cls-4" d="M57.8,56.09v17L44.74,85,57.8,96.91V113.8L33.55,92V77.78Z" transform="translate(0 0)"/><path id="Path_1308" data-name="Path 1308" class="cls-4" d="M82.8,49.13h7.07L69.48,129.41h-7Z" transform="translate(0 0)"/><path id="Path_1309" data-name="Path 1309" class="cls-4" d="M94.92,113.8v-17l13-11.85L94.92,73V56.09l24.25,21.69V92.12Z" transform="translate(0 0)"/></g></g></g></g></svg>