<svg xmlns="http://www.w3.org/2000/svg" xmlns:xlink="http://www.w3.org/1999/xlink" viewBox="0 0 152.15 151.7"><defs><style>.cls-1{fill:none;}.cls-2{clip-path:url(#clip-path);}.cls-3{fill:#7a1430;}.cls-4{fill:#f2f2f2;}</style><clipPath id="clip-path" transform="translate(0.27 0.05)"><rect class="cls-1" width="151.6" height="151.6"/></clipPath></defs><g id="Layer_2" data-name="Layer 2"><g id="Layer_1-2" data-name="Layer 1"><g id="Group_466" data-name="Group 466"><g class="cls-2"><g id="Group_465" data-name="Group 465"><path id="Path_1341" data-name="Path 1341" class="cls-3" d="M135.75,151.65H15.85a16.07,16.07,0,0,1-16.12-16V16A16.06,16.06,0,0,1,15.85,0h119.9a16.06,16.06,0,0,1,16.12,16V135.64a16.07,16.07,0,0,1-16.12,16h0" transform="translate(0.27 0.05)"/><rect id="Rectangle_578" data-name="Rectangle 578" class="cls-4" x="42.69" y="45.49" width="8.81" height="56.03"/><rect id="Rectangle_579" data-name="Rectangle 579" class="cls-4" x="59.94" y="45.49" width="8.81" height="56.03"/><path id="Path_1342" data-name="Path 1342" class="cls-4" d="M83.61,86.33a8.52,8.52,0,0,0,2.54,6.58q2.53,2.34,7.42,2.34a10.81,10.81,0,0,0,7.09-2.13,7.58,7.58,0,0,0,2.56-6.19,6.63,6.63,0,0,0-.88-3.48,8.87,8.87,0,0,0-2.2-2.45A16.36,16.36,0,0,0,97,79.23l-3.35-1.46-5.91-2.46a24.51,24.51,0,0,1-9.26-6.07,13.62,13.62,0,0,1-3.4-9.55,13.9,13.9,0,0,1,4.4-10.84q4.4-4,13.15-4,9.17,0,13.42,3.68t4.25,10.39v2.33h-8.69V59a6.09,6.09,0,0,0-2.35-5,10.1,10.1,0,0,0-6.51-1.88,12.52,12.52,0,0,0-3.5.47,8.23,8.23,0,0,0-2.78,1.38,6.87,6.87,0,0,0-1.9,2.4,7.57,7.57,0,0,0-.69,3.35,6.82,6.82,0,0,0,.72,3.23,8,8,0,0,0,2,2.46,15.78,15.78,0,0,0,3.1,2c1.22.62,2.58,1.23,4.06,1.83l5.84,2.39A31.88,31.88,0,0,1,104.44,74a19.44,19.44,0,0,1,3.92,3.08,14.41,14.41,0,0,1,2.58,4,12.69,12.69,0,0,1,1,5q0,7.78-4.58,12.1t-13.91,4.31a25.8,25.8,0,0,1-8.85-1.32,14.72,14.72,0,0,1-5.66-3.53,13.43,13.43,0,0,1-3-5.24A21.41,21.41,0,0,1,75,86.2V83.81h8.63Z" transform="translate(0.27 0.05)"/></g></g></g></g></g></svg>