<svg xmlns="http://www.w3.org/2000/svg" viewBox="0 0 357.44 391.06"><defs><style>.cls-1{fill:#3f3d56;}.cls-2{fill:#f2f2f2;}.cls-3{fill:#e6e6e6;}.cls-4{fill:#fff;}.cls-5{fill:#e4e4e4;}.cls-6{fill:#ffb6b6;}.cls-7{fill:#2f2e41;}.cls-8{fill:#6c63ff;}.cls-11,.cls-9{isolation:isolate;}.cls-9{opacity:0.4;}.cls-10{fill:#ccc;}.cls-11{opacity:0.17;}</style></defs><g id="Layer_2" data-name="Layer 2"><g id="Layer_1-2" data-name="Layer 1"><path id="Path_72" data-name="Path 72" class="cls-1" d="M8.08,109.8c4.48-3.06,10.24,3.69,7.1,7.89s-10.09,3-12.47-1.3c-3-5.53,0-12.11,4.89-15.32,5.57-3.64,12.4-3.84,18.83-3.51a97.25,97.25,0,0,0,19.3-.12A65.38,65.38,0,0,0,61.65,93,67.67,67.67,0,0,0,88.39,72.71,53.77,53.77,0,0,0,96.66,58.8c1.45-3.86,2.14-8.94.08-12.72A6.46,6.46,0,0,0,88,43.37a6,6,0,0,0-1.11.74,8.74,8.74,0,0,0-1.74,11.68C88,59.7,93.3,61,97.88,60.34c6.36-1,11.52-5.49,16.39-9.36l36.09-28.65c5.94-4.72,11.84-9.54,17.87-14.15,4.89-3.77,10.88-7.41,17.26-5.41a8.27,8.27,0,0,1,5.81,5.49,7,7,0,0,1-2.53,6.83,4.34,4.34,0,0,1-6.12-.49l-.23-.3a7.43,7.43,0,0,1-.68-6.67c2.07-5.67,9.67-6.26,14.74-5.8A41.37,41.37,0,0,1,213.41,7.4,56.33,56.33,0,0,1,236.7,35.13c5.15,12.62,6.74,26.57,6.53,40.11a15.26,15.26,0,0,1-1.79,8.19,4.52,4.52,0,0,1-6.16,1.73,3.34,3.34,0,0,1-.4-.25c-.77-.51-1.77-1.49-1.57-2.54.25-1.31,2.87-1.32,3.91-1.27a12.23,12.23,0,0,1,7.62,3.53c4.87,4.62,5.24,11.69,4.61,18-.69,6.91-2.68,13.77-1.89,20.76,1.29,11.45,10.69,17.82,19.92,23.07a101.53,101.53,0,0,1,13.81,8.71,56.76,56.76,0,0,1,11.26,12.25,61.88,61.88,0,0,1,10.56,30.66,56.22,56.22,0,0,1-1.29,16.36c-1.21,5.24-3.12,11.85-8.16,14.67a6.75,6.75,0,0,1-7.7-.7c-2-1.64-3-4.54-.93-6.59,1.74-1.7,4.54-1.34,6.65-.65a16.74,16.74,0,0,1,6.4,4.21c3.61,3.49,7.83,7.77,13.32,6.65,1-.2.58-1.75-.43-1.55-6.62,1.35-10.62-6.35-15.5-9.31-3.54-2.15-9.58-3.74-12.34.44-3,4.52,1.81,9.39,6.26,10,5.8.76,9.81-4.9,11.76-9.58,4.51-10.84,4.65-23.56,1.89-34.85A62.1,62.1,0,0,0,285.84,157a71.47,71.47,0,0,0-14.29-10.11,80.78,80.78,0,0,1-15-9.79A22.42,22.42,0,0,1,249,119.8c.05-7.52,2.46-14.81,2.31-22.34-.12-6.24-2.25-12.33-7.67-15.85A12.47,12.47,0,0,0,236,79.49a7.24,7.24,0,0,0-3.55,1,3,3,0,0,0-.72,2.69,5.56,5.56,0,0,0,4.06,3.93,5.82,5.82,0,0,0,6.28-1.86,12.83,12.83,0,0,0,2.62-7.34,76.42,76.42,0,0,0,0-10.7c-.63-14.38-3.47-29.1-10.95-41.6A53.24,53.24,0,0,0,205.69,2.11c-5.58-1.85-12.2-3-18-1.28-5,1.46-8.76,5.53-7.94,10.94.7,4.57,5.43,7.73,9.61,4.85A8.33,8.33,0,0,0,191.52,5a9.19,9.19,0,0,0-.78-1C186.7-.16,180.12-.12,175.08,2a38.72,38.72,0,0,0-8.31,5.25c-3.3,2.56-6.55,5.19-9.83,7.79L117.49,46.39c-3.12,2.47-6.18,5-9.4,7.37a25.72,25.72,0,0,1-10,4.89c-5.21,1-13.45-1.6-12.81-8.2a7.05,7.05,0,0,1,4.54-6.13,5,5,0,0,1,5.89,3.23c2.09,5.11-.36,11-2.79,15.44A65.67,65.67,0,0,1,48.46,95.32,81.1,81.1,0,0,1,27.64,96c-6.81-.42-14-.37-20,3.18A14.26,14.26,0,0,0,.08,113.26a9.46,9.46,0,0,0,10.08,8.59c4.44-.36,8.9-4.15,7.32-9-1.3-4-6.34-7.13-10.19-4.49C6.42,109,7.22,110.39,8.08,109.8Z"/><path id="Path_73" data-name="Path 73" class="cls-2" d="M349,225.94H310a2.3,2.3,0,0,0-2.3,2.3v24.27a2.31,2.31,0,0,0,2.3,2.3h39a2.31,2.31,0,0,0,2.3-2.3V228.24A2.3,2.3,0,0,0,349,225.94Z"/><path id="Path_74" data-name="Path 74" class="cls-3" d="M349,225.94H310a2.3,2.3,0,0,0-2.3,2.3v24.27a2.31,2.31,0,0,0,2.3,2.3h39a2.31,2.31,0,0,0,2.3-2.3V228.24A2.3,2.3,0,0,0,349,225.94Zm.76,17.43a9.44,9.44,0,0,1-9.29,9.4,24.56,24.56,0,0,1-2.58.08c-10.9,0-22.28-.11-26.52-.18a2.15,2.15,0,0,1-2.1-2.13v-22.3a.76.76,0,0,1,.76-.75h39a.75.75,0,0,1,.75.75Z"/><path id="Path_75" data-name="Path 75" class="cls-3" d="M344.19,212h-29.7a1.29,1.29,0,0,0-1.2.85l-4.58,12.86a1.27,1.27,0,0,0,.77,1.63,1.25,1.25,0,0,0,.43.07l39.82.07h0a1.27,1.27,0,0,0,1.27-1.27,1.24,1.24,0,0,0-.1-.5l-.07,0,.07,0-5.54-12.94A1.27,1.27,0,0,0,344.19,212Z"/><path id="Path_76" data-name="Path 76" class="cls-3" d="M351,226a1.25,1.25,0,0,1-.11.5l-5.54,10a1.27,1.27,0,0,1-1.17.77h-29.7a1.29,1.29,0,0,1-1.2-.84l-4.58-9.89a1.28,1.28,0,0,1,.77-1.63h0a1.25,1.25,0,0,1,.43-.07h6.85l26.12-.05h6.85A1.27,1.27,0,0,1,351,226h0Z"/><path id="Path_77" data-name="Path 77" class="cls-3" d="M312.93,244.14c.59,0,8.68.5,8.68,1.09s-8.09,1.05-8.68,1.05a1.06,1.06,0,0,1-1.07-1.06,1.08,1.08,0,0,1,1.06-1.08Z"/><path id="Path_78" data-name="Path 78" class="cls-2" d="M342.34,204.14h-25a2.53,2.53,0,0,0-2.53,2.53v30.52h29.42a1.26,1.26,0,0,0,.68-.2V206.67A2.54,2.54,0,0,0,342.34,204.14Z"/><path id="Path_79" data-name="Path 79" class="cls-4" d="M332.78,206.2H319.06a2.3,2.3,0,0,0-2.3,2.3v28.69h26.12V216.3A10.1,10.1,0,0,0,332.78,206.2Z"/><path id="Path_80" data-name="Path 80" class="cls-5" d="M338.43,234.64H321.21a.56.56,0,0,0-.56.56.57.57,0,0,0,.56.57h17.22a.57.57,0,0,0,.56-.57A.56.56,0,0,0,338.43,234.64Z"/><path id="Path_81" data-name="Path 81" class="cls-5" d="M338.43,232.42H321.21a.57.57,0,0,0,0,1.13h17.22A.57.57,0,0,0,339,233a.56.56,0,0,0-.53-.59Z"/><path id="Path_82" data-name="Path 82" class="cls-5" d="M328.67,230.2h-7.46a.56.56,0,0,0-.56.56.57.57,0,0,0,.56.57h7.46a.58.58,0,0,0,.57-.57A.57.57,0,0,0,328.67,230.2Z"/><path id="Path_83" data-name="Path 83" class="cls-5" d="M338.43,225.55H321.21a.57.57,0,0,0-.07,1.13h17.29a.56.56,0,0,0,.59-.53.57.57,0,0,0-.53-.6Z"/><path id="Path_84" data-name="Path 84" class="cls-5" d="M338.43,223.33H321.21a.57.57,0,0,0,0,1.13h17.23a.57.57,0,0,0,.56-.57A.56.56,0,0,0,338.43,223.33Z"/><path id="Path_85" data-name="Path 85" class="cls-5" d="M328.67,221.12h-7.46a.57.57,0,0,0-.6.53.56.56,0,0,0,.53.59h7.53a.56.56,0,1,0,.07-1.12Z"/><path id="Path_86" data-name="Path 86" class="cls-5" d="M338.43,216.46H321.21a.58.58,0,0,0-.57.57.57.57,0,0,0,.57.56h17.22A.56.56,0,0,0,339,217,.57.57,0,0,0,338.43,216.46Z"/><path id="Path_87" data-name="Path 87" class="cls-5" d="M338.43,214.25H321.21a.56.56,0,1,0-.07,1.12h17.29a.56.56,0,0,0,.06-1.12Z"/><path id="Path_88" data-name="Path 88" class="cls-5" d="M328.67,212h-7.46a.58.58,0,0,0-.6.54.57.57,0,0,0,.53.59h7.53a.57.57,0,0,0,.6-.53.58.58,0,0,0-.53-.6Z"/><circle id="Ellipse_6" data-name="Ellipse 6" class="cls-6" cx="143.17" cy="90.17" r="16.62"/><path id="Path_89" data-name="Path 89" class="cls-7" d="M162.14,80.66a8.55,8.55,0,0,0-8.21-4,11.21,11.21,0,0,0-18.79-6.54,3.47,3.47,0,0,0-3.41-.35A7.23,7.23,0,0,0,129,72,16.12,16.12,0,0,0,126.7,88.4c-.39-1.41,1-2.74,2.46-3.05s2.93,0,4.38-.23c1.86-.26,3.53-1.34,5.4-1.58a12.08,12.08,0,0,1,4.66.6,12.77,12.77,0,0,0,4.67.62c1.57-.18,3.58,5.76,3.56,9.94,0,.79.16,1.81.93,2,1,.21,1.51-1.11,2.42-1.47a1.68,1.68,0,0,1,2.06,1.1,2.72,2.72,0,0,1-.53,2.44,8.21,8.21,0,0,1-2,1.71l.37.31a2.25,2.25,0,0,0,2.82.35,6,6,0,0,0,2-2.3,26.74,26.74,0,0,0,3.7-8.87A12.85,12.85,0,0,0,162.14,80.66Z"/><path id="Path_90" data-name="Path 90" class="cls-6" d="M162.67,381.24h-9l-4.27-34.62h13.25Z"/><path id="Path_91" data-name="Path 91" class="cls-7" d="M163,390.61h-27.6v-.35a10.76,10.76,0,0,1,10.74-10.75h0l5-3.82,9.4,3.83H163Z"/><path id="Path_92" data-name="Path 92" class="cls-6" d="M178.85,365.39l-7,5.57L147,346.44l10.39-8.21Z"/><path id="Path_93" data-name="Path 93" class="cls-7" d="M184.91,372.54l-21.66,17.12-.21-.28a10.75,10.75,0,0,1,1.76-15.09h0l1.59-6.13,9.75-2.83,1.89-1.49Z"/><path id="Path_94" data-name="Path 94" class="cls-7" d="M116.25,218.94,115.7,229l2.67,3.22-.31,10.11,2.59,6.61,1.82,21,25.47,87.8,22.95-7.36-25.06-81.85,30.16-.76,1-46.14-5.35-10.34Z"/><path id="Path_95" data-name="Path 95" class="cls-7" d="M173.09,260.91l2.9,7-11.22,98L149,367l-6.79-109.53Z"/><path id="Path_96" data-name="Path 96" class="cls-8" d="M157.66,116.53l-5.16-7.15-16.69.67-.32,5.5L124.41,220.23l10.88-.24,13.52,3.14,26-9.08Z"/><path id="Path_97" data-name="Path 97" class="cls-1" d="M128.69,222.17H103.11l6.67-47.12,2.71-19.1s-1.93-13.65-2.85-20.78A4.14,4.14,0,0,1,110,133a7.49,7.49,0,0,1,1.18-1.77c3.11-3.59,10.11-6.7,14.51-8.41,2.26-.87,3.83-1.37,3.83-1.37l6-5.84C144.05,126.24,128.69,222.17,128.69,222.17Z"/><path id="Path_98" data-name="Path 98" class="cls-1" d="M154.42,112.64l8.12,4.65s24,3.95,26.38,13L180.07,157v56.14l-21.45,8.61S140.11,131,154.42,112.64Z"/><path id="Path_99" data-name="Path 99" class="cls-9" d="M146.21,255.19l-4,45.94L149,354.59"/><path id="Path_100" data-name="Path 100" class="cls-6" d="M50.46,169.62a5.57,5.57,0,0,1,7.78,1.27,6,6,0,0,1,.5.84l19.66-2.22-4.66,9.17-18,.7a5.6,5.6,0,0,1-5.32-9.77Z"/><path id="Path_101" data-name="Path 101" class="cls-1" d="M133,129.47l5.63,3.37-31.52,44.39L68.64,180.5l-1.54-11L95.45,161l14-27.15Z"/><path id="Path_102" data-name="Path 102" class="cls-6" d="M247.71,165.86a5.57,5.57,0,0,0-7.77,1.28,5.47,5.47,0,0,0-.5.84l-19.67-2.22,4.66,9.17,18,.7a5.6,5.6,0,0,0,5.32-9.77Z"/><path id="Path_103" data-name="Path 103" class="cls-1" d="M165.17,125.72l-5.63,3.36,31.52,44.4,38.48,3.27,1.53-11-28.35-8.51-14-27.16Z"/><path id="Path_104" data-name="Path 104" class="cls-3" d="M88.54,115.27v-.59H78.7V101h-.58v13.69H66.84V104.11l-.58.48v10.1H58.81l-.24.58h7.7v11.51H56.72c0,.19,0,.39,0,.58h9.5v9.18H59.14c.09.2.18.39.28.58h6.84v7.72h.59v-7.72H78.12v7.72h.59v-7.72h9.83v-.58H78.7a9.18,9.18,0,0,1,9.18-9.18h.66v-.58H78.7V115.27ZM78.12,136.54H66.84v-9.18H78.12Zm0-9.76H66.84v-.23a11.27,11.27,0,0,1,11.28-11.27Z"/><path id="Path_105" data-name="Path 105" class="cls-1" d="M174,34a.3.3,0,0,1-.4-.17h0l-.82-2a.31.31,0,1,1,.58-.24l.81,2A.31.31,0,0,1,174,34Z"/><path id="Path_106" data-name="Path 106" class="cls-1" d="M190.45,19.47h0L188,13.6a3.68,3.68,0,0,0-4.8-2h0l-12.45,5.15a3.68,3.68,0,0,0-2,4.81h0L182.1,53.8a3.68,3.68,0,0,0,4.81,2h0l12.45-5.15a3.68,3.68,0,0,0,2-4.81h0l-9.17-22.18h0a.23.23,0,0,0,.12-.3h0l-1.55-3.75A.23.23,0,0,0,190.45,19.47Z"/><path id="Path_107" data-name="Path 107" class="cls-8" d="M187.3,13.91,200.62,46.1a2.74,2.74,0,0,1-1.46,3.58h0l-12.51,5.18A2.75,2.75,0,0,1,183,53.38h0L169.71,21.19a2.75,2.75,0,0,1,1.49-3.59h0l1.52-.63A1.31,1.31,0,0,0,174,18.28a1.58,1.58,0,0,0,.49-.1l7.14-3a1.25,1.25,0,0,0,.41-.28,1.3,1.3,0,0,0,0-1.84h0l1.63-.68a2.75,2.75,0,0,1,3.59,1.49Z"/><path id="Path_108" data-name="Path 108" class="cls-1" d="M172.62,30.69a.3.3,0,0,1-.4-.17h0l-.82-2a.32.32,0,0,1,.17-.41.31.31,0,0,1,.41.17l.81,2a.31.31,0,0,1-.16.41Z"/><path id="Path_109" data-name="Path 109" class="cls-1" d="M171,26.89a.31.31,0,0,1-.41-.17h0l-.82-2a.32.32,0,0,1,.17-.41.31.31,0,0,1,.41.17l.82,2a.31.31,0,0,1-.17.41Z"/><path id="Path_110" data-name="Path 110" class="cls-4" d="M175.57,16.18a.32.32,0,0,1,.17-.41h0l2-.81a.31.31,0,0,1,.41.16.31.31,0,0,1-.17.41h0l-2,.82a.32.32,0,0,1-.42-.17Z"/><circle id="Ellipse_7" data-name="Ellipse 7" class="cls-4" cx="178.93" cy="14.79" r="0.31"/><path id="Path_111" data-name="Path 111" class="cls-8" d="M246.88,154.12h-.12a2.93,2.93,0,0,1-2.33-1.32,32.67,32.67,0,0,0-6.87-7.45c-1.61-1.29-3.3-2.49-4.93-3.65-4.21-3-8.17-5.8-10.37-9.7-4.79-8.48.86-20.3,8.92-25.6,9-6,20.94-6.88,32.45-7l3.59,0h0A341.89,341.89,0,0,1,329.05,105c6.79,1.25,13.89,2.78,19.59,6.5s9.12,9.52,8.78,14.84c-.49,7.76-8.72,13.56-16.2,15.07-7.14,1.44-14.56.47-22.41-.56-1.73-.23-3.53-.47-5.3-.67-19.26-2.23-55.44,4.63-57,4.93l-1.52.29L249.13,153A2.83,2.83,0,0,1,246.88,154.12Z"/><path id="Path_112" data-name="Path 112" class="cls-4" d="M332.65,116.27H251.24a1.78,1.78,0,0,1,0-3.55h81.41a1.78,1.78,0,0,1,0,3.55Z"/><path id="Path_113" data-name="Path 113" class="cls-4" d="M332.65,127.14H251.23a1.77,1.77,0,1,1,0-3.54h81.42a1.77,1.77,0,1,1,0,3.54Z"/><path id="Path_114" data-name="Path 114" class="cls-4" d="M260.72,138h-9.48a1.77,1.77,0,0,1,0-3.54h9.48a1.77,1.77,0,1,1,0,3.54Z"/><circle id="Ellipse_8" data-name="Ellipse 8" class="cls-4" cx="247.88" cy="157.86" r="8.61"/><path id="Path_115" data-name="Path 115" class="cls-1" d="M247.88,166.57a8.72,8.72,0,1,1,8.72-8.71,8.71,8.71,0,0,1-8.72,8.71Z"/><path id="Path_116" data-name="Path 116" class="cls-4" d="M247.24,161.3h-.06a1.13,1.13,0,0,1-.83-.44L244.91,159a1.12,1.12,0,0,1,.2-1.57l0,0a1.12,1.12,0,0,1,1.57.2.83.83,0,0,0,1.16.14l.09-.08,2.92-3.09a1.12,1.12,0,0,1,1.59,0l0,.05a1.12,1.12,0,0,1,0,1.59h0L248.05,161A1.15,1.15,0,0,1,247.24,161.3Z"/><path id="Path_117" data-name="Path 117" class="cls-1" d="M87.12,46.56,81.85,14.89a2.45,2.45,0,0,1,2-2.82h0l23.92-4a2.45,2.45,0,0,1,2.82,2h0l5.27,31.68a2.46,2.46,0,0,1-2,2.82h0l-23.92,4a2.45,2.45,0,0,1-2.82-2Z"/><path id="Path_118" data-name="Path 118" class="cls-4" d="M87.36,36.69,84,16.33a2.3,2.3,0,0,1,1.88-2.65l20.56-3.41a2.29,2.29,0,0,1,2.64,1.88l4.69,28.19A2.3,2.3,0,0,1,111.86,43L99.13,45.1A10.24,10.24,0,0,1,87.36,36.69Z"/><path id="Path_119" data-name="Path 119" class="cls-8" d="M88.25,21.46a2.25,2.25,0,0,1,1.85-2.58l14.26-2.37a2.24,2.24,0,0,1,.74,4.42L90.83,23.3A2.24,2.24,0,0,1,88.25,21.46Z"/><path id="Path_120" data-name="Path 120" class="cls-8" d="M89.4,28.34a2.24,2.24,0,0,1,1.84-2.58l14.26-2.38a2.25,2.25,0,0,1,.74,4.43L92,30.18A2.24,2.24,0,0,1,89.4,28.34Z"/><path id="Path_121" data-name="Path 121" class="cls-8" d="M90.54,35.22a2.25,2.25,0,0,1,1.85-2.58l14.26-2.37a2.24,2.24,0,0,1,.74,4.42L93.12,37.07A2.25,2.25,0,0,1,90.54,35.22Z"/><path id="Path_122" data-name="Path 122" class="cls-2" d="M212.12,368.72l.38-8.53a27.52,27.52,0,0,1,12.84-3.25c-6.17,5-5.39,14.77-9.58,21.55a16.55,16.55,0,0,1-12.14,7.65l-5.16,3.16a27.72,27.72,0,0,1,5.85-22.49,27.4,27.4,0,0,1,4.92-4.58C210.46,365.49,212.12,368.72,212.12,368.72Z"/><path id="Path_123" data-name="Path 123" class="cls-10" d="M280.56,390.23a.83.83,0,0,1-.83.83H55.56a.83.83,0,0,1,0-1.66H279.72a.82.82,0,0,1,.84.82Z"/><path id="Path_124" data-name="Path 124" class="cls-1" d="M56.1,165.32c-4-.08-25.33-.7-28.83-.54-.2-.7-6.84,7.81-7,7.86a1,1,0,0,0,0,1.37.91.91,0,0,0,.29.19c.39.24,34.82-.4,35.23-.32a1,1,0,0,0,.86-.55l.23-.52a43.67,43.67,0,0,0,0-6.16.94.94,0,0,0-.48-1.25.91.91,0,0,0-.39-.08Z"/><path id="Path_125" data-name="Path 125" class="cls-11" d="M56.91,172.82c-.2.49-.46,1.1-1.08,1.07l-34.87.4a1,1,0,0,1-.95-1,1,1,0,0,1,.11-.45Z"/><path id="Path_126" data-name="Path 126" class="cls-1" d="M27.43,164.68c-.37-.65-9.7-46.78-10.47-47.16l-6.37-7.79L10,109.3c-.79-.43-2.68-.14-2.51,1.07h0c1.49,7.17,11.11,48,11.32,54.36L20,172.84a1,1,0,0,0,1.13.84l.1,0a1.91,1.91,0,0,0,1.54-1.11C22.85,172.27,27.87,164.85,27.43,164.68Z"/><path id="Path_127" data-name="Path 127" class="cls-11" d="M10.58,109.73l12.18,62.83c-.41,1-2.31,1.74-2.76.4,0,0-12.49-62.55-12.5-62.58C7.37,108.87,9.86,108.82,10.58,109.73Z"/><path id="Path_128" data-name="Path 128" class="cls-8" d="M11,112.3l6.18,8.62,6.94,33-3.23,2.81Z"/><path id="Path_129" data-name="Path 129" class="cls-7" d="M52.11,169.77l1.71.07a6.74,6.74,0,0,1,.25-1.48c.25-1.22.48-2.68-.58-2.67-.73-.07-1,.85-1.1,1.84A14,14,0,0,1,52.11,169.77Z"/><path id="Path_130" data-name="Path 130" class="cls-7" d="M42.3,167.47l1.15,0,.56,0c0-.61.27-1.87-.42-2.18a.84.84,0,0,0-.35-.07c-.65,0-.84.46-.9,1,0,.35,0,.7,0,1C42.31,167.36,42.3,167.42,42.3,167.47Z"/><path id="Path_131" data-name="Path 131" class="cls-7" d="M38.88,167.33l1.16,0,.55,0c0-.7.36-2.23-.77-2.26s-.9,1.27-.93,2A.91.91,0,0,1,38.88,167.33Z"/><path id="Path_132" data-name="Path 132" class="cls-7" d="M35.46,167.2l1.16,0,.56,0c0-.7.36-2.23-.77-2.25s-.91,1.26-.93,2A1.11,1.11,0,0,1,35.46,167.2Z"/><path id="Path_133" data-name="Path 133" class="cls-7" d="M32.05,167.06l1.16.05.55,0c0-.7.36-2.23-.77-2.26s-.9,1.27-.93,2A1,1,0,0,1,32.05,167.06Z"/><path id="Path_134" data-name="Path 134" class="cls-7" d="M28.63,166.92l1.16,0,.56,0c0-.65.3-2-.53-2.22h0a.67.67,0,0,0-.24,0,.74.74,0,0,0-.29,0h0c-.71.19-.61,1.31-.63,2A1.22,1.22,0,0,0,28.63,166.92Z"/><path id="Path_135" data-name="Path 135" class="cls-7" d="M48.66,166.56l1.71.07v-.21a6.32,6.32,0,0,0,0-1.23c-.06-.45-.25-.8-.79-.81s-.77.32-.86.78a1.57,1.57,0,0,0,0,.23h0C48.66,165.81,48.69,166.26,48.66,166.56Z"/><path id="Path_136" data-name="Path 136" class="cls-7" d="M45.25,166.42l1.71.07q0-.69,0-1.38c-.05-.47-.24-.86-.8-.88s-.79.35-.87.83A11.56,11.56,0,0,0,45.25,166.42Z"/><path id="Path_137" data-name="Path 137" class="cls-7" d="M41.83,166.29l.51,0,1.2.05c0-.26,0-.64.05-1,0-.11,0-.22,0-.33,0-.5-.22-.91-.81-.92s-.8.38-.87.88A13,13,0,0,0,41.83,166.29Z"/><path id="Path_138" data-name="Path 138" class="cls-7" d="M48.69,169.64l1.71.06c0-.7.36-2.23-.76-2.25S48.76,168.93,48.69,169.64Z"/><path id="Path_139" data-name="Path 139" class="cls-7" d="M45.28,169.49l1.71.07c0-.7.36-2.23-.77-2.26S45.34,168.79,45.28,169.49Z"/><path id="Path_140" data-name="Path 140" class="cls-7" d="M41.86,169.36l1.71.07a4.18,4.18,0,0,0-.12-1.92.67.67,0,0,0-.64-.34.74.74,0,0,0-.5.12C41.76,167.66,41.92,168.8,41.86,169.36Z"/><path id="Path_141" data-name="Path 141" class="cls-7" d="M38.45,169.22l1.71.07a4.33,4.33,0,0,0-.12-1.92.71.71,0,0,0-.65-.35.81.81,0,0,0-.5.12C38.35,167.53,38.5,168.66,38.45,169.22Z"/><path id="Path_142" data-name="Path 142" class="cls-7" d="M35,169.09l1.71.07a4.22,4.22,0,0,0-.12-1.93.68.68,0,0,0-.64-.33.74.74,0,0,0-.5.12C34.93,167.39,35.09,168.52,35,169.09Z"/><path id="Path_143" data-name="Path 143" class="cls-7" d="M31.62,169l1.71.07a4.32,4.32,0,0,0-.12-1.92.69.69,0,0,0-.65-.35.75.75,0,0,0-.5.12C31.51,167.26,31.67,168.39,31.62,169Z"/><path id="Path_144" data-name="Path 144" class="cls-7" d="M28.2,168.82l1.71.06a4.18,4.18,0,0,0-.12-1.92.86.86,0,0,0-1.14-.21C28.1,167.12,28.25,168.25,28.2,168.82Z"/></g></g></svg>