<svg xmlns="http://www.w3.org/2000/svg" xmlns:xlink="http://www.w3.org/1999/xlink" viewBox="0 0 182.98 137.04"><defs><style>.cls-1{fill:#eeedfd;}.cls-2,.cls-5,.cls-6{fill:#fff;}.cls-17,.cls-2,.cls-3,.cls-5,.cls-6,.cls-9{isolation:isolate;}.cls-13,.cls-2,.cls-3,.cls-9{opacity:0.1;}.cls-3{fill:url(#linear-gradient);}.cls-4{fill:#484581;}.cls-5{opacity:0.3;}.cls-6{opacity:0.2;}.cls-7{fill:#4b4770;}.cls-8{fill:#6c63ff;}.cls-10{fill:#464a5f;}.cls-11{fill:#9c9ca1;}.cls-12{fill:#939498;}.cls-14{fill:url(#linear-gradient-2);}.cls-15{fill:url(#linear-gradient-3);}.cls-16{fill:#444053;}.cls-17{opacity:0.05;}.cls-18{fill:#efb7b9;}.cls-19{fill:#3a3768;}.cls-20{fill:#e6e8ec;}</style><linearGradient id="linear-gradient" x1="-7.68" y1="152.18" x2="-7.68" y2="153.18" gradientTransform="matrix(164.48, 0, 0, -88.34, 1357.2, 13544.09)" gradientUnits="userSpaceOnUse"><stop offset="0" stop-color="#6c63ff" stop-opacity="0.1"/><stop offset="1" stop-color="#6c63ff"/></linearGradient><linearGradient id="linear-gradient-2" x1="1171.72" y1="-11280.07" x2="1172.72" y2="-11280.07" gradientTransform="matrix(0.26, 0, 0, -0.02, -191.69, -166.69)" gradientUnits="userSpaceOnUse"><stop offset="0" stop-color="gray" stop-opacity="0.25"/><stop offset="0.54" stop-color="gray" stop-opacity="0.12"/><stop offset="1" stop-color="gray" stop-opacity="0.1"/></linearGradient><linearGradient id="linear-gradient-3" x1="-6.22" y1="152.81" x2="-5.22" y2="152.81" gradientTransform="matrix(79.99, 0, 0, -92.78, 569.9, 14262.59)" xlink:href="#linear-gradient-2"/></defs><g id="Layer_2" data-name="Layer 2"><g id="Layer_1-2" data-name="Layer 1"><g id="Group_9" data-name="Group 9"><path id="Path_224" data-name="Path 224" class="cls-1" d="M179.88,106.68a36.47,36.47,0,0,1-5.46,8.92A47.66,47.66,0,0,1,163.71,125a62.52,62.52,0,0,1-7.13,4c-.6.3-1.22.59-1.83.87a78.49,78.49,0,0,1-22.15,6.39c-1.59.21-3.18.38-4.77.5q-3,.23-6,.22c-2.07,0-4.15-.08-6.22-.24-2.45-.18-4.89-.48-7.32-.88s-4.72-.89-7.05-1.49a84.33,84.33,0,0,1-10.06-3.27h0c-1.7-.67-3.39-1.4-5-2.19-.77-.36-1.53-.73-2.29-1.12l-.61-.32c-1.11-.58-2.22-1.18-3.31-1.82-.91-.52-1.8-1.06-2.69-1.62L76,123.33l-.1-.06-.4-.26-.11-.08c-1-.67-2-1.37-3-2.1h0l-.91-.67-.11-.09-.52-.39-.15-.11L70,119l-.15-.12h0l-.14-.11-.42-.34-.15-.12h0l-.54-.43-.17-.14-.14-.12c-.16-.13-.32-.26-.46-.39h0l-.1-.09,0,0-.09-.08-.48-.41-.07-.06-.07-.06h0l-.06,0-.2-.17-.14-.12-.25-.22-.22-.2-.06-.06h0l-.14-.13-.06,0-.55-.5-.45-.41-.22-.22-.06-.06-1.67-1.57a25,25,0,0,0-2.94-2.39l-.21-.14-.59-.35a12.22,12.22,0,0,0-4.78-1.6q-.63-.09-1.26-.12l-.31,0H51.57c-.37,0-.71,0-1.07,0h0c-.5,0-1,.1-1.5.17a.57.57,0,0,0-.18,0,31.27,31.27,0,0,0-4.7,1.14c-2.38.77-4.72,1.74-7.07,2.62h0c-1,.37-2,.73-3,1l-.23.07a29.83,29.83,0,0,1-4.37,1l-.36.06a21.39,21.39,0,0,1-7.85-.45c-.61-.14-1.21-.31-1.81-.51l-.12,0-.21-.07-.28-.1c-.47-.17-.95-.35-1.42-.56l-.29-.12c-.45-.2-.9-.41-1.33-.64l-.29-.15c-.45-.24-.9-.49-1.34-.76l-.47-.29c-.47-.29-.92-.6-1.37-.92s-.94-.7-1.39-1.07l-.62-.53A27.9,27.9,0,0,1,7,104.68l-.15-.19c-.28-.34-.54-.68-.79-1l-.29-.38c-.3-.42-.6-.85-.88-1.3a2.14,2.14,0,0,1-.13-.19,29.56,29.56,0,0,1-2.88-5.9l-.06-.2c-.24-.66-.44-1.33-.63-2-.07-.29-.15-.58-.21-.87a2,2,0,0,1-.07-.26A42.73,42.73,0,0,1,0,85.86V67.94c.14-3.75.39-7.49.88-11.16a.76.76,0,0,1,0-.15c.32-2.34.72-4.65,1.25-6.93a57.35,57.35,0,0,1,2.1-7A63.24,63.24,0,0,1,11,29.83c.59-.88,1.19-1.75,1.81-2.61a85.52,85.52,0,0,1,11-12.64c.56-.52,1.13-1,1.7-1.54l.74-.63.58-.49c.75-.63,1.51-1.23,2.29-1.82l.35-.26.38-.28L30.64,9l.29-.21.55-.38.17-.11.3-.2.29-.19,1-.68c1.49-.93,3-1.8,4.59-2.58L39.25,4a45.86,45.86,0,0,1,6.51-2.42c.82-.24,1.65-.44,2.48-.62s2-.39,3-.53A41.7,41.7,0,0,1,55.94,0a45,45,0,0,1,31.17,11.7l1.43,1.34c1.24,1.18,2.45,2.41,3.69,3.59A35.09,35.09,0,0,0,97,20.56c.21.15.43.29.65.43,3.41,2.1,7.42,3,11.08,1.31l.61-.27a16.5,16.5,0,0,1,4.75-1.48,14.53,14.53,0,0,1,3-.08,59.87,59.87,0,0,1,9.33,1.31c1.6.34,3.18.76,4.75,1.23a66.42,66.42,0,0,1,6.47,2.33l.8.34c1.72.75,3.41,1.56,5.07,2.45s3.2,1.79,4.75,2.78a73.54,73.54,0,0,1,8.5,6.3l.15.13.25.21.49.43.24.22c.28.24.55.49.82.74a1.54,1.54,0,0,1,.19.17l.22.21c.51.47,1,1,1.5,1.43,1.65,1.63,3.24,3.33,4.75,5.12a77.44,77.44,0,0,1,10.12,15.34Q176.92,64,178.11,67l.6,1.52C183.28,80.64,184.94,94.86,179.88,106.68Z"/><path id="Path_225" data-name="Path 225" class="cls-2" d="M175.48,61.2v40.18H11V29.83c.59-.88,1.19-1.75,1.81-2.61a85.45,85.45,0,0,1,11-12.64c.56-.52,1.13-1,1.7-1.54h63c1.23,1.19,2.44,2.41,3.68,3.59A35.66,35.66,0,0,0,97,20.56l.66.42c3.41,2.1,7.42,3,11.08,1.32l.61-.28a17.15,17.15,0,0,1,4.75-1.48,16,16,0,0,1,3-.08,59.87,59.87,0,0,1,9.33,1.31c1.59.35,3.18.76,4.75,1.24a65.69,65.69,0,0,1,6.47,2.33l.8.34q2.58,1.11,5.07,2.45c1.61.86,3.2,1.78,4.75,2.77a74.72,74.72,0,0,1,8.5,6.3l.15.14.25.2.48.43.25.22c.28.24.55.49.82.75l.19.17.22.2q.76.7,1.5,1.44,2.47,2.43,4.75,5.12A77.37,77.37,0,0,1,175.48,61.2Z"/><path id="Path_226" data-name="Path 226" class="cls-3" d="M175.48,61.2v40.18H11V29.83c.59-.88,1.19-1.75,1.81-2.61a85.45,85.45,0,0,1,11-12.64c.56-.52,1.13-1,1.7-1.54h63c1.23,1.19,2.44,2.41,3.68,3.59A35.66,35.66,0,0,0,97,20.56l.66.42c3.41,2.1,7.42,3,11.08,1.32l.61-.28a17.15,17.15,0,0,1,4.75-1.48,16,16,0,0,1,3-.08,59.87,59.87,0,0,1,9.33,1.31c1.59.35,3.18.76,4.75,1.24a65.69,65.69,0,0,1,6.47,2.33l.8.34q2.58,1.11,5.07,2.45c1.61.86,3.2,1.78,4.75,2.77a74.72,74.72,0,0,1,8.5,6.3l.15.14.25.2.48.43.25.22c.28.24.55.49.82.75l.19.17.22.2q.76.7,1.5,1.44,2.47,2.43,4.75,5.12A77.37,77.37,0,0,1,175.48,61.2Z"/><rect id="Rectangle_45" data-name="Rectangle 45" class="cls-2" x="162.98" y="76.38" width="12.51" height="25.07"/><path id="Path_227" data-name="Path 227" class="cls-2" d="M32.85,58V43.59h-13V58H11v43.38H37.92V58Z"/><path id="Path_228" data-name="Path 228" class="cls-4" d="M97,20.56v81.35H92.22V16.63A36.58,36.58,0,0,0,97,20.56Z"/><path id="Path_229" data-name="Path 229" class="cls-4" d="M109.31,22a17.36,17.36,0,0,1,4.75-1.48v81.37h-4.75Z"/><path id="Path_230" data-name="Path 230" class="cls-4" d="M126.41,21.77c1.6.35,3.18.76,4.75,1.23v78.91h-4.75Z"/><rect id="Rectangle_46" data-name="Rectangle 46" class="cls-2" x="15.12" y="62.28" width="5.54" height="3.17"/><rect id="Rectangle_47" data-name="Rectangle 47" class="cls-2" x="28.02" y="62.28" width="5.54" height="3.17"/><rect id="Rectangle_48" data-name="Rectangle 48" class="cls-2" x="166.46" y="79.29" width="5.54" height="3.17"/><rect id="Rectangle_49" data-name="Rectangle 49" class="cls-2" x="166.46" y="85.48" width="5.54" height="3.17"/><rect id="Rectangle_50" data-name="Rectangle 50" class="cls-2" x="166.46" y="91.67" width="5.54" height="3.17"/><rect id="Rectangle_51" data-name="Rectangle 51" class="cls-2" x="166.46" y="97.85" width="5.54" height="3.17"/><rect id="Rectangle_52" data-name="Rectangle 52" class="cls-2" x="15.12" y="70.83" width="5.54" height="3.17"/><rect id="Rectangle_53" data-name="Rectangle 53" class="cls-2" x="28.02" y="70.83" width="5.54" height="3.17"/><rect id="Rectangle_54" data-name="Rectangle 54" class="cls-2" x="15.12" y="79.39" width="5.54" height="3.17"/><rect id="Rectangle_55" data-name="Rectangle 55" class="cls-2" x="28.02" y="79.39" width="5.54" height="3.17"/><rect id="Rectangle_56" data-name="Rectangle 56" class="cls-2" x="15.12" y="87.94" width="5.54" height="3.17"/><rect id="Rectangle_57" data-name="Rectangle 57" class="cls-2" x="28.02" y="87.94" width="5.54" height="3.17"/><rect id="Rectangle_58" data-name="Rectangle 58" class="cls-2" x="15.12" y="96.5" width="5.54" height="3.17"/><rect id="Rectangle_59" data-name="Rectangle 59" class="cls-2" x="28.02" y="96.5" width="5.54" height="3.17"/><path id="Path_231" data-name="Path 231" class="cls-4" d="M28.58,12.41v89.5H23.83V14.58c.56-.53,1.13-1,1.7-1.54l.73-.63Z"/><rect id="Rectangle_60" data-name="Rectangle 60" class="cls-2" x="131.16" y="60.37" width="25.33" height="41"/><rect id="Rectangle_61" data-name="Rectangle 61" class="cls-2" x="134.55" y="65.94" width="18.56" height="3.99"/><rect id="Rectangle_62" data-name="Rectangle 62" class="cls-2" x="134.55" y="74.84" width="18.56" height="3.99"/><rect id="Rectangle_63" data-name="Rectangle 63" class="cls-2" x="134.55" y="83.75" width="18.56" height="3.99"/><rect id="Rectangle_64" data-name="Rectangle 64" class="cls-2" x="134.55" y="92.65" width="18.56" height="3.99"/><path id="Path_232" data-name="Path 232" class="cls-4" d="M143.51,28.12q2.42,1.29,4.75,2.78v71h-4.75Z"/><path id="Path_233" data-name="Path 233" class="cls-4" d="M160.61,40.75q2.47,2.43,4.75,5.12v56.05h-4.75Z"/><circle id="Ellipse_11" data-name="Ellipse 11" class="cls-5" cx="31.79" cy="20.26" r="0.54"/><circle id="Ellipse_12" data-name="Ellipse 12" class="cls-5" cx="34.1" cy="26.24" r="0.17"/><circle id="Ellipse_13" data-name="Ellipse 13" class="cls-5" cx="67.56" cy="28.67" r="0.17"/><circle id="Ellipse_14" data-name="Ellipse 14" class="cls-5" cx="82.61" cy="19.72" r="0.17"/><circle id="Ellipse_15" data-name="Ellipse 15" class="cls-5" cx="52.68" cy="27.01" r="0.17"/><circle id="Ellipse_16" data-name="Ellipse 16" class="cls-5" cx="15.82" cy="27.18" r="0.17"/><circle id="Ellipse_17" data-name="Ellipse 17" class="cls-5" cx="67.73" cy="21.96" r="0.17"/><circle id="Ellipse_18" data-name="Ellipse 18" class="cls-5" cx="85.64" cy="24.82" r="0.17"/><circle id="Ellipse_19" data-name="Ellipse 19" class="cls-5" cx="53.43" cy="46.08" r="0.17"/><circle id="Ellipse_20" data-name="Ellipse 20" class="cls-5" cx="49.09" cy="20.26" r="0.17"/><circle id="Ellipse_21" data-name="Ellipse 21" class="cls-5" cx="33.94" cy="36.35" r="0.17"/><circle id="Ellipse_22" data-name="Ellipse 22" class="cls-5" cx="47.87" cy="35.06" r="0.17"/><circle id="Ellipse_23" data-name="Ellipse 23" class="cls-5" cx="71.82" cy="34.73" r="0.17"/><circle id="Ellipse_24" data-name="Ellipse 24" class="cls-5" cx="118.4" cy="31.37" r="0.17"/><circle id="Ellipse_25" data-name="Ellipse 25" class="cls-5" cx="100.48" cy="27.34" r="0.17"/><circle id="Ellipse_26" data-name="Ellipse 26" class="cls-5" cx="134.55" cy="46.41" r="0.17"/><circle id="Ellipse_27" data-name="Ellipse 27" class="cls-5" cx="83.84" cy="49.05" r="0.17"/><path id="Path_234" data-name="Path 234" class="cls-6" d="M174.42,115.6A47.66,47.66,0,0,1,163.71,125a62.52,62.52,0,0,1-7.13,4q-.9.45-1.83.87a78.49,78.49,0,0,1-22.15,6.39c-1.59.21-3.18.38-4.77.5q-3,.23-6,.22c-2.07,0-4.15-.08-6.22-.24-2.45-.18-4.89-.48-7.32-.88s-4.72-.89-7.05-1.49a84.33,84.33,0,0,1-10.06-3.27h0c-1.71-.67-3.39-1.4-5.06-2.19-.76-.36-1.52-.73-2.28-1.12l-.61-.32c-1.11-.58-2.22-1.18-3.32-1.82-.9-.52-1.8-1.06-2.68-1.62L76,123.33l-.1-.06-.4-.26-.11-.08c-1-.67-2-1.37-3-2.1h0l-.91-.67-.11-.09c-.18-.12-.35-.26-.52-.39l-.16-.11L70,119l-.14-.12h0l-.15-.11-.42-.34-.15-.12h0l-.53-.44-.17-.14-.15-.12-.46-.39h0l-.09-.08,0,0-.1-.07-.47-.42-.08-.06-.06-.06h0l-.06,0-.2-.17-.14-.12-.26-.22-.22-.2,0-.06H174.42Z"/><path id="Path_235" data-name="Path 235" class="cls-7" d="M163.71,125a63.39,63.39,0,0,1-7.13,4c-.6.3-1.22.59-1.83.87-10.86,2.38-30.45,4.1-53.52,4.5a84.77,84.77,0,0,1-10-3.27h0c-1.7-.67-3.39-1.4-5-2.19-.77-.36-1.53-.73-2.28-1.12l-.61-.32c-1.12-.58-2.22-1.19-3.32-1.82-.91-.52-1.8-1.06-2.68-1.62L76,123.33l-.1-.06-.4-.26-.11-.08c-1-.67-2-1.37-3-2.1h0l-.91-.67-.11-.09-.51-.39-.16-.11L70,119l-.15-.12h0l-.14-.11-.42-.34-.15-.12h0l-.54-.43-.17-.14-.14-.12c-.16-.13-.32-.26-.46-.39l.86,0H69l.92,0h.39l.51,0H71l.76,0h.6l1,0h.18l.79,0h.17l.53,0h0l2.2-.05h.08l1.84,0h.3q3-.06,6.12-.09H97c4.23,0,8.36.13,12.35.26h.1c.83,0,1.66.05,2.48.09,8.37.3,16.1.78,22.91,1.42,5.13.47,9.73,1,13.67,1.64a.51.51,0,0,1,.17,0l.52.08.29,0,.54.09.38.06C158,121.78,162.79,123.33,163.71,125Z"/><path id="Path_236" data-name="Path 236" class="cls-2" d="M159.11,39.31a7.52,7.52,0,0,1-1.68,2.84,4.07,4.07,0,0,1-1.29,1,1.87,1.87,0,0,1-1.1.46,3.94,3.94,0,0,1-.91,0c-.84-.15-.86.29-.86.29a1.44,1.44,0,0,1-.74-1.5c-.57-3.38,2-4.64,4.23-5.1l.16.13a1.75,1.75,0,0,0-.4,0s0,.09.31.12l.32,0,.49.43-.16.07a3.51,3.51,0,0,0-2.55,0,9,9,0,0,1,2.26.2l-1,.58a2.87,2.87,0,0,0-2.61.19A7,7,0,0,1,156,39l-.89.72a2.27,2.27,0,0,0-2.27.43,5,5,0,0,1,2-.24,5,5,0,0,0-.82,1c-1.28.07-1.4.9-1.4.9a2.32,2.32,0,0,1,1.2-.62,4.34,4.34,0,0,0-.67,2.1,5.87,5.87,0,0,1,.86-2c.2,0,.44,1.79.44,1.79.38-.69-.24-2-.24-2a5.57,5.57,0,0,1,.9-1c.48.2.56,2.87.56,2.87.55-1.24-.36-3-.36-3l.9-.7c.69.9.52,3.19.52,3.19a4.39,4.39,0,0,0-.32-3.33l1-.57c.7.74.47,2.92.47,2.92a4.18,4.18,0,0,0-.2-3.05l.18-.1.82.75c0,.4.05.78.05.78a1.87,1.87,0,0,0,.14-.61A1.86,1.86,0,0,1,159.11,39.31Z"/><path id="Path_237" data-name="Path 237" class="cls-2" d="M137.08,32.5s-3.74,4.51,0,6.37a1,1,0,0,0,1.15.2s-.24-.18.19-.6a2.68,2.68,0,0,0,.4-.49,1.25,1.25,0,0,0,.2-.82h0s.43-1.72-1.36-3.82c0,0-.2-.73-.33-.8l-.24,1a1.76,1.76,0,0,1,1.09.71s-1-.73-1.14-.55-.1.55-.1.55a2.89,2.89,0,0,1,1.81,1.15s-1.13-1-1.84-.94l-.08.8a3.07,3.07,0,0,1,2,1.2s-1.23-1-2-1l0,.78a3,3,0,0,1,1.86,1.06s-1.53-1.06-1.84-.87a3.5,3.5,0,0,0,.18.91s1,.19,1.22.69c0,0-1.1-.6-1.18-.49a4.2,4.2,0,0,0,.76,1.31,3,3,0,0,1-.9-1.25,1.58,1.58,0,0,0-.14.93s-.42-.41.06-1.16a3.51,3.51,0,0,1-.2-.85,3.72,3.72,0,0,0-.7,1.24,1.59,1.59,0,0,1,.69-1.45l0-.8a5.18,5.18,0,0,0-1,1.35s-.06-.75,1-1.55l.07-.79a5.68,5.68,0,0,0-1,1.2,2.4,2.4,0,0,1,1.07-1.42l.11-.52s-.54.5-.68.66-.2.13-.2.13a2.51,2.51,0,0,1,.93-1A6.48,6.48,0,0,0,137.08,32.5Z"/><path id="Path_238" data-name="Path 238" class="cls-8" d="M18.67,105.22s-1.12,5.25,3.9,5.87l.31-.58S19,106.85,18.67,105.22Z"/><path id="Path_239" data-name="Path 239" class="cls-8" d="M24.47,110.47l-1.17.25-.11,0s-3.12-2.52-3.08-8.17a14.88,14.88,0,0,0,1.49,2.36C22.84,106.56,24.24,108.74,24.47,110.47Z"/><path id="Path_240" data-name="Path 240" class="cls-8" d="M24.87,111a.74.74,0,0,1-.63.08c-3-.7-2-10.46-2-10.46.16.08.34,1.32,1,2.92C24.5,106.37,25.83,110.3,24.87,111Z"/><path id="Path_241" data-name="Path 241" class="cls-8" d="M31.51,105.22s.2,5.25-4.82,5.87l-.32-.58S31.2,106.85,31.51,105.22Z"/><path id="Path_242" data-name="Path 242" class="cls-8" d="M30.08,102.57a9.71,9.71,0,0,1-4,8.17l-.11,0-1.17-.25c.23-1.74,1.64-3.91,2.87-5.54A12.88,12.88,0,0,1,30.08,102.57Z"/><path id="Path_243" data-name="Path 243" class="cls-8" d="M25.93,110.51a1.87,1.87,0,0,1-.67.51h0l-.24.08c-.74.17-1-.36-.95-1.26a23,23,0,0,1,2-6.49,8,8,0,0,1,1.88-2.71S27.89,108.23,25.93,110.51Z"/><path id="Path_244" data-name="Path 244" class="cls-8" d="M25.09,97.21s-3.34,11.86-.47,13.65S25.83,98.26,25.09,97.21Z"/><path id="Path_245" data-name="Path 245" class="cls-9" d="M18.67,105.22s-1.12,5.25,3.9,5.87l.31-.58S19,106.85,18.67,105.22Z"/><path id="Path_246" data-name="Path 246" class="cls-9" d="M24.47,110.47l-1.17.25-.11,0s-3.12-2.52-3.08-8.17a14.88,14.88,0,0,0,1.49,2.36C22.84,106.56,24.24,108.74,24.47,110.47Z"/><path id="Path_247" data-name="Path 247" class="cls-9" d="M24.87,111a.74.74,0,0,1-.63.08c-3-.7-2-10.46-2-10.46.16.08.34,1.32,1,2.92C24.5,106.37,25.83,110.3,24.87,111Z"/><path id="Path_248" data-name="Path 248" class="cls-9" d="M31.51,105.22s.2,5.25-4.82,5.87l-.32-.58S31.2,106.85,31.51,105.22Z"/><path id="Path_249" data-name="Path 249" class="cls-9" d="M30.08,102.57a9.71,9.71,0,0,1-4,8.17l-.11,0-1.17-.25c.23-1.74,1.64-3.91,2.87-5.54A12.88,12.88,0,0,1,30.08,102.57Z"/><path id="Path_250" data-name="Path 250" class="cls-9" d="M25.93,110.51a1.87,1.87,0,0,1-.67.51h0l-.24.08c-.74.17-1-.36-.95-1.26a23,23,0,0,1,2-6.49,8,8,0,0,1,1.88-2.71S27.89,108.23,25.93,110.51Z"/><path id="Path_251" data-name="Path 251" class="cls-9" d="M25.09,97.21s-3.34,11.86-.47,13.65S25.83,98.26,25.09,97.21Z"/><path id="Path_252" data-name="Path 252" class="cls-8" d="M18.67,105.22S18,110.47,23,111.09l.32-.58S19,106.85,18.67,105.22Z"/><path id="Path_253" data-name="Path 253" class="cls-8" d="M24.94,110.47l-1.17.25-.12,0a10,10,0,0,1-3.54-8.17s.92,1,1.95,2.36C23.3,106.56,24.7,108.74,24.94,110.47Z"/><path id="Path_254" data-name="Path 254" class="cls-9" d="M24.94,110.47l-1.17.25c-1.11-1-1.55-3.51-1.7-5.79C23.3,106.56,24.71,108.74,24.94,110.47Z"/><path id="Path_255" data-name="Path 255" class="cls-8" d="M25.33,111a.74.74,0,0,1-.63.08c-3-.7-2.45-10.46-2.45-10.46a13.44,13.44,0,0,1,1.5,2.92C25,106.37,26.29,110.3,25.33,111Z"/><path id="Path_256" data-name="Path 256" class="cls-8" d="M31.51,105.22s.66,5.25-4.35,5.87l-.32-.58S31.2,106.85,31.51,105.22Z"/><path id="Path_257" data-name="Path 257" class="cls-8" d="M30.08,102.57a10,10,0,0,1-3.54,8.17l-.12,0-1.16-.25c.23-1.74,1.63-3.91,2.86-5.54C29.16,103.56,30.08,102.57,30.08,102.57Z"/><path id="Path_258" data-name="Path 258" class="cls-9" d="M28.12,104.93c-.15,2.13-.54,4.47-1.49,5.57l-.21.22-1.17-.25C25.48,108.74,26.88,106.56,28.12,104.93Z"/><path id="Path_259" data-name="Path 259" class="cls-8" d="M26.4,110.51a1.87,1.87,0,0,1-.67.51h0l-.24.08c-.74.17-1-.36-.95-1.26a23,23,0,0,1,2-6.49A11.68,11.68,0,0,1,28,100.64S28.36,108.23,26.4,110.51Z"/><path id="Path_260" data-name="Path 260" class="cls-9" d="M25.33,111a.81.81,0,0,1-.47-.16c-1.41-.87-1.44-4.17-1.1-7.3C25,106.37,26.29,110.3,25.33,111Z"/><path id="Path_261" data-name="Path 261" class="cls-9" d="M26.4,110.51c-.16.35-.38.53-.67.51h0a1,1,0,0,1-.4-.16,2.13,2.13,0,0,1-.79-1,23,23,0,0,1,2-6.48C26.84,106.24,27,109.31,26.4,110.51Z"/><path id="Path_262" data-name="Path 262" class="cls-8" d="M25.09,97.21s-2.88,11.86,0,13.65S25.83,98.26,25.09,97.21Z"/><path id="Path_263" data-name="Path 263" class="cls-7" d="M29.61,111.44l-.16.82,0,.23-.34,1.78a21.12,21.12,0,0,1-7.84-.45L21,112.49l0-.23-.16-.81Z"/><path id="Path_264" data-name="Path 264" class="cls-9" d="M29.61,111.44l-.2,1H21l-.2-1Z"/><rect id="Rectangle_65" data-name="Rectangle 65" class="cls-7" x="19.1" y="110.28" width="11.98" height="1.98"/><path id="Path_265" data-name="Path 265" class="cls-8" d="M163,100.29a2.32,2.32,0,0,0-.35.66,1.34,1.34,0,0,1-.07.18l-.12,0a2,2,0,0,0-.55,0c0-.07,0-.14,0-.22,0-.81-.07-1.94-.84-1.46s-.21,1.23.27,1.72l.12.12c-.44.32-.52,1-.59,1.79a4.18,4.18,0,0,1-1.14,2.05l-.12.13a1.54,1.54,0,0,0-1.24-.31,1.6,1.6,0,0,0,0-.21c-.35-1.24-1.06-3.4-2-3.87a1.11,1.11,0,0,0,.12-.16c.38-.5.82-1.26.18-1.45s-.7.66-.67,1.29a1.38,1.38,0,0,0,0,.22,1,1,0,0,0-.68.33l-.1-.12c-.52-.61-1.47-1.59-1.77-.85s.58,1.58,1.17,2.1l0,0c-.4,1.62,1.34,2.93,2.27,3.51l.12.07a14.06,14.06,0,0,0-2.08,4.37l3.61.65s2.39-2.07,2.09-4h0c2.39-.48,2.94-3,2.57-4.55l0,0a2.64,2.64,0,0,0,1.1-.83.89.89,0,0,0-1.41-1.07Z"/><path id="Path_266" data-name="Path 266" class="cls-9" d="M163,100.29a2.32,2.32,0,0,0-.35.66,1.34,1.34,0,0,1-.07.18l-.12,0a2,2,0,0,0-.55,0c0-.07,0-.14,0-.22,0-.81-.07-1.94-.84-1.46s-.21,1.23.27,1.72l.12.12c-.44.32-.52,1-.59,1.79a4.18,4.18,0,0,1-1.14,2.05l-.12.13a1.54,1.54,0,0,0-1.24-.31,1.6,1.6,0,0,0,0-.21c-.35-1.24-1.06-3.4-2-3.87a1.11,1.11,0,0,0,.12-.16c.38-.5.82-1.26.18-1.45s-.7.66-.67,1.29a1.38,1.38,0,0,0,0,.22,1,1,0,0,0-.68.33l-.1-.12c-.52-.61-1.47-1.59-1.77-.85s.58,1.58,1.17,2.1l0,0c-.4,1.62,1.34,2.93,2.27,3.51l.12.07a14.06,14.06,0,0,0-2.08,4.37l3.61.65s2.39-2.07,2.09-4h0c2.39-.48,2.94-3,2.57-4.55l0,0a2.64,2.64,0,0,0,1.1-.83.89.89,0,0,0-1.41-1.07Z"/><path id="Path_267" data-name="Path 267" class="cls-8" d="M155.85,101.33l-.42,1.24a6.62,6.62,0,0,1-.53-.43c-.6-.51-1.44-1.41-1.17-2.1s1.25.24,1.77.86C155.71,101.14,155.85,101.33,155.85,101.33Z"/><path id="Path_268" data-name="Path 268" class="cls-8" d="M156.74,100.63c-.13.16-.27.33-.41.48a4.62,4.62,0,0,1-.07-.65c0-.63,0-1.47.66-1.28S157.13,100.12,156.74,100.63Z"/><path id="Path_269" data-name="Path 269" class="cls-8" d="M162.19,100.82c0,.41-.06.73-.06.73a4.6,4.6,0,0,1-.52-.47c-.48-.5-1-1.26-.27-1.72S162.21,100,162.19,100.82Z"/><path id="Path_270" data-name="Path 270" class="cls-8" d="M164.68,101.35a2.75,2.75,0,0,1-1.1.84,2.72,2.72,0,0,1-.37.13l-.5-.7a5.31,5.31,0,0,1,.2-.68,3,3,0,0,1,.35-.66.89.89,0,0,1,1.42,1.07Z"/><path id="Path_271" data-name="Path 271" class="cls-9" d="M155.5,100.9c.21.24.35.43.35.43l-.42,1.24a6.62,6.62,0,0,1-.53-.43,2.38,2.38,0,0,1,.47-1.08C155.41,101,155.46,101,155.5,100.9Z"/><path id="Path_272" data-name="Path 272" class="cls-9" d="M156.74,100.63c-.13.17-.27.33-.41.48a4.62,4.62,0,0,1-.07-.65A.85.85,0,0,1,156.74,100.63Z"/><path id="Path_273" data-name="Path 273" class="cls-8" d="M158.82,105.54l-1,.46a5.92,5.92,0,0,1-.56-.32c-1.11-.68-3.32-2.39-1.84-4.4s2.73,1.6,3.22,3.37A9.13,9.13,0,0,1,158.82,105.54Z"/><path id="Path_274" data-name="Path 274" class="cls-9" d="M161.61,101.08a.84.84,0,0,1,.58-.26c0,.41-.06.73-.06.73A4.6,4.6,0,0,1,161.61,101.08Z"/><path id="Path_275" data-name="Path 275" class="cls-9" d="M163.57,102.19a2.35,2.35,0,0,1-.37.14l-.5-.7a4.11,4.11,0,0,1,.21-.68A1.76,1.76,0,0,1,163.57,102.19Z"/><path id="Path_276" data-name="Path 276" class="cls-8" d="M161,106.76l-.17,0c-3.52.53-1.16-1.36-1.16-1.36L160,105a4.18,4.18,0,0,0,1.14-2.05c.11-1.14.23-2.21,1.58-1.9S164.3,106.09,161,106.76Z"/><rect id="Rectangle_66" data-name="Rectangle 66" class="cls-7" x="154.62" y="115.52" width="6.73" height="1.77"/><path id="Path_277" data-name="Path 277" class="cls-9" d="M158.59,104.64c.15.53.22.9.22.9l-1.05.46a5.92,5.92,0,0,1-.56-.32A2.77,2.77,0,0,1,158.59,104.64Z"/><path id="Path_278" data-name="Path 278" class="cls-9" d="M161,106.76l-.17,0c-3.52.53-1.16-1.36-1.16-1.36L160,105A2.31,2.31,0,0,1,161,106.76Z"/><path id="Path_279" data-name="Path 279" class="cls-8" d="M155.24,110.13s2-7.06,4.74-4.89-1.13,5.53-1.13,5.53Z"/><circle id="Ellipse_28" data-name="Ellipse 28" class="cls-9" cx="156.24" cy="102.38" r="0.22"/><circle id="Ellipse_29" data-name="Ellipse 29" class="cls-9" cx="156.22" cy="103.42" r="0.22"/><circle id="Ellipse_30" data-name="Ellipse 30" class="cls-9" cx="162.63" cy="102.59" r="0.22"/><circle id="Ellipse_31" data-name="Ellipse 31" class="cls-9" cx="157.47" cy="107.88" r="0.22"/><circle id="Ellipse_32" data-name="Ellipse 32" class="cls-9" cx="162.17" cy="104.3" r="0.22"/><circle id="Ellipse_33" data-name="Ellipse 33" class="cls-9" cx="159.89" cy="106.59" r="0.22"/><circle id="Ellipse_34" data-name="Ellipse 34" class="cls-9" cx="156.99" cy="102.83" r="0.22"/><circle id="Ellipse_35" data-name="Ellipse 35" class="cls-9" cx="162.02" cy="103.25" r="0.22"/><circle id="Ellipse_36" data-name="Ellipse 36" class="cls-9" cx="161.27" cy="104.97" r="0.22"/><circle id="Ellipse_37" data-name="Ellipse 37" class="cls-9" cx="158.95" cy="107.71" r="0.22"/><circle id="Ellipse_38" data-name="Ellipse 38" class="cls-9" cx="158.47" cy="106.62" r="0.22"/><circle id="Ellipse_39" data-name="Ellipse 39" class="cls-9" cx="157.33" cy="104.17" r="0.22"/><rect id="Rectangle_67" data-name="Rectangle 67" class="cls-9" x="154.62" y="115.52" width="6.73" height="0.65"/><rect id="Rectangle_68" data-name="Rectangle 68" class="cls-7" x="153.55" y="109.77" width="8.79" height="6.17"/><circle id="Ellipse_40" data-name="Ellipse 40" class="cls-9" cx="159.24" cy="108.71" r="0.22"/><circle id="Ellipse_41" data-name="Ellipse 41" class="cls-9" cx="157.91" cy="108.98" r="0.22"/><path id="Path_409" data-name="Path 409" class="cls-4" d="M58,12.41h4.75v89.5H58Z"/><path id="Path_408" data-name="Path 408" class="cls-4" d="M40.93,12.41h4.74v89.5H40.93Z"/><path id="Path_410" data-name="Path 410" class="cls-4" d="M75.12,12.41h4.75v89.5H75.12Z"/><path id="Path_280" data-name="Path 280" class="cls-10" d="M74.5,114.11l-7,1.49-1.25.26-.22-.2-.06,0,0,0-.14-.13-.06,0c-.19-.16-.37-.33-.55-.5l8.61-1.9.4.63h0l0,0v0Z"/><path id="Path_281" data-name="Path 281" class="cls-10" d="M74.68,113.55l-.48.1-8.46,1.77-.55-.5-.45-.41-.23-.21-.06-.06c-.55-.51-1.1-1-1.66-1.56a24.34,24.34,0,0,0-2.95-2.4l-.21-.13c-.19-.13-.38-.25-.58-.36a12.42,12.42,0,0,0-1.26-.64,13,13,0,0,0-3.52-1c-.42-.06-.84-.1-1.27-.13h-.31l-1-6a.5.5,0,0,1,.41-.58h0l.93-.1,5-.52,4.75-.51,9.47-1a.55.55,0,0,1,.18,0,.5.5,0,0,1,.37.42l.22,1.62Z"/><path id="Path_282" data-name="Path 282" class="cls-9" d="M74.68,113.55l-.48.1-8.46,1.77-.55-.5-.45-.41-.23-.21-.06-.06c-.55-.51-1.1-1-1.66-1.56a24.34,24.34,0,0,0-2.95-2.4l-.21-.13c-.19-.13-.38-.25-.58-.36a12.42,12.42,0,0,0-1.26-.64,13,13,0,0,0-3.52-1c-.42-.06-.84-.1-1.27-.13h-.31l-1-6a.5.5,0,0,1,.41-.58h0l.93-.1,5-.52,4.75-.51,9.47-1a.55.55,0,0,1,.18,0,.5.5,0,0,1,.37.42l.22,1.62Z"/><path id="Path_283" data-name="Path 283" class="cls-10" d="M75,113.55l-.11,0-.63.13-1.17.25-7.27,1.52-.06,0-.55-.5-.45-.41-.22-.21-.06-.06-1.66-1.56a24.16,24.16,0,0,0-2.95-2.4l-.21-.14-.59-.35a12.42,12.42,0,0,0-1.26-.64,13.41,13.41,0,0,0-3.52-1q-.63-.09-1.26-.12l-1-6a.5.5,0,0,1,.41-.58h0l.92-.1,4.66-.5,4.75-.5,9.66-1,.12,0a.49.49,0,0,1,.55.43l.22,1.62Z"/><path id="Path_284" data-name="Path 284" class="cls-8" d="M73.76,112.4l-9.24,1.9-.06-.06-1.66-1.57a25,25,0,0,0-2.95-2.39l-.21-.14-.59-.35a11.31,11.31,0,0,0-1.25-.64,13.52,13.52,0,0,0-3.52-1l-.89-5.43,7.06-.85,2.33-.28,2.09-.25,7.2-.87.12.87Z"/><path id="Path_285" data-name="Path 285" class="cls-11" d="M82.9,121.24l-7,2c-.14-.08-.27-.17-.4-.26l-.12-.07c-1-.68-2-1.38-3-2.1l0,0-.9-.67-.12-.08-.51-.4-.16-.11L70,119a1.58,1.58,0,0,1-.15-.12h0l-.14-.11-.42-.34-.15-.12h0l-.54-.44-.17-.14-.14-.12c-.16-.13-.32-.26-.46-.39h0l-.1-.08,0,0-.09-.08-.47-.42s0,0-.08-.06l-.06-.06h0l-.06-.06-.2-.17-.13-.12-.26-.22-.22-.2-.06,0,.09,0,7.09-1.49-.07-.16h0l1.15-.27.59-.14.07,0h0l2.67,2,1.65,1.25,2.18,1.66.08,0h0l0,0,.09.07.09.07,1.46,1.1a.81.81,0,0,1,.18,1.11.79.79,0,0,1-.43.29Z"/><path id="Path_286" data-name="Path 286" class="cls-9" d="M82.9,121.24l-7,2c-.14-.08-.27-.17-.4-.26l-.12-.07c-1-.68-2-1.38-3-2.1l0,0-.9-.67-.12-.08-.51-.4-.16-.11L70,119a1.58,1.58,0,0,1-.15-.12h0l-.14-.11-.42-.34-.15-.12h0l-.54-.44-.17-.14-.14-.12c-.16-.13-.32-.26-.46-.39h0l-.1-.08,0,0-.09-.08-.47-.42s0,0-.08-.06l-.06-.06h0l-.06-.06-.2-.17-.13-.12-.26-.22-.22-.2-.06,0,.09,0,7.09-1.49-.07-.16h0l1.15-.27.59-.14.07,0h0l2.67,2,1.65,1.25,2.18,1.66.08,0h0l0,0,.09.07.09.07,1.46,1.1a.81.81,0,0,1,.18,1.11.79.79,0,0,1-.43.29Z"/><path id="Path_287" data-name="Path 287" class="cls-11" d="M83.21,121.24,76,123.33l-.1-.07-.4-.26-.11-.07c-1-.68-2-1.38-3-2.1l0,0-.91-.67-.11-.08-.52-.4-.15-.11L70,119a1.58,1.58,0,0,1-.15-.12h0l-.14-.11c-.14-.11-.29-.22-.42-.34l-.15-.12h0l-.54-.44-.17-.14-.14-.12-.47-.39h0l-.1-.08,0,0-.09-.08-.48-.42L67,116.5l-.07-.06h0l0-.06-.2-.17-.14-.12-.26-.22-.22-.2.34-.07,7.09-1.49-.08-.18.89-.21.62-.14.23-.06,2.74,2.08,1.64,1.23,2.27,1.72h0l.25.19.09.07,1.35,1a.79.79,0,0,1,.18,1.1.81.81,0,0,1-.43.3Z"/><path id="Path_288" data-name="Path 288" class="cls-9" d="M77,122.47a.13.13,0,0,1-.09.14l-1.32.39-.11-.08c-1-.67-2-1.37-3-2.1h0l-.91-.67,2.05-.54h0l.13,0a.12.12,0,0,1,.12,0l3.08,2.79A.11.11,0,0,1,77,122.47Z"/><path id="Path_289" data-name="Path 289" class="cls-12" d="M77,122.45l-.06,0-1.52.45c-1-.68-2-1.38-3-2.1h0l-.91-.67-.11-.09,2.34-.61h0l.11,0a.13.13,0,0,1,.12,0l3.08,2.79a.14.14,0,0,1,0,.19l-.06,0Z"/><g id="Group_7" data-name="Group 7" class="cls-13"><path id="Path_290" data-name="Path 290" d="M67.52,116.56,68,117h0l.93-.21a.07.07,0,0,0,0-.07,0,0,0,0,0,0,0l-.49-.46s0,0,0,0l-.88.21s0,0,0,.06a0,0,0,0,0,0,0Z"/><path id="Path_291" data-name="Path 291" d="M68.71,116.28l.43.46a0,0,0,0,0,0,0l.93-.21a.05.05,0,0,0,0-.06s0,0,0,0l-.48-.46h0l-.87.22a0,0,0,0,0,0,.06v0Z"/><path id="Path_292" data-name="Path 292" d="M69,117.53s0,0,0,0l-.4.09-.17,0-.14-.12c-.16-.13-.32-.26-.46-.39h0l.68-.17a0,0,0,0,1,0,0l.15.14.28.26.06.06A.06.06,0,0,1,69,117.53Z"/><path id="Path_293" data-name="Path 293" d="M69.86,116l.46.47s0,0,0,0l1-.22s0,0,0,0,0,0,0,0l-.52-.47s0,0,0,0l-.9.22a0,0,0,0,0,0,0h0Z"/><path id="Path_294" data-name="Path 294" d="M71,115.73l.45.48h0l1-.22a.05.05,0,0,0,0,0l0,0-.51-.47a0,0,0,0,0,0,0l-.9.22a.05.05,0,0,0,0,0Z"/><path id="Path_295" data-name="Path 295" d="M72.21,115.46l.42.45s0,0,0,0l.9-.25s0,0,0,0a0,0,0,0,0,0,0l-.46-.39h0l-.85.19a0,0,0,0,0,0,0Z"/><path id="Path_296" data-name="Path 296" d="M73.46,115.87l.41.45h0l.9-.24a.05.05,0,0,0,0,0s0,0,0,0l-.47-.39h0l-.85.19a0,0,0,0,0,0,0Z"/><path id="Path_297" data-name="Path 297" d="M73.31,116.69l.39.42s0,0,0,0l.87-.24a0,0,0,0,0,0-.06s0,0,0,0l-.43-.37h0l-.81.18a.06.06,0,0,0,0,.07,0,0,0,0,0,0,0Z"/><path id="Path_298" data-name="Path 298" d="M72.29,117.72l.39.42s0,0,0,0l.87-.24a0,0,0,0,0,0-.06s0,0,0,0l-.44-.37h0l-.82.18a.06.06,0,0,0,0,.07,0,0,0,0,1,0,0Z"/><path id="Path_299" data-name="Path 299" d="M71.07,118l.39.42s0,0,.05,0l.86-.24a0,0,0,0,0,0-.06s0,0,0,0l-.43-.36a0,0,0,0,0,0,0l-.82.18a0,0,0,0,0,0,0,.05.05,0,0,0,0,0Z"/><path id="Path_300" data-name="Path 300" d="M73.45,117.42l.39.42,0,0,.86-.24a.05.05,0,0,0,0-.06s0,0,0,0l-.44-.37h0l-.82.18a.08.08,0,0,0,0,.06l0,0Z"/><path id="Path_301" data-name="Path 301" d="M73.24,118.33l.59.53a.06.06,0,0,0,0,0l.86-.25a.05.05,0,0,0,0-.06l0,0-.63-.56s0,0,0,0l-.82.26a.06.06,0,0,0,0,.07v0Z"/><path id="Path_302" data-name="Path 302" d="M71.17,116.45l.42.45h0l.89-.24a.05.05,0,0,0,0,0l0,0-.45-.39h0l-.84.19s0,0,0,0h0Z"/><path id="Path_303" data-name="Path 303" d="M70,116.74l.4.42s0,0,0,0l.86-.24s0,0,0-.06l0,0-.44-.37h0l-.82.19s0,0,0,.06v0Z"/><path id="Path_304" data-name="Path 304" d="M69.78,117.56l.39.42a.06.06,0,0,0,0,0l.87-.24s0,0,0-.06a0,0,0,0,0,0,0l-.44-.37h0l-.81.18a.06.06,0,0,0,0,.07,0,0,0,0,1,0,0Z"/><path id="Path_305" data-name="Path 305" d="M69.08,118.27l.78-.21a.06.06,0,0,0,0-.07v0l-.07,0-.37-.32a0,0,0,0,0,0,0l-.79.17h0s0,0,0,.06h0Z"/><path id="Path_306" data-name="Path 306" d="M68.78,117l.39.42s0,0,0,0l.87-.23a0,0,0,0,0,0-.06,0,0,0,0,0,0,0l-.44-.37h0l-.82.18s0,0,0,.06a0,0,0,0,0,0,0Z"/><path id="Path_307" data-name="Path 307" d="M69.8,118.31l.39.43a0,0,0,0,0,0,0l.87-.23a.06.06,0,0,0,0-.07,0,0,0,0,0,0,0l-.44-.37h0l-.81.18s0,0,0,.06,0,0,0,0Z"/><path id="Path_308" data-name="Path 308" d="M69.87,118.83l-.06,0-.14-.12-.42-.33.18,0a0,0,0,0,1,0,0l.37.32.05,0a.06.06,0,0,1,0,.09Z"/><path id="Path_309" data-name="Path 309" d="M72.35,116.16l.42.45h0l.9-.25a0,0,0,0,0,0-.05h0l-.47-.39a0,0,0,0,0,0,0l-.84.18a.06.06,0,0,0,0,.06Z"/><path id="Path_310" data-name="Path 310" d="M72.19,117l.39.43a0,0,0,0,0,0,0l.86-.23a.06.06,0,0,0,0-.07l0,0-.43-.37s0,0,0,0l-.81.18s0,0,0,.06,0,0,0,0Z"/><path id="Path_311" data-name="Path 311" d="M71,117.28l.39.43a0,0,0,0,0,0,0l.86-.23a.06.06,0,0,0,0-.07,0,0,0,0,0,0,0L71.9,117s0,0,0,0l-.82.18a.07.07,0,0,0,0,.06l0,0Z"/><path id="Path_312" data-name="Path 312" d="M67.75,117s0,0,0,.06h-.06l0,0-.09-.08-.48-.41.16,0a0,0,0,0,1,0,0l.42.4.07.06a0,0,0,0,1,0,0Z"/><path id="Path_313" data-name="Path 313" d="M67.42,116.38l-.13,0-.32.09-.07-.06h0l-.06-.05-.2-.17.56-.14h0l.14.16.06.06a.06.06,0,0,1,0,.08h0Z"/><path id="Path_314" data-name="Path 314" d="M67.47,116l1-.23a0,0,0,0,1,0,0l.2.21a.06.06,0,0,1,0,.08h0l-1,.24s0,0,0,0l-.22-.21a.06.06,0,0,1,0-.08Z"/><path id="Path_315" data-name="Path 315" d="M68.71,115.76l1-.24,0,0,.2.21a0,0,0,0,1,0,.07s0,0,0,0l-1,.24s0,0,0,0l-.22-.21a.06.06,0,0,1,0-.08Z"/><path id="Path_316" data-name="Path 316" d="M69.89,115.48l1-.25h0l.23.24a0,0,0,0,1,0,0s0,0,0,0l-1,.25h0l-.25-.24a0,0,0,0,1,0-.05Z"/><path id="Path_317" data-name="Path 317" d="M71.08,115.22l1-.24s0,0,0,0l.22.23a.06.06,0,0,1,0,.06h0l-1,.24s0,0,0,0l-.24-.24a0,0,0,0,1,0,0Z"/><path id="Path_318" data-name="Path 318" d="M72.27,114.94l.92-.21s0,0,0,0l.18.21s0,.05,0,.06h0l-.87.23,0,0-.23-.23a.06.06,0,0,1,0-.06Z"/><path id="Path_319" data-name="Path 319" d="M73.4,114.69l.93-.21s0,0,0,0l.18.22s0,0,0,.05h0l-.87.23h0l-.24-.24a0,0,0,0,1,0,0Z"/><path id="Path_320" data-name="Path 320" d="M72,119.37l-1.16.29-.16-.11L70,119l1.39-.36a.07.07,0,0,1,.06,0l.59.59,0,0a.06.06,0,0,1,0,.08l0,0Z"/><path id="Path_321" data-name="Path 321" d="M71.64,118.67l.62.61s0,0,0,0l1.28-.35s0,0,0-.06a0,0,0,0,0,0,0l-.63-.62s0,0,0,0l-1.26.35a.05.05,0,0,0,0,.06l0,0Z"/><path id="Path_322" data-name="Path 322" d="M74.74,118.28l.28.3h0l.94-.26s0,0,0,0,0,0,0,0l-.34-.32h0l-.89.28s0,0,0,0Z"/><path id="Path_323" data-name="Path 323" d="M75.55,117.64l.33.35s0,0,0,0l.87-.3s0,0,0,0v0l-.33-.29s0,0,0,0l-.87.24s0,0,0,0v0Z"/><path id="Path_324" data-name="Path 324" d="M76.19,118.25l-.23-.19s0,0,0,0l0,0,.87-.3h0l.28.26a.06.06,0,0,1,0,.06h0l-.9.23A0,0,0,0,1,76.19,118.25Z"/><path id="Path_325" data-name="Path 325" d="M77.08,117.72l.26.26h0l.9-.25s0,0,0,0l0,0-.31-.29h0l-.84.27a.05.05,0,0,0,0,0h0Z"/><path id="Path_326" data-name="Path 326" d="M74.55,117.14l.48.47h0L77.4,117a.05.05,0,0,0,0-.05l0,0-.56-.47a0,0,0,0,0,0,0l-2.25.61a0,0,0,0,0,0,0Z"/><path id="Path_327" data-name="Path 327" d="M74.39,116.42l.5.45h0l1.76-.42s0,0,0,0v0l-.57-.47a0,0,0,0,0,0,0l-1.68.45S74.38,116.4,74.39,116.42Z"/><path id="Path_328" data-name="Path 328" d="M74.55,115.65l.47.43h0l.9-.2s0,0,0,0,0,0,0,0l-.56-.48s0,0,0,0l-.81.26a.05.05,0,0,0,0,0l0,0Z"/><path id="Path_329" data-name="Path 329" d="M73.32,115.24l.45.41s0,0,0,0l1.42-.34s0,0,0,0v0l-.55-.46h0l-1.34.38a.05.05,0,0,0,0,0l0,0Z"/></g><path id="Path_330" data-name="Path 330" class="cls-10" d="M67.52,116.4l.43.46s0,0,0,0l.93-.22a.05.05,0,0,0,0-.06l0,0-.49-.46a0,0,0,0,0,0,0l-.87.22s0,0,0,.06,0,0,0,0Z"/><path id="Path_331" data-name="Path 331" class="cls-10" d="M68.71,116.13l.43.46a0,0,0,0,0,0,0l.93-.21a.06.06,0,0,0,0-.06s0,0,0,0l-.48-.46s0,0,0,0l-.87.21a.06.06,0,0,0,0,.07,0,0,0,0,0,0,0Z"/><path id="Path_332" data-name="Path 332" class="cls-10" d="M69,117.41h0l-.68.15a5.81,5.81,0,0,1-.46-.38l0,0-.1-.08,0,0,.14,0,.16,0,.53-.13s0,0,0,0l0,.05.26.23.18.18a.05.05,0,0,1,0,.07.09.09,0,0,1,0,0Z"/><path id="Path_333" data-name="Path 333" class="cls-10" d="M69.87,115.84l.45.47h0l1-.22s0,0,0,0v0l-.52-.47h0l-.9.22a0,0,0,0,0,0,0s0,0,0,0Z"/><path id="Path_334" data-name="Path 334" class="cls-10" d="M71,115.58l.45.47a.05.05,0,0,0,0,0l1-.23s0,0,0,0a0,0,0,0,1,0,0L72,115.3a0,0,0,0,0,0,0l-.9.22a0,0,0,0,0,0,0l0,0Z"/><path id="Path_335" data-name="Path 335" class="cls-10" d="M72.21,115.31l.41.44s0,0,0,0l.9-.24a0,0,0,0,0,0,0s0,0,0,0l-.46-.39h0l-.85.18a.05.05,0,0,0,0,.05h0Z"/><path id="Path_336" data-name="Path 336" class="cls-10" d="M73.46,115.72l.41.44s0,0,0,0l.9-.24a.05.05,0,0,0,0-.05s0,0,0,0l-.47-.39h0l-.84.19s0,0,0,0Z"/><path id="Path_337" data-name="Path 337" class="cls-10" d="M73.31,116.53l.39.43s0,0,0,0l.87-.23s0,0,0-.06,0,0,0,0l-.44-.37a0,0,0,0,0,0,0l-.81.18a0,0,0,0,0,0,.06s0,0,0,0Z"/><path id="Path_338" data-name="Path 338" class="cls-10" d="M72.29,117.57l.39.42s0,0,0,0l.87-.23a0,0,0,0,0,0-.06,0,0,0,0,0,0,0l-.44-.37h0l-.82.18s0,0,0,.06v0Z"/><path id="Path_339" data-name="Path 339" class="cls-10" d="M71.07,117.88l.39.43a0,0,0,0,0,.05,0l.86-.23a.06.06,0,0,0,0-.07,0,0,0,0,0,0,0l-.43-.37s0,0,0,0l-.81.18a0,0,0,0,0,0,.06s0,0,0,0Z"/><path id="Path_340" data-name="Path 340" class="cls-10" d="M73.44,117.26l.4.43a0,0,0,0,0,0,0l.86-.23a.06.06,0,0,0,0-.06l0,0-.44-.37h0l-.82.18a.05.05,0,0,0,0,.06,0,0,0,0,1,0,0Z"/><path id="Path_341" data-name="Path 341" class="cls-10" d="M73.24,118.18l.6.53s0,0,0,0l.86-.24a.07.07,0,0,0,0-.07l0,0-.63-.56h0l-.81.27s0,0,0,.06,0,0,0,0Z"/><path id="Path_342" data-name="Path 342" class="cls-10" d="M71.17,116.3l.42.45h0l.89-.25s0,0,0,0a0,0,0,0,0,0,0l-.45-.39a0,0,0,0,0,0,0l-.84.18a.05.05,0,0,0,0,.05h0Z"/><path id="Path_343" data-name="Path 343" class="cls-10" d="M70,116.58l.4.43a0,0,0,0,0,0,0l.86-.23a.05.05,0,0,0,0-.06s0,0,0,0l-.44-.37h0l-.83.19a0,0,0,0,0,0,.06v0Z"/><path id="Path_344" data-name="Path 344" class="cls-10" d="M69.78,117.4l.39.43s0,0,0,0l.87-.23a.06.06,0,0,0,0-.07s0,0,0,0l-.44-.37h0l-.81.18s0,0,0,.06a0,0,0,0,0,0,0Z"/><path id="Path_345" data-name="Path 345" class="cls-10" d="M68.56,117.7l.4.42s0,0,.05,0l.86-.24s0,0,0-.06a0,0,0,0,0,0,0l-.44-.37h0l-.82.17s0,0,0,.06,0,0,0,0Z"/><path id="Path_346" data-name="Path 346" class="cls-10" d="M68.78,116.86l.39.42a.06.06,0,0,0,0,0l.87-.24s0,0,0-.06,0,0,0,0l-.44-.37s0,0,0,0l-.82.18s0,0,0,0a0,0,0,0,0,0,0Z"/><path id="Path_347" data-name="Path 347" class="cls-10" d="M69.8,118.16l.39.42a.06.06,0,0,0,0,0l.86-.24a0,0,0,0,0,0-.06v0l-.44-.37a0,0,0,0,0,0,0l-.81.18a0,0,0,0,0,0,.06s0,0,0,0Z"/><path id="Path_348" data-name="Path 348" class="cls-10" d="M69.87,118.68h0l-.18,0-.42-.34-.15-.12.33-.07a0,0,0,0,1,0,0l.42.35a.06.06,0,0,1,0,.09l0,0Z"/><path id="Path_349" data-name="Path 349" class="cls-10" d="M72.35,116l.42.45s0,0,0,0l.9-.24s0,0,0,0,0,0,0,0l-.47-.39h0l-.84.19a.05.05,0,0,0,0,0h0Z"/><path id="Path_350" data-name="Path 350" class="cls-10" d="M72.19,116.81l.39.43h0l.86-.24a0,0,0,0,0,0-.06,0,0,0,0,0,0,0l-.43-.37s0,0,0,0l-.81.18a0,0,0,0,0,0,.06v0Z"/><path id="Path_351" data-name="Path 351" class="cls-10" d="M71,117.14l.39.42,0,0,.86-.24a0,0,0,0,0,0-.06s0,0,0,0l-.44-.37h0l-.82.18a.08.08,0,0,0,0,.07s0,0,0,0Z"/><path id="Path_352" data-name="Path 352" class="cls-10" d="M67.71,116.93h0l-.15,0-.48-.41L67,116.5l-.07-.06.3-.08,0,0,0,0,.45.43a0,0,0,0,1,0,.07h0Z"/><path id="Path_353" data-name="Path 353" class="cls-10" d="M67.42,116.23h0l-.55.14-.2-.17-.14-.12.7-.17a0,0,0,0,1,0,0l.2.21a.06.06,0,0,1,0,.08l0,0Z"/><path id="Path_354" data-name="Path 354" class="cls-10" d="M67.47,115.86l1-.24s0,0,0,0l.2.21a0,0,0,0,1,0,.07l0,0-1,.24,0,0-.22-.21a.06.06,0,0,1,0-.08Z"/><path id="Path_355" data-name="Path 355" class="cls-10" d="M68.71,115.6l1-.23a0,0,0,0,1,0,0l.2.22a0,0,0,0,1,0,.07h0l-1,.24a0,0,0,0,1,0,0l-.22-.22a0,0,0,0,1,0-.07h0Z"/><path id="Path_356" data-name="Path 356" class="cls-10" d="M69.89,115.32l1-.24h0l.22.24a0,0,0,0,1,0,0h0l-1,.25h0l-.25-.24a0,0,0,0,1,0,0l0,0Z"/><path id="Path_357" data-name="Path 357" class="cls-10" d="M71.08,115.07l1-.25h0l.22.24a0,0,0,0,1,0,.05h0l-1,.25h0l-.24-.24s0,0,0,0a0,0,0,0,1,0,0Z"/><path id="Path_358" data-name="Path 358" class="cls-10" d="M72.27,114.79l.92-.21,0,0,.18.22a0,0,0,0,1,0,.05h0l-.87.23h0l-.23-.24a.06.06,0,0,1,0-.06h0Z"/><path id="Path_359" data-name="Path 359" class="cls-10" d="M73.4,114.53l.93-.21s0,0,0,0l.18.22s0,0,0,0h0l-.87.23h0l-.24-.24a0,0,0,0,1,0,0h0Z"/><path id="Path_360" data-name="Path 360" class="cls-10" d="M72,119.22h0l-1.3.32L70,119l-.15-.11.4-.1.55-.14.59-.16a.06.06,0,0,1,.06,0l.63.63a.07.07,0,0,1,0,.08.08.08,0,0,1-.07,0Z"/><path id="Path_361" data-name="Path 361" class="cls-10" d="M71.64,118.51l.62.62a0,0,0,0,0,0,0l1.28-.34a.06.06,0,0,0,0-.06s0,0,0,0l-.63-.64h0l-1.26.35a.05.05,0,0,0,0,0s0,0,0,0Z"/><path id="Path_362" data-name="Path 362" class="cls-10" d="M74.74,118.12l.28.3s0,0,0,0l.94-.25s0,0,0,0,0,0,0,0l-.34-.32h0l-.89.27s0,0,0,0v0Z"/><path id="Path_363" data-name="Path 363" class="cls-10" d="M75.55,117.49l.33.35s0,0,0,0l.87-.3a.05.05,0,0,0,0,0h0l-.33-.3h0l-.87.25s0,0,0,0Z"/><path id="Path_364" data-name="Path 364" class="cls-10" d="M76.19,118.1l-.23-.2s0,0,0-.05h0l.87-.3s0,0,0,0l.28.26a0,0,0,0,1,0,0h0l-.9.24Z"/><path id="Path_365" data-name="Path 365" class="cls-10" d="M77.08,117.56c.08.07.22.22.26.26a.05.05,0,0,0,0,0l.9-.25a.05.05,0,0,0,0,0s0,0,0,0l-.31-.28h0l-.84.27s0,0,0,0Z"/><path id="Path_366" data-name="Path 366" class="cls-10" d="M74.55,117l.48.47h0l2.33-.61a.05.05,0,0,0,0,0,0,0,0,0,0,0,0l-.56-.47h0l-2.25.61a0,0,0,0,0,0,0Z"/><path id="Path_367" data-name="Path 367" class="cls-10" d="M74.38,116.27l.5.44h0l1.75-.41s0,0,0,0,0,0,0,0l-.58-.48a0,0,0,0,0,0,0l-1.68.45a0,0,0,0,0,0,.05Z"/><path id="Path_368" data-name="Path 368" class="cls-10" d="M74.55,115.5l.47.42h0l.9-.2s0,0,0,0,0,0,0,0l-.56-.49h0l-.81.26a0,0,0,0,0,0,0Z"/><path id="Path_369" data-name="Path 369" class="cls-10" d="M73.32,115.08l.45.42h0l1.43-.34s0,0,0,0,0,0,0,0l-.54-.46h0l-1.34.38a.05.05,0,0,0,0,0s0,0,0,0Z"/><path id="Path_370" data-name="Path 370" class="cls-14" d="M112,70.15l-.26,0A1.1,1.1,0,0,0,112,70.15Z"/><path id="Path_371" data-name="Path 371" class="cls-15" d="M118.76,69.34l-.15-.13c-.07-.08-.14-.15-.2-.23a.64.64,0,0,1-.1-.13l-.06-.07h0a.36.36,0,0,1-.07-.1l0,0,0,0a3.28,3.28,0,0,1-.2-.31h0a3,3,0,0,0,.19.3.43.43,0,0,1,0,.07c.07.1.15.19.23.29l.08.08a.43.43,0,0,0,.11.12l0,0,.12.11.07.07.24.21h0A2,2,0,0,1,118.76,69.34Zm-4.69,2.5-.58.14a2.94,2.94,0,0,0-1.09.47l.1,0,.07,0,.11-.05.13,0,.1,0,.11,0,.11,0,.11,0,.21,0L114,72h0l.16,0,.06,0,.16,0,.16,0,.2-.07.07,0,.08,0,.06,0,.24-.13.13-.07.11-.08.06,0a5.3,5.3,0,0,1-1.49.53Zm-.79-1.73h0a2.3,2.3,0,0,1-1.25.36l.54,0h0c.5,0,1,0,1.51,0V69.39a3.23,3.23,0,0,1-.8.72Zm5.49-.77-.14-.14a1.51,1.51,0,0,1-.21-.23l-.1-.12-.06-.08h0a.86.86,0,0,1-.07-.1l0,0,0,0a3.28,3.28,0,0,1-.2-.31h0a3,3,0,0,0,.19.3l0,.07a3.25,3.25,0,0,0,.23.29l.07.09.11.12,0,0,.12.12.07.06.24.21h0l-.33-.26Zm-4.7,2.5-.58.14a2.94,2.94,0,0,0-1.09.47l.1,0,.07,0,.11-.05.13,0,.1,0,.11,0,.11,0,.11,0,.21,0L114,72h0l.16,0,.06,0,.16,0,.16,0,.2-.07.07,0,.08,0,.06,0,.24-.13.13-.07.11-.08.06,0a5.3,5.3,0,0,1-1.49.53Zm-.79-1.73h0a2.3,2.3,0,0,1-1.25.36l.54,0h0c.5,0,1,0,1.51,0V69.39a3.23,3.23,0,0,1-.8.72Zm5.49-.77-.14-.14a1.51,1.51,0,0,1-.21-.23l-.1-.12-.06-.08h0a.86.86,0,0,1-.07-.1l0,0,0,0a3.28,3.28,0,0,1-.2-.31h0a3,3,0,0,0,.19.3l0,.07a3.25,3.25,0,0,0,.23.29l.07.09.11.12,0,0,.12.12.07.06.24.21h0l-.33-.26Zm-4.7,2.5-.58.14a2.94,2.94,0,0,0-1.09.47l.1,0,.07,0,.11-.05.13,0,.1,0,.11,0,.11,0,.11,0,.21,0L114,72h0l.16,0,.06,0,.16,0,.16,0,.2-.07.07,0,.08,0,.06,0,.24-.13.13-.07.11-.08.06,0a5.3,5.3,0,0,1-1.49.53Zm-.79-1.73h0a2.3,2.3,0,0,1-1.25.36l.54,0h0c.5,0,1,0,1.51,0V69.39a3.23,3.23,0,0,1-.8.72Zm5.49-.77-.14-.14a1.51,1.51,0,0,1-.21-.23l-.1-.12-.06-.08h0a.86.86,0,0,1-.07-.1l0,0,0,0a3.28,3.28,0,0,1-.2-.31h0a3,3,0,0,0,.19.3l0,.07a3.25,3.25,0,0,0,.23.29l.07.09.11.12,0,0,.12.12.07.06.24.21h0l-.33-.26Zm-4.7,2.5-.58.14a2.94,2.94,0,0,0-1.09.47l.1,0,.07,0,.11-.05.13,0,.1,0,.11,0,.11,0,.11,0,.21,0L114,72h0l.16,0,.06,0,.16,0,.16,0,.2-.07.07,0,.08,0,.06,0,.24-.13.13-.07.11-.08.06,0a5.3,5.3,0,0,1-1.49.53Zm-.79-1.73h0a2.3,2.3,0,0,1-1.25.36l.54,0h0c.5,0,1,0,1.51,0V69.39a3.23,3.23,0,0,1-.8.72Zm5.49-.77-.14-.14a1.51,1.51,0,0,1-.21-.23l-.1-.12-.06-.08h0a.86.86,0,0,1-.07-.1l0,0,0,0a3.28,3.28,0,0,1-.2-.31h0a3,3,0,0,0,.19.3l0,.07a3.25,3.25,0,0,0,.23.29l.07.09.11.12,0,0,.12.12.07.06.24.21h0l-.33-.26ZM113.48,72a2.55,2.55,0,0,0-1.08.47l.1,0,.07,0,.11,0,.13,0,.1,0,.11,0,.11,0,.11,0,.21-.05L114,72h0l.16,0,.07,0,.16,0,.16-.06.2-.07.07,0,.07,0,.06,0a1.92,1.92,0,0,0,.25-.12l.12-.07.12-.08.06,0a5.37,5.37,0,0,1-1.5.53Zm-.93-1.46c.5,0,1,0,1.51,0V69.41a3.15,3.15,0,0,1-.79.71h0a2.24,2.24,0,0,1-1.25.36l.54,0Zm39.78,45.07a1.86,1.86,0,0,0-.56-.94c-.77-.7-2.13-.77-2.53-1.73a2.5,2.5,0,0,1-.08-1.12l.36-4.64a4.86,4.86,0,0,0,0-1.32,5.64,5.64,0,0,0-.73-1.62,16.54,16.54,0,0,1-1.05-2.31c-.07-.18-.13-.36-.19-.53a16.66,16.66,0,0,1-.81-4.74,16.28,16.28,0,0,1,.17-2.79c.3-.31.48-.61.78-.93l.25-.28a3.5,3.5,0,0,0,.33-.43,1.75,1.75,0,0,0,.38-1.22,1.82,1.82,0,0,0-.38-.85,5.91,5.91,0,0,1-1-1.46,2.29,2.29,0,0,1-.06-.94c0-.09,0-.16,0-.25.18-1,.63-2,.32-2.92-.09-.26-.24-.51-.33-.77l0-.06c-.51-1.45.43-3,.4-4.59a1.65,1.65,0,0,0,0-.31.8.8,0,0,0-.27-.52,1.2,1.2,0,0,0-.6-.23L146,78a.85.85,0,0,0-.32,0,.57.57,0,0,0-.22.11,28.83,28.83,0,0,0-.46-3.19,11.26,11.26,0,0,0-1.45-3.76,7.22,7.22,0,0,0-.56-.77,3.9,3.9,0,0,0-.33-.38c-1.73-1.87-4.21-2.83-6.54-4-.46-.23-.92-.48-1.36-.72l-.83-.49-.2-.12c1.68-1.48,3.88-2.48,5.25-4.25a3.81,3.81,0,0,0,.24-.32,9.06,9.06,0,0,0,1.32-3.59c.66-3.8-.13-8.07-3-10.68a43.66,43.66,0,0,0-4.13-2.89c-.78-.57-1.49-1.22-2.25-1.81-.2-.16-.41-.31-.63-.47a12.18,12.18,0,0,0-4.13-1.88,12.55,12.55,0,0,0-6.12,0l-.42.13v0a1.52,1.52,0,0,0-.6.39l0,0,0,0h0a3.21,3.21,0,0,0-.34.89,6.73,6.73,0,0,1-.38,1h0l-.09.18,0,0a6.87,6.87,0,0,1-1.64,2.11h0a6.69,6.69,0,0,1-2.19,1.27,4.48,4.48,0,0,1-.52.16,9.81,9.81,0,0,0-2.41.88v0a2.21,2.21,0,0,0-.58.52h0l-.07.08h0a2.14,2.14,0,0,0-.41,1.3,3.44,3.44,0,0,0,.3,1.34h0a.61.61,0,0,0,0,.12c0,.12-.1.25-.14.38v0h0c-.54,1.88.52,4,.27,6a8,8,0,0,0-.24,2.12.7.7,0,0,0,0,.14.45.45,0,0,0,0,.11,3.79,3.79,0,0,0-.2.34,7.18,7.18,0,0,0-.85,2.55c-.06.41-.08.84-.12,1.25h0a5,5,0,0,1-.26,1.21c0,.11-.09.22-.14.33s-.09.19-.14.28c-.21.37-.45.73-.63,1.12a11,11,0,0,0-.62,2.17,19.56,19.56,0,0,1-.76,2.47c-.15.41-.41.88-.61,1.36l-.13,0-1.05-.07,0,.18a2,2,0,0,1-.45,1.29,2.4,2.4,0,0,1-.43.41s0,0,0,0a4.11,4.11,0,0,1-.83.49,3.32,3.32,0,0,0-1.14.65h0a1,1,0,0,0-.13.16c-.66,1,.44,2.36-.08,3.42a2.5,2.5,0,0,1-.73.79h0A2.18,2.18,0,0,0,101,79c-.44.86.23,1.92,0,2.84-.17.58-.68,1-.92,1.58a3.63,3.63,0,0,0-.18,1.5,4.28,4.28,0,0,0,.36,1.93,3.71,3.71,0,0,0,1.28,1.24l.39.24-.3,0a3.89,3.89,0,0,0-1.66.7h0l0,0-.12.09c-1.07.92-1.47,2.37-2.15,3.6A10.85,10.85,0,0,1,97,93.9l-.68.93a59.58,59.58,0,0,0-4,6.5l0,.06c-1,1.78-1.88,3.59-2.79,5.4a3.73,3.73,0,0,0-.43,1.14,4.13,4.13,0,0,1-.11.86,2.48,2.48,0,0,1-.42.63,7.35,7.35,0,0,0-.6,1l-1.2,2.24a8.32,8.32,0,0,0-1.06,2.89,3,3,0,0,0,.1,1.16,2.31,2.31,0,0,0,.16.41.45.45,0,0,0,.18.21.25.25,0,0,0,.19,0h0a.59.59,0,0,0,.25-.22.86.86,0,0,0,.1-.16h0l0,.2h0a1.1,1.1,0,0,0,0,.18h0l-.09.75c0,.43-.13.85-.22,1.27h-.08a41.14,41.14,0,0,1-4.13-.62l-.42-.08-.32-.07-.18,0h.65l-.37-.05a20.53,20.53,0,0,0-6.06.21,4,4,0,0,0-1,.27,3.07,3.07,0,0,0-.67.46l-.17.16-.19.18a8.4,8.4,0,0,0-1,1h0c1,.72,2,1.42,3,2.1l.11.07.4.26.1.07,1.18.76c.89.55,1.78,1.09,2.69,1.62,1.09.63,2.19,1.23,3.31,1.82l.61.31c.76.39,1.52.76,2.29,1.12,1.66.79,3.35,1.52,5.05,2.2h0c.75-.1,1.5-.23,2.25-.35l.34-.07a1.2,1.2,0,0,0,.31-.13l.14-.09a2.25,2.25,0,0,0,.6-1,3.75,3.75,0,0,0,.19-.75,1,1,0,0,0,0-.25,1.33,1.33,0,0,0,0-.28c.26-.1.53-.22.79-.35a12.55,12.55,0,0,1,1.17-.56,4.73,4.73,0,0,1,1.17-.27h0c.37,0,.74-.06,1.11-.07h.58a4.91,4.91,0,0,1,.48.43,4.87,4.87,0,0,0,.67.83,2,2,0,0,0,.67.28,7.4,7.4,0,0,0,2.38.42h0a2.91,2.91,0,0,0,1.28-.34,4.69,4.69,0,0,1,1.26-.74c.36-.08.85,0,1-.37,0-.14.07-.27.09-.4a.86.86,0,0,1,.81-.48h.28c1.49,0,3,0,4.52-.16l.23,0,1-.09a43.93,43.93,0,0,0,6.66-1.14h.05l.17,0h0a15.29,15.29,0,0,0,3.22,1.52,15.8,15.8,0,0,0,5.35.38l2.06-.1h0l.23,0h.12a9.46,9.46,0,0,0,3.39,1.11,13.74,13.74,0,0,0,2,.1h0a31.93,31.93,0,0,0,5.67-.84,5.81,5.81,0,0,0,2.7-1.06,6,6,0,0,0,1.27-1.75c.58-1.07,1.16-2.13,1.73-3.2h0l.24-.42.14.24.15.28c.27-.27.52-.56.76-.85a11.94,11.94,0,0,0,1.33-2,4.24,4.24,0,0,0,.57-2.91ZM106.55,89.54a14.58,14.58,0,0,0,2.77-.61l.4-.12,4.22-1.26.13,0,.14,0a0,0,0,0,0,0,0v0a9,9,0,0,1,.6,1.56,35.61,35.61,0,0,1,1.5,9.22,2.12,2.12,0,0,1,0,.44l0,.12,0,0v0l-.08-.08a.6.6,0,0,0-.08-.08c-.64-.67-1.3-1.33-2-2-.84-.81-1.7-1.61-2.56-2.41s-1.47-1.5-2.19-2.27a15.77,15.77,0,0,0-2.65-2.38h0Zm6.64-23.24c.08-.12.16-.25.25-.37a1.77,1.77,0,0,1,.16-.22l.46.15.9.28.22.07h0c0,.07,0,.13,0,.19a5.92,5.92,0,0,1-.24,1.31,4.63,4.63,0,0,1-.89,1.7,3.35,3.35,0,0,1-.79.71h0a2.33,2.33,0,0,1-1.25.36l.54,0h0c.5,0,1,0,1.51,0a18.9,18.9,0,0,0,2.91-.31,10,10,0,0,0,1.85-.52l.22-.1h0l.08,0,0,0a4.46,4.46,0,0,0,.42.34l0,0h0l0,0a1.09,1.09,0,0,0-.36,0,1,1,0,0,0-.3.07,7.64,7.64,0,0,1-1.11.46,9.15,9.15,0,0,0-1.16.13,1.66,1.66,0,0,0-.45.25h0l-.37.28-.2.12h0a5.6,5.6,0,0,1-1.5.54l-.58.13a2.7,2.7,0,0,0-1.08.48A1,1,0,0,0,112,73a.83.83,0,0,0,0,.22h0a3,3,0,0,1,0-.42h0a.87.87,0,0,0-.12-.57,1,1,0,0,0-.58-.32l-.27-.07a34.75,34.75,0,0,1,2.17-5.52Zm-6,51.56-1.89.67c-.22.07-.43.13-.66.18h0a1.24,1.24,0,0,1-1.23-.31c-.09-.11-.14-.23-.22-.35a1.25,1.25,0,0,0-1.4-.42h0a1.06,1.06,0,0,0-.58.41c-.28.41-.34,1-.78,1.22a.78.78,0,0,1-.25.07h0l-.24,0a3.59,3.59,0,0,0-.72.11h0a1.69,1.69,0,0,0-.73.37,1.86,1.86,0,0,0-.5,1.27h0l-.12,0-.28.07-.15,0-.51.13h0l0,0a.54.54,0,0,0,.1-.3c0-.23-.29-.35-.51-.42-.48-.14-1-.27-1.45-.38a20.37,20.37,0,0,0,1.61-1.46,1.81,1.81,0,0,0,.67-1.23,1.68,1.68,0,0,0-.29-.79,2.46,2.46,0,0,1-.41-.92,1,1,0,0,1,0-.25,2.16,2.16,0,0,1,.25-.74,11.82,11.82,0,0,1,2.7-3.58,29.87,29.87,0,0,0,3.15-2.8,6.52,6.52,0,0,0,1.46-4.28c0-.12,0-.25,0-.37,2.7,3.69,4.6,8,7.06,11.78l.09.15s0,0,0,.05a2.11,2.11,0,0,0,.18.27l0,0-.2.1h0c-.61.29-1.25.56-1.88.81s-1.53.57-2.31.84Zm6.09-47.75h0a2.34,2.34,0,0,1-1.25.37c.18,0,.36,0,.54,0h0c.5,0,1,0,1.51,0V69.4a3.39,3.39,0,0,1-.79.72Zm.79,1.74-.58.14a2.66,2.66,0,0,0-1.09.47l.1,0,.07,0,.11,0,.13,0,.1,0,.11,0,.11,0,.11,0,.21-.05L114,72h0l.15,0,.07,0,.16,0,.16,0,.2-.08.07,0,.08,0,0,0a1.92,1.92,0,0,0,.25-.12l.12-.07.12-.08.06,0a5.61,5.61,0,0,1-1.49.52Zm4.69-2.5a.93.93,0,0,1-.14-.14,2.13,2.13,0,0,1-.21-.22,1.13,1.13,0,0,1-.1-.13l-.06-.07h0l-.07-.1,0,0,0,0a3.13,3.13,0,0,1-.2-.3h0c.06.1.12.2.19.3l0,.06c.08.1.15.2.23.29l.08.09.11.12.05,0a.57.57,0,0,0,.11.11l.07.06a1.64,1.64,0,0,0,.25.21h0l-.31-.28Zm-5.49.77h0a2.22,2.22,0,0,1-1.25.36l.54,0h0c.5,0,1,0,1.51,0V69.41a3.46,3.46,0,0,1-.78.7Zm.79,1.74-.58.13a2.8,2.8,0,0,0-1.09.48l.1,0,.07,0,.11,0,.14,0,.1,0,.1,0,.11,0,.12,0,.2,0L114,72h0l.16,0,.07,0,.15,0,.16-.06.2-.07.08,0,.07,0,.06,0,.25-.12.12-.08.11-.07.06-.05a5.11,5.11,0,0,1-1.48.52Zm4.69-2.5-.14-.14-.21-.23-.1-.12-.05-.07h0l-.08-.1s0,0,0,0l0,0-.2-.3h0c.06.1.12.2.19.3l.05.06a2.09,2.09,0,0,0,.23.29l.07.09.11.12,0,0,.11.12.07.06.25.21h0a3.84,3.84,0,0,0-.3-.28Zm-5.49.77h0a2.28,2.28,0,0,1-1.25.36l.54,0h0c.5,0,1,0,1.52,0V69.41a3.44,3.44,0,0,1-.78.7Zm.79,1.74-.58.13a2.7,2.7,0,0,0-1.08.48l.1-.06.07,0,.1,0,.14,0,.1,0,.11,0,.11,0,.11,0,.21,0L114,72h0l.16,0,.07,0,.16,0,.15,0,.2-.07.08,0,.07,0,.06,0,.25-.13.12-.07.12-.08.06,0a5.52,5.52,0,0,1-1.48.51Zm4.69-2.5a1.85,1.85,0,0,0-.14-.14c-.07-.08-.14-.15-.2-.23a.53.53,0,0,1-.1-.12l-.06-.08h0l-.08-.1v0l0,0a3.28,3.28,0,0,1-.2-.31h0a3,3,0,0,0,.19.3l0,.07c.07.1.15.19.23.29l.07.09.12.11,0,0,.12.12.07.06.24.21h0a2.13,2.13,0,0,0-.3-.3Zm-5.48.77h0a2.42,2.42,0,0,1-1.25.36c.18,0,.36,0,.54,0h0c.5,0,1,0,1.51,0V69.42a3.22,3.22,0,0,1-.78.69Zm.78,1.73-.57.14a2.66,2.66,0,0,0-1.09.47l.1,0,.07,0,.11-.05.13,0,.1,0,.11,0,.11,0,.11,0,.21,0L114,72h0l.15,0,.07,0,.16,0,.16-.05.2-.08.07,0,.08,0,0,0a1.15,1.15,0,0,0,.25-.12l.12-.07.12-.08.06,0a5.8,5.8,0,0,1-1.47.5Zm4.7-2.5a.93.93,0,0,1-.14-.14l-.21-.22-.1-.13,0-.07h0l-.08-.1v0l0,0c-.07-.09-.13-.2-.2-.3h0c.06.1.12.2.19.3l0,.06a2.09,2.09,0,0,0,.23.29l.07.09.11.12,0,.05a.63.63,0,0,0,.12.11l.06.06a1.64,1.64,0,0,0,.25.21h0a2.06,2.06,0,0,0-.29-.3Z"/><path id="Path_372" data-name="Path 372" class="cls-16" d="M110.77,49.23c-1,2,.32,4.37.06,6.58a8.36,8.36,0,0,0-.24,2.12c.19,1.27,1.43,2.07,2.33,3a7.26,7.26,0,0,1,1.78,7c-.42,1.47-1.67,2.95-3.19,2.73a18.49,18.49,0,0,0,5.2-.22,5.8,5.8,0,0,0,4-2.2c.93-1.5.53-3.43.27-5.18a28.24,28.24,0,0,1,.28-9.79,7.4,7.4,0,0,0,.25-2.15,2,2,0,0,0-1.14-1.72c-.72-.29-1.55,0-2.29-.23-1.37-.46-1.7-1.91-3.28-2C113.38,47.15,111.42,47.91,110.77,49.23Z"/><path id="Path_373" data-name="Path 373" class="cls-17" d="M110.77,49.23c-1,2,.32,4.37.06,6.58a8.36,8.36,0,0,0-.24,2.12c.19,1.27,1.43,2.07,2.33,3a7.26,7.26,0,0,1,1.78,7c-.42,1.47-1.67,2.95-3.19,2.73a18.49,18.49,0,0,0,5.2-.22,5.8,5.8,0,0,0,4-2.2c.93-1.5.53-3.43.27-5.18a28.24,28.24,0,0,1,.28-9.79,7.4,7.4,0,0,0,.25-2.15,2,2,0,0,0-1.14-1.72c-.72-.29-1.55,0-2.29-.23-1.37-.46-1.7-1.91-3.28-2C113.38,47.15,111.42,47.91,110.77,49.23Z"/><path id="Path_374" data-name="Path 374" class="cls-18" d="M107.72,67.4a10.85,10.85,0,0,1,.61-2.16c.27-.59.68-1.12.9-1.72a11.34,11.34,0,0,0,.37-2.46,7.79,7.79,0,0,1,2.75-4.86,9,9,0,0,1,5.24-2,3,3,0,0,1,1.11,2.61,16.55,16.55,0,0,1-.58,2.9,18.12,18.12,0,0,1-.49,2.21,5.22,5.22,0,0,1-2.63,3,6.86,6.86,0,0,0-1.21.61,3.45,3.45,0,0,0-.84,1c-1.32,2.22-1.64,4.91-2.93,7.15a.82.82,0,0,1-.26.32.76.76,0,0,1-.39.1c-1,.07-3.45-.55-3.32-1.87a12.15,12.15,0,0,1,.91-2.32A20.6,20.6,0,0,0,107.72,67.4Z"/><rect id="Rectangle_72" data-name="Rectangle 72" class="cls-19" x="117.81" y="56.15" width="1.73" height="0.21" rx="0.1" transform="translate(29.3 152.49) rotate(-72.47)"/><path id="Rectangle_73" data-name="Rectangle 73" class="cls-19" d="M112.72,52.63h0a.07.07,0,0,1,0,.08l-.14.43a.06.06,0,0,1-.07,0h0a.06.06,0,0,1,0-.08l.14-.43A.06.06,0,0,1,112.72,52.63Z"/><rect id="Rectangle_74" data-name="Rectangle 74" class="cls-19" x="111.76" y="54.04" width="1" height="0.13" rx="0.07" transform="translate(26.58 144.6) rotate(-72.3)"/><path id="Rectangle_75" data-name="Rectangle 75" class="cls-19" d="M112,54.91h0a.07.07,0,0,1,0,.08l-.27.84a.07.07,0,0,1-.08,0h0a.07.07,0,0,1,0-.08l.27-.84A.06.06,0,0,1,112,54.91Z"/><rect id="Rectangle_76" data-name="Rectangle 76" class="cls-19" x="107.31" y="55.21" width="14.34" height="7.06" rx="3.53" transform="translate(23.72 149.94) rotate(-72.3)"/><path id="Rectangle_77" data-name="Rectangle 77" class="cls-20" d="M116,52.14l.75.24a.09.09,0,0,1,.06.12h0a.1.1,0,0,1-.12.07l-.75-.24a.1.1,0,0,1-.06-.13h0A.09.09,0,0,1,116,52.14Z"/><circle id="Ellipse_42" data-name="Ellipse 42" class="cls-20" cx="117.05" cy="52.58" r="0.11"/><path id="Path_375" data-name="Path 375" class="cls-8" d="M119,53l-.77-.25,0,.09a.45.45,0,0,1-.58.3l-2.45-.78a.47.47,0,0,1-.3-.59l0-.09-.72-.23a.55.55,0,0,0-.7.37l-3.79,11.88a.57.57,0,0,0,.36.7L114.84,66a.56.56,0,0,0,.7-.37l3.79-11.88A.56.56,0,0,0,119,53Z"/><rect id="Rectangle_78" data-name="Rectangle 78" class="cls-8" x="120.18" y="104.62" width="8.79" height="7.51"/><rect id="Rectangle_79" data-name="Rectangle 79" class="cls-8" x="136.27" y="107.76" width="6.95" height="7.49"/><path id="Path_376" data-name="Path 376" class="cls-18" d="M101.31,126a1.33,1.33,0,0,1-.36.67,1.43,1.43,0,0,1-.84.27c-.3,0-.56,0-.85,0a7.59,7.59,0,0,0-2.46.35,9.53,9.53,0,0,0-1.16.56,10.21,10.21,0,0,1-5.51,1c-.25-1.84-1.25-3.48-1.74-5.28a3.81,3.81,0,0,1,0-2.36.51.51,0,0,1,.16-.24.55.55,0,0,1,.35-.08,9.54,9.54,0,0,1,2.1.48,13.24,13.24,0,0,0,5.5,0c.24,0,.56-.13.89-.22a2.58,2.58,0,0,1,1.53-.1c.28.13.54.53.79.72a7.22,7.22,0,0,0,1,.72,1.36,1.36,0,0,1,.41.3,1.14,1.14,0,0,1,.22.49A5,5,0,0,1,101.31,126Z"/><path id="Path_377" data-name="Path 377" class="cls-16" d="M96.86,121.07a.45.45,0,0,1-.1.3l0,.06a2.73,2.73,0,0,1-1.84.83l-2.46.42h0a.66.66,0,0,0-.32.12.62.62,0,0,0-.15.34v0c-.14.6-.27,1.21-.4,1.82h0c-.09.38-.17.76-.26,1.15-.15.7-.39,1.52-1.06,1.8L90,128a3.48,3.48,0,0,1-.79,0l-5.94-.49c-1.11-.58-2.21-1.19-3.31-1.82-.91-.52-1.8-1.06-2.68-1.62L76,123.32l-.1-.06-.4-.26-.11-.08c-1-.67-2-1.37-3-2.1a9.65,9.65,0,0,1,.92-1,2.39,2.39,0,0,1,.23-.22l.19-.16a2.83,2.83,0,0,1,.61-.41,3.88,3.88,0,0,1,.94-.27,20,20,0,0,1,6.12-.2h0l.28,0h-.7l.65.13.41.09c1.34.26,2.68.46,4,.59.75.07,1.5.13,2.24.16s1.74,0,2.6.1a24,24,0,0,1,2.55.32h0l.25,0,1.08.23q.72.17,1.44.39C96.58,120.72,96.84,120.84,96.86,121.07Z"/><path id="Path_378" data-name="Path 378" class="cls-17" d="M96.86,121.07a.45.45,0,0,1-.1.3l0,.06a2.73,2.73,0,0,1-1.84.83l-2.46.42h0a.66.66,0,0,0-.32.12.62.62,0,0,0-.15.34v0c-.14.6-.27,1.21-.4,1.82h0c-.09.38-.17.76-.26,1.15-.15.7-.39,1.52-1.06,1.8L90,128a3.48,3.48,0,0,1-.79,0l-5.94-.49c-1.11-.58-2.21-1.19-3.31-1.82-.91-.52-1.8-1.06-2.68-1.62L76,123.32l-.1-.06-.4-.26-.11-.08c-1-.67-2-1.37-3-2.1a9.65,9.65,0,0,1,.92-1,2.39,2.39,0,0,1,.23-.22l.19-.16a2.83,2.83,0,0,1,.61-.41,3.88,3.88,0,0,1,.94-.27,20,20,0,0,1,6.12-.2h0l.28,0h-.7l.65.13.41.09c1.34.26,2.68.46,4,.59.75.07,1.5.13,2.24.16s1.74,0,2.6.1a24,24,0,0,1,2.55.32h0l.25,0,1.08.23q.72.17,1.44.39C96.58,120.72,96.84,120.84,96.86,121.07Z"/><path id="Path_379" data-name="Path 379" class="cls-18" d="M95.24,116.59a5.54,5.54,0,0,1-.3,1.81,7.13,7.13,0,0,1-1.34,1.92l-.14.16a3.76,3.76,0,0,0-1,2.3,8.52,8.52,0,0,1,.16,1.89,12.65,12.65,0,0,1-8,.07,2.12,2.12,0,0,1-1.36-.94,5.64,5.64,0,0,0,2.26-2.43,9.76,9.76,0,0,0,.92-3.22l.09-.75h0a8.66,8.66,0,0,1,.16-1c.43-2,1.45-3.94,3.57-4.47a2.72,2.72,0,0,1,.81-.09,3.93,3.93,0,0,1,1.67.67A5.07,5.07,0,0,1,95,114.77,4.69,4.69,0,0,1,95.24,116.59Z"/><path id="Path_380" data-name="Path 380" class="cls-18" d="M145,80.14a1.73,1.73,0,0,1-.4.53c-2,2.14-4.21,4.32-7,5.29a19.71,19.71,0,0,1-4.58.79,16.39,16.39,0,0,1-6.65-.32c-3-1-5.22-3.72-6.82-6.51-1.3-2.27-2.38-4.89-1.85-7.46a3.75,3.75,0,0,1,.71-1.62,3.36,3.36,0,0,1,.9-.73,19.51,19.51,0,0,0,2.91-1.5,9.16,9.16,0,0,0-1-2.88c-.1-.19-.2-.37-.31-.55a10.11,10.11,0,0,0-1.11-1.47l-.19-.2a7.81,7.81,0,0,1-1.11-1,17.31,17.31,0,0,1,2.83-1.63l2.34-1.33.56-.31A10,10,0,0,1,126.9,58a.8.8,0,0,1,1.08.34.88.88,0,0,1,.07.23,14.89,14.89,0,0,1,.49,1.94A4.3,4.3,0,0,0,130,63.3a8.48,8.48,0,0,0,2,.82,9.72,9.72,0,0,1,1.54.79l.83.49c2.8,1.61,6.14,2.57,8.18,5.08s2.29,5.68,2.54,8.76A1.83,1.83,0,0,1,145,80.14Z"/><path id="Path_381" data-name="Path 381" class="cls-9" d="M130.77,54.83A9.17,9.17,0,0,1,122.44,64a7.94,7.94,0,0,1-.85,0,9.17,9.17,0,1,1,9.17-9.17Z"/><path id="Path_382" data-name="Path 382" class="cls-18" d="M130.77,54.55a9.17,9.17,0,0,1-8.33,9.13,7.94,7.94,0,0,1-.85,0,9.17,9.17,0,1,1,9.17-9.17Z"/><path id="Path_383" data-name="Path 383" class="cls-9" d="M122.22,84.28a5,5,0,0,0,3.27-4c.1,1.11.25,2.21.43,3.3a5.62,5.62,0,0,0,.41,1.56,3.19,3.19,0,0,0,3,1.79Z"/><path id="Path_384" data-name="Path 384" class="cls-8" d="M126.89,83.1a30.19,30.19,0,0,1-5.21-6.18,10.54,10.54,0,0,1-.79-1.43,25.41,25.41,0,0,1-1-4.63,1.08,1.08,0,0,0-.17-.45,1,1,0,0,0-1.1-.18,7.41,7.41,0,0,1-1.09.46,11.12,11.12,0,0,0-1.16.13,3.5,3.5,0,0,0-.82.53,6.53,6.53,0,0,1-2.27.79c-.6.15-1.27.41-1.43,1a2.06,2.06,0,0,0,.13,1.07,19.19,19.19,0,0,1,.22,6,10.79,10.79,0,0,0,1,5.92c.27.48.6.93.86,1.42a8.86,8.86,0,0,1,.6,1.58,35.3,35.3,0,0,1,1.49,9.19c0,.41-.1,1-.51,1a3.54,3.54,0,0,0,1.68,2.23,8.34,8.34,0,0,1,2.19,1.87c.47.68.65,1.52,1.06,2.23a5.65,5.65,0,0,0,3.89,2.45,39.13,39.13,0,0,0,4.71.35,31,31,0,0,1,8.17,1.94,21.32,21.32,0,0,1,5.89,2.92c2.68,2.05,4.43,5.07,6.11,8a12.15,12.15,0,0,0,2.07-2.81c.65-1.22,1-2.91,0-3.85-.77-.7-2.12-.76-2.51-1.72a2.37,2.37,0,0,1-.09-1.12l.37-4.63a5.22,5.22,0,0,0,0-1.31,5.38,5.38,0,0,0-.73-1.62A16.56,16.56,0,0,1,146.47,94c.3-.31.48-.61.77-.93a2.6,2.6,0,0,0,1-1.92c-.11-.9-1.1-1.44-1.37-2.3a2.4,2.4,0,0,1,0-1.19c.18-1,.63-2,.32-2.91-.09-.27-.23-.51-.33-.78-.56-1.46.41-3.06.37-4.63a1.12,1.12,0,0,0-.3-.84,1.23,1.23,0,0,0-.6-.23l-.7-.14a.69.69,0,0,0-.32,0,.61.61,0,0,0-.31.18c-.73.72-.69,2.12-1.63,2.5a2.74,2.74,0,0,1-1.58-.08,9.43,9.43,0,0,0-5,.55c-1.61.55-3.15,1.31-4.81,1.78S128.16,84.25,126.89,83.1Z"/><path id="Path_385" data-name="Path 385" class="cls-8" d="M109.49,88.93a12.08,12.08,0,0,1-4.42.74,8.33,8.33,0,0,1-3.69-1.41A3.8,3.8,0,0,1,100.1,87a4.41,4.41,0,0,1-.35-1.93,3.8,3.8,0,0,1,.18-1.5c.24-.56.75-1,.91-1.58.27-.92-.4-2,0-2.84.3-.59,1-.87,1.3-1.45.52-1-.58-2.45.07-3.42a2.87,2.87,0,0,1,1.27-.8,3.42,3.42,0,0,0,1.26-.91,1.82,1.82,0,0,0,.42-1.47,28.51,28.51,0,0,1,5.88.95,1,1,0,0,1,.58.32c.2.27.07.65.13,1a1.6,1.6,0,0,0,.53.84,19.7,19.7,0,0,1,1.77,1.52,6.1,6.1,0,0,1,1,2.88l.44,2.47a22.52,22.52,0,0,1,.33,2.45,4.62,4.62,0,0,1-.05,1.23,13,13,0,0,1-.57,2c-.22.58-.65.6-1.22.77Z"/><path id="Path_386" data-name="Path 386" class="cls-9" d="M111.33,83.29a6.84,6.84,0,0,1-.25,3,3.5,3.5,0,0,1-1.76,1.85c1.22-1.09,1.51-2.87,1.72-4.5a5.73,5.73,0,0,0,.06-1.31c0-.17-.72-2.37,0-2C111.38,80.49,111.31,82.92,111.33,83.29Z"/><path id="Path_387" data-name="Path 387" class="cls-9" d="M95.24,116.59a5.59,5.59,0,0,1-.3,1.81,7.13,7.13,0,0,1-1.34,1.92,10.78,10.78,0,0,0-.53-2.38,4.82,4.82,0,0,0-2.21-2.71,2.94,2.94,0,0,0-3.33.37,5.84,5.84,0,0,0-1,1.73l0,.07a8.66,8.66,0,0,1,.16-1c.43-2,1.45-3.94,3.57-4.47a2.72,2.72,0,0,1,.81-.09,3.84,3.84,0,0,1,1.66.67A5.06,5.06,0,0,1,95,114.78,4.44,4.44,0,0,1,95.24,116.59Z"/><path id="Path_388" data-name="Path 388" class="cls-16" d="M135.94,126.24a5.07,5.07,0,0,1-2.56.58l-1.14.06L130,127a16.64,16.64,0,0,1-5.67-.36,15.34,15.34,0,0,1-3.2-1.51l-.43-.26c-.66-.39-1.31-.8-2-1.22a23.82,23.82,0,0,1-7.58-7.8c-2.5-3.87-4.42-8.21-7.15-12a6.48,6.48,0,0,1-1.42,4.65,26.87,26.87,0,0,1-3.14,2.79,11.64,11.64,0,0,0-2.68,3.58,1.75,1.75,0,0,0-.26,1c.07.62.68,1.09.7,1.71a1.78,1.78,0,0,1-.66,1.23,19.05,19.05,0,0,1-2.8,2.35,14,14,0,0,0-.66-3.51A4.82,4.82,0,0,0,90.84,115a2.94,2.94,0,0,0-3.33.37,5.84,5.84,0,0,0-1,1.73c-.1.23-.31.48-.53.38a.42.42,0,0,1-.18-.22c-.69-1.41,0-3.06.78-4.44l1.19-2.23a8.27,8.27,0,0,1,.6-1,2.88,2.88,0,0,0,.42-.63,4.34,4.34,0,0,0,.12-.87,3.65,3.65,0,0,1,.42-1.14A86.78,86.78,0,0,1,96.12,95a19.05,19.05,0,0,0,1.38-2c.68-1.23,1.07-2.68,2.14-3.59,1.38-1.17,3.45-1.06,5.16-.46,2.7.95,4.36,3.52,6.45,5.48a63.06,63.06,0,0,1,7.21,7.5c1.74,2.25,3.21,4.78,5.31,6.64a11.79,11.79,0,0,0,1.31,1,37.17,37.17,0,0,1,10.38,9.81,12.25,12.25,0,0,1,1.34,2.29,5.18,5.18,0,0,1,.35,1.16A3.35,3.35,0,0,1,135.94,126.24Z"/><path id="Path_389" data-name="Path 389" class="cls-17" d="M135.94,126.24a5.07,5.07,0,0,1-2.56.58l-1.14.06L130,127a16.64,16.64,0,0,1-5.67-.36,15.34,15.34,0,0,1-3.2-1.51l-.43-.26c-.66-.39-1.31-.8-2-1.22.13-2.8,4.33-5,9.47-5,3.84,0,7.15,1.24,8.64,3a5.18,5.18,0,0,1,.35,1.16A3.39,3.39,0,0,1,135.94,126.24Z"/><path id="Path_390" data-name="Path 390" class="cls-9" d="M133.32,91.46a9.43,9.43,0,0,0-.93,2c-.14.71.33,1.62,1.05,1.54a.23.23,0,0,1,.16,0,.2.2,0,0,1,.06.13c.16.93-.79,1.7-.92,2.64a7,7,0,0,0,.12,1.44,5,5,0,0,1-1.27,3.25c-2.37,3.11-5.86,5.17-9.37,6.91,4,2.48,8.81,3.43,13.46,4.34a1.37,1.37,0,0,0,.75,0,1,1,0,0,0,.47-1,10.32,10.32,0,0,1-.06-1.11,2.51,2.51,0,0,1,1.3-1.72,9.3,9.3,0,0,0,1.85-1.23,5.63,5.63,0,0,0,1.1-2.13,20.53,20.53,0,0,1,2.2-5A12.88,12.88,0,0,0,144.88,99a6.35,6.35,0,0,0,.18-3,5.63,5.63,0,0,0-.71-2.37c-.36-.57-.88-1-1.2-1.63-.8-1.54,0-3.57-.88-5.08a4.81,4.81,0,0,0-2.42-1.81,9.45,9.45,0,0,0-2.79-.83,5.31,5.31,0,0,0-2.46.44c-.73.26-.8.69-.89,1.46C133.52,88,134.06,89.81,133.32,91.46Z"/><path id="Path_391" data-name="Path 391" class="cls-9" d="M134,91.89a9.43,9.43,0,0,0-.93,2c-.14.71.33,1.62,1.05,1.54a.15.15,0,0,1,.22.14c.16.94-.79,1.7-.92,2.65a6.85,6.85,0,0,0,.12,1.43,5,5,0,0,1-1.27,3.25c-2.37,3.12-5.86,5.17-9.37,6.92,4,2.47,8.81,3.42,13.46,4.33a1.2,1.2,0,0,0,.75,0,1,1,0,0,0,.47-.94,10.65,10.65,0,0,1-.06-1.12,2.51,2.51,0,0,1,1.31-1.71,10,10,0,0,0,1.85-1.24A5.54,5.54,0,0,0,141.8,107a20.71,20.71,0,0,1,2.2-5,12.59,12.59,0,0,0,1.59-2.54,6.36,6.36,0,0,0,.19-3,5.82,5.82,0,0,0-.71-2.37c-.36-.57-.89-1-1.2-1.63-.81-1.54-2.68,2.6-3.54,1.09-.51-.89,1.17-7.57.23-8a9.36,9.36,0,0,0-2.79-.83,5.6,5.6,0,0,0-2.46.44c-.72.26-.8.69-.89,1.46C134.23,88.38,134.77,90.24,134,91.89Z"/><path id="Path_392" data-name="Path 392" class="cls-8" d="M133.6,91.46a10,10,0,0,0-.93,2c-.14.71.33,1.62,1.05,1.54a.23.23,0,0,1,.16,0,.21.21,0,0,1,.07.13c.15.93-.79,1.7-.93,2.64a7,7,0,0,0,.12,1.44,5.06,5.06,0,0,1-1.26,3.25c-2.38,3.11-5.87,5.17-9.38,6.91,4,2.48,8.81,3.43,13.47,4.34a1.33,1.33,0,0,0,.74,0,1,1,0,0,0,.47-1,10.32,10.32,0,0,1-.06-1.11,2.55,2.55,0,0,1,1.31-1.72,9.92,9.92,0,0,0,1.85-1.23,5.63,5.63,0,0,0,1.1-2.13,20.53,20.53,0,0,1,2.2-5A12.88,12.88,0,0,0,145.17,99a6.36,6.36,0,0,0,.19-3,5.64,5.64,0,0,0-.72-2.37c-.36-.57-.88-1-1.2-1.63-.8-1.54,0-3.57-.87-5.08a4.87,4.87,0,0,0-2.43-1.81,9.45,9.45,0,0,0-2.79-.83,5.31,5.31,0,0,0-2.46.44c-.72.26-.79.69-.89,1.46C133.8,88,134.34,89.81,133.6,91.46Z"/><path id="Path_393" data-name="Path 393" class="cls-16" d="M94.85,128.23a2.36,2.36,0,0,0-.36-.79,9.11,9.11,0,0,1-1.07-1.6c-.21-.54-.19-1.15-.38-1.71a1.65,1.65,0,0,0-.56-.79.87.87,0,0,0-.54-.19l-.17,0c-.39.09-.65.45-1,.73a2.36,2.36,0,0,1-1,.56,8.92,8.92,0,0,1-1.24-.29h0a9.54,9.54,0,0,1-3.22-1.68c-.12-.09-.25-.2-.38-.28a1,1,0,0,0-.71-.19,1.28,1.28,0,0,0-.56.33l-1.37,1.12c-.62.5-1.22,1-1.79,1.59-.21.21-.41.43-.62.66,1.1.63,2.2,1.23,3.32,1.82l.61.31c.76.39,1.52.76,2.28,1.12,1.67.79,3.35,1.52,5.06,2.2.71-.1,1.42-.22,2.13-.34a1.82,1.82,0,0,0,.65-.2,2,2,0,0,0,.74-1.12,3.06,3.06,0,0,0,.2-1A1,1,0,0,0,94.85,128.23Zm-5.22-3.75a2.26,2.26,0,0,1-.82,0Z"/><path id="Path_394" data-name="Path 394" class="cls-9" d="M135.94,126.24a5.07,5.07,0,0,1-2.56.58l-1.14.06a6.79,6.79,0,0,1-3.34-3.22c-.37-.81-.63-1.79-1.43-2.17a.65.65,0,0,0-.31-.08,1,1,0,0,0-.61.34,14.36,14.36,0,0,1-5.9,3.11,31,31,0,0,1-5.47-4,27.35,27.35,0,0,1-4.06-5c.78-.38,1.48-.73,2.3-1.06a29.63,29.63,0,0,0,7.45-4.74,3.47,3.47,0,0,1,1.93-1,2.12,2.12,0,0,0,.44,0,.89.89,0,0,0,.54-.48,12.79,12.79,0,0,0,1.31,1,37.21,37.21,0,0,1,10.39,9.81,9.12,9.12,0,0,1,1.69,3.45A3.39,3.39,0,0,1,135.94,126.24Z"/><path id="Path_395" data-name="Path 395" class="cls-9" d="M101.31,126a1.33,1.33,0,0,1-.36.67,1.43,1.43,0,0,1-.84.27c-.3,0-.56,0-.85,0a3.31,3.31,0,0,1-.33-.32,3.76,3.76,0,0,1-.69-1.42,15.73,15.73,0,0,1-.85-3.52,3.53,3.53,0,0,1,0-.46,2.5,2.5,0,0,1,1.53-.1c.27.12.54.52.79.72a9.33,9.33,0,0,0,1,.72,1.31,1.31,0,0,1,.41.3,1.21,1.21,0,0,1,.22.49A5,5,0,0,1,101.31,126Z"/><path id="Path_396" data-name="Path 396" class="cls-16" d="M149.34,120.1,147,124.46a4.42,4.42,0,0,1-3.94,2.8,23,23,0,0,1-7.66.74c-2.55-.34-5.12-1.7-6.19-4.06-.37-.8-.63-1.78-1.42-2.17a.72.72,0,0,0-.32-.08,1,1,0,0,0-.61.34,14.31,14.31,0,0,1-5.94,3.13,43,43,0,0,1-6.67,1.14c-1.86.22-3.79.22-5.67.27-.42,0-1,.09-1.08.49,0,.14-.06.27-.1.4-.15.34-.63.3-1,.38a4.82,4.82,0,0,0-1.26.73c-1.08.62-2.44.28-3.64-.07a2.18,2.18,0,0,1-.66-.29,4.37,4.37,0,0,1-.67-.82c-.23-.27-.55-.48-.79-.73a3.83,3.83,0,0,1-.69-1.42,15.81,15.81,0,0,1-.85-3.53,2.17,2.17,0,0,1,.48-1.83,2.35,2.35,0,0,1,1.45-.49,1.24,1.24,0,0,0,.5-.1c.44-.21.5-.81.77-1.21a1.25,1.25,0,0,1,1.77-.2,1,1,0,0,1,.21.2,3.37,3.37,0,0,0,.22.35c.42.52,1.24.35,1.88.12l1.88-.66a41.11,41.11,0,0,0,4.15-1.64c.89-.44,1.66-.84,2.58-1.2a29.35,29.35,0,0,0,7.45-4.74,3.48,3.48,0,0,1,1.92-1,2.27,2.27,0,0,0,.45,0c.67-.18.68-1.21,1.25-1.59s1.62.27,2.39,0c2.72-.86,6-.77,8.08,1.2.9.86,1.58,2,2.72,2.51a5.34,5.34,0,0,0,2.6.2,6.27,6.27,0,0,1,1.5-.06,5.42,5.42,0,0,1,3.25,2.24A27.78,27.78,0,0,1,149.34,120.1Z"/><path id="Path_397" data-name="Path 397" class="cls-9" d="M94.89,128.5a2.89,2.89,0,0,1-.21,1,1.45,1.45,0,0,1-1.38,1.31c-.71.12-1.43.24-2.13.34-1.71-.67-3.39-1.4-5.06-2.19.48-.09,1-.18,1.42-.24.84-.12,1.68-.16,2.52-.26.42-.05.83-.12,1.24-.21a28.31,28.31,0,0,1,3.17-.81h0a2.27,2.27,0,0,1,.36.79A1.26,1.26,0,0,1,94.89,128.5Z"/><path id="Path_398" data-name="Path 398" class="cls-9" d="M136,80.66a1.07,1.07,0,0,1,0,.47.35.35,0,0,1-.36.25c.21,0,.14-1.52.11-1.67A1.94,1.94,0,0,1,136,80.66Z"/><path id="Path_399" data-name="Path 399" class="cls-9" d="M133.53,64.91a8.29,8.29,0,0,0-1.45,1.51c-1.31,1.82-1.8,4.44-3.85,5.35a6.41,6.41,0,0,1-3.68.1,12.9,12.9,0,0,1-5.24-1.77,4.66,4.66,0,0,1-1.55-1.8,2.76,2.76,0,0,0,2.06-.94,11.14,11.14,0,0,0,1.43-1.64,13.91,13.91,0,0,0,1.19-2,16.7,16.7,0,0,0,1.26-4.07s0-.07,0-.1a34.16,34.16,0,0,0,.08-8.69c-1.83,4-7.65,3.64-11,1.22a9.17,9.17,0,1,1,17.64,5,9.28,9.28,0,0,1-1.88,3.48A4.3,4.3,0,0,0,130,63.3a8.48,8.48,0,0,0,2,.82A9.82,9.82,0,0,1,133.53,64.91Z"/><path id="Path_400" data-name="Path 400" class="cls-16" d="M123.78,50.54a34,34,0,0,1-.09,8.79,13.7,13.7,0,0,1-3.87,7.75,2.8,2.8,0,0,1-2.06,1c1.15,2.4,4.16,3.12,6.79,3.56a6.44,6.44,0,0,0,3.69-.1c2-.91,2.53-3.53,3.84-5.34,1.76-2.44,5-3.42,6.73-5.9a9,9,0,0,0,1.31-3.57c.66-3.79-.13-8-3-10.66a47.1,47.1,0,0,0-4.1-2.88c-1-.72-1.86-1.57-2.85-2.27A12.46,12.46,0,0,0,120,39a1.89,1.89,0,0,0-1,.52,2.13,2.13,0,0,0-.4,1A6.83,6.83,0,0,1,114.34,45c-1.4.48-3.19.67-3.8,2a2.92,2.92,0,0,0,.2,2.4C112.77,53.69,121.47,55.59,123.78,50.54Z"/><path id="Path_401" data-name="Path 401" class="cls-9" d="M121.53,92.14a5,5,0,0,0,3.27-3.94q.15,1.65.42,3.3a6,6,0,0,0,.42,1.55,3.19,3.19,0,0,0,3,1.79Z"/><path id="Path_402" data-name="Path 402" class="cls-8" d="M123.73,107.76a75.12,75.12,0,0,1-5.33-6.07c-.93-1.06-1.16-2.07-2.21-3-.08.23-1,.42-1.29.44.14,1,1.08,1.71,2,2.31a10,10,0,0,1,2.61,1.94c.56.71.77,1.58,1.27,2.33A5.73,5.73,0,0,0,123.73,107.76Z"/><path id="Path_403" data-name="Path 403" class="cls-8" d="M149.59,120.23a28.3,28.3,0,0,0-4.13-6.41,5.61,5.61,0,0,0-3.35-2.29,6.54,6.54,0,0,0-1.53.06l-.29,0a15.92,15.92,0,0,1,2.92,1.73c2.6,2,4.34,4.81,6,7.64Z"/><g id="Group_8" data-name="Group 8" class="cls-13"><path id="Path_404" data-name="Path 404" d="M119.6,39.11a1.33,1.33,0,0,0-.6.39,2.3,2.3,0,0,0-.4,1,6.63,6.63,0,0,1-.48,1.21A6.84,6.84,0,0,0,119.6,39.11Z"/><path id="Path_405" data-name="Path 405" d="M123.78,50.52a34,34,0,0,1-.09,8.78,15.54,15.54,0,0,1-1.84,5.2,14.48,14.48,0,0,0,2.88-6.69,34,34,0,0,0,.09-8.79c-2.3,5-11,3.16-13-1.1a3.39,3.39,0,0,1-.35-1.9,2.25,2.25,0,0,0-.89,1,2.9,2.9,0,0,0,.2,2.39C112.77,53.67,121.47,55.57,123.78,50.52Z"/><path id="Path_406" data-name="Path 406" d="M129.27,70a6.41,6.41,0,0,1-3.68.1c-2.26-.38-4.8-1-6.2-2.65a2.3,2.3,0,0,1-1.62.58c1.14,2.4,4.15,3.12,6.78,3.56a6.36,6.36,0,0,0,3.69-.1,4.89,4.89,0,0,0,2.18-2.31A3.46,3.46,0,0,1,129.27,70Z"/><path id="Path_407" data-name="Path 407" d="M133.12,64.62c-.21.3-.4.61-.58.92,1.83-2,4.72-3,6.27-5.32a5.2,5.2,0,0,0,.42-.72C137.45,61.45,134.68,62.46,133.12,64.62Z"/></g></g></g></g></svg>