<svg xmlns="http://www.w3.org/2000/svg" xmlns:xlink="http://www.w3.org/1999/xlink" viewBox="0 0 149.85 149.85"><defs><style>.cls-1{fill:none;}.cls-2{clip-path:url(#clip-path);}.cls-3{fill:#fcee21;}</style><clipPath id="clip-path" transform="translate(0 0)"><rect class="cls-1" width="149.85" height="149.85"/></clipPath></defs><g id="Layer_2" data-name="Layer 2"><g id="Layer_1-2" data-name="Layer 1"><g class="cls-2"><g id="Group_447" data-name="Group 447"><path id="Path_1314" data-name="Path 1314" class="cls-3" d="M134,149.85H15.88A15.85,15.85,0,0,1,0,134H0V15.81A15.85,15.85,0,0,1,15.88,0H134a15.85,15.85,0,0,1,15.89,15.81V134A15.85,15.85,0,0,1,134,149.85" transform="translate(0 0)"/><path id="Path_1315" data-name="Path 1315" d="M43.68,84.81a7.78,7.78,0,0,0,1.58,5.24,5.8,5.8,0,0,0,4.61,1.81A5.93,5.93,0,0,0,53,91.07a6.71,6.71,0,0,0,2.09-2,10.45,10.45,0,0,0,1.14-3,17,17,0,0,0,.38-3.55V36H68.5V82.49A23.92,23.92,0,0,1,67,91.62a16.89,16.89,0,0,1-4.09,6.06,16.06,16.06,0,0,1-6,3.25,25.61,25.61,0,0,1-7.12,1,21.88,21.88,0,0,1-8.28-1.41,15.24,15.24,0,0,1-5.54-3.73,14.67,14.67,0,0,1-3.09-5.51,21.42,21.42,0,0,1-1-6.46v-6H43.68Z" transform="translate(0 0)"/><path id="Path_1316" data-name="Path 1316" d="M85.54,83a8.16,8.16,0,0,0,2.62,6.43c1.74,1.56,4.21,2.33,7.42,2.33a11.2,11.2,0,0,0,7.12-2.09,8.24,8.24,0,0,0,1.61-9.85,9.94,9.94,0,0,0-2.41-2.64,21.25,21.25,0,0,0-3.27-1.81c-1.16-.53-2.3-1-3.4-1.47l-6.45-2.66A27.44,27.44,0,0,1,78.16,64a16.78,16.78,0,0,1-4-11.36,19.15,19.15,0,0,1,1.27-7.18,14.17,14.17,0,0,1,3.81-5.48,17.08,17.08,0,0,1,6.36-3.45,29.32,29.32,0,0,1,8.83-1.2q10.59,0,15.57,4.28t5,12.14v3H103.42V51.77A5.63,5.63,0,0,0,101,47.05a10.45,10.45,0,0,0-6.42-1.78,10.12,10.12,0,0,0-6.16,1.85A6.34,6.34,0,0,0,86,52.59a6.52,6.52,0,0,0,.79,3.18,9.93,9.93,0,0,0,2.16,2.71,17.14,17.14,0,0,0,3.23,2.25,37.63,37.63,0,0,0,4.06,1.92l6.39,2.6A42.92,42.92,0,0,1,108,68a21.31,21.31,0,0,1,4.61,3.69,17.7,17.7,0,0,1,3.12,4.89,15.62,15.62,0,0,1,1.21,6.26q0,9-5.33,14t-16.12,5a29.76,29.76,0,0,1-10.21-1.5,17,17,0,0,1-6.56-4.11,15.06,15.06,0,0,1-3.54-6,24.65,24.65,0,0,1-1.07-7.29V79.82H85.54Z" transform="translate(0 0)"/></g></g></g></g></svg>