<svg xmlns="http://www.w3.org/2000/svg" xmlns:xlink="http://www.w3.org/1999/xlink" viewBox="0 0 147.6 147.21"><defs><style>.cls-1{fill:none;}.cls-2{clip-path:url(#clip-path);}.cls-3{fill:#c7b299;}.cls-4{fill:#fff;}.cls-5{fill:#21609b;}</style><clipPath id="clip-path" transform="translate(0 -0.19)"><rect class="cls-1" width="147.6" height="147.6"/></clipPath></defs><g id="Layer_2" data-name="Layer 2"><g id="Layer_1-2" data-name="Layer 1"><g id="Group_460" data-name="Group 460"><g class="cls-2"><g id="Group_459" data-name="Group 459"><path id="Path_1325" data-name="Path 1325" class="cls-3" d="M132,147.4H15.64A15.58,15.58,0,0,1,0,131.87H0V15.73A15.59,15.59,0,0,1,15.64.19H132A15.61,15.61,0,0,1,147.6,15.73h0V131.87A15.6,15.6,0,0,1,132,147.4h0" transform="translate(0 -0.19)"/><path id="Path_1326" data-name="Path 1326" class="cls-4" d="M124.79,62.26l4.75,0L120,75.13a5.68,5.68,0,0,0-.77,1.07,24.74,24.74,0,0,0-.93,3.37l-4.34,0a17.83,17.83,0,0,0,.64-3.69,13.58,13.58,0,0,0-.92-3.37c-.33-1.14-.77-3.36-.77-3.36h4.47l.61,2.44,6.81-9.35" transform="translate(0 -0.19)"/><path id="Path_1327" data-name="Path 1327" class="cls-4" d="M115.79,64.77c.88.52,1.41,3.42,1.41,3.42s-4.58.07-7.08.07H108l-2.61,11.31h-4s2.49-12.3,3.08-14.53c.19-.72,1.31-.59,3.19-.59h3c1.94,0,4.21-.25,5.17.32M97.15,70.28a2.43,2.43,0,0,0-.43-1.57c-.47-.72-.9-.88-2.13-.92-3.48-.11-3.42,2.45-3.42,2.45Zm3.77-2.93c.51,1.82-.46,6.11-.46,6.11s-5.08-.08-7.86,0c-.86,0-1.9-.09-2.16.31-.36.56.14,1.42.56,1.78a3.4,3.4,0,0,0,1.76.51,58,58,0,0,0,7,.08l-.82,3.59s-6.68.34-10-.46a3.37,3.37,0,0,1-1.7-.91c-.11-.13-.21-.29-.32-.43a4.13,4.13,0,0,1-.45-.79c-.76-2,.09-5.89.93-8,.09-.23.21-.54.34-.8s.3-.69.43-.88.19-.21.28-.34a4.78,4.78,0,0,1,.34-.42,5.6,5.6,0,0,1,1.08-.92,10.25,10.25,0,0,1,6.93-1.53,5.34,5.34,0,0,1,3.7,1.68,5.6,5.6,0,0,1,.46,1.38ZM82.55,64.43l3.88,0s-2.16,10.2-3.26,15.17H78.7c-3.12,0-5.9.38-7.09-1.84s0-5.69.47-8.1c.36-1.71,1.13-5.19,1.13-5.19l4,0s-1.14,5.43-1.61,8.13c-.17,1-.52,1.88-.15,2.6s.83.73,2.31.77h2l2.77-11.47M64.37,71.77a14.56,14.56,0,0,0,.92-4.28,3.69,3.69,0,0,0-2-2.91,5.17,5.17,0,0,0-5.24,1.23,8.53,8.53,0,0,0-1.85,4.43,6.59,6.59,0,0,0,0,4c.93,1.93,3.82,1.51,6.93,1.53.47-1.23.85-2.62,1.24-4Zm5.39-5.66c.44,3.2-1.26,6.74-2.43,9.81,1.19.11,2.25,0,2.32.07s-.8,3.67-1.11,3.68c-1,0-4.09,0-5.4,0-4.28,0-8.28.28-10.33-1.83a6.73,6.73,0,0,1-1.54-3.37,14.26,14.26,0,0,1,.47-5.2,15.79,15.79,0,0,1,1.54-4c1.8-3.11,4.92-5.42,10.16-4.89a9.81,9.81,0,0,1,3.39,1.07l.34.24a6.62,6.62,0,0,1,2.59,4.35ZM50.83,64.45c-.26,1.17-.52,2.49-.79,3.65h-4.3c.33-1.29.58-2.56.92-3.67l4.18,0m-5.26,4.72h4.16c-.54,3-1.62,7.81-2.46,11.16-.53,2.1-.88,3.64-2.31,4.74-.13.1-.2.06-.31.16a6,6,0,0,1-2.15.61,32.45,32.45,0,0,1-3.69,0c.35-1.29.75-2.82,1.07-4,3.28.4,3.37-2.69,4-5.65.37-1.72,1.49-6.35,1.7-7" transform="translate(0 -0.19)"/><path id="Path_1328" data-name="Path 1328" class="cls-5" d="M35.87,77l-.09.23a8.7,8.7,0,0,1-8,4.81,11.33,11.33,0,0,1-4.63-.92,11.88,11.88,0,0,1-5.54-5.2A8.6,8.6,0,0,1,19,65.41c.05,0-.4.69-.35.69l-.09.3c-2.38,7.39,5,13.73,12.08,13A9.39,9.39,0,0,0,35.88,77" transform="translate(0 -0.19)"/><path id="Path_1329" data-name="Path 1329" class="cls-5" d="M31.56,73.91a6.85,6.85,0,0,0,4.78-2c-1,2.45-3.78,4-7.55,3.52a8.08,8.08,0,0,1-6.47-6.73c-.23-2.3.58-3.67,1.91-5.33a5.43,5.43,0,0,0-.68,2c-.51,5,4,8.53,8,8.56" transform="translate(0 -0.19)"/><path id="Path_1330" data-name="Path 1330" class="cls-5" d="M36.16,67.73a5.62,5.62,0,0,1-2.6,2A5,5,0,0,1,28,67.48a6.28,6.28,0,0,1-.45-1,4.18,4.18,0,0,1,.89-4.06,5.05,5.05,0,0,0-.2,2.67A5.73,5.73,0,0,0,29,66.71a4.3,4.3,0,0,0,1.7,1.49,4.4,4.4,0,0,0,.85.4c.71.21,2.2.75,4.61-.87" transform="translate(0 -0.19)"/></g></g></g></g></g></svg>