<svg xmlns="http://www.w3.org/2000/svg" xmlns:xlink="http://www.w3.org/1999/xlink" viewBox="0 0 147.85 147.41"><defs><style>.cls-1{fill:none;}.cls-2{clip-path:url(#clip-path);}.cls-3{fill:#662d91;}.cls-4{fill:#fff;}</style><clipPath id="clip-path" transform="translate(0 -0.22)"><rect class="cls-1" width="147.85" height="147.85"/></clipPath></defs><g id="Layer_2" data-name="Layer 2"><g id="Layer_1-2" data-name="Layer 1"><g id="Group_464" data-name="Group 464"><g class="cls-2"><g id="Group_463" data-name="Group 463"><path id="Path_1334" data-name="Path 1334" class="cls-3" d="M132.18,147.63H15.67A15.61,15.61,0,0,1,0,132.08V15.77A15.61,15.61,0,0,1,15.67.22H132.18a15.61,15.61,0,0,1,15.67,15.55h0V132.08a15.61,15.61,0,0,1-15.67,15.55h0" transform="translate(0 -0.22)"/><path id="Path_1335" data-name="Path 1335" class="cls-4" d="M40.43,80.48a3.54,3.54,0,0,0,.73,2.39,2.7,2.7,0,0,0,2.16.84,2.75,2.75,0,0,0,2.4-1.23,3.83,3.83,0,0,0,.53-1.33,7.44,7.44,0,0,0,.16-1.56V61.88h3.94V79.59A9.21,9.21,0,0,1,49.77,83a5.68,5.68,0,0,1-3.85,3.5,9.6,9.6,0,0,1-2.66.37,8.15,8.15,0,0,1-3.13-.53A6,6,0,0,1,38.05,85a5.31,5.31,0,0,1-1.18-2.06,8,8,0,0,1-.35-2.43V78.33h3.91Z" transform="translate(0 -0.22)"/><path id="Path_1336" data-name="Path 1336" class="cls-4" d="M56.54,79.8a3.72,3.72,0,0,0,1.11,2.89,4.6,4.6,0,0,0,3.25,1A4.71,4.71,0,0,0,64,82.78a3.34,3.34,0,0,0,1.12-2.72,2.89,2.89,0,0,0-.38-1.52,4,4,0,0,0-1-1.07,6.52,6.52,0,0,0-1.36-.77L61,76.05,58.36,75a10.9,10.9,0,0,1-4.06-2.66,6,6,0,0,1-1.49-4.19,6.09,6.09,0,0,1,1.93-4.75,8.36,8.36,0,0,1,5.76-1.76q4,0,5.88,1.62a5.7,5.7,0,0,1,1.87,4.55v1h-3.8v-1a2.68,2.68,0,0,0-1-2.19,4.43,4.43,0,0,0-2.86-.83A5.65,5.65,0,0,0,59,65a3.68,3.68,0,0,0-1.22.61,2.94,2.94,0,0,0-.83,1,3.38,3.38,0,0,0-.31,1.47A2.9,2.9,0,0,0,57,69.55a3.29,3.29,0,0,0,.89,1.07,6.33,6.33,0,0,0,1.36.88c.54.28,1.13.54,1.78.8l2.56,1a14.42,14.42,0,0,1,2.08,1,8.69,8.69,0,0,1,1.72,1.35,6.35,6.35,0,0,1,1.13,1.77A5.66,5.66,0,0,1,69,79.73a7,7,0,0,1-2,5.3q-2,1.89-6.1,1.89A11.34,11.34,0,0,1,57,86.35a6.5,6.5,0,0,1-2.48-1.55,5.89,5.89,0,0,1-1.32-2.3,9.42,9.42,0,0,1-.4-2.74V78.71h3.78Z" transform="translate(0 -0.22)"/><path id="Path_1337" data-name="Path 1337" class="cls-4" d="M79.91,61.61a10.75,10.75,0,0,1,3.89.62,5.34,5.34,0,0,1,2.51,2.06,10.19,10.19,0,0,1,1.35,3.9,46.39,46.39,0,0,1,0,12.12,10.61,10.61,0,0,1-1.32,3.9,5.3,5.3,0,0,1-2.52,2.08,12.43,12.43,0,0,1-7.77,0,5.23,5.23,0,0,1-2.51-2.08,10.25,10.25,0,0,1-1.35-3.9,46.39,46.39,0,0,1,0-12.12,10.19,10.19,0,0,1,1.35-3.9A5.1,5.1,0,0,1,76,62.23a10.75,10.75,0,0,1,3.89-.62m0,22.1a5.11,5.11,0,0,0,2-.33,2.73,2.73,0,0,0,1.34-1.32A9.34,9.34,0,0,0,84,79.18a40.76,40.76,0,0,0,.24-4.94,40.1,40.1,0,0,0-.24-4.9,9.21,9.21,0,0,0-.74-2.87,2.71,2.71,0,0,0-1.34-1.33,6,6,0,0,0-3.94,0,2.6,2.6,0,0,0-1.32,1.33,8.67,8.67,0,0,0-.77,2.87,40.1,40.1,0,0,0-.24,4.9,40.76,40.76,0,0,0,.24,4.94,8.72,8.72,0,0,0,.77,2.88,2.58,2.58,0,0,0,1.32,1.32,5.3,5.3,0,0,0,2,.33" transform="translate(0 -0.22)"/><path id="Path_1338" data-name="Path 1338" class="cls-4" d="M110,61.9V86.44h-5.29l-9.2-20.21V86.44H91.76V61.9h5.45l9.07,20v-20Z" transform="translate(0 -0.22)"/><path id="Path_1339" data-name="Path 1339" class="cls-4" d="M33.07,110.9H31.73A4.66,4.66,0,0,1,27.6,109a11.86,11.86,0,0,1-1.76-5.14,85.35,85.35,0,0,1-.48-10.36q0-7.12-.24-10.08A11.75,11.75,0,0,0,24,78.79,3.2,3.2,0,0,0,21.33,77V69.53a3,3,0,0,0,2.82-2,13.35,13.35,0,0,0,1-4.9q.12-2.9.16-10.92c0-5.35.31-9,.86-10.83a9.93,9.93,0,0,1,2-4,4.68,4.68,0,0,1,3.55-1.22h1.35v7.11H32.2a2.5,2.5,0,0,0-2,.8,4.51,4.51,0,0,0-.83,2.41q-.18,1.62-.18,5.89,0,11.79-.75,15.43a12.45,12.45,0,0,1-2.94,6,9.26,9.26,0,0,1,2,3.12,19.85,19.85,0,0,1,1.27,5.14,87.76,87.76,0,0,1,.42,10.25c0,4.74.05,7.71.16,8.89a3.94,3.94,0,0,0,.83,2.45,4.36,4.36,0,0,0,2.94.68Z" transform="translate(0 -0.22)"/><path id="Path_1340" data-name="Path 1340" class="cls-4" d="M116.84,103.78a4.4,4.4,0,0,0,2.93-.67,4,4,0,0,0,.83-2.45q.16-1.78.16-8.9a87.5,87.5,0,0,1,.42-10.24,19.85,19.85,0,0,1,1.27-5.14,9.3,9.3,0,0,1,2-3.13,12.36,12.36,0,0,1-2.94-6q-.75-3.63-.75-15.42c0-2.85-.05-4.81-.17-5.89a4.55,4.55,0,0,0-.84-2.41,2.45,2.45,0,0,0-2-.79h-.87V35.61h1.35a4.7,4.7,0,0,1,3.55,1.22,9.93,9.93,0,0,1,2,4q.81,2.81.86,10.83c0,5.35.08,9,.16,10.92a12.92,12.92,0,0,0,1,4.9,3,3,0,0,0,2.81,2V77a3.23,3.23,0,0,0-2.68,1.82,11.79,11.79,0,0,0-1.11,4.63q-.21,3-.24,10.08a83.36,83.36,0,0,1-.47,10.36,11.91,11.91,0,0,1-1.77,5.14,4.63,4.63,0,0,1-4.12,1.9h-1.35Z" transform="translate(0 -0.22)"/></g></g></g></g></g></svg>