<svg xmlns="http://www.w3.org/2000/svg" viewBox="0 0 392.6 191.35"><defs><style>.cls-1,.cls-2{fill:none;stroke-miterlimit:10;stroke-width:5px;}.cls-1{stroke:#afafaf;}.cls-2{stroke:#a9a9a9;}.cls-3{fill:#97e173;}.cls-4{fill:#30b2ff;}.cls-5{fill:#ffbe4c;}.cls-6{fill:#ff5d5a;}</style></defs><g id="Layer_2" data-name="Layer 2"><g id="Layer_7" data-name="Layer 7"><path d="M167.73,183.45l-1.06.62a1.81,1.81,0,0,0-.56-.67,1.34,1.34,0,0,0-.73-.18,1.31,1.31,0,0,0-.9.31,1,1,0,0,0-.35.76c0,.42.31.76.94,1l.86.35a3.68,3.68,0,0,1,1.54,1,2.36,2.36,0,0,1,.48,1.5,2.65,2.65,0,0,1-.79,2,2.75,2.75,0,0,1-2,.78,2.64,2.64,0,0,1-1.85-.66,3,3,0,0,1-.9-1.88l1.32-.29a2.1,2.1,0,0,0,.31,1,1.36,1.36,0,0,0,1.17.56,1.35,1.35,0,0,0,1-.41,1.43,1.43,0,0,0,.4-1,1.64,1.64,0,0,0-.07-.46,1.26,1.26,0,0,0-.22-.39,1.77,1.77,0,0,0-.38-.33,4.16,4.16,0,0,0-.56-.29l-.84-.35a2.4,2.4,0,0,1-1.77-2.19,2.1,2.1,0,0,1,.74-1.63,2.71,2.71,0,0,1,1.86-.66A2.59,2.59,0,0,1,167.73,183.45Z"/><path d="M169.09,186.44a4.22,4.22,0,0,1,1.34-3.13,4.37,4.37,0,0,1,3.2-1.31,4.52,4.52,0,0,1,4.49,4.49,4.25,4.25,0,0,1-1.33,3.16,4.56,4.56,0,0,1-6.23.14A4.22,4.22,0,0,1,169.09,186.44Zm1.32,0a3.14,3.14,0,0,0,1,2.36,3.19,3.19,0,0,0,4.5,0,3.33,3.33,0,0,0,0-4.63,3.21,3.21,0,0,0-4.54,0A3.11,3.11,0,0,0,170.41,186.45Z"/><path d="M181.06,182.16v7.41h2.54v1.22h-3.84v-8.63Z"/><path d="M185.88,182.16v5.2a2.92,2.92,0,0,0,.36,1.63,2,2,0,0,0,3.06,0,2.85,2.85,0,0,0,.36-1.63v-5.2H191v5.56a3.14,3.14,0,0,1-.84,2.25,3.31,3.31,0,0,1-4.7,0,3.14,3.14,0,0,1-.85-2.25v-5.56Z"/><path d="M195.42,183.38v7.41h-1.31v-7.41h-2v-1.22h5.27v1.22Z"/><path d="M199.86,182.16v8.63h-1.3v-8.63Z"/><path d="M201.51,186.44a4.21,4.21,0,0,1,1.33-3.13A4.39,4.39,0,0,1,206,182a4.51,4.51,0,0,1,4.49,4.49,4.25,4.25,0,0,1-1.33,3.16A4.43,4.43,0,0,1,206,191a4.48,4.48,0,0,1-3-1.16A4.25,4.25,0,0,1,201.51,186.44Zm1.31,0a3.2,3.2,0,0,0,5.47,2.34,3.36,3.36,0,0,0,0-4.63,3.07,3.07,0,0,0-2.27-.94,3.19,3.19,0,0,0-3.21,3.23Z"/><path d="M212.17,190.79v-9.22l6.3,6.59v-6h1.3v9.16l-6.29-6.57v6Z"/><path d="M228.77,186l1.56,1.88,0-.06.47-.53.43-.53.85.87a6,6,0,0,1-.41.52l-.61.68,1.6,2h-1.62l-.86-1a3.46,3.46,0,0,1-2.47,1.22,2.75,2.75,0,0,1-1.94-.73,2.38,2.38,0,0,1-.79-1.82,2.53,2.53,0,0,1,1.25-2.15l.56-.39,0,0,.08-.06a2.65,2.65,0,0,1-.86-1.79,1.88,1.88,0,0,1,.57-1.42,2.09,2.09,0,0,1,1.5-.55,2.12,2.12,0,0,1,1.47.53,1.72,1.72,0,0,1,.58,1.34,1.75,1.75,0,0,1-.31,1A5.49,5.49,0,0,1,228.77,186Zm-1,.73-.08.05a6.9,6.9,0,0,0-1.09.89,1.09,1.09,0,0,0-.28.71,1.39,1.39,0,0,0,.43,1,1.41,1.41,0,0,0,1,.43,2.67,2.67,0,0,0,1.74-1Zm.27-1.65.11-.08a3.91,3.91,0,0,0,.45-.36,1.26,1.26,0,0,0,.26-.26.76.76,0,0,0,.17-.5.74.74,0,0,0-.23-.56.87.87,0,0,0-.61-.21.84.84,0,0,0-.6.22.66.66,0,0,0-.24.53,1.2,1.2,0,0,0,.3.75l.33.39Z"/><path d="M239.66,183.38v7.41h-1.3v-7.41h-2v-1.22h5.26v1.22Z"/><path d="M247.57,183.38h-3.46v2.08h3.36v1.22h-3.36v2.89h3.46v1.22h-4.76v-8.63h4.76Z"/><path d="M255.67,182.62v1.55a3.65,3.65,0,0,0-2.34-.95,3,3,0,0,0-2.25,1,3.21,3.21,0,0,0-.91,2.32,3.17,3.17,0,0,0,.91,2.3,3.06,3.06,0,0,0,2.25.93,2.75,2.75,0,0,0,1.17-.22,4.41,4.41,0,0,0,.56-.3c.19-.13.39-.28.61-.46v1.57a4.73,4.73,0,0,1-2.35.63,4.44,4.44,0,0,1-4.47-4.43,4.51,4.51,0,0,1,1.09-3,4.38,4.38,0,0,1,3.48-1.58A4.46,4.46,0,0,1,255.67,182.62Z"/><path d="M258.85,185.54h3.73v-3.38h1.3v8.63h-1.3v-4h-3.73v4h-1.3v-8.63h1.3Z"/><path d="M265.52,186.44a4.21,4.21,0,0,1,1.33-3.13,4.39,4.39,0,0,1,3.2-1.31,4.51,4.51,0,0,1,4.49,4.49,4.25,4.25,0,0,1-1.33,3.16A4.43,4.43,0,0,1,270,191a4.48,4.48,0,0,1-3-1.16A4.25,4.25,0,0,1,265.52,186.44Zm1.31,0a3.2,3.2,0,0,0,5.47,2.34,3.36,3.36,0,0,0,0-4.63,3.07,3.07,0,0,0-2.27-.94,3.19,3.19,0,0,0-3.21,3.23Z"/><path d="M276.18,190.79v-9.22l6.3,6.59v-6h1.3v9.16l-6.29-6.57v6Z"/><path d="M285.5,186.44a4.22,4.22,0,0,1,1.34-3.13A4.35,4.35,0,0,1,290,182a4.47,4.47,0,0,1,3.16,7.65,4.56,4.56,0,0,1-6.23.14A4.22,4.22,0,0,1,285.5,186.44Zm1.31,0a3.14,3.14,0,0,0,1,2.36,3.19,3.19,0,0,0,4.5,0,3.36,3.36,0,0,0,0-4.63,3.07,3.07,0,0,0-2.27-.94,3.19,3.19,0,0,0-3.21,3.23Z"/><path d="M297.47,182.16v7.41H300v1.22h-3.84v-8.63Z"/><path d="M300.46,186.44a4.22,4.22,0,0,1,1.34-3.13A4.35,4.35,0,0,1,305,182a4.47,4.47,0,0,1,3.16,7.65,4.56,4.56,0,0,1-6.23.14A4.22,4.22,0,0,1,300.46,186.44Zm1.31,0a3.14,3.14,0,0,0,1,2.36,3.19,3.19,0,0,0,4.5,0,3.36,3.36,0,0,0,0-4.63,3.07,3.07,0,0,0-2.27-.94,3.19,3.19,0,0,0-3.21,3.23Z"/><path d="M315.57,186.3h3.56v.28a5.6,5.6,0,0,1-.23,1.72,3.5,3.5,0,0,1-.75,1.3,3.92,3.92,0,0,1-3.06,1.36,4.2,4.2,0,0,1-3.1-1.31,4.5,4.5,0,0,1,5.11-7.24,5.32,5.32,0,0,1,1.65,1.34l-.93.89a3.14,3.14,0,0,0-2.59-1.42,3.11,3.11,0,0,0-2.3.95,3.14,3.14,0,0,0-.93,2.32,3.26,3.26,0,0,0,3.13,3.25,2.6,2.6,0,0,0,1.73-.65,2.33,2.33,0,0,0,.86-1.57h-2.15Z"/><path d="M322.08,182.16v8.63h-1.31v-8.63Z"/><path d="M328.92,183.38h-3.47v2.08h3.36v1.22h-3.36v2.89h3.47v1.22h-4.77v-8.63h4.77Z"/><path d="M335.51,183.45l-1.06.62a1.81,1.81,0,0,0-.56-.67,1.51,1.51,0,0,0-1.63.13,1,1,0,0,0-.35.76c0,.42.31.76.94,1l.86.35a3.68,3.68,0,0,1,1.54,1,2.36,2.36,0,0,1,.48,1.5,2.65,2.65,0,0,1-.79,2,2.74,2.74,0,0,1-2,.78,2.64,2.64,0,0,1-1.85-.66,3.1,3.1,0,0,1-.9-1.88l1.32-.29a2.21,2.21,0,0,0,.31,1,1.36,1.36,0,0,0,1.17.56,1.35,1.35,0,0,0,1-.41,1.43,1.43,0,0,0,.4-1,1.64,1.64,0,0,0-.07-.46,1.26,1.26,0,0,0-.22-.39,1.77,1.77,0,0,0-.38-.33,4.16,4.16,0,0,0-.56-.29l-.84-.35a2.4,2.4,0,0,1-1.77-2.19,2.08,2.08,0,0,1,.75-1.63,2.67,2.67,0,0,1,1.85-.66A2.59,2.59,0,0,1,335.51,183.45Z"/><path d="M51.63,183.45l-1.05.62a1.82,1.82,0,0,0-.57-.67,1.28,1.28,0,0,0-.72-.18,1.31,1.31,0,0,0-.9.31.94.94,0,0,0-.36.76c0,.42.32.76.94,1l.86.35a3.56,3.56,0,0,1,1.54,1,2.31,2.31,0,0,1,.49,1.5,2.65,2.65,0,0,1-.8,2,2.71,2.71,0,0,1-2,.78,2.68,2.68,0,0,1-1.86-.66,3.1,3.1,0,0,1-.9-1.88l1.32-.29a2.19,2.19,0,0,0,.32,1,1.48,1.48,0,0,0,2.18.15,1.39,1.39,0,0,0,.4-1,1.35,1.35,0,0,0-.07-.46,1.23,1.23,0,0,0-.21-.39,1.62,1.62,0,0,0-.39-.33,3.22,3.22,0,0,0-.56-.29l-.83-.35a2.4,2.4,0,0,1-1.77-2.19,2.1,2.1,0,0,1,.74-1.63A2.69,2.69,0,0,1,49.3,182,2.57,2.57,0,0,1,51.63,183.45Z"/><path d="M55.1,187.06l-2.82-4.9h1.5l2,3.45,2-3.45h1.5l-2.83,4.9v3.73H55.1Z"/><path d="M64.84,183.45l-1.05.62a1.82,1.82,0,0,0-.57-.67,1.49,1.49,0,0,0-1.62.13.94.94,0,0,0-.36.76c0,.42.32.76.94,1l.86.35a3.62,3.62,0,0,1,1.54,1,2.31,2.31,0,0,1,.49,1.5,2.65,2.65,0,0,1-.8,2,2.71,2.71,0,0,1-2,.78,2.68,2.68,0,0,1-1.86-.66,3.1,3.1,0,0,1-.9-1.88l1.32-.29a2.21,2.21,0,0,0,.31,1,1.37,1.37,0,0,0,1.18.56,1.34,1.34,0,0,0,1-.41,1.39,1.39,0,0,0,.4-1,1.35,1.35,0,0,0-.07-.46,1.09,1.09,0,0,0-.22-.39,1.39,1.39,0,0,0-.38-.33,3.22,3.22,0,0,0-.56-.29l-.83-.35a2.4,2.4,0,0,1-1.77-2.19,2.07,2.07,0,0,1,.74-1.63,2.69,2.69,0,0,1,1.85-.66A2.58,2.58,0,0,1,64.84,183.45Z"/><path d="M69.18,183.38v7.41h-1.3v-7.41h-2v-1.22h5.26v1.22Z"/><path d="M77.09,183.38H73.63v2.08H77v1.22H73.63v2.89h3.46v1.22H72.33v-8.63h4.76Z"/><path d="M78.5,190.79l1.82-9.28,3,6.71,3.07-6.71L88,190.79H86.65l-.83-5.21-2.56,5.61-2.48-5.61-.93,5.21Z"/><path d="M98.23,183.45l-1.06.62a1.72,1.72,0,0,0-.56-.67,1.49,1.49,0,0,0-1.62.13.94.94,0,0,0-.36.76c0,.42.31.76.94,1l.86.35a3.68,3.68,0,0,1,1.54,1,2.37,2.37,0,0,1,.49,1.5,2.65,2.65,0,0,1-.8,2,2.71,2.71,0,0,1-2,.78,2.68,2.68,0,0,1-1.86-.66,3.1,3.1,0,0,1-.9-1.88l1.32-.29a2.21,2.21,0,0,0,.31,1,1.37,1.37,0,0,0,1.18.56,1.34,1.34,0,0,0,1-.41,1.39,1.39,0,0,0,.4-1,1.35,1.35,0,0,0-.07-.46,1.26,1.26,0,0,0-.22-.39,1.56,1.56,0,0,0-.38-.33,3.63,3.63,0,0,0-.56-.29l-.83-.35c-1.18-.5-1.78-1.23-1.78-2.19a2.08,2.08,0,0,1,.75-1.63A2.67,2.67,0,0,1,95.9,182,2.59,2.59,0,0,1,98.23,183.45Z"/><path d="M99.6,186.44a4.21,4.21,0,0,1,1.33-3.13,4.39,4.39,0,0,1,3.2-1.31,4.51,4.51,0,0,1,4.49,4.49,4.25,4.25,0,0,1-1.33,3.16,4.56,4.56,0,0,1-6.23.14A4.22,4.22,0,0,1,99.6,186.44Zm1.31,0a3.21,3.21,0,0,0,3.17,3.28,3.08,3.08,0,0,0,2.29-.94,3.14,3.14,0,0,0,.94-2.31,3.19,3.19,0,0,0-.92-2.32,3.21,3.21,0,0,0-5.48,2.29Z"/><path d="M114.57,183.38h-3v2.08h2.91v1.22h-2.91v4.11h-1.3v-8.63h4.31Z"/><path d="M118.46,183.38v7.41h-1.3v-7.41h-2v-1.22h5.26v1.22Z"/><path d="M122.55,182.16l2.25,5.77,2.34-6.19,2.25,6.19,2.39-5.77h1.42l-3.86,9.18-2.22-6.12-2.32,6.13-3.67-9.19Z"/><path d="M138.61,188.7h-3.7l-1,2.09h-1.4l4.27-9.17,4.12,9.17h-1.43Zm-.53-1.23-1.28-2.93-1.34,2.93Z"/><path d="M145,187.11l2.67,3.68H146l-2.46-3.53h-.24v3.53H142v-8.63h1.53a3.81,3.81,0,0,1,2.47.64,2.37,2.37,0,0,1,.84,1.89,2.47,2.47,0,0,1-.53,1.58A2.32,2.32,0,0,1,145,187.11Zm-1.63-1h.42c1.23,0,1.85-.47,1.85-1.41s-.6-1.33-1.8-1.33h-.47Z"/><path d="M153.68,183.38h-3.46v2.08h3.36v1.22h-3.36v2.89h3.46v1.22h-4.76v-8.63h4.76Z"/><line class="cls-1" x1="195.11" y1="18.69" x2="188.88" y2="29.08"/><line class="cls-2" x1="148.04" y1="57.46" x2="165.35" y2="51.92"/><line class="cls-1" x1="193.38" y1="58.5" x2="203.08" y2="69.58"/><circle class="cls-3" cx="200.65" cy="10.38" r="10.38"/><circle class="cls-4" cx="181.27" cy="45" r="18.69"/><circle class="cls-5" cx="135.58" cy="60.92" r="13.85"/><circle class="cls-6" cx="209.65" cy="76.85" r="13.15"/><path class="cls-4" d="M46.6,113.63h-4c-1.5-10.2-8.4-16.1-17.9-16.1-8.4,0-17.4,4.6-17.4,13.9s5.7,12.4,18.7,16c14.5,3.9,21.6,9,21.6,20,0,10.7-9.7,18.6-22.7,18.6S1.5,159.53,0,146.23H4c1.5,10.7,10.4,16.5,21,16.5s18.5-5.9,18.5-14.7c0-9.5-5.6-13.3-19.1-17-14.2-3.8-21.2-8.2-21.2-19,0-10.5,10-17.8,21.8-17.8C38.2,94.23,45.3,102.93,46.6,113.63Z"/><path class="cls-4" d="M82.9,164.63H79.1v-28l-24.5-41H59l22.2,37.2L103,95.63h4.4l-24.5,41Z"/><path class="cls-4" d="M158.6,113.63h-4c-1.5-10.2-8.4-16.1-17.9-16.1-8.4,0-17.4,4.6-17.4,13.9s5.7,12.4,18.7,16c14.5,3.9,21.6,9,21.6,20,0,10.7-9.7,18.6-22.7,18.6s-23.4-6.5-24.9-19.8h4c1.5,10.7,10.4,16.5,21,16.5s18.5-5.9,18.5-14.7c0-9.5-5.6-13.3-19.1-17-14.2-3.8-21.2-8.2-21.2-19,0-10.5,10-17.8,21.8-17.8C150.2,94.23,157.3,102.93,158.6,113.63Z"/><path class="cls-4" d="M215.2,113.63h-4c-1.5-10.2-8.4-16.1-17.9-16.1-8.4,0-17.4,4.6-17.4,13.9s5.7,12.4,18.7,16c14.5,3.9,21.6,9,21.6,20,0,10.7-9.7,18.6-22.7,18.6s-23.4-6.5-24.9-19.8h4c1.5,10.7,10.4,16.5,21,16.5s18.5-5.9,18.5-14.7c0-9.5-5.6-13.3-19.1-17-14.2-3.8-21.2-8.2-21.2-19,0-10.5,10-17.8,21.8-17.8C206.8,94.23,213.9,102.93,215.2,113.63Z"/><path class="cls-4" d="M254,98.83v65.8h-3.8V98.83H224.3v-3.2H280v3.2Z"/><path class="cls-4" d="M333.2,164.63H289.5v-69h42.7v3.2H293.3v29.7h36.6v3.2H293.3v29.6h39.9Z"/><path class="cls-4" d="M391.7,164.63h-5.5l-31.4-33-5,5v28H346v-69h3.8v36.7l38.1-36.7h4.7l-34.9,33.5Z"/></g></g></svg>