<?xml version="1.0" encoding="UTF-8"?><svg xmlns="http://www.w3.org/2000/svg" viewBox="0 0 392.6 191.35"><defs><style>.d{fill:#ffbe4c;}.e{fill:#ff5d5a;}.f{fill:#97e173;}.g{fill:#30b2ff;}.h{stroke:#afafaf;}.h,.i{fill:none;stroke-miterlimit:10;stroke-width:5px;}.i{stroke:#a9a9a9;}</style></defs><g id="a"/><g id="b"><g id="c"><g><path d="M167.73,183.45l-1.06,.63c-.2-.34-.39-.57-.57-.67-.19-.12-.43-.18-.72-.18-.36,0-.66,.1-.9,.31-.24,.2-.36,.46-.36,.76,0,.42,.31,.76,.94,1.02l.86,.35c.7,.28,1.21,.63,1.54,1.04s.49,.91,.49,1.5c0,.79-.26,1.45-.79,1.97-.53,.52-1.2,.78-1.99,.78s-1.37-.22-1.86-.67c-.48-.44-.78-1.07-.9-1.87l1.32-.29c.06,.51,.16,.86,.31,1.05,.27,.37,.66,.56,1.17,.56,.41,0,.74-.14,1.01-.41s.4-.62,.4-1.03c0-.17-.02-.32-.07-.46-.05-.14-.12-.27-.22-.39s-.23-.23-.38-.33-.34-.2-.56-.29l-.83-.35c-1.18-.5-1.77-1.23-1.77-2.19,0-.65,.25-1.19,.74-1.63,.5-.44,1.11-.66,1.85-.66,1,0,1.77,.49,2.33,1.45Z"/><path d="M226.73,183.45l-1.06,.63c-.2-.34-.39-.57-.57-.67-.19-.12-.43-.18-.72-.18-.36,0-.66,.1-.9,.31-.24,.2-.36,.46-.36,.76,0,.42,.31,.76,.94,1.02l.86,.35c.7,.28,1.21,.63,1.54,1.04s.49,.91,.49,1.5c0,.79-.26,1.45-.79,1.97-.53,.52-1.2,.78-1.99,.78s-1.37-.22-1.86-.67c-.48-.44-.78-1.07-.9-1.87l1.32-.29c.06,.51,.16,.86,.31,1.05,.27,.37,.66,.56,1.17,.56,.41,0,.74-.14,1.01-.41s.4-.62,.4-1.03c0-.17-.02-.32-.07-.46-.05-.14-.12-.27-.22-.39s-.23-.23-.38-.33-.34-.2-.56-.29l-.83-.35c-1.18-.5-1.77-1.23-1.77-2.19,0-.65,.25-1.19,.74-1.63,.5-.44,1.11-.66,1.85-.66,1,0,1.77,.49,2.33,1.45Z"/><path d="M169.09,186.44c0-1.21,.45-2.26,1.34-3.13,.89-.87,1.95-1.31,3.2-1.31s2.29,.44,3.17,1.32c.88,.88,1.33,1.94,1.33,3.17s-.44,2.29-1.33,3.16c-.89,.87-1.97,1.3-3.23,1.3-1.11,0-2.12-.39-3-1.16-.98-.85-1.47-1.97-1.47-3.36Zm1.31,.02c0,.95,.32,1.74,.96,2.35,.64,.62,1.37,.92,2.21,.92,.91,0,1.67-.31,2.29-.94,.62-.63,.93-1.41,.93-2.32s-.31-1.69-.92-2.32c-.61-.63-1.37-.94-2.27-.94s-1.66,.31-2.28,.94c-.62,.62-.93,1.38-.93,2.29Z"/><path d="M181.06,182.16v7.41h2.54v1.22h-3.84v-8.63h1.3Z"/><path d="M185.88,182.16v5.2c0,.74,.12,1.28,.36,1.63,.36,.5,.87,.74,1.53,.74s1.17-.25,1.53-.74c.24-.33,.36-.88,.36-1.63v-5.2h1.3v5.56c0,.91-.28,1.66-.85,2.25-.64,.66-1.42,.98-2.35,.98s-1.71-.33-2.34-.98c-.57-.59-.85-1.34-.85-2.25v-5.56h1.3Z"/><path d="M195.42,183.38v7.41h-1.3v-7.41h-1.99v-1.22h5.27v1.22h-1.98Z"/><path d="M199.86,182.16v8.63h-1.3v-8.63h1.3Z"/><path d="M201.51,186.44c0-1.21,.45-2.26,1.34-3.13,.89-.87,1.95-1.31,3.2-1.31s2.29,.44,3.17,1.32c.88,.88,1.33,1.94,1.33,3.17s-.44,2.29-1.33,3.16c-.89,.87-1.97,1.3-3.23,1.3-1.11,0-2.12-.39-3-1.16-.98-.85-1.47-1.97-1.47-3.36Zm1.31,.02c0,.95,.32,1.74,.96,2.35,.64,.62,1.37,.92,2.21,.92,.91,0,1.67-.31,2.29-.94,.62-.63,.93-1.41,.93-2.32s-.31-1.69-.92-2.32c-.61-.63-1.37-.94-2.27-.94s-1.66,.31-2.28,.94c-.62,.62-.93,1.38-.93,2.29Z"/><path d="M212.17,190.79v-9.22l6.3,6.59v-6h1.3v9.16l-6.3-6.57v6.05h-1.3Z"/><path d="M238.77,185.99l1.55,1.88,.05-.06c.17-.18,.33-.36,.48-.54s.29-.35,.43-.53l.85,.87c-.1,.15-.24,.32-.41,.52-.17,.2-.37,.42-.61,.68l1.6,1.97h-1.62l-.86-1.06c-.79,.82-1.61,1.23-2.47,1.23-.76,0-1.41-.24-1.95-.73-.52-.49-.78-1.1-.78-1.82,0-.86,.41-1.58,1.24-2.15l.57-.38s.02-.01,.04-.03,.04-.04,.08-.06c-.57-.61-.86-1.21-.86-1.79s.19-1.06,.57-1.42c.39-.37,.89-.55,1.5-.55s1.08,.18,1.47,.53c.39,.35,.58,.8,.58,1.34,0,.37-.11,.71-.32,1.01-.21,.3-.59,.66-1.13,1.08Zm-1.04,.73l-.07,.05c-.53,.37-.9,.67-1.09,.89-.19,.22-.29,.46-.29,.71,0,.36,.14,.69,.43,.98,.3,.29,.63,.43,.98,.43,.5,0,1.08-.33,1.74-.99l-1.71-2.07Zm.28-1.65l.11-.08c.18-.14,.33-.26,.45-.36s.21-.19,.26-.26c.11-.14,.17-.31,.17-.51,0-.23-.08-.41-.23-.55-.15-.14-.36-.21-.62-.21-.24,0-.43,.07-.59,.22-.16,.14-.24,.32-.24,.53,0,.25,.1,.5,.3,.75l.32,.39s.03,.05,.07,.08Z"/><path d="M249.66,183.38v7.41h-1.3v-7.41h-1.99v-1.22h5.27v1.22h-1.98Z"/><path d="M257.57,183.38h-3.46v2.08h3.36v1.22h-3.36v2.89h3.46v1.22h-4.77v-8.63h4.77v1.22Z"/><path d="M265.67,182.62v1.54c-.75-.63-1.53-.95-2.34-.95-.89,0-1.63,.32-2.24,.96-.61,.63-.92,1.41-.92,2.33s.31,1.67,.92,2.29c.61,.62,1.36,.93,2.25,.93,.46,0,.85-.08,1.17-.22,.18-.07,.37-.18,.56-.3,.19-.13,.39-.28,.61-.46v1.57c-.75,.42-1.53,.63-2.35,.63-1.23,0-2.29-.43-3.16-1.29-.87-.87-1.3-1.92-1.3-3.14,0-1.1,.36-2.08,1.09-2.94,.89-1.05,2.05-1.58,3.47-1.58,.78,0,1.53,.21,2.25,.63Z"/><path d="M268.85,185.54h3.72v-3.38h1.3v8.63h-1.3v-4.03h-3.72v4.03h-1.3v-8.63h1.3v3.38Z"/><path d="M276.18,190.79v-9.22l6.3,6.59v-6h1.3v9.16l-6.3-6.57v6.05h-1.3Z"/><path d="M285.5,186.44c0-1.21,.45-2.26,1.34-3.13,.89-.87,1.95-1.31,3.2-1.31s2.29,.44,3.17,1.32c.88,.88,1.33,1.94,1.33,3.17s-.44,2.29-1.33,3.16c-.89,.87-1.97,1.3-3.23,1.3-1.11,0-2.12-.39-3-1.16-.98-.85-1.47-1.97-1.47-3.36Zm1.31,.02c0,.95,.32,1.74,.96,2.35,.64,.62,1.37,.92,2.21,.92,.91,0,1.67-.31,2.29-.94,.62-.63,.93-1.41,.93-2.32s-.31-1.69-.92-2.32c-.61-.63-1.37-.94-2.27-.94s-1.66,.31-2.28,.94c-.62,.62-.93,1.38-.93,2.29Z"/><path d="M297.47,182.16v7.41h2.54v1.22h-3.84v-8.63h1.3Z"/><path d="M300.46,186.44c0-1.21,.45-2.26,1.34-3.13,.89-.87,1.95-1.31,3.2-1.31s2.29,.44,3.17,1.32c.88,.88,1.33,1.94,1.33,3.17s-.44,2.29-1.33,3.16c-.89,.87-1.97,1.3-3.23,1.3-1.11,0-2.12-.39-3-1.16-.98-.85-1.47-1.97-1.47-3.36Zm1.31,.02c0,.95,.32,1.74,.96,2.35,.64,.62,1.37,.92,2.21,.92,.91,0,1.67-.31,2.29-.94,.62-.63,.93-1.41,.93-2.32s-.31-1.69-.92-2.32c-.61-.63-1.37-.94-2.27-.94s-1.66,.31-2.28,.94c-.62,.62-.93,1.38-.93,2.29Z"/><path d="M315.57,186.3h3.57v.29c0,.65-.08,1.22-.23,1.72-.15,.46-.4,.9-.75,1.3-.8,.9-1.82,1.35-3.06,1.35s-2.24-.44-3.1-1.31c-.86-.88-1.29-1.93-1.29-3.15s.44-2.32,1.31-3.19c.88-.88,1.94-1.31,3.2-1.31,.67,0,1.3,.14,1.89,.41,.56,.28,1.11,.72,1.65,1.34l-.93,.89c-.71-.94-1.57-1.42-2.59-1.42-.91,0-1.68,.32-2.3,.95-.62,.62-.93,1.39-.93,2.33s.34,1.75,1.03,2.38c.64,.58,1.34,.87,2.1,.87,.64,0,1.22-.21,1.73-.65,.51-.44,.8-.96,.86-1.57h-2.15v-1.23Z"/><path d="M322.08,182.16v8.63h-1.3v-8.63h1.3Z"/><path d="M328.92,183.38h-3.46v2.08h3.36v1.22h-3.36v2.89h3.46v1.22h-4.77v-8.63h4.77v1.22Z"/><path d="M335.51,183.45l-1.06,.63c-.2-.34-.39-.57-.57-.67-.19-.12-.43-.18-.72-.18-.36,0-.66,.1-.9,.31-.24,.2-.36,.46-.36,.76,0,.42,.31,.76,.94,1.02l.86,.35c.7,.28,1.21,.63,1.54,1.04s.49,.91,.49,1.5c0,.79-.26,1.45-.79,1.97-.53,.52-1.2,.78-1.99,.78s-1.37-.22-1.86-.67c-.48-.44-.78-1.07-.9-1.87l1.32-.29c.06,.51,.16,.86,.31,1.05,.27,.37,.66,.56,1.17,.56,.41,0,.74-.14,1.01-.41s.4-.62,.4-1.03c0-.17-.02-.32-.07-.46-.05-.14-.12-.27-.22-.39s-.23-.23-.38-.33-.34-.2-.56-.29l-.83-.35c-1.18-.5-1.77-1.23-1.77-2.19,0-.65,.25-1.19,.74-1.63,.5-.44,1.11-.66,1.85-.66,1,0,1.77,.49,2.33,1.45Z"/></g><g><path d="M51.63,183.45l-1.06,.63c-.2-.34-.39-.57-.57-.67-.19-.12-.43-.18-.72-.18-.36,0-.66,.1-.9,.31-.24,.2-.36,.46-.36,.76,0,.42,.31,.76,.94,1.02l.86,.35c.7,.28,1.21,.63,1.54,1.04s.49,.91,.49,1.5c0,.79-.26,1.45-.79,1.97-.53,.52-1.2,.78-1.99,.78s-1.37-.22-1.86-.67c-.48-.44-.78-1.07-.9-1.87l1.32-.29c.06,.51,.16,.86,.31,1.05,.27,.37,.66,.56,1.17,.56,.41,0,.74-.14,1.01-.41s.4-.62,.4-1.03c0-.17-.02-.32-.07-.46-.05-.14-.12-.27-.22-.39s-.23-.23-.38-.33-.34-.2-.56-.29l-.83-.35c-1.18-.5-1.77-1.23-1.77-2.19,0-.65,.25-1.19,.74-1.63,.5-.44,1.11-.66,1.85-.66,1,0,1.77,.49,2.33,1.45Z"/><path d="M55.1,187.06l-2.82-4.91h1.5l1.97,3.45,1.98-3.45h1.5l-2.83,4.91v3.73h-1.3v-3.73Z"/><path d="M64.84,183.45l-1.06,.63c-.2-.34-.39-.57-.57-.67-.19-.12-.43-.18-.72-.18-.36,0-.66,.1-.9,.31-.24,.2-.36,.46-.36,.76,0,.42,.31,.76,.94,1.02l.86,.35c.7,.28,1.21,.63,1.54,1.04s.49,.91,.49,1.5c0,.79-.26,1.45-.79,1.97-.53,.52-1.2,.78-1.99,.78s-1.37-.22-1.86-.67c-.48-.44-.78-1.07-.9-1.87l1.32-.29c.06,.51,.16,.86,.31,1.05,.27,.37,.66,.56,1.17,.56,.41,0,.74-.14,1.01-.41s.4-.62,.4-1.03c0-.17-.02-.32-.07-.46-.05-.14-.12-.27-.22-.39s-.23-.23-.38-.33-.34-.2-.56-.29l-.83-.35c-1.18-.5-1.77-1.23-1.77-2.19,0-.65,.25-1.19,.74-1.63,.5-.44,1.11-.66,1.85-.66,1,0,1.77,.49,2.33,1.45Z"/><path d="M69.18,183.38v7.41h-1.3v-7.41h-1.99v-1.22h5.27v1.22h-1.98Z"/><path d="M77.09,183.38h-3.46v2.08h3.36v1.22h-3.36v2.89h3.46v1.22h-4.77v-8.63h4.77v1.22Z"/><path d="M78.5,190.79l1.82-9.28,2.96,6.71,3.07-6.71,1.63,9.28h-1.34l-.83-5.21-2.56,5.61-2.48-5.62-.93,5.22h-1.35Z"/><path d="M98.23,183.45l-1.06,.63c-.2-.34-.39-.57-.57-.67-.19-.12-.43-.18-.72-.18-.36,0-.66,.1-.9,.31-.24,.2-.36,.46-.36,.76,0,.42,.31,.76,.94,1.02l.86,.35c.7,.28,1.21,.63,1.54,1.04s.49,.91,.49,1.5c0,.79-.26,1.45-.79,1.97-.53,.52-1.2,.78-1.99,.78s-1.37-.22-1.86-.67c-.48-.44-.78-1.07-.9-1.87l1.32-.29c.06,.51,.16,.86,.31,1.05,.27,.37,.66,.56,1.17,.56,.41,0,.74-.14,1.01-.41s.4-.62,.4-1.03c0-.17-.02-.32-.07-.46-.05-.14-.12-.27-.22-.39s-.23-.23-.38-.33-.34-.2-.56-.29l-.83-.35c-1.18-.5-1.77-1.23-1.77-2.19,0-.65,.25-1.19,.74-1.63,.5-.44,1.11-.66,1.85-.66,1,0,1.77,.49,2.33,1.45Z"/><path d="M99.6,186.44c0-1.21,.45-2.26,1.34-3.13,.89-.87,1.95-1.31,3.2-1.31s2.29,.44,3.17,1.32c.88,.88,1.33,1.94,1.33,3.17s-.44,2.29-1.33,3.16c-.89,.87-1.97,1.3-3.23,1.3-1.11,0-2.12-.39-3-1.16-.98-.85-1.47-1.97-1.47-3.36Zm1.31,.02c0,.95,.32,1.74,.96,2.35,.64,.62,1.37,.92,2.21,.92,.91,0,1.67-.31,2.29-.94,.62-.63,.93-1.41,.93-2.32s-.31-1.69-.92-2.32c-.61-.63-1.37-.94-2.27-.94s-1.66,.31-2.28,.94c-.62,.62-.93,1.38-.93,2.29Z"/><path d="M114.57,183.38h-3.01v2.08h2.9v1.22h-2.9v4.11h-1.3v-8.63h4.31v1.22Z"/><path d="M118.46,183.38v7.41h-1.3v-7.41h-1.99v-1.22h5.27v1.22h-1.98Z"/><path d="M122.55,182.16l2.25,5.77,2.35-6.19,2.25,6.19,2.39-5.77h1.42l-3.86,9.18-2.22-6.12-2.31,6.12-3.67-9.19h1.42Z"/><path d="M138.61,188.7h-3.7l-.96,2.1h-1.4l4.27-9.18,4.12,9.18h-1.43l-.91-2.1Zm-.53-1.22l-1.28-2.94-1.34,2.94h2.62Z"/><path d="M144.95,187.11l2.67,3.68h-1.59l-2.47-3.53h-.23v3.53h-1.3v-8.63h1.53c1.14,0,1.96,.21,2.47,.64,.56,.48,.84,1.11,.84,1.89,0,.61-.17,1.14-.53,1.58s-.81,.72-1.39,.84Zm-1.62-.99h.41c1.23,0,1.85-.47,1.85-1.42,0-.88-.6-1.33-1.8-1.33h-.46v2.74Z"/><path d="M153.68,183.38h-3.46v2.08h3.36v1.22h-3.36v2.89h3.46v1.22h-4.77v-8.63h4.77v1.22Z"/></g><g><line class="h" x1="195.11" y1="18.69" x2="188.88" y2="29.08"/><line class="i" x1="148.04" y1="57.46" x2="165.35" y2="51.92"/><line class="h" x1="193.38" y1="58.5" x2="203.08" y2="69.58"/><circle class="f" cx="200.65" cy="10.38" r="10.38"/><circle class="g" cx="181.27" cy="45" r="18.69"/><circle class="d" cx="135.58" cy="60.92" r="13.85"/><circle class="e" cx="209.65" cy="76.85" r="13.15"/></g><g><path class="g" d="M46.6,113.63h-4c-1.5-10.2-8.4-16.1-17.9-16.1-8.4,0-17.4,4.6-17.4,13.9s5.7,12.4,18.7,16c14.5,3.9,21.6,9,21.6,20s-9.7,18.6-22.7,18.6S1.5,159.53,0,146.23H4c1.5,10.7,10.4,16.5,21,16.5s18.5-5.9,18.5-14.7c0-9.5-5.6-13.3-19.1-17-14.2-3.8-21.2-8.2-21.2-19s10-17.8,21.8-17.8c13.2,0,20.3,8.7,21.6,19.4Z"/><path class="g" d="M82.9,164.63h-3.8v-28l-24.5-41h4.4l22.2,37.2,21.8-37.2h4.4l-24.5,41v28Z"/><path class="g" d="M158.6,113.63h-4c-1.5-10.2-8.4-16.1-17.9-16.1-8.4,0-17.4,4.6-17.4,13.9s5.7,12.4,18.7,16c14.5,3.9,21.6,9,21.6,20s-9.7,18.6-22.7,18.6-23.4-6.5-24.9-19.8h4c1.5,10.7,10.4,16.5,21,16.5s18.5-5.9,18.5-14.7c0-9.5-5.6-13.3-19.1-17-14.2-3.8-21.2-8.2-21.2-19s10-17.8,21.8-17.8c13.2,0,20.3,8.7,21.6,19.4Z"/><path class="g" d="M215.2,113.63h-4c-1.5-10.2-8.4-16.1-17.9-16.1-8.4,0-17.4,4.6-17.4,13.9s5.7,12.4,18.7,16c14.5,3.9,21.6,9,21.6,20s-9.7,18.6-22.7,18.6-23.4-6.5-24.9-19.8h4c1.5,10.7,10.4,16.5,21,16.5s18.5-5.9,18.5-14.7c0-9.5-5.6-13.3-19.1-17-14.2-3.8-21.2-8.2-21.2-19s10-17.8,21.8-17.8c13.2,0,20.3,8.7,21.6,19.4Z"/><path class="g" d="M254,98.83v65.8h-3.8V98.83h-25.9v-3.2h55.7v3.2h-26Z"/><path class="g" d="M333.2,164.63h-43.7V95.63h42.7v3.2h-38.9v29.7h36.6v3.2h-36.6v29.6h39.9v3.3Z"/><path class="g" d="M391.7,164.63h-5.5l-31.4-33-5,5v28h-3.8V95.63h3.8v36.7l38.1-36.7h4.7l-34.9,33.5,34,35.5Z"/></g></g></g></svg>