<svg xmlns="http://www.w3.org/2000/svg" viewBox="0 0 171 164"><defs><style>.cls-1{fill:none;stroke:#fff;stroke-miterlimit:10;}.cls-2{fill:#3f3d56;}.cls-3{fill:#fff;}.cls-4{fill:#e6e6e6;}.cls-5{fill:#6c63ff;}</style></defs><g id="Layer_2" data-name="Layer 2"><g id="Layer_1-2" data-name="Layer 1"><rect class="cls-1" x="0.5" y="0.5" width="170" height="163"/><g id="Group_6" data-name="Group 6"><path id="Path_2389" data-name="Path 2389" class="cls-2" d="M118,41.93h-.83l.21-22.61a13.1,13.1,0,0,0-13-13.21h0L56.46,5.67a13.09,13.09,0,0,0-13.21,13h0L42.12,142.72a13.09,13.09,0,0,0,13,13.2h0l47.92.44a13.09,13.09,0,0,0,13.21-13h0L117,58h.82Z"/><path id="Path_2390" data-name="Path 2390" class="cls-3" d="M104.87,9.51l-6.25-.06a4.64,4.64,0,0,1-2.61,6,4.36,4.36,0,0,1-1.75.33l-27.45-.25a4.65,4.65,0,0,1-4.24-6.44l-5.84,0a9.78,9.78,0,0,0-9.87,9.69l-1.12,123.9a9.77,9.77,0,0,0,9.68,9.86h0l48.15.44a9.78,9.78,0,0,0,9.87-9.69h0l1.12-123.9a9.78,9.78,0,0,0-9.69-9.86Z"/><path id="Path_2391" data-name="Path 2391" class="cls-2" d="M106.19,50.52l-51.38-.46a1,1,0,0,1-.94-1L54,36.36a1,1,0,0,1,.95-1l51.39.47a1,1,0,0,1,.94,1l-.12,12.74a1,1,0,0,1-1,.94ZM54.94,35.79a.58.58,0,0,0-.58.56L54.25,49.1a.58.58,0,0,0,.56.58l51.39.46a.56.56,0,0,0,.57-.56l.12-12.75a.57.57,0,0,0-.56-.57Z"/><path id="Path_2392" data-name="Path 2392" class="cls-2" d="M105.74,101l-51.39-.47a1,1,0,0,1-.94-1l.22-23.59a1,1,0,0,1,.95-.94l51.39.46a1,1,0,0,1,.94,1L106.69,100A1,1,0,0,1,105.74,101ZM54.58,75.37a.58.58,0,0,0-.58.57l-.21,23.59a.57.57,0,0,0,.57.58h0l51.38.47a.59.59,0,0,0,.58-.57l.21-23.59a.57.57,0,0,0-.57-.58h0Z"/><path id="Path_2393" data-name="Path 2393" class="cls-4" d="M105.63,70.31l-22.83-.2a1,1,0,0,1-.94-1L82,56.4a1,1,0,0,1,1-.94l22.83.21a1,1,0,0,1,.95,1l-.12,12.74a1,1,0,0,1-1,.95ZM82.93,55.84a.56.56,0,0,0-.58.56h0l-.12,12.75a.57.57,0,0,0,.57.57h0l22.84.21a.57.57,0,0,0,.57-.56l.12-12.75a.58.58,0,0,0-.57-.58Z"/><path id="Path_2394" data-name="Path 2394" class="cls-4" d="M76.91,131.53l-22.84-.21a1,1,0,0,1-.94-1l.22-23.78a1,1,0,0,1,.95-.94l22.84.21a1,1,0,0,1,.94,1l-.21,23.79A1,1,0,0,1,76.91,131.53ZM54.3,106a.57.57,0,0,0-.57.57l-.22,23.78a.57.57,0,0,0,.57.58l22.83.21a.57.57,0,0,0,.58-.57h0l.22-23.78a.57.57,0,0,0-.57-.58h0Z"/><path id="Path_2395" data-name="Path 2395" class="cls-4" d="M105.08,131.78l-22.84-.2a1,1,0,0,1-.94-1l.21-23.78a1,1,0,0,1,1-1l22.84.21a1,1,0,0,1,.94,1L106,130.84A1,1,0,0,1,105.08,131.78ZM82.47,106.27a.58.58,0,0,0-.58.56h0l-.21,23.79a.56.56,0,0,0,.56.57l22.84.21a.58.58,0,0,0,.58-.56l.21-23.79a.57.57,0,0,0-.56-.57Z"/><circle id="Ellipse_477" data-name="Ellipse 477" class="cls-5" cx="62.11" cy="83.42" r="3.88"/><path id="Path_2396" data-name="Path 2396" class="cls-4" d="M71.09,80.92a.65.65,0,1,0,0,1.29l30.46.27a.64.64,0,0,0,.66-.62.65.65,0,0,0-.63-.67h0Z"/><path id="Path_2397" data-name="Path 2397" class="cls-4" d="M71.05,84.79a.65.65,0,0,0-.64.65.64.64,0,0,0,.63.64l13.11.12a.65.65,0,0,0,.65-.64.66.66,0,0,0-.64-.65h0Z"/><path id="Path_2398" data-name="Path 2398" class="cls-4" d="M59.07,90.89a.79.79,0,0,0-.89.63c0,.36.39.65.88.66l42,.38a.8.8,0,0,0,.9-.63c0-.36-.4-.65-.89-.66Z"/><path id="Path_2399" data-name="Path 2399" class="cls-4" d="M59,94.76a.8.8,0,0,0-.9.64c0,.36.39.65.89.66l42,.38a.79.79,0,0,0,.89-.64c0-.36-.39-.65-.89-.66Z"/><circle id="Ellipse_478" data-name="Ellipse 478" class="cls-5" cx="62.87" cy="42.32" r="3.88"/><path id="Path_2400" data-name="Path 2400" class="cls-4" d="M71.84,39.81a.65.65,0,0,0-.65.64.66.66,0,0,0,.64.66h0l30.45.27a.65.65,0,1,0,0-1.29h0Z"/><path id="Path_2401" data-name="Path 2401" class="cls-4" d="M71.81,43.69a.63.63,0,0,0-.64.65.64.64,0,0,0,.62.64l13.11.12a.65.65,0,0,0,0-1.29Z"/><path id="Path_2402" data-name="Path 2402" class="cls-4" d="M77.45,70.06,56,69.87l5.13-8.69a1,1,0,0,1,1.4-.37,1.06,1.06,0,0,1,.38.38l2.12,3.75,3.72-6.31a1.29,1.29,0,0,1,1.76-.45,1.25,1.25,0,0,1,.47.47Zm-20.76-.57,20.1.18L70.67,58.84a.91.91,0,0,0-1.24-.34.87.87,0,0,0-.33.33L65,65.71,62.6,61.38a.65.65,0,0,0-.89-.24.59.59,0,0,0-.24.23Z"/><path id="Path_2404" data-name="Path 2404" class="cls-4" d="M77.47,70.06l-22.84-.21a1,1,0,0,1-.94-1l.12-12.74a1,1,0,0,1,.95-.94l22.84.2a1,1,0,0,1,.94,1l-.11,12.74a1,1,0,0,1-1,1ZM54.76,55.58a.58.58,0,0,0-.58.57l-.11,12.74a.57.57,0,0,0,.57.58h0l22.83.21a.57.57,0,0,0,.58-.57l.11-12.75a.56.56,0,0,0-.56-.57Z"/><path id="Path_2405" data-name="Path 2405" class="cls-4" d="M59.13,110.58a.65.65,0,0,0,0,1.29l13.1.12a.65.65,0,0,0,0-1.29Z"/><path id="Path_2406" data-name="Path 2406" class="cls-4" d="M59.09,114.39a.65.65,0,0,0-.64.65.66.66,0,0,0,.63.64h0l13.11.12a.65.65,0,1,0,0-1.29h0Z"/><path id="Path_2408" data-name="Path 2408" class="cls-4" d="M100.25,126.83a.65.65,0,1,0,0-1.29l-13.11-.12a.65.65,0,0,0,0,1.29h0Z"/><path id="Path_2409" data-name="Path 2409" class="cls-4" d="M100.29,123a.66.66,0,0,0,.64-.66.64.64,0,0,0-.63-.63l-13.1-.12a.65.65,0,1,0,0,1.29h0Z"/><path id="Path_2409-2" data-name="Path 2409-2" class="cls-4" d="M100.88,62.05a.65.65,0,1,0,0-1.3h0l-13.1-.11a.63.63,0,0,0-.65.64.65.65,0,0,0,.64.65Z"/><path id="Path_2409-3" data-name="Path 2409-3" class="cls-4" d="M100.79,65.11a.63.63,0,0,0,.64-.65.65.65,0,0,0-.62-.64L87.7,63.7a.65.65,0,0,0,0,1.3Z"/></g></g></g></svg>