<svg xmlns="http://www.w3.org/2000/svg" viewBox="0 0 168.97 135.26"><defs><style>.cls-1{fill:#6c63ff;}.cls-2{fill:#2f2e41;}.cls-3{fill:#3f3d56;}.cls-4{fill:#b4c9ff;}.cls-5{fill:#fff;}.cls-6{fill:#e6e6e6;}.cls-7{fill:#e2e2e2;}</style></defs><g id="Layer_2" data-name="Layer 2"><g id="Layer_1-2" data-name="Layer 1"><path id="Path_411" data-name="Path 411" class="cls-1" d="M84.66,115.09a49.49,49.49,0,1,1,35-14.5A49.48,49.48,0,0,1,84.66,115.09Zm0-98.6A49.11,49.11,0,1,0,133.77,65.6,49.1,49.1,0,0,0,84.66,16.49Z"/><rect id="Rectangle_80" data-name="Rectangle 80" class="cls-2" x="65.93" y="72.65" width="37.11" height="49.86"/><rect id="Rectangle_81" data-name="Rectangle 81" class="cls-3" x="59.56" y="71.13" width="49.86" height="19.79"/><rect id="Rectangle_82" data-name="Rectangle 82" class="cls-3" x="59.56" y="93.2" width="49.86" height="19.79"/><rect id="Rectangle_83" data-name="Rectangle 83" class="cls-3" x="59.56" y="115.28" width="49.86" height="19.79"/><rect id="Rectangle_84" data-name="Rectangle 84" class="cls-1" x="59.56" y="79.52" width="49.86" height="3.04"/><rect id="Rectangle_85" data-name="Rectangle 85" class="cls-1" x="59.56" y="101.59" width="49.86" height="3.04"/><rect id="Rectangle_86" data-name="Rectangle 86" class="cls-1" x="59.56" y="123.67" width="49.86" height="3.04"/><circle id="Ellipse_43" data-name="Ellipse 43" class="cls-1" cx="99.71" cy="73.98" r="1.14"/><circle id="Ellipse_44" data-name="Ellipse 44" class="cls-1" cx="103.71" cy="73.98" r="1.14"/><circle id="Ellipse_45" data-name="Ellipse 45" class="cls-1" cx="107.7" cy="73.98" r="1.14"/><circle id="Ellipse_46" data-name="Ellipse 46" class="cls-1" cx="99.71" cy="95.68" r="1.14"/><circle id="Ellipse_47" data-name="Ellipse 47" class="cls-1" cx="103.71" cy="95.68" r="1.14"/><circle id="Ellipse_48" data-name="Ellipse 48" class="cls-1" cx="107.7" cy="95.68" r="1.14"/><circle id="Ellipse_49" data-name="Ellipse 49" class="cls-1" cx="99.71" cy="117.37" r="1.14"/><circle id="Ellipse_50" data-name="Ellipse 50" class="cls-1" cx="103.71" cy="117.37" r="1.14"/><circle id="Ellipse_51" data-name="Ellipse 51" class="cls-1" cx="107.7" cy="117.37" r="1.14"/><rect id="Rectangle_87" data-name="Rectangle 87" class="cls-3" y="134.88" width="168.97" height="0.38"/><path id="Path_412" data-name="Path 412" class="cls-4" d="M46,51.58V87a2.79,2.79,0,0,1-2.8,2.79H29.48A2.79,2.79,0,0,1,26.69,87h0V51.58a2.79,2.79,0,0,1,2.79-2.79h1.67a1.33,1.33,0,0,0,.73,1.73,1.44,1.44,0,0,0,.5.1h7.84a1.33,1.33,0,0,0,1.32-1.33,1.43,1.43,0,0,0-.09-.5h1.78A2.79,2.79,0,0,1,46,51.58Z"/><rect id="Rectangle_88" data-name="Rectangle 88" class="cls-5" x="27.6" y="55.55" width="17.51" height="24.36"/><rect id="Rectangle_89" data-name="Rectangle 89" class="cls-6" x="32.57" y="72.29" width="6.99" height="0.4"/><rect id="Rectangle_90" data-name="Rectangle 90" class="cls-1" x="32.57" y="73.76" width="10.81" height="0.4"/><rect id="Rectangle_91" data-name="Rectangle 91" class="cls-6" x="32.57" y="75.14" width="8.48" height="0.4"/><rect id="Rectangle_92" data-name="Rectangle 92" class="cls-6" x="32.57" y="76.52" width="4.99" height="0.4"/><rect id="Rectangle_93" data-name="Rectangle 93" class="cls-6" x="32.57" y="77.9" width="7.49" height="0.4"/><rect id="Rectangle_94" data-name="Rectangle 94" class="cls-6" x="29.4" y="72.18" width="0.8" height="0.8"/><rect id="Rectangle_95" data-name="Rectangle 95" class="cls-1" x="29.4" y="73.56" width="0.8" height="0.8"/><rect id="Rectangle_96" data-name="Rectangle 96" class="cls-6" x="29.4" y="74.94" width="0.8" height="0.8"/><rect id="Rectangle_97" data-name="Rectangle 97" class="cls-6" x="29.4" y="76.32" width="0.8" height="0.8"/><rect id="Rectangle_98" data-name="Rectangle 98" class="cls-6" x="29.4" y="77.7" width="0.8" height="0.8"/><rect id="Rectangle_99" data-name="Rectangle 99" class="cls-6" x="32.87" y="58.59" width="7.04" height="7.04"/><rect id="Rectangle_100" data-name="Rectangle 100" class="cls-4" x="61.1" y="0.03" width="46.79" height="29.97"/><rect id="Rectangle_101" data-name="Rectangle 101" class="cls-5" x="64.63" y="8.41" width="38.79" height="14.66"/><rect id="Rectangle_102" data-name="Rectangle 102" class="cls-6" x="71.7" y="10.95" width="9.31" height="0.53"/><rect id="Rectangle_103" data-name="Rectangle 103" class="cls-1" x="71.69" y="12.9" width="14.41" height="0.53"/><rect id="Rectangle_104" data-name="Rectangle 104" class="cls-6" x="71.69" y="14.74" width="11.31" height="0.53"/><rect id="Rectangle_105" data-name="Rectangle 105" class="cls-6" x="71.69" y="16.58" width="6.65" height="0.53"/><rect id="Rectangle_106" data-name="Rectangle 106" class="cls-6" x="71.69" y="18.42" width="9.97" height="0.53"/><rect id="Rectangle_107" data-name="Rectangle 107" class="cls-6" x="67.48" y="10.8" width="1.06" height="1.06"/><rect id="Rectangle_108" data-name="Rectangle 108" class="cls-1" x="67.48" y="12.64" width="1.06" height="1.06"/><rect id="Rectangle_109" data-name="Rectangle 109" class="cls-6" x="67.48" y="14.48" width="1.06" height="1.06"/><rect id="Rectangle_110" data-name="Rectangle 110" class="cls-6" x="67.48" y="16.32" width="1.06" height="1.06"/><rect id="Rectangle_111" data-name="Rectangle 111" class="cls-6" x="67.48" y="18.16" width="1.06" height="1.06"/><rect id="Rectangle_112" data-name="Rectangle 112" class="cls-6" x="91.99" y="10.25" width="9.53" height="9.53"/><rect id="Rectangle_113" data-name="Rectangle 113" class="cls-1" x="61.08" width="46.79" height="1.99"/><circle id="Ellipse_52" data-name="Ellipse 52" class="cls-5" cx="62.56" cy="1.02" r="0.4"/><circle id="Ellipse_53" data-name="Ellipse 53" class="cls-5" cx="63.96" cy="1.02" r="0.4"/><circle id="Ellipse_54" data-name="Ellipse 54" class="cls-5" cx="65.36" cy="1.02" r="0.4"/><rect id="Rectangle_114" data-name="Rectangle 114" class="cls-4" x="127.8" y="56.1" width="11.42" height="5.9"/><rect id="Rectangle_115" data-name="Rectangle 115" class="cls-4" x="127.8" y="77.22" width="11.42" height="5.9"/><circle id="Ellipse_55" data-name="Ellipse 55" class="cls-4" cx="133.51" cy="69.61" r="9.51"/><circle id="Ellipse_56" data-name="Ellipse 56" class="cls-5" cx="133.51" cy="69.61" r="7.42"/><rect id="Rectangle_116" data-name="Rectangle 116" class="cls-7" x="131.08" y="67.57" width="5.76" height="0.33"/><rect id="Rectangle_117" data-name="Rectangle 117" class="cls-1" x="131.08" y="68.78" width="8.91" height="0.33"/><rect id="Rectangle_118" data-name="Rectangle 118" class="cls-7" x="131.08" y="69.92" width="6.99" height="0.33"/><rect id="Rectangle_119" data-name="Rectangle 119" class="cls-7" x="131.08" y="71.06" width="4.11" height="0.33"/><rect id="Rectangle_120" data-name="Rectangle 120" class="cls-7" x="131.08" y="72.2" width="6.17" height="0.33"/><rect id="Rectangle_121" data-name="Rectangle 121" class="cls-7" x="128.47" y="67.48" width="0.66" height="0.66"/><rect id="Rectangle_122" data-name="Rectangle 122" class="cls-1" x="128.47" y="68.62" width="0.66" height="0.66"/><rect id="Rectangle_123" data-name="Rectangle 123" class="cls-7" x="128.47" y="69.76" width="0.66" height="0.66"/><rect id="Rectangle_124" data-name="Rectangle 124" class="cls-7" x="128.47" y="70.89" width="0.66" height="0.66"/><rect id="Rectangle_125" data-name="Rectangle 125" class="cls-7" x="128.47" y="72.03" width="0.66" height="0.66"/></g></g></svg>