<svg xmlns="http://www.w3.org/2000/svg" xmlns:xlink="http://www.w3.org/1999/xlink" viewBox="0 0 149.6 149.3"><defs><style>.cls-1{fill:none;}.cls-2{clip-path:url(#clip-path);}.cls-3{fill:#0071bc;}.cls-4{fill:#41b883;}.cls-5{fill:#35495e;}</style><clipPath id="clip-path" transform="translate(0 -0.15)"><rect class="cls-1" width="149.6" height="149.6"/></clipPath></defs><g id="Layer_2" data-name="Layer 2"><g id="Layer_1-2" data-name="Layer 1"><g id="Group_462" data-name="Group 462"><g class="cls-2"><g id="Group_461" data-name="Group 461"><path id="Path_1331" data-name="Path 1331" class="cls-3" d="M133.74,149.45H15.85A15.8,15.8,0,0,1,0,133.7V15.9A15.8,15.8,0,0,1,15.85.15H133.74A15.8,15.8,0,0,1,149.6,15.9h0V133.7a15.8,15.8,0,0,1-15.86,15.75h0" transform="translate(0 -0.15)"/><path id="Path_1332" data-name="Path 1332" class="cls-4" d="M20.59,35.28l52.84,90.54,52.83-90.54H105.12L73.43,89.6l-32-54.32Z" transform="translate(0 -0.15)"/><path id="Path_1333" data-name="Path 1333" class="cls-5" d="M41.46,35.28l32,54.59,31.7-54.59H85.58l-12.15,21L61,35.28Z" transform="translate(0 -0.15)"/></g></g></g></g></g></svg>