<svg xmlns="http://www.w3.org/2000/svg" viewBox="0 0 176.48 137.82"><defs><style>.cls-1{fill:#fff;}.cls-2{fill:#484581;}.cls-3{fill:#6c63ff;}.cls-4{fill:#e4e4e4;}</style></defs><g id="Layer_2" data-name="Layer 2"><g id="Layer_1-2" data-name="Layer 1"><g id="Group_2" data-name="Group 2"><path id="Path_167" data-name="Path 167" class="cls-1" d="M2.67,93.77a8.26,8.26,0,0,0-.24-6c-.08-.18.21-.3.29-.12A8.54,8.54,0,0,1,3,93.89C2.9,94.09,2.61,94,2.67,93.77Z"/><path id="Path_179" data-name="Path 179" class="cls-1" d="M176.16,4.74H130.75V7.66a.68.68,0,0,0,.14.41c-.09,2.28-.14,5.2-.14,8.37v78.1c0,7.32.29,13.28.65,13.28h44.11c.36,0,.65-6,.65-13.28V16.44c0-3.17,0-6.09-.14-8.37a.68.68,0,0,0,.14-.41Z"/><path id="Path_180" data-name="Path 180" class="cls-2" d="M175.51,108.14H131.4c-.34,0-.57,0-.77-4.2-.13-2.51-.2-5.85-.2-9.4V16.44c0-3.07.06-6,.15-8.38.06-1.41.12-2.54.2-3.35.15-1.6.28-1.87.62-1.87h44.11c.34,0,.48.27.62,1.87.08.82.14,1.94.2,3.35h0c.1,2.33.15,5.31.15,8.37V94.54c0,3.54-.07,6.88-.19,9.4C176.08,108.14,175.85,108.14,175.51,108.14Zm-43.93-.64h43.75a98.35,98.35,0,0,0,.51-13V16.44c0-3.06-.05-6-.14-8.36h0c-.06-1.39-.12-2.51-.2-3.31a9.1,9.1,0,0,0-.18-1.29H131.58a7.85,7.85,0,0,0-.17,1.29c-.08.8-.14,1.92-.2,3.31-.09,2.33-.15,5.3-.15,8.36v78.1a98.43,98.43,0,0,0,.52,13Z"/><path id="Path_181" data-name="Path 181" class="cls-2" d="M175.51,3.16H131.4a.65.65,0,0,0-.65.65V7.66a.68.68,0,0,0,.14.41.72.72,0,0,0,.51.25h44.1a.7.7,0,0,0,.51-.25.63.63,0,0,0,.15-.41V3.81a.66.66,0,0,0-.66-.65Z"/><circle id="Ellipse_90" data-name="Ellipse 90" class="cls-1" cx="134.54" cy="5.55" r="0.93"/><circle id="Ellipse_91" data-name="Ellipse 91" class="cls-1" cx="138.07" cy="5.55" r="0.93"/><circle id="Ellipse_92" data-name="Ellipse 92" class="cls-1" cx="141.59" cy="5.55" r="0.93"/><path id="Path_182" data-name="Path 182" class="cls-1" d="M172.05,4.31H168a.29.29,0,0,0-.29.3.21.21,0,0,0,0,.13.3.3,0,0,0,.27.17h4.05a.32.32,0,0,0,.28-.17.32.32,0,0,0-.28-.43Z"/><path id="Path_183" data-name="Path 183" class="cls-1" d="M172.05,5.43H168a.31.31,0,0,0-.3.3.3.3,0,0,0,.3.3h4.06a.29.29,0,0,0,.3-.3.3.3,0,0,0-.3-.3Z"/><path id="Path_184" data-name="Path 184" class="cls-1" d="M172.05,6.56H168a.31.31,0,0,0-.3.3.3.3,0,0,0,.3.3h4.06a.29.29,0,0,0,.3-.3.3.3,0,0,0-.3-.3Z"/><path id="Path_185" data-name="Path 185" class="cls-3" d="M157.84,16.74H149.5a1.58,1.58,0,0,0-1.58,1.58v7.24a1.58,1.58,0,0,0,1.58,1.58h8.34a1.59,1.59,0,0,0,1.58-1.58V18.32A1.59,1.59,0,0,0,157.84,16.74Z"/><path id="Path_186" data-name="Path 186" class="cls-4" d="M168.22,31.86H139.11a.72.72,0,0,0,0,1.43h29.11a.72.72,0,0,0,0-1.43Z"/><path id="Path_187" data-name="Path 187" class="cls-4" d="M150.17,35.22H139.11a.72.72,0,0,0,0,1.43h11.06a.72.72,0,0,0,0-1.43Z"/><path id="Path_188" data-name="Path 188" class="cls-3" d="M157.84,48H149.5a1.58,1.58,0,0,0-1.58,1.58v7.23a1.57,1.57,0,0,0,1.58,1.58h8.34a1.58,1.58,0,0,0,1.58-1.58V49.59A1.58,1.58,0,0,0,157.84,48Z"/><path id="Path_189" data-name="Path 189" class="cls-4" d="M168.22,63.13H139.11a.72.72,0,0,0,0,1.43h29.11a.72.72,0,0,0,0-1.43Z"/><path id="Path_190" data-name="Path 190" class="cls-4" d="M150.17,66.49H139.11a.72.72,0,0,0,0,1.43h11.06a.72.72,0,0,0,0-1.43Z"/><path id="Path_191" data-name="Path 191" class="cls-3" d="M157.84,79.28H149.5a1.57,1.57,0,0,0-1.58,1.58v7.23a1.58,1.58,0,0,0,1.58,1.58h8.34a1.58,1.58,0,0,0,1.58-1.58V80.86A1.58,1.58,0,0,0,157.84,79.28Z"/><path id="Path_192" data-name="Path 192" class="cls-4" d="M168.22,94.39H139.11a.72.72,0,0,0,0,1.44h29.11a.72.72,0,0,0,0-1.44Z"/><path id="Path_193" data-name="Path 193" class="cls-4" d="M150.17,97.75H139.11a.72.72,0,0,0,0,1.44h11.06a.72.72,0,0,0,0-1.44Z"/><path id="Path_194" data-name="Path 194" class="cls-1" d="M118.36,1a.65.65,0,0,0-.65-.65H1A.66.66,0,0,0,.31,1V4.82a.63.63,0,0,0,.17.43C.38,7.86.31,11.3.31,15.07V101.9c0,8.14.3,14.76.66,14.76H117.71c.36,0,.65-6.62.65-14.76V15.07c0-3.77-.06-7.21-.16-9.82a.58.58,0,0,0,.16-.43Z"/><path id="Path_195" data-name="Path 195" class="cls-2" d="M117.71,117H1c-.36,0-.57,0-.78-4.63C.07,109.55,0,105.84,0,101.9V15.07C0,11.44.06,8,.17,5.24.38,0,.61,0,1,0H117.71c.36,0,.6,0,.8,5.24h0c.11,2.7.17,6.2.17,9.83V101.9c0,3.94-.07,7.65-.19,10.44C118.28,117,118.07,117,117.71,117ZM1.15,116.34H117.53a120,120,0,0,0,.52-14.44V15.07c0-3.62-.06-7.11-.17-9.81h0a29.9,29.9,0,0,0-.36-4.63H1.15A31.17,31.17,0,0,0,.8,5.26C.69,8,.63,11.45.63,15.08V101.9a120,120,0,0,0,.52,14.44Z"/><path id="Path_196" data-name="Path 196" class="cls-2" d="M117.71.32H1A.66.66,0,0,0,.31,1V4.82a.63.63,0,0,0,.17.43A.64.64,0,0,0,1,5.47H117.71a.64.64,0,0,0,.49-.22.63.63,0,0,0,.17-.43V1a.65.65,0,0,0-.66-.65Z"/><circle id="Ellipse_90-2" data-name="Ellipse 90-2" class="cls-1" cx="4.11" cy="2.71" r="0.93"/><circle id="Ellipse_91-2" data-name="Ellipse 91-2" class="cls-1" cx="7.63" cy="2.71" r="0.93"/><circle id="Ellipse_92-2" data-name="Ellipse 92-2" class="cls-1" cx="11.16" cy="2.71" r="0.93"/><path id="Path_197" data-name="Path 197" class="cls-1" d="M114.26,1.47H110.2a.29.29,0,0,0-.3.3.3.3,0,0,0,.3.3h4.06a.31.31,0,0,0,.3-.3A.3.3,0,0,0,114.26,1.47Z"/><path id="Path_198" data-name="Path 198" class="cls-1" d="M114.26,2.59H110.2a.3.3,0,0,0-.3.3.29.29,0,0,0,.3.3h4.06a.3.3,0,0,0,.3-.3A.31.31,0,0,0,114.26,2.59Z"/><path id="Path_199" data-name="Path 199" class="cls-1" d="M114.26,3.72H110.2a.3.3,0,0,0,0,.6h4.06a.3.3,0,1,0,0-.6Z"/><path id="Path_200" data-name="Path 200" class="cls-3" d="M38.7,19.59H25a2.58,2.58,0,0,0-2.58,2.57V34A2.6,2.6,0,0,0,25,36.58H38.7A2.59,2.59,0,0,0,41.28,34V22.16a2.58,2.58,0,0,0-2.58-2.57Z"/><path id="Path_201" data-name="Path 201" class="cls-4" d="M95.05,24.16H47.43a1.18,1.18,0,1,0,0,2.35H95.05a1.18,1.18,0,0,0,0-2.35Z"/><path id="Path_202" data-name="Path 202" class="cls-4" d="M65.52,29.66H47.43a1.18,1.18,0,0,0,0,2.35H65.52a1.18,1.18,0,0,0,0-2.35Z"/><path id="Path_203" data-name="Path 203" class="cls-3" d="M38.7,51.17H25a2.59,2.59,0,0,0-2.58,2.58V65.58A2.6,2.6,0,0,0,25,68.16H38.7a2.59,2.59,0,0,0,2.58-2.58V53.75a2.58,2.58,0,0,0-2.58-2.58Z"/><path id="Path_204" data-name="Path 204" class="cls-4" d="M95.05,55.75H47.43a1.17,1.17,0,1,0,0,2.34H95.05a1.17,1.17,0,1,0,0-2.34Z"/><path id="Path_205" data-name="Path 205" class="cls-4" d="M65.52,61.24H47.43a1.18,1.18,0,0,0,0,2.35H65.52a1.18,1.18,0,0,0,0-2.35Z"/><path id="Path_206" data-name="Path 206" class="cls-3" d="M38.7,82.75H25a2.6,2.6,0,0,0-2.58,2.58V97.16A2.59,2.59,0,0,0,25,99.74H38.7a2.59,2.59,0,0,0,2.58-2.58V85.33a2.59,2.59,0,0,0-2.58-2.58Z"/><path id="Path_207" data-name="Path 207" class="cls-4" d="M95.05,87.33H47.43a1.17,1.17,0,1,0,0,2.34H95.05a1.17,1.17,0,1,0,0-2.34Z"/><path id="Path_208" data-name="Path 208" class="cls-4" d="M65.52,92.83H47.43a1.17,1.17,0,0,0,0,2.34H65.52a1.17,1.17,0,0,0,0-2.34Z"/><path id="Path_209" data-name="Path 209" class="cls-1" d="M138.56,137.5H60.34c-.36,0-.65-5.54-.65-12.35V52.47c0-6.82.29-12.36.65-12.36h78.22c.36,0,.65,5.54.65,12.36v72.68C139.21,132,138.92,137.5,138.56,137.5Z"/><path id="Path_210" data-name="Path 210" class="cls-2" d="M138.56,137.82H60.34c-.33,0-.57,0-.78-3.93-.12-2.34-.19-5.45-.19-8.75V52.47c0-3.31.07-6.41.19-8.75.21-3.93.45-3.93.78-3.93h78.21c.33,0,.57,0,.78,3.93.12,2.34.19,5.44.19,8.75v72.68c0,3.3-.07,6.4-.19,8.75C139.13,137.82,138.89,137.82,138.56,137.82Zm-78-.63h77.86a86.5,86.5,0,0,0,.52-12V52.47a86.58,86.58,0,0,0-.52-12H60.52a86.57,86.57,0,0,0-.51,12v72.68a86.49,86.49,0,0,0,.51,12Z"/><path id="Path_211" data-name="Path 211" class="cls-2" d="M138.56,45.26H60.34a.65.65,0,0,1-.65-.65V40.76a.65.65,0,0,1,.65-.65h78.22a.65.65,0,0,1,.65.65h0v3.85a.65.65,0,0,1-.65.65Z"/><circle id="Ellipse_90-3" data-name="Ellipse 90-3" class="cls-1" cx="63.48" cy="42.5" r="0.93"/><circle id="Ellipse_91-3" data-name="Ellipse 91-3" class="cls-1" cx="67.01" cy="42.5" r="0.93"/><circle id="Ellipse_92-3" data-name="Ellipse 92-3" class="cls-1" cx="70.53" cy="42.5" r="0.93"/><path id="Path_212" data-name="Path 212" class="cls-1" d="M135.1,41.86h-4a.3.3,0,1,1,0-.6h4.06a.3.3,0,0,1,0,.6Z"/><path id="Path_213" data-name="Path 213" class="cls-1" d="M135.1,43h-4a.31.31,0,0,1-.31-.3.32.32,0,0,1,.3-.31h4.06a.31.31,0,0,1,.3.31A.3.3,0,0,1,135.1,43Z"/><path id="Path_214" data-name="Path 214" class="cls-1" d="M135.1,44.11h-4a.3.3,0,0,1-.31-.29.31.31,0,0,1,.3-.31h4.06a.3.3,0,0,1,.3.31A.29.29,0,0,1,135.1,44.11Z"/><path id="Path_215" data-name="Path 215" class="cls-3" d="M84.38,69.14h-10a1.89,1.89,0,0,1-1.89-1.89V58.61a1.9,1.9,0,0,1,1.89-1.89h10a1.89,1.89,0,0,1,1.88,1.89v8.64A1.89,1.89,0,0,1,84.38,69.14Z"/><path id="Path_216" data-name="Path 216" class="cls-4" d="M125.53,61.78H90.75a.86.86,0,0,1-.86-.85.87.87,0,0,1,.86-.87h34.78a.86.86,0,1,1,0,1.72Z"/><path id="Path_217" data-name="Path 217" class="cls-4" d="M104,65.8H90.75a.87.87,0,0,1-.86-.86.85.85,0,0,1,.86-.86H104a.86.86,0,0,1,0,1.72Z"/><path id="Path_218" data-name="Path 218" class="cls-3" d="M84.38,94.72h-10a1.89,1.89,0,0,1-1.89-1.89V84.19a1.89,1.89,0,0,1,1.89-1.88h10a1.88,1.88,0,0,1,1.88,1.88v8.64A1.89,1.89,0,0,1,84.38,94.72Z"/><path id="Path_219" data-name="Path 219" class="cls-4" d="M125.53,87.36H90.75a.86.86,0,1,1,0-1.71h34.78a.86.86,0,1,1,0,1.71Z"/><path id="Path_220" data-name="Path 220" class="cls-4" d="M104,91.38H90.75a.86.86,0,0,1,0-1.72H104a.86.86,0,0,1,0,1.72Z"/><path id="Path_221" data-name="Path 221" class="cls-3" d="M84.38,120.3h-10a1.89,1.89,0,0,1-1.89-1.88v-8.65a1.89,1.89,0,0,1,1.89-1.88h10a1.88,1.88,0,0,1,1.88,1.88v8.65A1.88,1.88,0,0,1,84.38,120.3Z"/><path id="Path_222" data-name="Path 222" class="cls-4" d="M125.53,113H90.75a.86.86,0,0,1,0-1.72h34.78a.86.86,0,0,1,0,1.72Z"/><path id="Path_223" data-name="Path 223" class="cls-4" d="M104,117H90.75a.86.86,0,0,1,0-1.72H104a.86.86,0,0,1,0,1.72Z"/></g></g></g></svg>