<svg xmlns="http://www.w3.org/2000/svg" xmlns:xlink="http://www.w3.org/1999/xlink" viewBox="0 0 148.67 150.59"><defs><style>.cls-1{fill:none;}.cls-2{clip-path:url(#clip-path);}.cls-3{fill:#09c;}.cls-4{fill:#8cc63f;}.cls-5{fill:#f2f2f2;}.cls-6{fill:#fff;}</style><clipPath id="clip-path" transform="translate(-0.46 0.49)"><rect class="cls-1" width="149.6" height="149.6"/></clipPath></defs><g id="Layer_2" data-name="Layer 2"><g id="Layer_1-2" data-name="Layer 1"><g id="Group_468" data-name="Group 468"><g class="cls-2"><g id="Group_467" data-name="Group 467"><path id="Path_1343" data-name="Path 1343" class="cls-3" d="M133.37,150.09H16.22A15.82,15.82,0,0,1,.47,134.2V15.39A15.81,15.81,0,0,1,16.22-.49H133.37a15.82,15.82,0,0,1,15.76,15.88V134.2a15.82,15.82,0,0,1-15.76,15.89" transform="translate(-0.46 0.49)"/><path id="Path_1344" data-name="Path 1344" class="cls-4" d="M62.16,89.5a1.09,1.09,0,0,1,1.53-.24h0c1,.71,2,1.38,3,2a1.12,1.12,0,0,1,.37,1.52v0a1.1,1.1,0,0,1-1.51.37h0c-1.07-.67-2.12-1.38-3.12-2.13a1.11,1.11,0,0,1-.3-1.46.47.47,0,0,1,.06-.09M71.84,94c1.09.48,2.21.92,3.34,1.31a1.11,1.11,0,0,1-.71,2.11h0C73.28,97,72.1,96.55,71,96a1.13,1.13,0,0,1-.56-1.49l0-.1a1.12,1.12,0,0,1,1.4-.46m9,2.81c1.17.22,2.36.4,3.54.52a1.12,1.12,0,0,1-.22,2.22c-1.25-.13-2.5-.31-3.73-.55a1.12,1.12,0,0,1-.88-1.32,1.11,1.11,0,0,1,1.29-.87m9.36.71c1.19,0,2.39-.14,3.57-.29A1.12,1.12,0,0,1,94,99.44c-1.24.15-2.51.25-3.76.3a1.12,1.12,0,0,1-.08-2.23m9.28-1.41c1.15-.31,2.3-.67,3.42-1.08a1.11,1.11,0,0,1,1.42.66h0a1.11,1.11,0,0,1-.67,1.42,37.61,37.61,0,0,1-3.6,1.14,1.1,1.1,0,0,1-1.35-.78h0a1.12,1.12,0,0,1,.78-1.36m8.75-3.45c1-.55,2.09-1.17,3.09-1.81a1.11,1.11,0,0,1,1.53.33h0a1.13,1.13,0,0,1-.33,1.54c-1.06.68-2.16,1.32-3.26,1.91a1.1,1.1,0,0,1-1.49-.46h0a1.14,1.14,0,0,1,0-1.09,1.16,1.16,0,0,1,.43-.42m23.4-34a1.1,1.1,0,0,1,1,1.22c-.13,1.25-.32,2.52-.55,3.76a1.11,1.11,0,0,1-2.19-.31.43.43,0,0,1,0-.11c.22-1.18.4-2.38.52-3.58a1.15,1.15,0,0,1,.15-.44,1.12,1.12,0,0,1,1.07-.55M116,87.35c.9-.78,1.78-1.61,2.62-2.47a1.1,1.1,0,0,1,1.55,0h0a1.13,1.13,0,0,1,0,1.58c-.88.9-1.81,1.77-2.76,2.59a1.1,1.1,0,0,1-1.55-.11h0a1.12,1.12,0,0,1,.12-1.57m13.8-19.17a1.11,1.11,0,0,1,.69,1.41c-.41,1.19-.87,2.39-1.37,3.54a1.11,1.11,0,0,1-1.45.58h0a1.12,1.12,0,0,1-.57-1.46c.48-1.1.92-2.24,1.31-3.36a.78.78,0,0,1,.09-.21,1.11,1.11,0,0,1,1.31-.49m-7.42,12.25c.71-1,1.39-2,2-3a1.09,1.09,0,0,1,1.51-.37h0a1.12,1.12,0,0,1,.37,1.52v0c-.65,1.08-1.37,2.14-2.11,3.15a1.1,1.1,0,0,1-1.54.24h0a1.12,1.12,0,0,1-.29-1.46l.06-.1" transform="translate(-0.46 0.49)"/><path id="Path_1345" data-name="Path 1345" class="cls-4" d="M130.62,51.35a1.14,1.14,0,0,0-.15.65c0,.57.08,1.16.1,1.74a1.11,1.11,0,1,0,2.21,0v-.06c0-.6-.06-1.22-.1-1.82a1.11,1.11,0,0,0-1.18-1,1.08,1.08,0,0,0-.88.55" transform="translate(-0.46 0.49)"/><path id="Path_1346" data-name="Path 1346" class="cls-4" d="M115.1,21.17a1.12,1.12,0,0,0,.25,1.43c.44.36.88.74,1.31,1.13a1.09,1.09,0,0,0,1.55-.08h0a1.11,1.11,0,0,0-.09-1.57c-.45-.41-.91-.81-1.37-1.19a1.1,1.1,0,0,0-1.55.14h0a.71.71,0,0,0-.1.14" transform="translate(-0.46 0.49)"/><path id="Path_1347" data-name="Path 1347" class="cls-4" d="M51.7,30.79a1.1,1.1,0,0,1,1.52-.33h0A1.11,1.11,0,0,1,53.55,32c-.63,1-1.24,2-1.8,3.06a1.11,1.11,0,0,1-1.49.45h0A1.12,1.12,0,0,1,49.8,34c.25-.45.5-.9.76-1.34.36-.63.75-1.26,1.14-1.87m-3,8.09a1.12,1.12,0,0,1,.65,1.44c-.42,1.1-.79,2.24-1.11,3.37a1.1,1.1,0,0,1-1.36.77h0a1.13,1.13,0,0,1-.76-1.38c.34-1.19.73-2.38,1.17-3.55a.89.89,0,0,1,.08-.17,1.1,1.1,0,0,1,1.34-.48M55.34,26c.8-.94,1.66-1.84,2.55-2.71a1.09,1.09,0,0,1,1.55,0h0a1.12,1.12,0,0,1,0,1.58c-.84.82-1.66,1.69-2.42,2.58a1.11,1.11,0,0,1-1.56.11h0a1.12,1.12,0,0,1-.23-1.41.88.88,0,0,1,.12-.17M46.13,48.08a1.11,1.11,0,0,1,.94,1.26c-.16,1.17-.28,2.36-.34,3.54a1.11,1.11,0,0,1-1.17,1,1.09,1.09,0,0,1-1-1.16c.07-1.24.19-2.5.36-3.73a1.25,1.25,0,0,1,.14-.41,1.1,1.1,0,0,1,1.11-.54M62.49,19.32c1-.73,2-1.43,3.08-2.08a1.09,1.09,0,0,1,1.51.36h0a1.12,1.12,0,0,1-.37,1.53c-1,.62-2,1.28-2.92,2a1.1,1.1,0,0,1-1.54-.23h0a1.12,1.12,0,0,1-.06-1.23,1,1,0,0,1,.3-.33m8.42-4.89c1.13-.5,2.3-.95,3.46-1.35a1.09,1.09,0,0,1,1.4.69h0a1.12,1.12,0,0,1-.69,1.42c-1.1.38-2.21.81-3.28,1.29a1.12,1.12,0,0,1-1.46-.57h0a1.12,1.12,0,0,1,.06-1,1.19,1.19,0,0,1,.51-.46m9.28-2.92c1.21-.24,2.45-.42,3.67-.56a1.12,1.12,0,0,1,.24,2.22c-1.16.12-2.33.3-3.48.53a1.1,1.1,0,0,1-1.3-.87h0a1.07,1.07,0,0,1,.13-.78,1.12,1.12,0,0,1,.74-.53m9.69-.81c1.23,0,2.48.13,3.7.26a1.12,1.12,0,0,1-.25,2.22c-1.16-.13-2.34-.22-3.51-.25a1.12,1.12,0,0,1,.06-2.23m9.64,1.36c1.19.31,2.38.67,3.55,1.08a1.11,1.11,0,0,1-.72,2.11h0c-1.11-.38-2.24-.73-3.37-1a1.12,1.12,0,0,1-.8-1.37,1.11,1.11,0,0,1,.12-.27,1.09,1.09,0,0,1,1.22-.52m9.1,3.45c.81.42,1.61.86,2.39,1.32l.84.51a1.11,1.11,0,1,1-1.16,1.9l-.8-.48c-.74-.44-1.5-.86-2.27-1.26a1.11,1.11,0,0,1-.49-1.5l0-.06a1.12,1.12,0,0,1,1.46-.43" transform="translate(-0.46 0.49)"/><path id="Path_1348" data-name="Path 1348" class="cls-4" d="M44.75,58.21a1.12,1.12,0,0,0-.15.65c0,.6.11,1.21.19,1.82A1.1,1.1,0,1,0,47,60.4h0c-.07-.57-.13-1.15-.17-1.73a1.11,1.11,0,0,0-1.18-1,1.08,1.08,0,0,0-.88.55" transform="translate(-0.46 0.49)"/><path id="Path_1349" data-name="Path 1349" class="cls-4" d="M59.2,70.58a.51.51,0,0,0,.5.34L66,70.76a27.73,27.73,0,0,0,6,6.56l-.61,6.31a.54.54,0,0,0,.3.53l6.86,3.17a.52.52,0,0,0,.59-.11l4.34-4.59a27.24,27.24,0,0,0,8.87.32l4,4.9A.5.5,0,0,0,97,88L104,85.36a.51.51,0,0,0,.33-.5l-.15-6.34a27.32,27.32,0,0,0,6.51-6.09L117,73a.52.52,0,0,0,.52-.3l3.15-6.92a.52.52,0,0,0-.11-.59L116,60.86a27.73,27.73,0,0,0,.32-9l4.86-4a.51.51,0,0,0,.16-.58l-2.63-7.13a.52.52,0,0,0-.5-.34l-6.29.15a27.51,27.51,0,0,0-6-6.56l.62-6.31a.52.52,0,0,0-.3-.52L99.3,23.42a.51.51,0,0,0-.59.12l-4.34,4.58a27.23,27.23,0,0,0-8.87-.32l-4-4.9a.51.51,0,0,0-.58-.16l-7.07,2.65a.53.53,0,0,0-.34.5l.15,6.34a27.67,27.67,0,0,0-6.5,6.09l-6.26-.61a.52.52,0,0,0-.52.3l-3.14,6.92a.52.52,0,0,0,.1.59l4.56,4.37a28,28,0,0,0-.33,9l-4.85,4a.53.53,0,0,0-.16.58Z" transform="translate(-0.46 0.49)"/><path id="Path_1350" data-name="Path 1350" class="cls-5" d="M83,50.59a7.58,7.58,0,0,1,13.46,4,7.66,7.66,0,0,1-1.63,5.62,7.55,7.55,0,0,1-10.61,1.21l0,0A7.69,7.69,0,0,1,83,50.59m11.7,4.15a5.81,5.81,0,0,0-10.32-3,5.91,5.91,0,0,0,.9,8.24,5.78,5.78,0,0,0,8.14-.86l0,0a5,5,0,0,0,.49-.71,5.87,5.87,0,0,0,.76-3.59" transform="translate(-0.46 0.49)"/><path id="Path_1351" data-name="Path 1351" class="cls-5" d="M73,45.79a18.39,18.39,0,0,0-.88,1.71c-.09.19-.17.38-.25.56A19.48,19.48,0,0,0,71,50.92s0,0,0,0l0,.11c0,.08,0,.15,0,.22a.45.45,0,0,0,.34.53h0a.45.45,0,0,0,.53-.34,17.89,17.89,0,0,1,14.93-13.9A17.55,17.55,0,0,1,96.49,39a17.89,17.89,0,1,1-22,26.43.57.57,0,0,0-.14-.13.44.44,0,0,0-.48,0,.45.45,0,0,0-.11.62,18.76,18.76,0,0,0,5.93,5.56c.54.32,1.1.61,1.68.88A18.61,18.61,0,0,0,106,63.25l0-.1a18.85,18.85,0,0,0-9.19-24.92A18.58,18.58,0,0,0,73,45.78" transform="translate(-0.46 0.49)"/><path id="Path_1352" data-name="Path 1352" class="cls-4" d="M17.86,107.56a.7.7,0,0,0,.1.82c.39.42.81.84,1.23,1.25a.69.69,0,0,0,1,0h0a.7.7,0,0,0,0-1c-.4-.38-.8-.78-1.18-1.19a.67.67,0,0,0-1,0,.44.44,0,0,0-.12.15" transform="translate(-0.46 0.49)"/><path id="Path_1353" data-name="Path 1353" class="cls-4" d="M21.84,111a.68.68,0,0,1,.95-.16h0a27.69,27.69,0,0,0,2.4,1.59l.52.3a.69.69,0,0,1,.27.93.7.7,0,0,1-.93.27l-.55-.32A26.57,26.57,0,0,1,22,112a.68.68,0,0,1-.19-.9l0-.06m7,3.25a29.48,29.48,0,0,0,3.28,1.12.69.69,0,0,1-.35,1.33,28.64,28.64,0,0,1-3.45-1.18.68.68,0,0,1-.37-.89l0-.09a.68.68,0,0,1,.85-.29m6.68,1.82a26.74,26.74,0,0,0,3.46.27.69.69,0,1,1,0,1.38h0a29.27,29.27,0,0,1-3.63-.28.7.7,0,0,1-.58-.78.54.54,0,0,1,.09-.25.68.68,0,0,1,.68-.34m6.93.11a26.13,26.13,0,0,0,3.41-.59.68.68,0,0,1,.82.51h0a.69.69,0,0,1-.5.83,29.29,29.29,0,0,1-3.59.62.68.68,0,0,1-.75-.61h0a.62.62,0,0,1,.09-.42.7.7,0,0,1,.51-.34m6.74-1.6a28.14,28.14,0,0,0,3.18-1.4.67.67,0,0,1,.91.28h0a.7.7,0,0,1-.3.93,30.79,30.79,0,0,1-3.32,1.48.68.68,0,0,1-.88-.41h0a.72.72,0,0,1,0-.59.73.73,0,0,1,.35-.3m6.16-3.2a27.92,27.92,0,0,0,2.73-2.14.69.69,0,0,1,1,0h0a.69.69,0,0,1-.06,1,28.3,28.3,0,0,1-2.86,2.25.69.69,0,0,1-1-.18h0a.71.71,0,0,1,0-.74.63.63,0,0,1,.21-.22m5.18-4.61A28.19,28.19,0,0,0,62.65,104a.69.69,0,0,1,1-.19h0a.69.69,0,0,1,.18,1,29.77,29.77,0,0,1-2.23,2.9.68.68,0,0,1-1,.06h0a.7.7,0,0,1-.06-1m6.19-9.37a.68.68,0,0,1,.4.89,29,29,0,0,1-1.25,2.93l-.22.43a.67.67,0,0,1-.9.3h0a.7.7,0,0,1-.29-.93c.07-.13.14-.26.2-.4a28.58,28.58,0,0,0,1.2-2.79,1.17,1.17,0,0,1,0-.11.69.69,0,0,1,.83-.3" transform="translate(-0.46 0.49)"/><path id="Path_1354" data-name="Path 1354" class="cls-4" d="M14.21,72.59a28.32,28.32,0,0,1,2-3,.67.67,0,0,1,1-.12h0a.71.71,0,0,1,.12,1,27.24,27.24,0,0,0-1.94,2.83.68.68,0,0,1-.93.24h0a.68.68,0,0,1-.23-.93h0m-.76,2.85a.7.7,0,0,1,.34.91,28.34,28.34,0,0,0-1.21,3.22.69.69,0,0,1-.83.5.68.68,0,0,1-.5-.82.19.19,0,0,1,0-.1,29.82,29.82,0,0,1,1.27-3.37l0-.06a.68.68,0,0,1,.87-.28m5.16-8.52a30.18,30.18,0,0,1,2.68-2.38.69.69,0,0,1,1,.11h0a.68.68,0,0,1-.12,1,30.66,30.66,0,0,0-2.56,2.28.67.67,0,0,1-1,0h0a.68.68,0,0,1-.11-.83.53.53,0,0,1,.11-.14M11.21,82.1a.69.69,0,0,1,.55.8,28,28,0,0,0-.41,3.42.68.68,0,0,1-.72.64.67.67,0,0,1-.64-.72,30.66,30.66,0,0,1,.42-3.58.6.6,0,0,1,.09-.22.67.67,0,0,1,.71-.33m13-19.61a30.1,30.1,0,0,1,3.18-1.67.67.67,0,0,1,.89.35h0a.69.69,0,0,1-.35.91,28,28,0,0,0-3,1.59.69.69,0,0,1-.94-.23h0a.68.68,0,0,1,0-.7.69.69,0,0,1,.24-.24m6.51-2.94a31.53,31.53,0,0,1,3.48-.85.69.69,0,0,1,.24,1.36,26.63,26.63,0,0,0-3.31.81.69.69,0,0,1-.86-.45h0a.71.71,0,0,1,.07-.55.65.65,0,0,1,.38-.31m7-1.27a30.54,30.54,0,0,1,3.58,0A.68.68,0,0,1,42,59a.69.69,0,0,1-.73.65,25.86,25.86,0,0,0-3.41,0,.7.7,0,0,1-.7-.68.68.68,0,0,1,.62-.7" transform="translate(-0.46 0.49)"/><path id="Path_1355" data-name="Path 1355" class="cls-4" d="M10.09,89.49a.65.65,0,0,0-.09.39c0,.59.09,1.18.17,1.75a.67.67,0,0,0,.76.59.67.67,0,0,0,.59-.76h0c-.07-.55-.12-1.11-.15-1.67a.7.7,0,0,0-.72-.65.73.73,0,0,0-.56.35" transform="translate(-0.46 0.49)"/><path id="Path_1356" data-name="Path 1356" class="cls-4" d="M19.75,98.26a.36.36,0,0,0,.33.23l4.21-.1a18.55,18.55,0,0,0,4,4.39l-.4,4.22a.33.33,0,0,0,.2.35l4.59,2.12a.35.35,0,0,0,.39-.07l2.9-3.07a18.23,18.23,0,0,0,5.94.21l2.67,3.28a.35.35,0,0,0,.39.11l4.73-1.77a.37.37,0,0,0,.23-.34l-.1-4.24a18.33,18.33,0,0,0,4.35-4.08l4.19.42a.35.35,0,0,0,.34-.21l2.11-4.62a.35.35,0,0,0-.08-.4l-3-2.93a18.76,18.76,0,0,0,.21-6l3.25-2.7a.34.34,0,0,0,.11-.39l-1.76-4.77a.35.35,0,0,0-.33-.23l-4.21.1a18.3,18.3,0,0,0-4-4.38l.41-4.23a.34.34,0,0,0-.2-.35l-4.59-2.12a.34.34,0,0,0-.39.08l-2.91,3.07a18.17,18.17,0,0,0-5.93-.22l-2.68-3.28a.34.34,0,0,0-.38-.1L29.56,68a.35.35,0,0,0-.23.33l.1,4.24a18.54,18.54,0,0,0-4.35,4.08l-4.19-.41a.32.32,0,0,0-.34.2L18.44,81.1a.34.34,0,0,0,.08.39l3,2.93a18.81,18.81,0,0,0-.21,6L18.1,93.1a.34.34,0,0,0-.11.39Z" transform="translate(-0.46 0.49)"/><path id="Path_1357" data-name="Path 1357" class="cls-6" d="M35.62,84.83A5.14,5.14,0,0,1,42.84,84l0,0a5.24,5.24,0,0,1,.79,7.32,5.18,5.18,0,0,1-8.49-5.89,5.39,5.39,0,0,1,.43-.63M42,85.1a3.78,3.78,0,0,0-5.31.55l0,0a3.85,3.85,0,0,0,.58,5.39,3.79,3.79,0,0,0,5.32-.56l0,0A3.85,3.85,0,0,0,42,85.1" transform="translate(-0.46 0.49)"/><path id="Path_1358" data-name="Path 1358" class="cls-5" d="M28.66,81.49a13.55,13.55,0,0,0-1.45,3.67l0,.12a.67.67,0,0,0,.32.74.69.69,0,0,0,.94-.24,1.67,1.67,0,0,0,.08-.2,11.54,11.54,0,0,1,.77-2.35h0l.06-.12a11.47,11.47,0,0,1,6.29-5.88h0l.07,0a11.34,11.34,0,0,1,8.8.33,11.63,11.63,0,0,1-.78,21.41,11.46,11.46,0,0,1-13.49-4.3.69.69,0,0,0-1-.18h0a.69.69,0,0,0-.18,1,12.82,12.82,0,0,0,22.26-1.84l.05-.11a12.92,12.92,0,0,0-6.34-17.19,12.84,12.84,0,0,0-16.46,5.22" transform="translate(-0.46 0.49)"/><path id="Path_1359" data-name="Path 1359" class="cls-5" d="M73.77,125.85a2.06,2.06,0,0,0,.6,1.59,3.05,3.05,0,0,0,3.45,0,1.87,1.87,0,0,0,.61-1.49,1.72,1.72,0,0,0-.21-.84,2.11,2.11,0,0,0-.52-.59,3.66,3.66,0,0,0-.74-.43l-.8-.35-1.4-.6a5.74,5.74,0,0,1-2.2-1.46,3.74,3.74,0,0,1,.24-4.92,4.45,4.45,0,0,1,3.12-1,4.76,4.76,0,0,1,3.18.89,3.13,3.13,0,0,1,1,2.51v.56h-2v-.55A1.53,1.53,0,0,0,77.5,118a2.45,2.45,0,0,0-1.55-.45,2.92,2.92,0,0,0-.83.12,1.86,1.86,0,0,0-.66.33,1.52,1.52,0,0,0-.45.58,1.86,1.86,0,0,0-.17.8,1.75,1.75,0,0,0,.18.78,2,2,0,0,0,.48.6,3.61,3.61,0,0,0,.74.48c.29.15.61.3,1,.44l1.39.58a8,8,0,0,1,1.13.57,4.39,4.39,0,0,1,.93.74,3.67,3.67,0,0,1,.61,1,3,3,0,0,1,.23,1.22,3.9,3.9,0,0,1-1.08,2.92,4.61,4.61,0,0,1-3.31,1,6,6,0,0,1-2.1-.31,3.4,3.4,0,0,1-1.34-.86,3.24,3.24,0,0,1-.72-1.26,5.15,5.15,0,0,1-.21-1.51v-.58h2Z" transform="translate(-0.46 0.49)"/><path id="Path_1360" data-name="Path 1360" class="cls-5" d="M83.78,125.06a8.16,8.16,0,0,0,.12,1.39,2.56,2.56,0,0,0,.31.93,1.29,1.29,0,0,0,.55.51,2,2,0,0,0,.84.16,1.76,1.76,0,0,0,1.41-.5,2.34,2.34,0,0,0,.48-1.32h2c-.19,2.36-1.48,3.53-3.89,3.53a4.59,4.59,0,0,1-1.68-.27,2.73,2.73,0,0,1-1.2-.89A4.49,4.49,0,0,1,82,127a11.27,11.27,0,0,1-.24-2.52A11.92,11.92,0,0,1,82,122a4.13,4.13,0,0,1,.7-1.64,2.66,2.66,0,0,1,1.19-.93,4.89,4.89,0,0,1,1.74-.29,4.82,4.82,0,0,1,1.76.29,2.53,2.53,0,0,1,1.19.9,4.26,4.26,0,0,1,.69,1.59,11.59,11.59,0,0,1,.26,2.35v.81Zm1.82-4.2a1.93,1.93,0,0,0-.79.13,1.32,1.32,0,0,0-.55.44,2.07,2.07,0,0,0-.32.8,7.87,7.87,0,0,0-.15,1.2h3.66a6.77,6.77,0,0,0-.13-1.19,2.39,2.39,0,0,0-.33-.81,1.22,1.22,0,0,0-.56-.44,2.18,2.18,0,0,0-.84-.13" transform="translate(-0.46 0.49)"/><path id="Path_1361" data-name="Path 1361" class="cls-5" d="M93,119.38v.93a5.08,5.08,0,0,1,1.4-.83,4.06,4.06,0,0,1,1.53-.31,1.8,1.8,0,0,1,.61.08V121a1.22,1.22,0,0,0-.27,0H96a4.3,4.3,0,0,0-1.51.28A7.67,7.67,0,0,0,93,122v7.55H90.93V119.38Z" transform="translate(-0.46 0.49)"/><path id="Path_1362" data-name="Path 1362" class="cls-5" d="M101.35,127.18c.4-1.29.81-2.59,1.21-3.9s.8-2.62,1.2-3.91h2.06l-3.28,10.13h-2.39l-3.26-10.13h2Z" transform="translate(-0.46 0.49)"/><path id="Path_1363" data-name="Path 1363" class="cls-5" d="M108.84,118.19h-2.06V116h2.06Zm0,11.32h-2.06V119.38h2.06Z" transform="translate(-0.46 0.49)"/><path id="Path_1364" data-name="Path 1364" class="cls-5" d="M112.51,124.44q0,1,.06,1.71a3.6,3.6,0,0,0,.27,1.12,1.21,1.21,0,0,0,.52.6,1.93,1.93,0,0,0,.88.18,2.63,2.63,0,0,0,.84-.13,1.25,1.25,0,0,0,.52-.36,1.47,1.47,0,0,0,.27-.63,5.18,5.18,0,0,0,.12-.88H118a4.35,4.35,0,0,1-1.07,2.82,3.79,3.79,0,0,1-2.73.9,4.55,4.55,0,0,1-1.67-.28,2.67,2.67,0,0,1-1.18-.89,4.29,4.29,0,0,1-.71-1.64,11.26,11.26,0,0,1-.23-2.52,11,11,0,0,1,.23-2.49,4.27,4.27,0,0,1,.71-1.65,2.77,2.77,0,0,1,1.18-.9,4.76,4.76,0,0,1,1.67-.27A3.74,3.74,0,0,1,117,120a4.29,4.29,0,0,1,1.06,2.75H116a4.29,4.29,0,0,0-.12-.8,1.48,1.48,0,0,0-.27-.6,1.3,1.3,0,0,0-.52-.38,2.38,2.38,0,0,0-.84-.13,1.93,1.93,0,0,0-.88.18,1.21,1.21,0,0,0-.52.6,3.54,3.54,0,0,0-.27,1.11c0,.45-.06,1-.06,1.69" transform="translate(-0.46 0.49)"/><path id="Path_1365" data-name="Path 1365" class="cls-5" d="M121.63,125.06a8.16,8.16,0,0,0,.12,1.39,2.56,2.56,0,0,0,.31.93,1.29,1.29,0,0,0,.55.51,2,2,0,0,0,.84.16,1.76,1.76,0,0,0,1.41-.5,2.34,2.34,0,0,0,.48-1.32h2c-.19,2.36-1.49,3.53-3.89,3.53a4.59,4.59,0,0,1-1.68-.27,2.73,2.73,0,0,1-1.2-.89,4.49,4.49,0,0,1-.73-1.64,11.27,11.27,0,0,1-.24-2.52,11.92,11.92,0,0,1,.22-2.46,4.25,4.25,0,0,1,.69-1.64,2.71,2.71,0,0,1,1.19-.93,4.93,4.93,0,0,1,1.74-.29,4.79,4.79,0,0,1,1.76.29,2.53,2.53,0,0,1,1.19.9,4.26,4.26,0,0,1,.69,1.59,11.59,11.59,0,0,1,.26,2.35v.81Zm1.82-4.2a2,2,0,0,0-.8.13,1.35,1.35,0,0,0-.54.44,2.07,2.07,0,0,0-.32.8,7.87,7.87,0,0,0-.15,1.2h3.66a6.77,6.77,0,0,0-.13-1.19,2.39,2.39,0,0,0-.33-.81,1.22,1.22,0,0,0-.56-.44,2.18,2.18,0,0,0-.84-.13" transform="translate(-0.46 0.49)"/><path id="Path_1366" data-name="Path 1366" class="cls-5" d="M78.7,115.1l-2.56-10.77q-.63,2.72-1.26,5.38l-1.27,5.39H71.07l-3.18-13.51H70l2.26,10.88c.44-1.85.87-3.67,1.3-5.44s.86-3.59,1.3-5.44h2.54L80,112.49q.57-2.76,1.14-5.45t1.14-5.45H84.4L81.24,115.1Z" transform="translate(-0.46 0.49)"/><path id="Path_1367" data-name="Path 1367" class="cls-5" d="M87,110.65a8.18,8.18,0,0,0,.12,1.4,2.62,2.62,0,0,0,.31.93,1.27,1.27,0,0,0,.55.5,1.88,1.88,0,0,0,.84.16,1.72,1.72,0,0,0,1.41-.5,2.34,2.34,0,0,0,.48-1.32h2c-.19,2.36-1.48,3.54-3.89,3.54a4.81,4.81,0,0,1-1.68-.27,2.68,2.68,0,0,1-1.2-.9,4.49,4.49,0,0,1-.73-1.64,13.55,13.55,0,0,1,0-5,4.36,4.36,0,0,1,.69-1.65,2.76,2.76,0,0,1,1.19-.92,4.72,4.72,0,0,1,1.74-.29,5,5,0,0,1,1.76.28,2.55,2.55,0,0,1,1.19.91,4.15,4.15,0,0,1,.69,1.58,11.76,11.76,0,0,1,.26,2.36v.81Zm1.82-4.2a2,2,0,0,0-.8.14,1.27,1.27,0,0,0-.54.44,2.09,2.09,0,0,0-.32.79A8.2,8.2,0,0,0,87,109h3.66a6.76,6.76,0,0,0-.13-1.18,2.39,2.39,0,0,0-.33-.81,1.22,1.22,0,0,0-.56-.44,2.18,2.18,0,0,0-.84-.14" transform="translate(-0.46 0.49)"/><path id="Path_1368" data-name="Path 1368" class="cls-5" d="M94.38,115.1V101.59h2.1l0,4.07a2.08,2.08,0,0,1,1-.72,3.87,3.87,0,0,1,1.26-.21,4,4,0,0,1,1.49.28,2.68,2.68,0,0,1,1.11.89,4.69,4.69,0,0,1,.68,1.65,11.52,11.52,0,0,1,.24,2.48,11.83,11.83,0,0,1-.24,2.52,4.81,4.81,0,0,1-.67,1.64,2.66,2.66,0,0,1-1.12.9,3.74,3.74,0,0,1-1.48.27,3.32,3.32,0,0,1-1.32-.24,2.1,2.1,0,0,1-.94-.7v.68Zm5.8-5.07a11,11,0,0,0-.12-1.9,3.27,3.27,0,0,0-.37-1.09,1.17,1.17,0,0,0-.6-.47,2.6,2.6,0,0,0-.79-.1A1.71,1.71,0,0,0,97,107a2.18,2.18,0,0,0-.5,1.51v3a2.19,2.19,0,0,0,.5,1.53,1.69,1.69,0,0,0,1.35.56,2.32,2.32,0,0,0,.79-.11,1.1,1.1,0,0,0,.6-.46,3.33,3.33,0,0,0,.37-1.1,11.43,11.43,0,0,0,.12-1.94" transform="translate(-0.46 0.49)"/></g></g></g></g></g></svg>