<?xml version="1.0" standalone="no"?>
<!DOCTYPE svg PUBLIC "-//W3C//DTD SVG 20010904//EN"
 "http://www.w3.org/TR/2001/REC-SVG-20010904/DTD/svg10.dtd">
<svg version="1.0" xmlns="http://www.w3.org/2000/svg"
 width="808.000000pt" height="808.000000pt" viewBox="0 0 808.000000 808.000000"
 preserveAspectRatio="xMidYMid meet">
<metadata>
Created by potrace 1.14, written by Peter Selinger 2001-2017
</metadata>
<g transform="translate(0.000000,808.000000) scale(0.100000,-0.100000)"
fill="#000000" stroke="none">
<path d="M6209 7626 c-2 -2 -23 -6 -46 -10 -24 -3 -76 -17 -117 -30 -173 -58
-322 -173 -423 -326 -102 -155 -143 -299 -137 -488 5 -174 61 -333 169 -476
38 -51 43 -62 31 -75 -7 -9 -16 -23 -20 -31 -3 -8 -15 -28 -25 -45 -101 -163
-401 -671 -401 -678 0 -9 -29 -6 -80 8 -23 6 -87 21 -135 30 -86 18 -369 24
-460 11 -229 -34 -513 -145 -650 -253 -6 -4 -28 -21 -50 -38 -66 -49 -86 -66
-167 -148 -73 -73 -197 -231 -196 -251 0 -5 -5 -12 -10 -15 -32 -21 -137 -265
-172 -402 -22 -86 -24 -93 -37 -189 -9 -65 -9 -305 0 -374 10 -76 29 -169 38
-187 7 -13 2 -19 -19 -27 -25 -10 -71 -25 -82 -27 -8 -2 -364 -116 -380 -122
-8 -3 -22 -8 -30 -10 -20 -5 -32 -9 -50 -16 -8 -3 -103 -33 -210 -67 -107 -34
-249 -80 -315 -101 -108 -36 -121 -38 -130 -23 -118 193 -236 324 -375 416
-75 50 -185 107 -214 112 -6 1 -20 7 -31 13 -22 11 -128 37 -215 52 -68 12
-287 7 -358 -8 -29 -6 -78 -18 -110 -28 -31 -9 -62 -18 -67 -19 -22 -4 -200
-96 -203 -105 -2 -5 -9 -9 -15 -9 -15 0 -132 -93 -184 -146 -31 -32 -108 -124
-140 -170 -29 -39 -79 -137 -102 -199 -13 -33 -27 -69 -31 -80 -5 -11 -14 -47
-21 -80 -7 -33 -14 -67 -17 -75 -9 -33 -10 -288 -1 -335 5 -27 11 -59 13 -70
8 -44 38 -148 46 -163 5 -10 23 -48 40 -86 17 -38 54 -103 83 -145 51 -76 216
-251 236 -251 6 0 11 -4 11 -10 0 -5 5 -10 10 -10 6 0 20 -9 32 -19 22 -21
196 -112 238 -125 14 -5 30 -10 35 -12 99 -37 227 -57 360 -55 55 0 111 3 125
6 14 3 43 8 65 10 53 6 238 65 247 79 4 6 8 8 8 4 0 -10 101 46 180 100 86 59
230 205 284 290 97 151 154 301 180 477 2 17 5 78 5 136 l1 107 27 8 c16 4 30
8 33 9 3 1 25 7 50 14 25 6 61 18 80 26 33 13 349 114 374 120 6 1 20 5 31 9
32 12 59 21 280 91 116 36 237 75 270 86 126 43 108 47 171 -43 141 -202 312
-354 527 -472 37 -20 67 -33 67 -29 0 5 4 3 8 -3 17 -25 223 -92 367 -119 133
-25 406 -25 515 0 14 3 39 8 55 11 74 13 185 47 260 80 22 10 42 18 45 19 17
3 70 31 70 37 0 5 8 8 17 8 9 0 24 6 32 14 9 7 36 24 60 38 50 30 37 37 136
-77 33 -39 62 -72 65 -75 3 -3 48 -54 100 -115 52 -60 102 -117 110 -125 8 -9
40 -45 70 -80 30 -35 64 -74 75 -86 35 -39 61 -70 68 -81 4 -6 -9 -35 -29 -65
-64 -95 -131 -250 -148 -343 -3 -16 -8 -41 -11 -54 -20 -102 -20 -245 1 -361
3 -19 7 -44 9 -55 2 -11 4 -20 5 -20 1 0 3 -10 5 -21 3 -12 10 -34 16 -50 7
-16 13 -35 15 -42 5 -24 65 -147 81 -164 9 -10 13 -18 9 -18 -4 0 4 -14 18
-31 14 -17 26 -34 26 -38 0 -14 174 -188 230 -229 72 -53 228 -134 270 -140 3
0 19 -6 35 -12 37 -14 63 -21 159 -39 54 -10 283 -8 331 3 160 36 272 78 355
131 25 16 54 35 66 41 76 41 231 206 301 319 42 69 107 222 119 280 27 138 31
178 29 287 -1 68 -4 125 -5 128 -1 3 -3 10 -4 15 -12 73 -18 103 -25 120 -5
11 -14 38 -21 60 -15 48 -67 160 -90 195 -9 14 -30 45 -46 70 -39 60 -188 210
-244 245 -25 15 -47 31 -50 34 -18 22 -222 113 -282 125 -158 33 -181 35 -308
32 -74 -2 -146 -7 -160 -11 -14 -4 -44 -11 -68 -16 -23 -4 -51 -13 -61 -18
-10 -6 -20 -8 -22 -6 -3 2 -49 -18 -102 -44 l-98 -47 -62 70 c-34 39 -66 76
-72 82 -5 6 -30 35 -55 64 -25 29 -54 62 -65 74 -11 12 -49 55 -85 96 -36 41
-69 80 -75 86 -5 6 -32 37 -60 69 -27 32 -65 74 -82 93 -18 19 -30 40 -26 46
7 12 65 88 73 96 6 6 49 74 70 110 39 68 84 161 102 210 11 30 23 64 28 75 12
26 46 167 56 230 4 28 9 57 11 65 14 63 7 321 -11 415 -3 17 -8 44 -11 60 -20
103 -73 262 -121 357 -29 58 -92 165 -111 188 -6 8 -32 42 -57 75 -53 72 -143
165 -211 220 -27 22 -61 50 -75 63 -14 12 -33 25 -42 28 -10 3 -18 9 -18 13 0
4 20 40 45 80 25 40 45 77 45 82 0 5 4 9 9 9 5 0 14 12 20 28 12 29 260 444
286 477 8 10 15 24 15 31 0 24 26 35 56 23 84 -32 299 -45 394 -24 14 3 37 7
51 10 85 16 309 129 309 156 0 5 5 9 11 9 15 0 122 112 160 166 63 91 115 218
136 330 9 49 10 226 1 279 -10 62 -38 157 -50 172 -6 7 -8 13 -4 13 9 0 -62
128 -97 175 -91 120 -228 224 -367 279 -50 20 -51 20 -136 39 -54 12 -256 22
-265 13z"/>
</g>
</svg>
